<svg width="107" height="107" viewBox="0 0 107 107" fill="none" xmlns="http://www.w3.org/2000/svg">
<mask id="mask0_69_351" style="mask-type:alpha" maskUnits="userSpaceOnUse" x="0" y="0" width="107" height="107">
<circle cx="53.5" cy="53.5" r="53.5" fill="#D9D9D9"/>
</mask>
<g mask="url(#mask0_69_351)">
<g style="mix-blend-mode:soft-light" opacity="0.75">
<g style="mix-blend-mode:soft-light">
<path d="M89.2823 51.7776C89.2823 77.7035 71.2857 116.793 53.269 116.793C35.2522 116.793 14.5477 79.0239 14.5477 53.1181C14.5477 27.2124 35.2455 22.9562 53.269 22.9562C71.2924 22.9562 89.2823 25.8786 89.2823 51.7776Z" fill="black"/>
</g>
<g style="mix-blend-mode:soft-light">
<path d="M25.6138 120.017C25.8015 119.307 25.949 118.589 26.1567 117.906C26.3645 117.222 26.5723 116.565 26.7734 115.895L27.3632 113.931C27.4638 113.609 27.5576 113.261 27.6581 112.979C27.7587 112.698 27.8726 112.363 27.9799 112.068C28.4155 110.861 28.8244 109.728 29.2064 108.683C29.3941 108.16 29.5684 107.651 29.7561 107.181L30.3124 105.841L31.2306 103.683C31.7333 102.483 32.0283 101.799 32.0283 101.799C32.1018 101.614 32.1892 101.435 32.2897 101.263C33.1725 99.7155 34.6098 98.5608 36.3113 98.0323C37.8797 97.5631 42.9134 96.417 44.3544 97.362C45.7955 98.3071 45.3867 101.062 45.762 102.617C46.1373 104.172 43.9121 105.841 43.0809 107.309L42.2297 108.931C41.9616 109.447 41.6332 110.077 41.2511 110.794L40.6479 111.94C40.4468 112.349 40.2591 112.792 40.0513 113.241L38.7108 116.176L38.3489 116.967L38.0271 117.798C37.8059 118.355 37.5781 118.924 37.3569 119.508C37.1357 120.091 36.8944 120.674 36.6866 121.277C36.4788 121.88 36.271 122.49 36.0163 123.114C35.7616 123.737 35.6343 124.246 35.4466 124.816L25.0642 122.282V122.162C25.2653 121.445 25.4396 120.727 25.6138 120.017Z" fill="black"/>
</g>
<g style="mix-blend-mode:soft-light">
<path d="M76.5744 125.983C76.2996 125.916 76.0114 125.855 75.75 125.768L74.9859 125.48C74.4753 125.291 73.9781 125.067 73.4979 124.81C73.0421 124.562 72.5863 124.307 72.1574 124.039C71.7365 123.777 71.3314 123.49 70.9442 123.181C70.5573 122.905 70.188 122.605 69.8382 122.283C67.5122 120.138 65.6093 117.576 64.2281 114.729C63.7011 113.673 63.2291 112.59 62.8139 111.485C62.4586 110.513 62.1972 109.648 61.9626 108.944C61.594 107.517 61.3862 106.699 61.3862 106.699C61.3311 106.479 61.293 106.255 61.2723 106.029C61.1186 105.08 61.1645 104.11 61.4068 103.179C61.6492 102.249 62.0827 101.38 62.6798 100.627C63.2028 99.9876 63.8696 99.4815 64.6256 99.1495C65.3817 98.8175 66.2055 98.669 67.0298 98.7162C68.6358 98.8267 70.1518 99.4981 71.3128 100.613C71.8723 101.105 72.3398 101.693 72.6936 102.349C73.0545 102.982 73.2826 103.682 73.3638 104.407L73.6252 105.975C73.7526 106.458 73.8732 107.054 74.0542 107.725C74.2352 108.395 74.4631 109.125 74.7781 109.869C75.3814 111.461 76.2569 112.935 77.3653 114.226C77.4936 114.37 77.6325 114.505 77.7809 114.628C77.9109 114.763 78.0497 114.888 78.1965 115.004C78.3372 115.098 78.4713 115.198 78.612 115.305C78.7401 115.391 78.8746 115.467 79.0142 115.533L79.2086 115.654C79.2756 115.687 79.3426 115.687 79.4029 115.714C79.4633 115.741 79.6576 115.835 79.785 115.855H79.8721V126.418C79.3136 126.418 78.7572 126.385 78.2032 126.318C77.6546 126.235 77.1109 126.124 76.5744 125.983Z" fill="black"/>
</g>
<g style="mix-blend-mode:soft-light">
<path d="M86.6284 103.897C86.796 102.765 86.8697 102.108 86.8697 102.108C86.9884 101.035 87.4779 100.038 88.2538 99.2874C89.0296 98.5373 90.0431 98.0816 91.1192 97.9991C93.4785 97.8651 95.5295 99.9429 95.4424 102.691C95.4424 102.691 95.4424 103.455 95.3351 104.802C95.2994 105.298 95.2525 105.868 95.1944 106.511L86.3938 105.312C86.4876 104.796 86.5681 104.3 86.6284 103.897Z" fill="black"/>
</g>
<g style="mix-blend-mode:soft-light">
<path d="M85.6831 108.455C85.206 110.362 84.4469 112.188 83.431 113.871C83.2058 114.224 82.9525 114.558 82.6736 114.87L89.9393 121.727C90.6985 120.806 91.359 119.809 91.9098 118.751C93.2254 116.149 94.1449 113.366 94.6378 110.493C94.9193 108.991 95.0869 107.664 95.1941 106.552L86.3936 105.352C86.226 106.243 86.0048 107.309 85.6831 108.455Z" fill="black"/>
</g>
<g style="mix-blend-mode:soft-light">
<path d="M66.5138 97.3353C62.3179 96.397 60.535 95.2642 53.7787 95.2642C51.3061 95.2317 48.8363 95.445 46.4058 95.901C44.3012 96.3031 42.5786 96.846 40.3734 97.3353C37.6924 97.9252 35.6012 100.76 35.6012 103.475L36.2714 123.496C33.201 128.026 31.5874 133.386 31.6466 138.858H75.4551C75.4551 130.373 69.9388 123.496 69.9388 123.496L71.2794 103.475C71.3129 100.76 69.168 97.9252 66.5138 97.3353Z" fill="black"/>
</g>
<g style="mix-blend-mode:soft-light">
<g style="mix-blend-mode:soft-light">
<path d="M77.6268 95.325C77.6268 95.325 66.5607 95.01 65.6156 94.8625C65.6156 94.896 65.6156 94.9295 65.6156 94.9564C65.6156 99.0919 62.3045 103.113 59.2012 104.092C55.7386 105.178 52.0266 105.178 48.5641 104.092C45.4607 103.113 42.1563 99.0919 42.1563 94.9564C41.2515 95.0971 30.6747 95.4054 30.6747 95.4054V128.382H77.5932L77.6268 95.325Z" fill="black"/>
</g>
<g style="mix-blend-mode:soft-light">
<path d="M50.4278 95.4321H30.0316V140.755H50.4278V95.4321Z" fill="black"/>
</g>
<g style="mix-blend-mode:soft-light">
<path d="M77.5263 95.7608H57.1301V141.084H77.5263V95.7608Z" fill="black"/>
</g>
<g style="mix-blend-mode:soft-light">
<path d="M47.4113 108.073C47.9665 108.073 48.4167 107.623 48.4167 107.068C48.4167 106.513 47.9665 106.063 47.4113 106.063C46.856 106.063 46.4059 106.513 46.4059 107.068C46.4059 107.623 46.856 108.073 47.4113 108.073Z" fill="black"/>
</g>
</g>
<g style="mix-blend-mode:soft-light">
<path d="M60.3273 93.4813L60.5686 95.9814C60.5686 95.9814 57.6663 101.096 53.7788 101.096C49.8913 101.096 46.989 95.9814 46.989 95.9814L47.2303 93.4813C47.2939 92.8153 47.6041 92.1971 48.1002 91.7481C48.5963 91.2992 49.2423 91.0519 49.9114 91.055H57.673C58.3375 91.0586 58.9769 91.3088 59.4673 91.7571C59.9577 92.2054 60.2642 92.8199 60.3273 93.4813Z" fill="black"/>
</g>
<g style="mix-blend-mode:soft-light">
<g style="mix-blend-mode:soft-light">
<path d="M62.7467 90.7938H57.1299V100.177H62.7467V90.7938Z" fill="black"/>
</g>
<g style="mix-blend-mode:soft-light">
<path d="M50.4274 90.7939H44.8105V100.178H50.4274V90.7939Z" fill="black"/>
</g>
</g>
<g style="mix-blend-mode:soft-light">
<path d="M52.7734 99.7551H50.4275V95.0633H52.7734C53.3956 95.0633 53.9923 95.3105 54.4322 95.7504C54.8722 96.1904 55.1193 96.787 55.1193 97.4092C55.1193 98.0314 54.8722 98.6281 54.4322 99.068C53.9923 99.508 53.3956 99.7551 52.7734 99.7551Z" fill="black"/>
</g>
<g style="mix-blend-mode:soft-light">
<path d="M52.7738 98.4145C53.3291 98.4145 53.7792 97.9644 53.7792 97.4091C53.7792 96.8538 53.3291 96.4037 52.7738 96.4037C52.2186 96.4037 51.7684 96.8538 51.7684 97.4091C51.7684 97.9644 52.2186 98.4145 52.7738 98.4145Z" fill="black"/>
</g>
<g style="mix-blend-mode:soft-light">
<path d="M60.529 91.5645C60.529 93.2334 57.5732 94.5873 53.9269 94.5873C50.2807 94.5873 47.3181 93.2468 47.3181 91.5645C47.3181 89.8821 50.2807 88.5416 53.9269 88.5416C57.5732 88.5416 60.529 89.8955 60.529 91.5645Z" fill="black"/>
</g>
<g style="mix-blend-mode:soft-light">
<path d="M29.944 67.9311C30.9292 71.8991 29.2 75.7397 26.0832 76.5172C22.9665 77.2947 19.6286 74.7142 18.6433 70.7462C17.658 66.7783 19.3806 62.9443 22.504 62.1601C25.6275 61.3759 28.952 63.9698 29.944 67.9311Z" fill="black"/>
</g>
<g style="mix-blend-mode:soft-light">
<path d="M86.1864 70.2366C85.5497 74.2582 82.4531 77.1403 79.276 76.6376C76.0989 76.1349 74.0412 72.4552 74.6847 68.4135C75.3281 64.3718 78.4181 61.5164 81.5951 62.0191C84.7722 62.5218 86.8232 66.2016 86.1864 70.2366Z" fill="black"/>
</g>
<g style="mix-blend-mode:soft-light">
<path d="M24.8162 67.3411C24.8162 81.4167 35.0444 92.7777 47.6655 92.7777H56.9152C69.5363 92.7777 79.7645 81.3832 79.7645 67.3411V40.6244C79.7645 30.5704 72.4318 22.3864 63.3899 22.3864H41.1907C32.1489 22.3998 24.8162 30.5704 24.8162 40.6244V67.3411Z" fill="black"/>
</g>
<g style="mix-blend-mode:soft-light">
<path d="M59.9653 59.9143H68.6788C68.9454 59.9143 69.2012 60.0203 69.3897 60.2088C69.5783 60.3974 69.6842 60.6531 69.6842 60.9197C69.6839 61.1237 69.6207 61.3227 69.5032 61.4895C69.3759 63.3595 67.5863 64.8408 65.3878 64.8408C64.4878 64.8753 63.6022 64.6067 62.873 64.0781C62.1438 63.5494 61.6132 62.7913 61.3662 61.9251H60.0257C59.759 61.9251 59.5033 61.8192 59.3147 61.6307C59.1262 61.4421 59.0203 61.1864 59.0203 60.9197C59.0203 60.6531 59.1262 60.3974 59.3147 60.2088C59.5033 60.0203 59.759 59.9143 60.0257 59.9143H59.9653Z" fill="black"/>
</g>
<g style="mix-blend-mode:soft-light">
<path d="M43.1618 60.1828H34.4483C33.8987 60.1828 33.1748 60.3638 33.1748 60.9201C33.1748 61.1868 33.2807 61.4425 33.4693 61.631C33.6578 61.8196 33.9136 61.9255 34.1802 61.9255H35.4604C35.7074 62.7917 36.2381 63.5498 36.9672 64.0785C37.6964 64.6071 38.582 64.8757 39.482 64.8412C41.6403 64.8412 43.6712 63.4135 43.8655 61.5971V60.9268C43.8789 60.3638 43.698 60.1828 43.1618 60.1828Z" fill="black"/>
</g>
<g style="mix-blend-mode:soft-light">
<path d="M58.0082 77.6161C58.0082 78.8293 55.8834 79.8145 53.2627 79.8145C50.642 79.8145 48.5239 78.8293 48.5239 77.6161C48.5239 76.4029 50.6487 76.7514 53.2694 76.7514C55.8901 76.7514 58.0082 76.3962 58.0082 77.6161Z" fill="black"/>
</g>
<g style="mix-blend-mode:soft-light">
<path d="M55.5685 73.5679C54.5899 73.5679 53.7387 74.5331 53.2628 74.9621C52.7802 74.5331 51.9223 73.5679 50.9504 73.5679C49.449 73.5679 47.5656 74.9085 47.5656 75.7463C47.5656 76.5841 49.449 77.2544 50.9504 77.2544H51.366C52.6282 77.1471 53.8974 77.1471 55.1596 77.2544H55.5685C57.0766 77.2544 58.9601 76.5841 58.9601 75.7463C58.9601 74.9085 57.0766 73.5679 55.5685 73.5679Z" fill="black"/>
</g>
<g style="mix-blend-mode:soft-light">
<path d="M56.6811 69.2847C56.6811 70.0153 55.0389 70.6252 53.0147 70.6252C50.9905 70.6252 49.3484 70.0354 49.3484 69.2847C49.3484 68.534 50.9905 67.9442 53.0147 67.9442C55.0389 67.9442 56.6811 68.5541 56.6811 69.2847Z" fill="black"/>
</g>
<g style="mix-blend-mode:soft-light">
<path d="M42.8734 52.0722C42.7192 52.1393 33.7444 51.5427 33.7444 50.8054C33.7545 50.4531 33.899 50.118 34.1482 49.8687C34.3975 49.6195 34.7326 49.475 35.0849 49.4649H42.297C42.6097 49.47 42.9115 49.5811 43.1528 49.7801C43.3942 49.9791 43.5608 50.2541 43.6254 50.5602C43.6901 50.8662 43.6489 51.1851 43.5086 51.4647C43.3683 51.7443 43.1373 51.9679 42.8533 52.099L42.8734 52.0722Z" fill="black"/>
</g>
<g style="mix-blend-mode:soft-light">
<path d="M64.7174 52.1526C64.3618 52.1526 64.0209 52.0114 63.7695 51.76C63.5181 51.5086 63.3768 51.1676 63.3768 50.8121C63.3853 50.4592 63.5293 50.1232 63.7789 49.8736C64.0285 49.624 64.3645 49.48 64.7174 49.4715H71.983C72.3386 49.4715 72.6795 49.6128 72.9309 49.8642C73.1823 50.1156 73.3236 50.4565 73.3236 50.8121C73.3236 51.3483 64.7174 52.1526 64.7174 52.1526Z" fill="black"/>
</g>
<g style="mix-blend-mode:soft-light">
<path d="M87.7684 104.346C82.1918 101.806 78.7601 98.5486 77.2855 94.3729C74.4503 86.39 79.2963 76.6645 83.9881 67.2607C85.1142 65.0019 86.1799 62.8637 87.1317 60.7591C90.8047 52.6489 89.4039 40.1886 83.6463 29.7526C78.0563 19.6249 69.611 13.311 59.8586 11.9638C57.0031 11.5588 54.1231 11.3505 51.239 11.3404C32.438 11.3404 23.5101 21.0325 19.3344 29.1561C13.55 40.4098 11.7201 61.9991 17.6989 69.553C19.2874 71.5638 22.4511 73.7287 26.1107 76.2556C35.729 82.8845 48.8997 91.9599 42.9612 105.204C42.9289 105.28 42.9254 105.364 42.9514 105.442C42.9773 105.52 43.0309 105.586 43.102 105.627C43.1723 105.669 43.2561 105.684 43.3368 105.668C43.4174 105.652 43.4891 105.606 43.5376 105.539C51.4401 95.0431 46.0913 85.8337 43.6784 82.6164C47.8852 85.0805 51.1782 88.8439 53.0621 93.3407C53.0852 93.4295 53.1427 93.5056 53.2219 93.5521C53.3011 93.5986 53.3955 93.6118 53.4844 93.5887C53.5732 93.5656 53.6493 93.5081 53.6958 93.4289C53.7423 93.3497 53.7555 93.2553 53.7324 93.1664C52.8543 85.6326 47.9279 80.0225 42.7132 74.0839C40.9772 72.0731 39.1809 70.0624 37.465 67.8706C31.4729 60.243 23.5972 45.3028 37.5991 30.4631C38.7854 34.2702 46.393 56.5096 64.7649 66.0944C64.3896 67.6896 62.1911 76.5237 58.5918 79.9823C58.5335 80.0361 58.4966 80.1091 58.488 80.188C58.4794 80.2668 58.4996 80.3461 58.5449 80.4112C58.5878 80.4783 58.654 80.527 58.7308 80.5481C58.8075 80.5691 58.8893 80.561 58.9604 80.5252C61.2326 79.5213 63.2726 78.0585 64.9526 76.2288C63.2903 80.1096 60.0999 86.4034 55.9241 89.1381C55.8586 89.184 55.8109 89.251 55.7889 89.3278C55.767 89.4047 55.7721 89.4868 55.8035 89.5604C55.8371 89.6326 55.8954 89.6905 55.9679 89.7237C56.0403 89.7569 56.1223 89.7631 56.1989 89.7413C58.0198 89.2697 59.7181 88.4125 61.179 87.2278C59.1079 91.7924 56.4469 100.573 62.6871 106.867C62.7412 106.922 62.8129 106.957 62.8899 106.966C62.9668 106.974 63.0444 106.956 63.1094 106.914C63.1731 106.869 63.2202 106.805 63.2432 106.731C63.2663 106.657 63.264 106.577 63.2367 106.505C62.1016 103.75 61.6786 100.754 62.0066 97.7923C62.3346 94.831 63.4031 91.9999 65.1135 89.5604C64.5974 92.724 63.84 100.479 67.6404 105.499C69.7182 108.241 72.8483 109.729 76.9504 109.916C77.0392 109.931 77.1305 109.911 77.204 109.858C77.2775 109.806 77.3273 109.727 77.3425 109.638C77.3576 109.549 77.3368 109.458 77.2846 109.384C77.2324 109.311 77.1532 109.261 77.0643 109.246C74.028 108.18 71.9569 106.411 70.9113 103.978C69.2959 100.224 70.5225 95.8475 71.1325 94.1249C72.3858 96.8059 77.3056 105.647 87.6813 104.976C87.7554 104.973 87.8262 104.945 87.8822 104.896C87.9382 104.848 87.9761 104.781 87.9896 104.708C88.0002 104.632 87.9839 104.554 87.9436 104.488C87.9033 104.422 87.8414 104.372 87.7684 104.346Z" fill="black"/>
</g>
<g style="mix-blend-mode:soft-light">
<path d="M66.3461 66.1682C66.3461 66.1682 73.8866 68.6683 81.1322 68.3332C80.7702 68.2192 64.8783 67.5959 51.9421 54.9279C59.1073 63.4469 66.3461 66.1682 66.3461 66.1682Z" fill="black"/>
</g>
<g style="mix-blend-mode:soft-light" opacity="0.1">
<path d="M82.1041 33.3118C82.0371 33.1308 81.97 32.9565 81.9097 32.7823C83.0425 32.722 84.2087 31.616 83.4982 30.4967C82.381 28.7128 81.0105 27.1007 79.4297 25.711C79.0631 25.4534 78.6181 25.3319 78.1715 25.3674C77.7248 25.4028 77.3046 25.5931 76.9833 25.9054C75.9189 24.5089 74.9643 23.0321 74.1279 21.4883C73.2097 19.7121 70.542 21.3475 71.1922 23.0969L71.8959 25.0072L71.5876 24.605C70.5688 23.3248 68.5379 24.8128 68.7926 26.2137L68.2095 25.5434C67.07 24.2833 64.7107 25.9724 65.5284 27.4671L66.44 29.2299C66.3349 29.4355 66.2725 29.6602 66.2564 29.8906C66.2403 30.1209 66.2708 30.3521 66.3461 30.5704L67.2845 33.1241C66.9681 33.2201 66.6802 33.3927 66.4464 33.6265C66.2125 33.8603 66.04 34.1482 65.944 34.4646L65.3609 33.7139C64.8112 33.0035 62.3849 32.3198 62.291 33.4726C61.413 33.0705 60.2803 32.9834 60.1194 33.8547C59.3888 33.8078 58.7051 34.1027 58.7252 34.7663L57.3177 32.9699C56.6474 32.1254 54.1138 31.978 54.5629 33.5732C54.6232 33.7877 54.7036 33.9888 54.764 34.1965C54.6098 33.9888 54.4489 33.7877 54.2948 33.5732C53.6647 32.7085 50.7491 31.9914 51.3054 33.8748C51.426 34.2904 51.5601 34.6992 51.6942 35.1081C50.977 35.1081 50.3536 35.4633 50.5681 36.3481C50.6754 36.8575 50.796 37.3535 50.9234 37.8562C49.9515 37.1859 48.2021 37.1859 48.4166 38.6538C48.4913 39.2224 48.6169 39.7832 48.7919 40.3295C48.1216 40.3295 47.4514 40.7249 47.5921 41.5829C47.6187 42.2881 47.8116 42.9771 48.1552 43.5937C48.631 44.7331 50.9837 45.1688 51.3389 44.2639C51.6964 44.4676 52.111 44.5477 52.5186 44.4918C53.1888 45.2894 53.9127 46.0736 54.6768 46.8176C55.5616 47.6823 58.2829 47.6555 57.2842 45.886C57.0831 45.5307 56.8887 45.1755 56.7077 44.8135C57.8338 45.2492 59.6569 45.0347 58.752 43.5601C58.4973 43.1312 58.2426 42.7089 58.0013 42.2732C58.2426 42.5413 58.4705 42.8161 58.7118 43.0775C59.5027 43.9489 61.8152 43.8819 61.4934 42.5749C62.2776 43.6004 63.0686 44.5856 63.8461 45.6447C64.6236 46.7037 67.5995 46.9852 66.6947 45.0213C66.4065 44.351 66.1048 43.7612 65.8099 43.1312C66.4266 42.9569 66.8153 42.4609 66.3461 41.6767C66.2188 41.4622 66.0981 41.2477 65.9775 41.0064C66.9494 41.2544 67.9548 41.107 67.5593 39.9474L67.1505 38.7543C67.3552 38.746 67.5531 38.6785 67.7202 38.56C68.1961 38.2114 68.3905 38.0036 68.5044 37.5412C68.8533 37.9631 69.1693 38.4113 69.4495 38.8817C69.6147 39.1986 69.8949 39.4404 70.2325 39.5575C70.5702 39.6746 70.9399 39.6583 71.2659 39.5117C71.7127 40.5305 72.1596 41.5516 72.6064 42.5749C73.2767 44.1433 76.2259 42.91 75.6762 41.3349C75.636 41.2075 75.5891 41.0869 75.5422 40.9595C75.3746 40.4836 75.2004 40.0077 75.0194 39.5385C76.0449 41.06 77.0302 42.6017 77.9685 44.1768C78.9069 45.7519 81.8695 44.2572 80.911 42.5681C80.6362 42.0856 80.3748 41.5963 80.1067 41.1137C80.4056 40.9761 80.6458 40.7367 80.7845 40.4384C80.9233 40.1401 80.9515 39.8021 80.8641 39.4849C80.8172 39.3576 80.7636 39.2436 80.7166 39.1163C80.0911 37.4406 79.4699 35.765 78.8533 34.0893C78.9069 34.1898 78.9538 34.2904 79.0142 34.3909C79.5169 35.7314 80.0464 37.1122 80.6161 38.4594C81.2864 40.0614 84.0814 38.8147 83.6926 37.2261C83.323 35.862 82.7896 34.5477 82.1041 33.3118Z" fill="black"/>
<path d="M82.1041 33.3118C82.0371 33.1308 81.97 32.9565 81.9097 32.7823C83.0425 32.722 84.2087 31.616 83.4982 30.4967C82.381 28.7128 81.0105 27.1007 79.4297 25.711C79.0631 25.4534 78.6181 25.3319 78.1715 25.3674C77.7248 25.4028 77.3046 25.5931 76.9833 25.9054C75.9189 24.5089 74.9643 23.0321 74.1279 21.4883C73.2097 19.7121 70.542 21.3475 71.1922 23.0969L71.8959 25.0072L71.5876 24.605C70.5688 23.3248 68.5379 24.8128 68.7926 26.2137L68.2095 25.5434C67.07 24.2833 64.7107 25.9724 65.5284 27.4671L66.44 29.2299C66.3349 29.4355 66.2725 29.6602 66.2564 29.8906C66.2403 30.1209 66.2708 30.3521 66.3461 30.5704L67.2845 33.1241C66.9681 33.2201 66.6802 33.3927 66.4464 33.6265C66.2125 33.8603 66.04 34.1482 65.944 34.4646L65.3609 33.7139C64.8112 33.0035 62.3849 32.3198 62.291 33.4726C61.413 33.0705 60.2803 32.9834 60.1194 33.8547C59.3888 33.8078 58.7051 34.1027 58.7252 34.7663L57.3177 32.9699C56.6474 32.1254 54.1138 31.978 54.5629 33.5732C54.6232 33.7877 54.7036 33.9888 54.764 34.1965C54.6098 33.9888 54.4489 33.7877 54.2948 33.5732C53.6647 32.7085 50.7491 31.9914 51.3054 33.8748C51.426 34.2904 51.5601 34.6992 51.6942 35.1081C50.977 35.1081 50.3536 35.4633 50.5681 36.3481C50.6754 36.8575 50.796 37.3535 50.9234 37.8562C49.9515 37.1859 48.2021 37.1859 48.4166 38.6538C48.4913 39.2224 48.6169 39.7832 48.7919 40.3295C48.1216 40.3295 47.4514 40.7249 47.5921 41.5829C47.6187 42.2881 47.8116 42.9771 48.1552 43.5937C48.631 44.7331 50.9837 45.1688 51.3389 44.2639C51.6964 44.4676 52.111 44.5477 52.5186 44.4918C53.1888 45.2894 53.9127 46.0736 54.6768 46.8176C55.5616 47.6823 58.2829 47.6555 57.2842 45.886C57.0831 45.5307 56.8887 45.1755 56.7077 44.8135C57.8338 45.2492 59.6569 45.0347 58.752 43.5601C58.4973 43.1312 58.2426 42.7089 58.0013 42.2732C58.2426 42.5413 58.4705 42.8161 58.7118 43.0775C59.5027 43.9489 61.8152 43.8819 61.4934 42.5749C62.2776 43.6004 63.0686 44.5856 63.8461 45.6447C64.6236 46.7037 67.5995 46.9852 66.6947 45.0213C66.4065 44.351 66.1048 43.7612 65.8099 43.1312C66.4266 42.9569 66.8153 42.4609 66.3461 41.6767C66.2188 41.4622 66.0981 41.2477 65.9775 41.0064C66.9494 41.2544 67.9548 41.107 67.5593 39.9474L67.1505 38.7543C67.3552 38.746 67.5531 38.6785 67.7202 38.56C68.1961 38.2114 68.3905 38.0036 68.5044 37.5412C68.8533 37.9631 69.1693 38.4113 69.4495 38.8817C69.6147 39.1986 69.8949 39.4404 70.2325 39.5575C70.5702 39.6746 70.9399 39.6583 71.2659 39.5117C71.7127 40.5305 72.1596 41.5516 72.6064 42.5749C73.2767 44.1433 76.2259 42.91 75.6762 41.3349C75.636 41.2075 75.5891 41.0869 75.5422 40.9595C75.3746 40.4836 75.2004 40.0077 75.0194 39.5385C76.0449 41.06 77.0302 42.6017 77.9685 44.1768C78.9069 45.7519 81.8695 44.2572 80.911 42.5681C80.6362 42.0856 80.3748 41.5963 80.1067 41.1137C80.4056 40.9761 80.6458 40.7367 80.7845 40.4384C80.9233 40.1401 80.9515 39.8021 80.8641 39.4849C80.8172 39.3576 80.7636 39.2436 80.7166 39.1163C80.0911 37.4406 79.4699 35.765 78.8533 34.0893C78.9069 34.1898 78.9538 34.2904 79.0142 34.3909C79.5169 35.7314 80.0464 37.1122 80.6161 38.4594C81.2864 40.0614 84.0814 38.8147 83.6926 37.2261C83.323 35.862 82.7896 34.5477 82.1041 33.3118Z" stroke="black" stroke-miterlimit="10"/>
</g>
<g style="mix-blend-mode:soft-light" opacity="0.1">
<path d="M30.4271 34.5917C29.8243 36.5608 29.0829 38.4848 28.2085 40.3493C28.2085 39.9069 28.2822 39.4645 28.3358 39.0088C28.4833 37.8291 27.5516 37.9631 26.8009 38.4524C26.6208 38.3 26.3947 38.2124 26.1589 38.2039C25.9231 38.1954 25.6912 38.2664 25.5006 38.4055C25.5878 38.2715 25.6548 38.1307 25.7419 37.99C26.6401 36.5958 24.8974 35.8853 23.9724 37.0047C23.6082 37.4462 23.2681 37.9071 22.9536 38.3854C22.7726 37.4135 21.3986 38.0771 21.0031 38.4994L20.9093 38.6066C20.7402 38.4797 20.5373 38.4057 20.3262 38.3938C20.1152 38.3818 19.9053 38.4326 19.7229 38.5396C18.9572 38.911 18.3489 39.5431 18.0071 40.3225C17.4708 41.415 18.1478 41.9713 18.8918 41.8574L18.932 42.273C19.0259 43.2381 20.0514 42.9432 20.6814 42.4874C20.6814 43.2247 20.6814 43.9553 20.6814 44.6926C20.653 44.9622 20.7325 45.2322 20.9026 45.4433C20.747 47.0245 20.7921 48.6189 21.0366 50.1888C21.2779 51.7237 23.4295 50.2692 23.4429 49.237C23.4697 47.6049 23.6948 45.9822 24.1132 44.4044C24.372 44.2871 24.6011 44.113 24.7834 43.895C24.9008 44.0149 25.0546 44.0925 25.2208 44.1156C25.387 44.1386 25.5561 44.1058 25.7017 44.0223C25.6678 47.4512 26.1191 50.8677 27.0422 54.1702C27.5047 55.8257 29.5222 54.0696 29.4351 52.9101C29.1737 49.5587 28.8788 46.0331 29.6697 42.7153C30.3399 39.8734 32.0357 37.4202 32.7529 34.585C33.1953 32.7351 30.7957 33.1775 30.4271 34.5917Z" fill="black"/>
<path d="M30.4271 34.5917C29.8243 36.5608 29.0829 38.4848 28.2085 40.3493C28.2085 39.9069 28.2822 39.4645 28.3358 39.0088C28.4833 37.8291 27.5516 37.9631 26.8009 38.4524C26.6208 38.3 26.3947 38.2124 26.1589 38.2039C25.9231 38.1954 25.6912 38.2664 25.5006 38.4055C25.5878 38.2715 25.6548 38.1307 25.7419 37.99C26.6401 36.5958 24.8974 35.8853 23.9724 37.0047C23.6082 37.4462 23.2681 37.9071 22.9536 38.3854C22.7726 37.4135 21.3986 38.0771 21.0031 38.4994L20.9093 38.6066C20.7402 38.4797 20.5373 38.4057 20.3262 38.3938C20.1152 38.3818 19.9053 38.4326 19.7229 38.5396C18.9572 38.911 18.3489 39.5431 18.0071 40.3225C17.4708 41.415 18.1478 41.9713 18.8918 41.8574L18.932 42.273C19.0259 43.2381 20.0514 42.9432 20.6814 42.4874C20.6814 43.2247 20.6814 43.9553 20.6814 44.6926C20.653 44.9622 20.7325 45.2322 20.9026 45.4433C20.747 47.0245 20.7921 48.6189 21.0366 50.1888C21.2779 51.7237 23.4295 50.2692 23.4429 49.237C23.4697 47.6049 23.6948 45.9822 24.1132 44.4044C24.372 44.2871 24.6011 44.113 24.7834 43.895C24.9008 44.0149 25.0546 44.0925 25.2208 44.1156C25.387 44.1386 25.5561 44.1058 25.7017 44.0223C25.6678 47.4512 26.1191 50.8677 27.0422 54.1702C27.5047 55.8257 29.5222 54.0696 29.4351 52.9101C29.1737 49.5587 28.8788 46.0331 29.6697 42.7153C30.3399 39.8734 32.0357 37.4202 32.7529 34.585C33.1953 32.7351 30.7957 33.1775 30.4271 34.5917Z" stroke="black" stroke-width="0.87" stroke-miterlimit="10"/>
</g>
</g>
<path d="M87.2722 50.4372C87.2722 76.363 69.2756 115.453 51.2588 115.453C33.2421 115.453 12.5376 77.6834 12.5376 51.7777C12.5376 25.8719 33.2354 21.6158 51.2588 21.6158C69.2823 21.6158 87.2722 24.5381 87.2722 50.4372Z" fill="#4C3C30"/>
<path d="M23.6041 118.677C23.7917 117.966 23.9392 117.249 24.147 116.566C24.3548 115.882 24.5625 115.225 24.7636 114.555L25.3535 112.591C25.454 112.269 25.5478 111.921 25.6484 111.639C25.7489 111.358 25.8629 111.023 25.9701 110.728C26.4058 109.521 26.8146 108.388 27.1967 107.343C27.3844 106.82 27.5586 106.311 27.7463 105.841L28.3026 104.501L29.2209 102.343C29.7236 101.143 30.0185 100.459 30.0185 100.459C30.092 100.274 30.1794 100.095 30.2799 99.9229C31.1627 98.3754 32.6001 97.2207 34.3015 96.6923C35.8699 96.2231 40.9036 95.0769 42.3447 96.022C43.7857 96.9671 43.3769 99.7219 43.7522 101.277C44.1276 102.832 41.9023 104.501 41.0712 105.969L40.2199 107.591C39.9518 108.107 39.6234 108.737 39.2413 109.454L38.6381 110.6C38.437 111.009 38.2494 111.452 38.0416 111.901L36.701 114.836L36.3391 115.627L36.0174 116.458C35.7962 117.015 35.5683 117.584 35.3471 118.168C35.1259 118.751 34.8846 119.334 34.6768 119.937C34.4691 120.54 34.2613 121.15 34.0066 121.774C33.7519 122.397 33.6245 122.906 33.4368 123.476L23.0544 120.942V120.822C23.2555 120.105 23.4298 119.387 23.6041 118.677Z" fill="#443425"/>
<path d="M74.5637 124.642C74.2889 124.575 74.0006 124.514 73.7392 124.427L72.9751 124.139C72.4645 123.95 71.9674 123.726 71.4872 123.469C71.0314 123.221 70.5756 122.966 70.1466 122.698C69.7257 122.436 69.3206 122.15 68.9334 121.84C68.5466 121.564 68.1772 121.264 67.8275 120.942C65.5015 118.797 63.5985 116.235 62.2174 113.388C61.6904 112.332 61.2183 111.249 60.8031 110.144C60.4479 109.172 60.1865 108.307 59.9519 107.604C59.5832 106.176 59.3755 105.358 59.3755 105.358C59.3204 105.138 59.2823 104.914 59.2615 104.688C59.1079 103.739 59.1537 102.769 59.3961 101.839C59.6384 100.908 60.072 100.039 60.6691 99.2857C61.1921 98.6467 61.8589 98.1406 62.6149 97.8086C63.3709 97.4766 64.1947 97.3282 65.0191 97.3754C66.625 97.4859 68.141 98.1573 69.3021 99.2722C69.8616 99.7645 70.3291 100.352 70.6828 101.008C71.0438 101.641 71.2719 102.342 71.3531 103.066L71.6145 104.634C71.7419 105.117 71.8625 105.713 72.0435 106.384C72.2244 107.054 72.4523 107.785 72.7674 108.529C73.3707 110.12 74.2461 111.594 75.3546 112.885C75.4829 113.03 75.6218 113.164 75.7701 113.287C75.9002 113.422 76.039 113.547 76.1857 113.663C76.3265 113.757 76.4605 113.857 76.6013 113.964C76.7294 114.05 76.8638 114.127 77.0034 114.192L77.1978 114.313C77.2648 114.347 77.3319 114.347 77.3922 114.373C77.4525 114.4 77.6469 114.494 77.7742 114.514H77.8614V125.077C77.3028 125.077 76.7465 125.044 76.1924 124.977C75.6439 124.895 75.1002 124.783 74.5637 124.642Z" fill="#443425"/>
<path d="M84.6178 102.557C84.7853 101.424 84.8591 100.767 84.8591 100.767C84.9777 99.6942 85.4673 98.6967 86.2431 97.9465C87.019 97.1964 88.0325 96.7407 89.1086 96.6582C91.4679 96.5242 93.5189 98.602 93.4318 101.35C93.4318 101.35 93.4318 102.114 93.3245 103.461C93.2888 103.957 93.2419 104.527 93.1838 105.171L84.3832 103.971C84.477 103.455 84.5575 102.959 84.6178 102.557Z" fill="#FFE3B6"/>
<path d="M83.672 107.114C83.1949 109.022 82.4358 110.847 81.4199 112.53C81.1947 112.883 80.9414 113.217 80.6625 113.529L87.9281 120.386C88.6874 119.465 89.3479 118.468 89.8987 117.41C91.2143 114.808 92.1337 112.025 92.6267 109.152C92.9082 107.651 93.0758 106.323 93.183 105.211L84.3824 104.011C84.2149 104.903 83.9937 105.968 83.672 107.114Z" fill="#FFE3B6"/>
<path d="M64.5032 95.9951C60.3073 95.0567 58.5244 93.9239 51.7681 93.9239C49.2955 93.8914 46.8257 94.1047 44.3952 94.5607C42.2906 94.9628 40.568 95.5058 38.3628 95.9951C35.6818 96.5849 33.5905 99.4201 33.5905 102.135L34.2608 122.156C31.1904 126.686 29.5768 132.046 29.636 137.518H73.4445C73.4445 129.032 67.9282 122.156 67.9282 122.156L69.2687 102.135C69.3023 99.4201 67.1574 96.5849 64.5032 95.9951Z" fill="#FFE3B6"/>
<path d="M75.6161 93.984C75.6161 93.984 64.5501 93.669 63.605 93.5215C63.605 93.555 63.605 93.5885 63.605 93.6154C63.605 97.7509 60.2939 101.772 57.1905 102.751C53.728 103.837 50.016 103.837 46.5534 102.751C43.4501 101.772 40.1457 97.7509 40.1457 93.6154C39.2408 93.7561 28.6641 94.0644 28.6641 94.0644V127.041H75.5826L75.6161 93.984Z" fill="#C6C6C6"/>
<path d="M48.4169 94.0915H28.0208V139.415H48.4169V94.0915Z" fill="#4C3C30"/>
<path d="M75.5151 94.4198H55.1189V139.743H75.5151V94.4198Z" fill="#4C3C30"/>
<path d="M45.4007 106.732C45.9559 106.732 46.4061 106.282 46.4061 105.727C46.4061 105.172 45.9559 104.722 45.4007 104.722C44.8454 104.722 44.3953 105.172 44.3953 105.727C44.3953 106.282 44.8454 106.732 45.4007 106.732Z" fill="#C6C6C6"/>
<path d="M58.3163 92.1409L58.5576 94.6409C58.5576 94.6409 55.6553 99.7551 51.7678 99.7551C47.8803 99.7551 44.978 94.6409 44.978 94.6409L45.2193 92.1409C45.2829 91.4748 45.5932 90.8566 46.0892 90.4077C46.5853 89.9587 47.2313 89.7115 47.9004 89.7145H55.662C56.3265 89.7181 56.9659 89.9684 57.4563 90.4167C57.9467 90.865 58.2532 91.4794 58.3163 92.1409Z" fill="#FFE3B6"/>
<path d="M60.736 89.4532H55.1191V98.837H60.736V89.4532Z" fill="#4C3C30"/>
<path d="M48.4164 89.4532H42.7996V98.837H48.4164V89.4532Z" fill="#4C3C30"/>
<path d="M50.7628 98.4145H48.4169V93.7227H50.7628C51.385 93.7227 51.9817 93.9698 52.4216 94.4098C52.8616 94.8497 53.1087 95.4464 53.1087 96.0686C53.1087 96.6908 52.8616 97.2875 52.4216 97.7274C51.9817 98.1673 51.385 98.4145 50.7628 98.4145Z" fill="#4C3C30"/>
<path d="M50.7627 97.0743C51.318 97.0743 51.7681 96.6242 51.7681 96.0689C51.7681 95.5136 51.318 95.0635 50.7627 95.0635C50.2075 95.0635 49.7573 95.5136 49.7573 96.0689C49.7573 96.6242 50.2075 97.0743 50.7627 97.0743Z" fill="#C6C6C6"/>
<g style="mix-blend-mode:multiply" opacity="0.3">
<g style="mix-blend-mode:multiply">
<path d="M58.5178 90.2238C58.5178 91.8927 55.5619 93.2467 51.9157 93.2467C48.2695 93.2467 45.3069 91.9062 45.3069 90.2238C45.3069 88.5414 48.2695 87.2009 51.9157 87.2009C55.5619 87.2009 58.5178 88.5548 58.5178 90.2238Z" fill="#4C2C11"/>
</g>
</g>
<path d="M27.9333 66.5902C28.9186 70.5582 27.1893 74.3988 24.0726 75.1763C20.9559 75.9538 17.618 73.3733 16.6327 69.4053C15.6474 65.4373 17.37 61.6034 20.4934 60.8192C23.6168 60.035 26.9413 62.6289 27.9333 66.5902Z" fill="#FFE3B6"/>
<path d="M84.1754 68.8964C83.5387 72.918 80.4421 75.8001 77.265 75.2974C74.088 74.7947 72.0302 71.115 72.6737 67.0733C73.3171 63.0316 76.4071 60.1762 79.5841 60.6789C82.7612 61.1816 84.8122 64.8614 84.1754 68.8964Z" fill="#FFE3B6"/>
<path d="M22.806 66.0005C22.806 80.076 33.0343 91.437 45.6554 91.437H54.905C67.5261 91.437 77.7544 80.0425 77.7544 66.0005V39.2837C77.7544 29.2297 70.4217 21.0458 61.3798 21.0458H39.1806C30.1387 21.0592 22.806 29.2297 22.806 39.2837V66.0005Z" fill="#FFE3B6"/>
<path d="M57.9548 58.5739H66.6683C66.9349 58.5739 67.1907 58.6798 67.3792 58.8684C67.5678 59.0569 67.6737 59.3126 67.6737 59.5793C67.6734 59.7833 67.6102 59.9822 67.4927 60.149C67.3654 62.019 65.5758 63.5003 63.3773 63.5003C62.4773 63.5349 61.5917 63.2663 60.8625 62.7376C60.1333 62.209 59.6027 61.4508 59.3557 60.5847H58.0152C57.7485 60.5847 57.4928 60.4788 57.3042 60.2902C57.1157 60.1017 57.0098 59.8459 57.0098 59.5793C57.0098 59.3126 57.1157 59.0569 57.3042 58.8684C57.4928 58.6798 57.7485 58.5739 58.0152 58.5739H57.9548Z" fill="#443425"/>
<path d="M41.151 58.8424H32.4376C31.8879 58.8424 31.1641 59.0233 31.1641 59.5797C31.1641 59.8463 31.27 60.102 31.4585 60.2906C31.6471 60.4791 31.9028 60.5851 32.1695 60.5851H33.4497C33.6967 61.4512 34.2273 62.2093 34.9565 62.738C35.6857 63.2667 36.5712 63.5353 37.4713 63.5007C39.6295 63.5007 41.6604 62.0731 41.8548 60.2566V59.5864C41.8682 59.0233 41.6872 58.8424 41.151 58.8424Z" fill="#443425"/>
<path d="M55.9972 76.2756C55.9972 77.4888 53.8725 78.4741 51.2517 78.4741C48.631 78.4741 46.5129 77.4888 46.5129 76.2756C46.5129 75.0624 48.6377 75.411 51.2584 75.411C53.8792 75.411 55.9972 75.0557 55.9972 76.2756Z" fill="#FF9271"/>
<path d="M53.5574 72.2273C52.5788 72.2273 51.7276 73.1924 51.2517 73.6214C50.7691 73.1924 49.9112 72.2273 48.9393 72.2273C47.4379 72.2273 45.5544 73.5678 45.5544 74.4056C45.5544 75.2435 47.4379 75.9137 48.9393 75.9137H49.3548C50.6171 75.8065 51.8862 75.8065 53.1485 75.9137H53.5574C55.0655 75.9137 56.949 75.2435 56.949 74.4056C56.949 73.5678 55.0655 72.2273 53.5574 72.2273Z" fill="#CC553A"/>
<path d="M54.67 67.9443C54.67 68.6748 53.0278 69.2848 51.0036 69.2848C48.9794 69.2848 47.3373 68.695 47.3373 67.9443C47.3373 67.1936 48.9794 66.6037 51.0036 66.6037C53.0278 66.6037 54.67 67.2137 54.67 67.9443Z" fill="#EAB88B"/>
<path d="M40.8627 50.732C40.7085 50.799 31.7336 50.2025 31.7336 49.4652C31.7438 49.1129 31.8883 48.7777 32.1375 48.5285C32.3867 48.2793 32.7218 48.1348 33.0742 48.1247H40.2862C40.599 48.1298 40.9007 48.2409 41.1421 48.4399C41.3834 48.6388 41.5501 48.9139 41.6147 49.2199C41.6793 49.526 41.6381 49.8449 41.4979 50.1245C41.3576 50.404 41.1265 50.6277 40.8426 50.7588L40.8627 50.732Z" fill="#443425"/>
<path d="M62.7067 50.8124C62.3512 50.8124 62.0102 50.6711 61.7588 50.4197C61.5074 50.1683 61.3662 49.8274 61.3662 49.4718C61.3747 49.119 61.5187 48.7829 61.7683 48.5334C62.0178 48.2838 62.3539 48.1398 62.7067 48.1313H69.9724C70.3279 48.1313 70.6689 48.2726 70.9203 48.524C71.1717 48.7754 71.3129 49.1163 71.3129 49.4718C71.3129 50.0081 62.7067 50.8124 62.7067 50.8124Z" fill="#443425"/>
<path d="M85.7572 103.006C80.1806 100.466 76.7488 97.2082 75.2743 93.0324C72.439 85.0496 77.2851 75.324 81.9769 65.9202C83.103 63.6614 84.1687 61.5233 85.1205 59.4186C88.7935 51.3084 87.3926 38.8482 81.6351 28.4122C76.0451 18.2845 67.5997 11.9706 57.8474 10.6233C54.9918 10.2184 52.1118 10.0101 49.2277 10C30.4268 10 21.4989 19.692 17.3231 27.8156C11.5387 39.0694 9.70891 60.6586 15.6877 68.2125C17.2762 70.2233 20.4399 72.3883 24.0995 74.9152C33.7178 81.5441 46.8885 90.6195 40.95 103.864C40.9177 103.939 40.9142 104.024 40.9401 104.102C40.9661 104.18 41.0197 104.245 41.0907 104.286C41.1611 104.329 41.2449 104.344 41.3255 104.327C41.4062 104.311 41.4779 104.266 41.5264 104.199C49.4288 93.7027 44.0801 84.4933 41.6672 81.276C45.874 83.7401 49.167 87.5035 51.0509 92.0002C51.074 92.0891 51.1315 92.1652 51.2106 92.2117C51.2898 92.2582 51.3843 92.2713 51.4731 92.2482C51.562 92.2251 51.6381 92.1677 51.6846 92.0885C51.7311 92.0093 51.7442 91.9148 51.7211 91.826C50.8431 84.2922 45.9166 78.6821 40.702 72.7435C38.966 70.7327 37.1697 68.7219 35.4538 66.5302C29.4616 58.9025 21.586 43.9623 35.5878 29.1227C36.7742 32.9298 44.3817 55.1692 62.7537 64.754C62.3783 66.3492 60.1799 75.1833 56.5806 78.6419C56.5223 78.6956 56.4854 78.7687 56.4768 78.8475C56.4681 78.9264 56.4883 79.0057 56.5336 79.0708C56.5765 79.1379 56.6428 79.1866 56.7195 79.2076C56.7963 79.2287 56.8781 79.2205 56.9492 79.1848C59.2213 78.1809 61.2614 76.7181 62.9414 74.8884C61.2791 78.7692 58.0886 85.063 53.9129 87.7977C53.8474 87.8435 53.7997 87.9105 53.7777 87.9874C53.7557 88.0643 53.7609 88.1464 53.7923 88.2199C53.8259 88.2922 53.8842 88.3501 53.9566 88.3833C54.0291 88.4165 54.111 88.4227 54.1877 88.4009C56.0085 87.9293 57.7068 87.0721 59.1678 85.8874C57.0967 90.4519 54.4357 99.2324 60.6759 105.526C60.73 105.582 60.8016 105.617 60.8786 105.625C60.9556 105.634 61.0332 105.615 61.0981 105.573C61.1618 105.529 61.209 105.465 61.232 105.391C61.2551 105.316 61.2528 105.237 61.2255 105.164C60.0904 102.409 59.6674 99.4132 59.9953 96.4519C60.3233 93.4906 61.3918 90.6595 63.1022 88.2199C62.5861 91.3836 61.8287 99.1386 65.6291 104.159C67.707 106.9 70.8371 108.388 74.9391 108.576C75.028 108.591 75.1193 108.57 75.1928 108.518C75.2663 108.466 75.3161 108.387 75.3312 108.298C75.3463 108.209 75.3255 108.118 75.2734 108.044C75.2212 107.971 75.142 107.921 75.0531 107.906C72.0168 106.84 69.9456 105.07 68.9 102.637C67.2847 98.8839 68.5113 94.507 69.1212 92.7845C70.3746 95.4655 75.2944 104.306 85.6701 103.636C85.7442 103.633 85.815 103.604 85.871 103.556C85.927 103.507 85.9648 103.441 85.9784 103.368C85.9889 103.291 85.9727 103.213 85.9324 103.148C85.892 103.082 85.8302 103.032 85.7572 103.006Z" fill="url(#paint0_linear_69_351)"/>
<path d="M64.3351 64.8275C64.3351 64.8275 71.8756 67.3276 79.1212 66.9925C78.7593 66.8785 62.8673 66.2552 49.9312 53.5872C57.0963 62.1062 64.3351 64.8275 64.3351 64.8275Z" fill="#443425"/>
<path opacity="0.1" d="M80.0933 31.9711C80.0263 31.7901 79.9593 31.6159 79.899 31.4416C81.0317 31.3813 82.198 30.2753 81.4875 29.156C80.3703 27.3721 78.9998 25.7601 77.419 24.3703C77.0524 24.1127 76.6074 23.9912 76.1607 24.0267C75.7141 24.0622 75.2939 24.2524 74.9725 24.5647C73.9082 23.1682 72.9536 21.6915 72.1172 20.1476C71.1989 18.3714 68.5313 20.0069 69.1814 21.7563L69.8852 23.6665L69.5769 23.2644C68.5581 21.9842 66.5272 23.4722 66.7819 24.873L66.1987 24.2027C65.0593 22.9426 62.7 24.6317 63.5177 26.1264L64.4292 27.8892C64.3242 28.0948 64.2618 28.3196 64.2456 28.5499C64.2295 28.7802 64.26 29.0115 64.3354 29.2297L65.2738 31.7834C64.9573 31.8794 64.6694 32.052 64.4356 32.2858C64.2018 32.5196 64.0292 32.8075 63.9333 33.124L63.3501 32.3733C62.8005 31.6628 60.3741 30.9791 60.2803 32.132C59.4023 31.7298 58.2695 31.6427 58.1086 32.514C57.3781 32.4671 56.6944 32.762 56.7145 33.4256L55.3069 31.6293C54.6367 30.7847 52.1031 30.6373 52.5521 32.2325C52.6125 32.447 52.6929 32.6481 52.7532 32.8559C52.5991 32.6481 52.4382 32.447 52.284 32.2325C51.654 31.3679 48.7383 30.6507 49.2947 32.5341C49.4153 32.9497 49.5494 33.3586 49.6834 33.7674C48.9662 33.7674 48.3429 34.1227 48.5574 35.0074C48.6646 35.5168 48.7853 36.0128 48.9126 36.5155C47.9407 35.8452 46.1913 35.8452 46.4058 37.3131C46.4806 37.8818 46.6062 38.4426 46.7812 38.9888C46.1109 38.9888 45.4406 39.3842 45.5814 40.2422C45.608 40.9475 45.8009 41.6365 46.1444 42.253C46.6203 43.3924 48.9729 43.8281 49.3282 42.9232C49.6856 43.1269 50.1003 43.207 50.5078 43.1511C51.1781 43.9488 51.902 44.733 52.6661 45.477C53.5508 46.3416 56.2721 46.3148 55.2734 44.5453C55.0723 44.19 54.878 43.8348 54.697 43.4729C55.823 43.9085 57.6462 43.6941 56.7413 42.2195C56.4866 41.7905 56.2319 41.3682 55.9906 40.9326C56.2319 41.2007 56.4598 41.4755 56.7011 41.7369C57.492 42.6082 59.8044 42.5412 59.4827 41.2342C60.2669 42.2597 61.0578 43.245 61.8353 44.304C62.6128 45.363 65.5888 45.6445 64.6839 43.6806C64.3957 43.0104 64.0941 42.4205 63.7992 41.7905C64.4158 41.6162 64.8046 41.1202 64.3354 40.336C64.2081 40.1215 64.0874 39.9071 63.9668 39.6658C64.9386 39.9138 65.944 39.7663 65.5486 38.6067L65.1397 37.4137C65.3444 37.4053 65.5423 37.3378 65.7094 37.2193C66.1853 36.8708 66.3797 36.663 66.4937 36.2005C66.8426 36.6225 67.1585 37.0706 67.4387 37.541C67.604 37.8579 67.8841 38.0997 68.2218 38.2168C68.5595 38.334 68.9291 38.3176 69.2551 38.1711C69.702 39.1899 70.1488 40.2109 70.5957 41.2342C71.2659 42.8026 74.2151 41.5693 73.6655 39.9942C73.6253 39.8668 73.5784 39.7462 73.5314 39.6188C73.3639 39.143 73.1896 38.6671 73.0086 38.1979C74.0341 39.7194 75.0194 41.261 75.9578 42.8361C76.8962 44.4112 79.8588 42.9165 78.9003 41.2275C78.6255 40.7449 78.3641 40.2556 78.0959 39.773C78.3948 39.6354 78.6351 39.3961 78.7738 39.0977C78.9125 38.7994 78.9407 38.4615 78.8534 38.1443C78.8064 38.0169 78.7528 37.903 78.7059 37.7756C78.0803 36.0999 77.4592 34.4243 76.8426 32.7486C76.8962 32.8492 76.9431 32.9497 77.0034 33.0502C77.5061 34.3908 78.0356 35.7715 78.6054 37.1187C79.2756 38.7207 82.0706 37.474 81.6819 35.8855C81.3122 34.5214 80.7789 33.207 80.0933 31.9711Z" fill="white" stroke="white" stroke-miterlimit="10"/>
<path opacity="0.1" d="M28.4158 33.2513C27.8131 35.2204 27.0717 37.1444 26.1973 39.0088C26.1973 38.5665 26.271 38.1241 26.3246 37.6683C26.4721 36.4886 25.5404 36.6227 24.7897 37.112C24.6096 36.9595 24.3835 36.872 24.1477 36.8635C23.9118 36.855 23.68 36.926 23.4894 37.0651C23.5765 36.931 23.6435 36.7903 23.7307 36.6495C24.6288 35.2554 22.8861 34.5449 21.9612 35.6642C21.5969 36.1057 21.2568 36.5667 20.9424 37.045C20.7614 36.0731 19.3874 36.7366 18.9919 37.1589L18.8981 37.2661C18.7289 37.1393 18.5261 37.0652 18.315 37.0533C18.1039 37.0414 17.894 37.0921 17.7117 37.1991C16.946 37.5705 16.3376 38.2026 15.9958 38.982C15.4596 40.0746 16.1366 40.6309 16.8806 40.5169L16.9208 40.9325C17.0146 41.8977 18.0401 41.6028 18.6702 41.147C18.6702 41.8843 18.6702 42.6149 18.6702 43.3522C18.6418 43.6218 18.7213 43.8917 18.8914 44.1029C18.7358 45.684 18.7808 47.2785 19.0254 48.8483C19.2667 50.3832 21.4183 48.9288 21.4317 47.8966C21.4585 46.2645 21.6836 44.6417 22.1019 43.0639C22.3608 42.9467 22.5899 42.7726 22.7722 42.5545C22.8895 42.6745 23.0434 42.7521 23.2096 42.7751C23.3758 42.7982 23.5449 42.7654 23.6905 42.6819C23.6566 46.1108 24.1079 49.5272 25.031 52.8297C25.4935 54.4853 27.511 52.7292 27.4238 51.5696C27.1624 48.2183 26.8675 44.6927 27.6584 41.3749C28.3287 38.533 30.0245 36.0798 30.7417 33.2446C31.184 31.3946 28.7845 31.837 28.4158 33.2513Z" fill="white" stroke="white" stroke-width="0.87" stroke-miterlimit="10"/>
</g>
<defs>
<linearGradient id="paint0_linear_69_351" x1="49.5763" y1="75.5787" x2="49.5763" y2="113.409" gradientUnits="userSpaceOnUse">
<stop stop-color="#4C3C30"/>
<stop offset="1" stop-color="#732D24"/>
</linearGradient>
</defs>
</svg>
