<svg xmlns="http://www.w3.org/2000/svg" width="107" height="107" fill="none"><mask id="a" width="107" height="107" x="0" y="0" maskUnits="userSpaceOnUse" style="mask-type:alpha"><circle cx="53.5" cy="53.5" r="53.5" fill="#D9D9D9"/></mask><g mask="url(#a)"><g opacity=".75" style="mix-blend-mode:soft-light"><path fill="#000" d="M89.282 51.778c0 25.926-17.996 65.015-36.013 65.015s-38.721-37.77-38.721-63.675c0-25.906 20.697-30.162 38.721-30.162 18.023 0 36.013 2.923 36.013 28.822Z" style="mix-blend-mode:soft-light"/><path fill="#000" d="M25.614 120.017c.188-.71.335-1.428.543-2.111.207-.684.415-1.341.616-2.011l.59-1.964c.1-.322.195-.67.295-.952.1-.281.215-.616.322-.911.436-1.207.844-2.34 1.226-3.385.188-.523.362-1.032.55-1.502l.556-1.34.919-2.158c.502-1.2.797-1.884.797-1.884.074-.185.161-.364.262-.536a7.031 7.031 0 0 1 4.021-3.23c1.569-.47 6.602-1.616 8.043-.671 1.441.945 1.033 3.7 1.408 5.255.375 1.555-1.85 3.224-2.681 4.692l-.851 1.622c-.268.516-.597 1.146-.979 1.863l-.603 1.146c-.201.409-.389.852-.597 1.301l-1.34 2.935-.362.791-.322.831c-.221.557-.449 1.126-.67 1.71-.221.583-.463 1.166-.67 1.769-.208.603-.416 1.213-.67 1.837-.255.623-.383 1.132-.57 1.702l-10.383-2.534v-.12c.201-.717.376-1.435.55-2.145ZM76.574 125.983c-.274-.067-.563-.128-.824-.215l-.764-.288a11.931 11.931 0 0 1-1.488-.67 25.929 25.929 0 0 1-1.34-.771c-.421-.262-.827-.549-1.214-.858a11.46 11.46 0 0 1-1.106-.898 25.294 25.294 0 0 1-5.61-7.554 34.222 34.222 0 0 1-1.414-3.244c-.355-.972-.617-1.837-.851-2.541-.369-1.427-.577-2.245-.577-2.245a4.416 4.416 0 0 1-.114-.67 6.92 6.92 0 0 1 1.408-5.402 5.23 5.23 0 0 1 4.35-1.91 6.864 6.864 0 0 1 4.283 1.896 6.284 6.284 0 0 1 1.38 1.736c.362.633.59 1.333.67 2.058l.262 1.568c.128.483.248 1.079.43 1.75.18.67.408 1.4.723 2.144a14.667 14.667 0 0 0 2.587 4.357c.129.144.267.279.416.402.13.135.269.26.415.376.141.094.275.194.416.301.128.086.263.162.402.228l.195.121c.067.033.134.033.194.06.06.027.255.121.382.141h.087v10.563c-.558 0-1.115-.033-1.669-.1a15.568 15.568 0 0 1-1.629-.335ZM86.628 103.897c.168-1.132.242-1.789.242-1.789a4.632 4.632 0 0 1 4.25-4.109c2.358-.134 4.41 1.944 4.322 4.692 0 0 0 .764-.107 2.111a95.105 95.105 0 0 1-.14 1.709l-8.801-1.199c.094-.516.174-1.012.234-1.415ZM85.683 108.455a19.764 19.764 0 0 1-2.252 5.416 7.767 7.767 0 0 1-.757.999l7.265 6.857c.76-.921 1.42-1.918 1.97-2.976a29.27 29.27 0 0 0 2.729-8.258c.281-1.502.449-2.829.556-3.941l-8.8-1.2a36.061 36.061 0 0 1-.71 3.103Z" style="mix-blend-mode:soft-light"/><path fill="#000" d="M66.514 97.335c-4.196-.938-5.979-2.07-12.735-2.07a37.324 37.324 0 0 0-7.373.636c-2.105.402-3.827.945-6.033 1.434-2.68.59-4.772 3.425-4.772 6.14l.67 20.021a26.863 26.863 0 0 0-4.624 15.362h43.808c0-8.485-5.516-15.362-5.516-15.362l1.34-20.021c.034-2.715-2.111-5.55-4.765-6.14Z" style="mix-blend-mode:soft-light"/><g style="mix-blend-mode:soft-light"><path fill="#000" d="M77.627 95.325s-11.066-.315-12.011-.463v.094c0 4.136-3.312 8.157-6.415 9.136a17.772 17.772 0 0 1-10.637 0c-3.103-.979-6.408-5-6.408-9.136-.904.141-11.481.45-11.481.45v32.976h46.918l.034-33.057Z" style="mix-blend-mode:soft-light"/><path fill="#000" d="M50.428 95.432H30.032v45.323h20.396V95.432ZM77.526 95.76H57.13v45.324h20.396V95.761Z" style="mix-blend-mode:soft-light"/><path fill="#000" d="M47.411 108.073a1.005 1.005 0 1 0 0-2.01 1.005 1.005 0 0 0 0 2.01Z" style="mix-blend-mode:soft-light"/></g><path fill="#000" d="m60.327 93.481.242 2.5s-2.903 5.115-6.79 5.115c-3.888 0-6.79-5.115-6.79-5.115l.241-2.5a2.681 2.681 0 0 1 2.681-2.426h7.762a2.68 2.68 0 0 1 2.654 2.426Z" style="mix-blend-mode:soft-light"/><g style="mix-blend-mode:soft-light"><path fill="#000" d="M62.747 90.794H57.13v9.383h5.617v-9.383ZM50.427 90.794H44.81v9.384h5.617v-9.384Z" style="mix-blend-mode:soft-light"/></g><path fill="#000" d="M52.773 99.755h-2.346v-4.692h2.346a2.346 2.346 0 0 1 0 4.692Z" style="mix-blend-mode:soft-light"/><path fill="#000" d="M52.774 98.415a1.005 1.005 0 1 0 0-2.011 1.005 1.005 0 0 0 0 2.01ZM60.529 91.564c0 1.67-2.956 3.023-6.602 3.023-3.646 0-6.609-1.34-6.609-3.023 0-1.682 2.963-3.022 6.609-3.022s6.602 1.353 6.602 3.022ZM29.944 67.931c.985 3.968-.744 7.809-3.86 8.586-3.117.778-6.455-1.803-7.44-5.77-.986-3.969.737-7.803 3.86-8.587 3.123-.784 6.448 1.81 7.44 5.771ZM86.186 70.237c-.636 4.021-3.733 6.903-6.91 6.4-3.177-.502-5.235-4.182-4.591-8.224.643-4.041 3.733-6.897 6.91-6.394 3.177.503 5.228 4.183 4.591 8.218Z" style="mix-blend-mode:soft-light"/><path fill="#000" d="M24.816 67.341c0 14.076 10.228 25.437 22.85 25.437h9.25c12.62 0 22.849-11.395 22.849-25.437V40.624c0-10.054-7.333-18.238-16.375-18.238h-22.2c-9.041.014-16.374 8.184-16.374 18.238v26.717Z" style="mix-blend-mode:soft-light"/><path fill="#000" d="M59.965 59.914h8.714a1.006 1.006 0 0 1 1.005 1.006.992.992 0 0 1-.18.57c-.128 1.87-1.918 3.35-4.116 3.35a4.022 4.022 0 0 1-4.022-2.915h-1.34a1.006 1.006 0 1 1 0-2.01h-.06ZM43.162 60.183h-8.714c-.55 0-1.273.18-1.273.737a1.005 1.005 0 0 0 1.005 1.005h1.28a4.022 4.022 0 0 0 4.022 2.916c2.158 0 4.19-1.427 4.383-3.244v-.67c.014-.563-.167-.744-.703-.744ZM58.008 77.616c0 1.213-2.125 2.198-4.745 2.198-2.621 0-4.74-.985-4.74-2.198s2.126-.865 4.746-.865c2.621 0 4.74-.355 4.74.865Z" style="mix-blend-mode:soft-light"/><path fill="#000" d="M55.569 73.568c-.98 0-1.83.965-2.306 1.394-.483-.429-1.34-1.394-2.313-1.394-1.501 0-3.384 1.34-3.384 2.178 0 .838 1.883 1.508 3.384 1.508h.416a22.394 22.394 0 0 1 3.794 0h.409c1.508 0 3.391-.67 3.391-1.508 0-.837-1.883-2.178-3.392-2.178ZM56.681 69.285c0 .73-1.642 1.34-3.666 1.34-2.025 0-3.667-.59-3.667-1.34 0-.751 1.642-1.34 3.667-1.34 2.024 0 3.666.61 3.666 1.34ZM42.873 52.072c-.154.067-9.129-.53-9.129-1.267a1.381 1.381 0 0 1 1.34-1.34h7.213a1.38 1.38 0 0 1 .556 2.634l.02-.027ZM64.717 52.153a1.34 1.34 0 0 1-1.34-1.34 1.374 1.374 0 0 1 1.34-1.342h7.266a1.34 1.34 0 0 1 1.34 1.341c0 .536-8.606 1.34-8.606 1.34Z" style="mix-blend-mode:soft-light"/><path fill="#000" d="M87.768 104.346c-5.576-2.54-9.008-5.797-10.483-9.973-2.835-7.983 2.011-17.709 6.703-27.112 1.126-2.26 2.192-4.397 3.144-6.502 3.673-8.11 2.272-20.57-3.486-31.006-5.59-10.128-14.035-16.442-23.787-17.79a62.952 62.952 0 0 0-8.62-.623c-18.801 0-27.729 9.692-31.905 17.816C13.55 40.41 11.72 62 17.7 69.553c1.588 2.01 4.752 4.176 8.412 6.703 9.618 6.629 22.789 15.704 16.85 28.948a.335.335 0 0 0 .141.423.326.326 0 0 0 .436-.088c7.902-10.496 2.553-19.705.14-22.923a22.508 22.508 0 0 1 9.384 10.725.346.346 0 0 0 .67-.175c-.878-7.533-5.804-13.144-11.019-19.082-1.736-2.01-3.532-4.022-5.248-6.213-5.992-7.628-13.868-22.568.134-37.408 1.186 3.807 8.794 26.047 27.166 35.631-.375 1.596-2.574 10.43-6.173 13.888a.328.328 0 0 0-.047.43.322.322 0 0 0 .415.113 18.024 18.024 0 0 0 5.993-4.296c-1.663 3.88-4.853 10.174-9.029 12.91a.349.349 0 0 0-.12.421.335.335 0 0 0 .395.181 13.135 13.135 0 0 0 4.98-2.513c-2.071 4.564-4.732 13.345 1.508 19.639a.34.34 0 0 0 .203.099.34.34 0 0 0 .22-.052.352.352 0 0 0 .127-.409 17.743 17.743 0 0 1 1.877-16.945c-.517 3.164-1.274 10.919 2.526 15.939 2.078 2.742 5.208 4.23 9.31 4.417a.34.34 0 1 0 .114-.67c-3.036-1.066-5.107-2.835-6.153-5.268-1.615-3.754-.389-8.13.221-9.853 1.254 2.68 6.174 11.522 16.55 10.851a.325.325 0 0 0 .308-.268.334.334 0 0 0-.222-.362Z" style="mix-blend-mode:soft-light"/><path fill="#000" d="M66.346 66.168s7.54 2.5 14.786 2.165c-.362-.114-16.254-.737-29.19-13.405 7.165 8.519 14.404 11.24 14.404 11.24Z" style="mix-blend-mode:soft-light"/><g opacity=".1" style="mix-blend-mode:soft-light"><path fill="#000" d="M82.104 33.312c-.067-.181-.134-.355-.194-.53 1.133-.06 2.299-1.166 1.588-2.285a21.726 21.726 0 0 0-4.068-4.786 1.923 1.923 0 0 0-2.447.194 34.023 34.023 0 0 1-2.855-4.417c-.918-1.776-3.586-.14-2.936 1.609l.704 1.91-.308-.402c-1.02-1.28-3.05.208-2.795 1.609l-.584-.67c-1.139-1.26-3.498.428-2.68 1.923l.911 1.763a1.714 1.714 0 0 0-.094 1.34l.938 2.554a2.011 2.011 0 0 0-1.34 1.34l-.583-.75c-.55-.71-2.976-1.394-3.07-.241-.878-.402-2.01-.49-2.172.382-.73-.047-1.414.248-1.394.911l-1.407-1.796c-.67-.845-3.204-.992-2.755.603.06.215.14.416.201.623-.154-.207-.315-.408-.47-.623-.63-.864-3.545-1.582-2.989.302.121.415.255.824.39 1.233-.718 0-1.341.355-1.127 1.24.107.51.228 1.005.355 1.508-.971-.67-2.72-.67-2.506.798.074.568.2 1.13.375 1.675-.67 0-1.34.396-1.2 1.254.027.705.22 1.394.563 2.01.476 1.14 2.829 1.576 3.184.67a1.87 1.87 0 0 0 1.18.229 31.89 31.89 0 0 0 2.158 2.326c.885.864 3.606.838 2.607-.932-.2-.355-.395-.71-.576-1.073 1.126.436 2.949.222 2.044-1.253-.255-.429-.51-.851-.75-1.287.24.268.468.543.71.804.79.872 3.103.805 2.781-.502.785 1.025 1.576 2.01 2.353 3.07.778 1.059 3.754 1.34 2.849-.624-.288-.67-.59-1.26-.885-1.89.617-.174 1.005-.67.536-1.454a10.383 10.383 0 0 1-.368-.67c.971.247 1.977.1 1.581-1.06l-.409-1.193c.205-.008.403-.075.57-.194.476-.349.67-.556.784-1.019.35.422.665.87.945 1.34a1.4 1.4 0 0 0 1.817.63c.447 1.02.894 2.04 1.34 3.064.67 1.568 3.62.335 3.07-1.24-.04-.127-.087-.248-.134-.376a51.327 51.327 0 0 0-.523-1.42 98.416 98.416 0 0 1 2.95 4.638c.938 1.575 3.9.08 2.942-1.609-.275-.482-.536-.972-.804-1.454a1.387 1.387 0 0 0 .757-1.63c-.047-.126-.1-.24-.147-.368-.626-1.675-1.247-3.351-1.864-5.027.054.1.1.201.161.302.503 1.34 1.032 2.721 1.602 4.068.67 1.602 3.465.356 3.077-1.233a17.512 17.512 0 0 0-1.589-3.914Z"/><path stroke="#000" stroke-miterlimit="10" d="M82.104 33.312c-.067-.181-.134-.355-.194-.53 1.133-.06 2.299-1.166 1.588-2.285a21.726 21.726 0 0 0-4.068-4.786 1.923 1.923 0 0 0-2.447.194 34.023 34.023 0 0 1-2.855-4.417c-.918-1.776-3.586-.14-2.936 1.609l.704 1.91-.308-.402c-1.02-1.28-3.05.208-2.795 1.609l-.584-.67c-1.139-1.26-3.498.428-2.68 1.923l.911 1.763a1.714 1.714 0 0 0-.094 1.34l.938 2.554a2.011 2.011 0 0 0-1.34 1.34l-.583-.75c-.55-.71-2.976-1.394-3.07-.241-.878-.402-2.01-.49-2.172.382-.73-.047-1.414.248-1.394.911l-1.407-1.796c-.67-.845-3.204-.992-2.755.603.06.215.14.416.201.623-.154-.207-.315-.408-.47-.623-.63-.864-3.545-1.582-2.989.302.121.415.255.824.39 1.233-.718 0-1.341.355-1.127 1.24.107.51.228 1.005.355 1.508-.971-.67-2.72-.67-2.506.798.074.568.2 1.13.375 1.675-.67 0-1.34.396-1.2 1.254.027.705.22 1.394.563 2.01.476 1.14 2.829 1.576 3.184.67a1.87 1.87 0 0 0 1.18.229 31.89 31.89 0 0 0 2.158 2.326c.885.864 3.606.838 2.607-.932-.2-.355-.395-.71-.576-1.073 1.126.436 2.949.222 2.044-1.253-.255-.429-.51-.851-.75-1.287.24.268.468.543.71.804.79.872 3.103.805 2.781-.502.785 1.025 1.576 2.01 2.353 3.07.778 1.059 3.754 1.34 2.849-.624-.288-.67-.59-1.26-.885-1.89.617-.174 1.005-.67.536-1.454a10.383 10.383 0 0 1-.368-.67c.971.247 1.977.1 1.581-1.06l-.409-1.193c.205-.008.403-.075.57-.194.476-.349.67-.556.784-1.019.35.422.665.87.945 1.34a1.4 1.4 0 0 0 1.817.63c.447 1.02.894 2.04 1.34 3.064.67 1.568 3.62.335 3.07-1.24-.04-.127-.087-.248-.134-.376a51.327 51.327 0 0 0-.523-1.42 98.416 98.416 0 0 1 2.95 4.638c.938 1.575 3.9.08 2.942-1.609-.275-.482-.536-.972-.804-1.454a1.387 1.387 0 0 0 .757-1.63c-.047-.126-.1-.24-.147-.368-.626-1.675-1.247-3.351-1.864-5.027.054.1.1.201.161.302.503 1.34 1.032 2.721 1.602 4.068.67 1.602 3.465.356 3.077-1.233a17.512 17.512 0 0 0-1.589-3.914Z"/></g><g opacity=".1" style="mix-blend-mode:soft-light"><path fill="#000" d="M30.427 34.592a43.658 43.658 0 0 1-2.218 5.757c0-.442.073-.884.127-1.34.147-1.18-.784-1.046-1.535-.557a1.053 1.053 0 0 0-1.3-.046c.087-.134.154-.275.24-.416.9-1.394-.844-2.105-1.769-.985-.364.441-.704.902-1.018 1.38-.181-.971-1.555-.308-1.95.114l-.095.108a1.072 1.072 0 0 0-1.186-.067 3.58 3.58 0 0 0-1.716 1.782c-.536 1.093.14 1.65.885 1.535l.04.416c.094.965 1.12.67 1.75.214v2.206c-.029.27.05.54.22.75a18.844 18.844 0 0 0 .135 4.746c.24 1.535 2.393.08 2.406-.952.027-1.632.252-3.255.67-4.833.259-.117.488-.291.67-.509a.758.758 0 0 0 .919.127 36.362 36.362 0 0 0 1.34 10.148c.463 1.656 2.48-.1 2.393-1.26-.261-3.351-.556-6.877.235-10.195.67-2.842 2.366-5.295 3.083-8.13.442-1.85-1.957-1.407-2.326.007Z"/><path stroke="#000" stroke-miterlimit="10" stroke-width=".87" d="M30.427 34.592a43.658 43.658 0 0 1-2.218 5.757c0-.442.073-.884.127-1.34.147-1.18-.784-1.046-1.535-.557a1.053 1.053 0 0 0-1.3-.046c.087-.134.154-.275.24-.416.9-1.394-.844-2.105-1.769-.985-.364.441-.704.902-1.018 1.38-.181-.971-1.555-.308-1.95.114l-.095.108a1.072 1.072 0 0 0-1.186-.067 3.58 3.58 0 0 0-1.716 1.782c-.536 1.093.14 1.65.885 1.535l.04.416c.094.965 1.12.67 1.75.214v2.206c-.029.27.05.54.22.75a18.844 18.844 0 0 0 .135 4.746c.24 1.535 2.393.08 2.406-.952.027-1.632.252-3.255.67-4.833.259-.117.488-.291.67-.509a.758.758 0 0 0 .919.127 36.362 36.362 0 0 0 1.34 10.148c.463 1.656 2.48-.1 2.393-1.26-.261-3.351-.556-6.877.235-10.195.67-2.842 2.366-5.295 3.083-8.13.442-1.85-1.957-1.407-2.326.007Z"/></g></g><path fill="#4C3C30" d="M87.272 50.437c0 25.926-17.996 65.016-36.013 65.016s-38.721-37.77-38.721-63.675c0-25.906 20.697-30.162 38.72-30.162 18.024 0 36.014 2.922 36.014 28.821Z"/><path fill="#443425" d="M23.604 118.677c.188-.711.335-1.428.543-2.111.208-.684.416-1.341.617-2.011l.59-1.964c.1-.322.194-.67.294-.952.1-.281.215-.616.322-.911.436-1.207.845-2.34 1.227-3.385.187-.523.362-1.032.55-1.502l.556-1.34.918-2.158c.503-1.2.797-1.884.797-1.884.074-.185.161-.364.262-.536a7.03 7.03 0 0 1 4.021-3.23c1.569-.47 6.603-1.616 8.044-.671 1.44.945 1.032 3.7 1.407 5.255.376 1.555-1.85 3.224-2.68 4.692l-.852 1.622c-.268.516-.597 1.146-.979 1.863l-.603 1.146c-.201.409-.389.852-.596 1.301l-1.341 2.935-.362.791-.322.831c-.22.557-.449 1.126-.67 1.71-.221.583-.462 1.166-.67 1.769-.208.603-.416 1.213-.67 1.837-.255.623-.383 1.132-.57 1.702l-10.383-2.534v-.12c.202-.717.376-1.435.55-2.145ZM74.564 124.642c-.275-.067-.563-.128-.825-.215l-.764-.288a11.93 11.93 0 0 1-1.488-.67 25.974 25.974 0 0 1-1.34-.771 12.56 12.56 0 0 1-1.214-.858 11.458 11.458 0 0 1-1.106-.898 25.292 25.292 0 0 1-5.61-7.554c-.527-1.056-.999-2.139-1.414-3.244-.355-.972-.616-1.837-.851-2.54-.369-1.428-.576-2.246-.576-2.246a4.428 4.428 0 0 1-.114-.67 6.914 6.914 0 0 1 1.407-5.402 5.234 5.234 0 0 1 4.35-1.91 6.864 6.864 0 0 1 4.283 1.896 6.285 6.285 0 0 1 1.38 1.736c.362.633.59 1.334.671 2.058l.262 1.568c.127.483.248 1.079.428 1.75.181.67.41 1.401.724 2.145a14.672 14.672 0 0 0 2.588 4.356c.128.145.267.279.415.402.13.135.269.26.416.376.14.094.274.194.415.301.128.086.263.163.402.228l.195.121c.067.034.134.034.194.06.06.027.255.121.382.141h.087v10.563a13.89 13.89 0 0 1-1.669-.1 15.319 15.319 0 0 1-1.628-.335Z"/><path fill="#FFE3B6" d="M84.618 102.557c.167-1.133.241-1.79.241-1.79a4.631 4.631 0 0 1 4.25-4.109c2.359-.134 4.41 1.944 4.323 4.692 0 0 0 .764-.108 2.111a95.91 95.91 0 0 1-.14 1.71l-8.8-1.2c.093-.516.174-1.012.234-1.414ZM83.672 107.114a19.75 19.75 0 0 1-2.252 5.416 7.767 7.767 0 0 1-.758.999l7.266 6.857c.76-.921 1.42-1.918 1.97-2.976a29.273 29.273 0 0 0 2.729-8.258c.281-1.501.449-2.829.556-3.941l-8.8-1.2a35.935 35.935 0 0 1-.711 3.103ZM64.503 95.995c-4.196-.938-5.979-2.071-12.735-2.071a37.324 37.324 0 0 0-7.373.637c-2.104.402-3.827.945-6.032 1.434-2.681.59-4.773 3.425-4.773 6.14l.67 20.021a26.863 26.863 0 0 0-4.624 15.362h43.809c0-8.486-5.517-15.362-5.517-15.362l1.34-20.021c.034-2.715-2.11-5.55-4.765-6.14Z"/><path fill="#C6C6C6" d="M75.616 93.984s-11.066-.315-12.011-.462v.093c0 4.136-3.311 8.157-6.414 9.136a17.772 17.772 0 0 1-10.638 0c-3.103-.979-6.407-5-6.407-9.136-.905.141-11.482.45-11.482.45v32.976h46.919l.033-33.057Z"/><path fill="#4C3C30" d="M48.417 94.091H28.02v45.324h20.396V94.092ZM75.515 94.42H55.12v45.323h20.396V94.42Z"/><path fill="#C6C6C6" d="M45.4 106.732a1.005 1.005 0 1 0 .001-2.01 1.005 1.005 0 0 0 0 2.01Z"/><path fill="#FFE3B6" d="m58.316 92.14.242 2.5s-2.903 5.115-6.79 5.115c-3.888 0-6.79-5.114-6.79-5.114l.241-2.5a2.681 2.681 0 0 1 2.681-2.427h7.762a2.68 2.68 0 0 1 2.654 2.427Z"/><path fill="#4C3C30" d="M60.736 89.453h-5.617v9.384h5.617v-9.384ZM48.416 89.453H42.8v9.384h5.616v-9.384ZM50.763 98.415h-2.346v-4.692h2.346a2.346 2.346 0 1 1 0 4.692Z"/><path fill="#C6C6C6" d="M50.763 97.074a1.005 1.005 0 1 0 0-2.01 1.005 1.005 0 0 0 0 2.01Z"/><path fill="#4C2C11" d="M58.518 90.224c0 1.669-2.956 3.023-6.602 3.023-3.646 0-6.61-1.34-6.61-3.023s2.964-3.023 6.61-3.023c3.646 0 6.602 1.354 6.602 3.023Z" opacity=".3" style="mix-blend-mode:multiply"/><path fill="#FFE3B6" d="M27.933 66.59c.986 3.968-.744 7.809-3.86 8.586-3.117.778-6.455-1.803-7.44-5.77-.986-3.969.737-7.803 3.86-8.587 3.124-.784 6.448 1.81 7.44 5.771ZM84.175 68.896c-.636 4.022-3.733 6.904-6.91 6.401-3.177-.502-5.235-4.182-4.591-8.224.643-4.041 3.733-6.897 6.91-6.394 3.177.503 5.228 4.182 4.591 8.217Z"/><path fill="#FFE3B6" d="M22.806 66c0 14.076 10.228 25.437 22.85 25.437h9.249c12.621 0 22.85-11.394 22.85-25.436V39.284c0-10.054-7.333-18.238-16.375-18.238h-22.2c-9.041.013-16.374 8.184-16.374 18.238V66Z"/><path fill="#443425" d="M57.955 58.574h8.713a1.005 1.005 0 0 1 1.006 1.005.992.992 0 0 1-.181.57c-.128 1.87-1.917 3.351-4.116 3.351a4.021 4.021 0 0 1-4.021-2.915h-1.34a1.005 1.005 0 1 1 0-2.011h-.061ZM41.151 58.842h-8.713c-.55 0-1.274.181-1.274.738a1.006 1.006 0 0 0 1.005 1.005h1.28a4.022 4.022 0 0 0 4.022 2.916c2.159 0 4.19-1.428 4.384-3.244v-.67c.013-.564-.168-.745-.704-.745Z"/><path fill="#FF9271" d="M55.997 76.276c0 1.213-2.124 2.198-4.745 2.198s-4.74-.985-4.74-2.198c0-1.214 2.126-.865 4.746-.865 2.621 0 4.74-.355 4.74.865Z"/><path fill="#CC553A" d="M53.557 72.227c-.978 0-1.83.965-2.305 1.394-.483-.429-1.34-1.394-2.313-1.394-1.501 0-3.385 1.34-3.385 2.179 0 .837 1.884 1.508 3.385 1.508h.416a22.416 22.416 0 0 1 3.794 0h.408c1.508 0 3.392-.67 3.392-1.508s-1.883-2.179-3.392-2.179Z"/><path fill="#EAB88B" d="M54.67 67.944c0 .73-1.642 1.34-3.666 1.34-2.025 0-3.667-.589-3.667-1.34 0-.75 1.642-1.34 3.667-1.34 2.024 0 3.666.61 3.666 1.34Z"/><path fill="#443425" d="M40.863 50.732c-.154.067-9.13-.53-9.13-1.267a1.381 1.381 0 0 1 1.341-1.34h7.212a1.38 1.38 0 0 1 .557 2.634l.02-.027ZM62.707 50.812a1.34 1.34 0 0 1-1.34-1.34 1.374 1.374 0 0 1 1.34-1.34h7.265a1.34 1.34 0 0 1 1.34 1.34c0 .536-8.605 1.34-8.605 1.34Z"/><path fill="url(#b)" d="M85.757 103.006c-5.576-2.54-9.008-5.798-10.483-9.974-2.835-7.982 2.011-17.708 6.703-27.112 1.126-2.259 2.192-4.397 3.144-6.501 3.672-8.11 2.272-20.57-3.486-31.007-5.59-10.127-14.035-16.441-23.788-17.789a62.97 62.97 0 0 0-8.62-.623c-18.8 0-27.728 9.692-31.904 17.816-5.784 11.253-7.614 32.843-1.635 40.397 1.588 2.01 4.752 4.175 8.411 6.702 9.619 6.63 22.79 15.704 16.851 28.949a.335.335 0 0 0 .14.422c.071.043.155.058.235.041a.325.325 0 0 0 .201-.128c7.903-10.496 2.554-19.706.141-22.923A22.508 22.508 0 0 1 51.051 92a.346.346 0 0 0 .67-.174c-.878-7.534-5.804-13.144-11.019-19.082-1.736-2.011-3.532-4.022-5.248-6.214-5.992-7.627-13.868-22.568.134-37.407 1.186 3.807 8.794 26.046 27.166 35.631-.376 1.595-2.574 10.43-6.173 13.888a.328.328 0 0 0-.047.429.321.321 0 0 0 .415.114 18.025 18.025 0 0 0 5.992-4.297c-1.662 3.881-4.852 10.175-9.028 12.91a.348.348 0 0 0-.12.422.335.335 0 0 0 .395.18 13.137 13.137 0 0 0 4.98-2.513c-2.071 4.565-4.732 13.345 1.508 19.639a.333.333 0 0 0 .422.047.346.346 0 0 0 .127-.409 17.742 17.742 0 0 1 1.877-16.944c-.516 3.164-1.273 10.919 2.527 15.939 2.078 2.741 5.208 4.229 9.31 4.417a.341.341 0 0 0 .334-.532.341.341 0 0 0-.22-.138c-3.036-1.066-5.107-2.836-6.153-5.269-1.615-3.753-.389-8.13.221-9.853 1.254 2.681 6.173 11.522 16.55 10.852a.33.33 0 0 0 .307-.268.332.332 0 0 0-.22-.362Z"/><path fill="#443425" d="M64.335 64.828s7.54 2.5 14.786 2.165c-.362-.114-16.254-.738-29.19-13.406 7.165 8.52 14.404 11.24 14.404 11.24Z"/><path fill="#fff" stroke="#fff" stroke-miterlimit="10" d="M80.093 31.971c-.067-.18-.134-.355-.194-.53 1.133-.06 2.299-1.166 1.588-2.285a21.729 21.729 0 0 0-4.068-4.786 1.923 1.923 0 0 0-2.447.195 34.026 34.026 0 0 1-2.855-4.417c-.918-1.777-3.586-.141-2.936 1.608l.704 1.91-.308-.402c-1.019-1.28-3.05.208-2.795 1.609l-.583-.67c-1.14-1.26-3.499.429-2.681 1.923l.911 1.763a1.718 1.718 0 0 0-.094 1.34l.939 2.554a2.01 2.01 0 0 0-1.34 1.341l-.584-.75c-.55-.711-2.976-1.395-3.07-.242-.878-.402-2.01-.49-2.171.382-.73-.047-1.415.248-1.395.912l-1.407-1.797c-.67-.844-3.204-.992-2.755.604.06.214.14.415.201.623-.154-.208-.315-.409-.469-.623-.63-.865-3.546-1.582-2.99.301.121.416.255.825.39 1.233-.718 0-1.341.356-1.127 1.24.108.51.228 1.006.356 1.509-.972-.67-2.722-.67-2.507.797.075.569.2 1.13.375 1.676-.67 0-1.34.395-1.2 1.253.027.706.22 1.395.563 2.011.476 1.14 2.829 1.575 3.184.67a1.87 1.87 0 0 0 1.18.228c.67.798 1.394 1.582 2.158 2.326.885.865 3.606.838 2.607-.932-.2-.355-.395-.71-.576-1.072 1.126.435 2.95.221 2.044-1.254-.254-.428-.51-.85-.75-1.286.24.268.469.542.71.804.791.871 3.103.804 2.782-.503.784 1.026 1.575 2.011 2.352 3.07.778 1.059 3.754 1.34 2.849-.623-.288-.67-.59-1.26-.885-1.89.617-.175 1.006-.67.536-1.455a10.38 10.38 0 0 1-.368-.67c.972.248 1.977.1 1.582-1.06l-.41-1.192a1.06 1.06 0 0 0 .57-.195c.476-.348.67-.556.785-1.019.349.422.665.87.945 1.341a1.401 1.401 0 0 0 1.816.63c.447 1.019.894 2.04 1.34 3.063.67 1.569 3.62.335 3.07-1.24-.04-.127-.087-.248-.134-.375a51.117 51.117 0 0 0-.522-1.421 98.496 98.496 0 0 1 2.949 4.638c.938 1.575 3.9.08 2.942-1.608-.275-.483-.536-.972-.804-1.455a1.387 1.387 0 0 0 .757-1.629c-.047-.127-.1-.241-.147-.368-.626-1.676-1.247-3.352-1.863-5.027.053.1.1.2.16.301.503 1.34 1.033 2.722 1.602 4.069.67 1.602 3.466.355 3.077-1.233a17.513 17.513 0 0 0-1.589-3.915Z" opacity=".1"/><path fill="#fff" stroke="#fff" stroke-miterlimit="10" stroke-width=".87" d="M28.416 33.251a43.637 43.637 0 0 1-2.219 5.758c0-.443.074-.885.128-1.34.147-1.18-.785-1.046-1.535-.557a1.052 1.052 0 0 0-1.3-.047c.087-.134.154-.275.24-.415.899-1.395-.844-2.105-1.769-.986-.364.442-.704.903-1.019 1.381-.18-.972-1.555-.308-1.95.114l-.094.107a1.073 1.073 0 0 0-1.186-.067 3.58 3.58 0 0 0-1.716 1.783c-.536 1.093.14 1.649.885 1.535l.04.415c.094.966 1.12.67 1.75.215v2.205c-.03.27.05.54.22.75a18.839 18.839 0 0 0 .134 4.746c.242 1.535 2.393.08 2.407-.951a20.15 20.15 0 0 1 .67-4.833c.259-.117.488-.291.67-.51a.757.757 0 0 0 .919.128 36.361 36.361 0 0 0 1.34 10.148c.463 1.655 2.48-.1 2.393-1.26-.262-3.352-.556-6.877.234-10.195.67-2.842 2.366-5.295 3.084-8.13.442-1.85-1.957-1.408-2.326.006Z" opacity=".1"/></g><defs><linearGradient id="b" x1="49.576" x2="49.576" y1="75.579" y2="113.409" gradientUnits="userSpaceOnUse"><stop stop-color="#4C3C30"/><stop offset="1" stop-color="#732D24"/></linearGradient></defs></svg>