<svg xmlns="http://www.w3.org/2000/svg" width="107" height="107" fill="none"><mask id="a" width="107" height="107" x="0" y="0" maskUnits="userSpaceOnUse" style="mask-type:alpha"><circle cx="53.5" cy="53.5" r="53.5" fill="#D9D9D9"/></mask><g mask="url(#a)"><g opacity=".75" style="mix-blend-mode:soft-light"><path fill="#000100" d="M68.072 86.873c-3.76-.841-5.357-1.856-11.409-1.856-6.053 0-8.25 1.021-12.009 1.856-2.402.528-4.275 3.062-4.275 5.5l1.2 17.935a22.217 22.217 0 0 0-4.743 13.762h39.246c0-7.601-4.942-13.762-4.942-13.762l1.2-17.935c.007-2.438-1.89-4.972-4.269-5.5Z" style="mix-blend-mode:soft-light"/><path fill="#000100" d="M76.22 83.642H34.17v41.828h42.05V83.642Z" style="mix-blend-mode:soft-light"/><path fill="#000100" d="M59.863 80.695h-7.565c-2.336 0-4.768 2.3-5.338 5.181 0 .078 0 .15-.042.223a6.004 6.004 0 0 0 .6 4.119c1.015 1.801 3.483 3.993 8.406 3.999 4.924.006 7.47-2.15 8.605-3.933a5.956 5.956 0 0 0 .733-4.408c-.607-2.882-3.063-5.181-5.399-5.181Z" style="mix-blend-mode:soft-light"/><g style="mix-blend-mode:soft-light"><path fill="#000100" d="M62.542 95.585h-12.61c-3.602-.294-4.54-4.377-3.789-8.202.751-3.825 2.81-7.734 5.338-8.01h9.26c2.57.276 4.7 4.203 5.487 8.016.787 3.813-.108 7.908-3.65 8.202l-.036-.006Zm-1.688-15.083h-9.463c-1.975.216-3.602 3.687-4.149 6.899-.546 3.212.156 6.815 2.846 7.037h12.316c2.666-.252 3.326-3.849 2.738-7.037-.589-3.188-2.264-6.707-4.288-6.9Z" style="mix-blend-mode:soft-light"/><path fill="#000100" d="m61.455 95.585-.216-1.164c2.042-.21 2.672-3.735 2.174-7.038-.499-3.302-1.898-6.7-3.429-6.899v-1.11c2.12.281 3.897 4.172 4.551 8.01.655 3.836-.12 7.901-3.08 8.201Z" style="mix-blend-mode:soft-light"/><path fill="#000100" d="m59.786 95.573-.295-1.14c.6-.115 1.357-2.732.967-7.05-.39-4.317-1.35-6.79-1.801-6.905 0-.366.066-.732.096-1.099 1.735.397 2.636 6.191 2.816 7.998.18 1.808.612 7.752-1.783 8.197ZM58.086 95.513a87.633 87.633 0 0 1-.516-1.068.27.27 0 0 0-.12.078c.918-1.201.33-13.15-.379-14.183.028.033.063.06.102.078l.325-1.027c.228.144.997.445 1.477 7.962.48 7.518-.577 8.07-.889 8.16ZM54.4 95.513c-.313-.114-1.31-.6-.955-8.16.354-7.56 1.117-7.806 1.345-7.962.114.343.228.685.348 1.021a.235.235 0 0 0 .096-.078c-.673 1.033-1.099 12.982-.198 14.195a.306.306 0 0 0-.12-.084c-.18.378-.343.738-.517 1.068ZM52.688 95.573c-2.402-.444-2.041-6.418-1.861-8.196.18-1.777.985-7.601 2.708-7.998.036.367.078.733.114 1.1-.462.113-1.375 2.587-1.723 6.904-.349 4.318.42 6.936 1.044 7.05-.09.378-.186.762-.282 1.14Z" style="mix-blend-mode:soft-light"/><path fill="#000100" d="M51.02 95.585c-2.967-.3-3.76-4.383-3.147-8.202.612-3.819 2.33-7.728 4.443-8.01v1.111c-1.53.198-2.888 3.603-3.338 6.9-.45 3.296.21 6.826 2.252 7.037-.097.39-.145.774-.21 1.164Z" style="mix-blend-mode:soft-light"/></g><path stroke="#000100" stroke-miterlimit="10" d="M59.863 80.695h-7.565c-2.336 0-4.768 2.3-5.338 5.181 0 .078 0 .15-.042.223a6.004 6.004 0 0 0 .6 4.119c1.015 1.801 3.483 3.993 8.406 3.999 4.924.006 7.47-2.15 8.605-3.933a5.956 5.956 0 0 0 .733-4.408c-.607-2.882-3.063-5.181-5.399-5.181Z" style="mix-blend-mode:soft-light"/><path fill="#000100" d="M61.94 82.682a7.572 7.572 0 0 1-5.896 2.63 7.128 7.128 0 0 1-5.812-2.894 22.171 22.171 0 0 1 5.812-1.021c2.022.112 4.012.545 5.897 1.285ZM64.481 9.127H46.54c-12.664 0-29.759 21.015-29.759 39.563 0 18.548 12.13 29.356 24.793 29.356 5.686 0 10.88-4.858 14.891-9.871 4.203 6.46 10.076 9.871 16.626 9.871 12.664 0 22.313-10.208 22.313-28.713 0-18.506-18.266-40.206-30.923-40.206Z" style="mix-blend-mode:soft-light"/><path fill="#000100" d="M65.712 23.31h-18.5c-19.97 0-18.53 33.312-18.53 33.312v3.945a22.865 22.865 0 0 0 22.944 22.787h9.295a22.866 22.866 0 0 0 22.943-22.787v-3.909s1.82-33.349-18.152-33.349Z" style="mix-blend-mode:soft-light"/><path fill="#000100" d="M30.472 56.742c0 3.663-2.336 6.605-5.218 6.605s-5.218-2.966-5.218-6.605c0-3.638 2.336-6.605 5.218-6.605s5.218 2.949 5.218 6.605ZM91.927 56.742c0 3.663-2.336 6.605-5.218 6.605s-5.218-2.966-5.218-6.605c0-3.638 2.336-6.605 5.218-6.605s5.218 2.949 5.218 6.605ZM59.93 63.966a.515.515 0 0 1-.517.528.523.523 0 0 1-.38-.892.522.522 0 0 1 .897.364ZM64.175 59.12a.523.523 0 0 1-.516.529.528.528 0 1 1 0-1.051.522.522 0 0 1 .516.522ZM61.623 68.036a.529.529 0 1 1-1.051-.112.529.529 0 0 1 1.05.112ZM63.688 62.488a.529.529 0 0 1-.523.529.529.529 0 0 1 0-1.051.535.535 0 0 1 .523.522ZM68.672 60.417a.528.528 0 1 1-1.057.012.528.528 0 0 1 1.057-.012ZM66.019 65.107a.529.529 0 1 1-1.057.011.529.529 0 0 1 1.057-.011ZM70.474 63.858a.529.529 0 1 1-1.051-.113.529.529 0 0 1 1.05.113ZM74.454 66.854a.528.528 0 1 1-1.05 0 .517.517 0 0 1 .516-.528.528.528 0 0 1 .534.528ZM73.908 65.022a.528.528 0 1 1-1.05.113.528.528 0 0 1 1.05-.113ZM76.424 65.527a.528.528 0 1 1-.326-.484.521.521 0 0 1 .326.484ZM74.376 59.54a.528.528 0 1 1-1.05-.112.528.528 0 0 1 1.05.112ZM80.993 60.687a.529.529 0 0 1-1.05 0 .534.534 0 0 1 .522-.534.523.523 0 0 1 .528.534Z" style="mix-blend-mode:soft-light"/><path fill="#000100" d="M30.418 61.786a.523.523 0 1 1-.529-.522.528.528 0 0 1 .529.522ZM36.638 61.72a.523.523 0 0 1-.516.535.528.528 0 1 1 0-1.051.516.516 0 0 1 .516.516ZM36.615 58.85a.535.535 0 0 1-.523.534.528.528 0 1 1 .523-.535ZM42.09 65.869a.534.534 0 0 1-.522.534.528.528 0 1 1 .522-.534ZM37.214 66.445a.529.529 0 1 1-1.057.024.529.529 0 0 1 1.057-.024ZM46.33 59.823a.528.528 0 1 1-.529-.517.515.515 0 0 1 .529.517ZM49.932 66.842a.523.523 0 0 1-.516.534.535.535 0 0 1-.534-.522.529.529 0 0 1 1.05 0v-.012ZM42.535 61.138a.517.517 0 0 1-.517.528.529.529 0 1 1 .517-.528ZM52.334 63.516a.529.529 0 1 1-1.051-.113.529.529 0 0 1 1.05.113ZM44.96 63.587a.534.534 0 0 1-.522.535.528.528 0 1 1 .522-.535ZM46.827 67.658a.528.528 0 1 1-1.05.113.528.528 0 0 1 1.05-.113ZM51.025 59.252a.517.517 0 0 1-.517.528.521.521 0 0 1-.38-.892.522.522 0 0 1 .896.364ZM59.905 72.696c0 1.087-1.903 1.97-4.25 1.97-2.349 0-4.252-.883-4.252-1.97s1.903-.768 4.251-.768c2.348 0 4.251-.306 4.251.768Z" style="mix-blend-mode:soft-light"/><path fill="#000100" d="M57.738 69.094c-.877 0-1.64.858-2.066 1.243-.432-.385-1.2-1.243-2.071-1.243-1.345 0-3.003 1.2-3.003 1.951 0 .75 1.688 1.351 3.003 1.351h.372a20.068 20.068 0 0 1 3.398 0h.367c1.345 0 3.038-.6 3.038-1.35 0-.752-1.711-1.952-3.038-1.952Z" style="mix-blend-mode:soft-light"/><path stroke="#000100" stroke-linecap="round" stroke-linejoin="round" stroke-width="2" d="M44.054 69.286a1.1 1.1 0 0 1 1.549.06c.066.06 2.624 2.594 9.571 2.594 6.947 0 9.547-2.57 9.607-2.594a1.105 1.105 0 0 1 1.555-.048" style="mix-blend-mode:soft-light"/><path fill="#000100" d="M44.06 57.036a2.846 2.846 0 0 1-5.686 0V55.8a2.847 2.847 0 0 1 5.686 0v1.237ZM71.98 57.036a2.846 2.846 0 0 1-5.685 0V55.8a2.846 2.846 0 0 1 5.686 0v1.237Z" style="mix-blend-mode:soft-light"/><path fill="#000100" d="M38.812 56.214a2.9 2.9 0 0 1-2.9-2.894.6.6 0 0 1 1.2 0 1.693 1.693 0 0 0 1.694 1.693.6.6 0 1 1 0 1.201h.006ZM71.44 56.214a2.9 2.9 0 0 0 2.9-2.894.6.6 0 0 0-1.2 0 1.7 1.7 0 0 1-1.7 1.693.6.6 0 1 0 0 1.201ZM44.264 46.276a1.16 1.16 0 0 0-.516-.084H37.19a1.369 1.369 0 0 0-1.2 1.49 1.411 1.411 0 0 0 1.2 1.513h6.557a1.381 1.381 0 0 0 1.2-1.495 1.567 1.567 0 0 0-.684-1.424ZM73.074 46.276a1.16 1.16 0 0 0-.517-.084h-6.55a1.381 1.381 0 0 0-1.202 1.49 1.411 1.411 0 0 0 1.237 1.513h6.551a1.381 1.381 0 0 0 1.201-1.495 1.557 1.557 0 0 0-.72-1.424ZM81.534 63.78a.6.6 0 0 1-.522-.6c-.127-6.486-.049-20.572-.037-21.905-1.2-3.645-.924-4.053-.768-4.282a.685.685 0 0 1 .558-.282c.475 0 .92 0 4.24 6.57a.6.6 0 0 1 .066.227c.912 12.34.456 12.832.156 13.156a.674.674 0 0 1-.499.222.696.696 0 0 1-.66-.408l-1.88 6.845a.6.6 0 0 1-.6.444l-.054.012Z" style="mix-blend-mode:soft-light"/><path fill="#000100" d="M80.765 37.33c.306 0 1.297 1.47 3.705 6.238.763 10.316.6 12.736.258 12.736-.342 0-.714-1.886-.714-1.886l-2.402 8.767c-.132-6.845-.036-21.989-.036-21.989s-1.31-3.866-.81-3.866Zm0-1.201a1.285 1.285 0 0 0-1.044.534c-.295.414-.601.877.654 4.726 0 1.801-.09 15.461.036 21.82a1.2 1.2 0 0 0 1.05 1.2h.15a1.202 1.202 0 0 0 1.16-.882l1.65-6.004c.103.01.205.01.307 0a1.28 1.28 0 0 0 .937-.415c.48-.516.937-1.008 0-13.612a1.2 1.2 0 0 0-.126-.45c-1.135-2.252-2.036-3.927-2.684-4.99-.805-1.32-1.297-1.91-2.09-1.91v-.017ZM27.95 64.386a.6.6 0 0 1-.564-.402l-1.94-5.614a.696.696 0 0 1-.492.192.733.733 0 0 1-.535-.234c-.312-.343-.906-.98.079-14.201a.6.6 0 0 1 .06-.228c3.32-6.57 3.765-6.57 4.239-6.57a.684.684 0 0 1 .558.283c.162.228.457.636-.762 4.281 0 1.333.084 15.42-.042 21.905a.6.6 0 0 1-.505.6l-.096-.012Z" style="mix-blend-mode:soft-light"/><path fill="#000100" d="M28.796 37.93c.499 0-.81 3.867-.81 3.867s.102 15.143-.036 21.989l-2.402-6.966s-.318 1.141-.6 1.141c-.403 0-.71-2.348.137-13.81 2.402-4.768 3.405-6.239 3.705-6.239l.006.018Zm-.006-1.219c-.792 0-1.285.6-2.09 1.91-.642 1.063-1.549 2.738-2.683 4.99a1.2 1.2 0 0 0-.126.45c-1.003 13.486-.397 14.134.084 14.657a1.315 1.315 0 0 0 .972.426h.133l1.729 5.02a1.2 1.2 0 0 0 1.135.81h.192a1.201 1.201 0 0 0 1.009-1.165c.126-6.358.047-20 .041-21.82 1.28-3.849.95-4.311.65-4.725a1.285 1.285 0 0 0-1.046-.535v-.018Z" style="mix-blend-mode:soft-light"/><path fill="#000100" d="M25.055 42.986s3.447.6 10.075 1.039c.697.048 1.424-7.116 2.192-7.068.769.048.745 6.089 2.21 7.32 3.332 2.816 10.55.366 17.449.264.444 0 .895-9.007 1.345-9.007.546 0-.084 7.494 1.651 9.007s5.915-.21 9.475-.396c.294 0 1.201-6.04 1.483-6.053.282-.012.138 5.026 1.345 5.963 2.402 1.873 7.716-.553 12.231-.967 0 0 2.889-32.394-30.82-31.542-30.84.727-28.636 31.44-28.636 31.44Z" style="mix-blend-mode:soft-light"/><g style="mix-blend-mode:soft-light"><path fill="#000100" d="M30.273 45.868s-2.786-28.593 19.935-32.682c0 0-17.269 3.518-16.644 33.385l-3.29-.703Z" style="mix-blend-mode:soft-light"/><path fill="#000100" d="M30.273 45.868s-2.786-28.593 19.935-32.682c0 0-17.269 3.518-16.644 33.385l-3.29-.703Z" opacity=".2" style="mix-blend-mode:overlay"/><path stroke="#000100" stroke-linecap="round" stroke-linejoin="round" stroke-width="1.69" d="M30.273 45.868s-2.786-28.593 19.935-32.682c0 0-17.269 3.518-16.644 33.385l-3.29-.703Z" style="mix-blend-mode:soft-light"/><path fill="#000100" d="M41.142 45.514S35.678 27.08 51.385 15.84c0 0-11.714 9.65-6.959 30.377l-3.284-.703Z" style="mix-blend-mode:soft-light"/><path fill="#000100" d="M41.142 45.514S35.678 27.08 51.385 15.84c0 0-11.714 9.65-6.959 30.377l-3.284-.703Z" opacity=".2" style="mix-blend-mode:overlay"/><path stroke="#000100" stroke-linecap="round" stroke-linejoin="round" stroke-width="1.69" d="M41.142 45.514S35.678 27.08 51.385 15.84c0 0-11.714 9.65-6.959 30.377l-3.284-.703Z" style="mix-blend-mode:soft-light"/><path fill="#000100" d="M77.781 44.866s2.774-28.612-19.929-32.677c0 0 17.27 3.519 16.645 33.385l3.284-.708Z" style="mix-blend-mode:soft-light"/><path fill="#000100" d="M77.781 44.866s2.774-28.612-19.929-32.677c0 0 17.27 3.519 16.645 33.385l3.284-.708Z" opacity=".2" style="mix-blend-mode:overlay"/><path stroke="#000100" stroke-linecap="round" stroke-linejoin="round" stroke-width="1.69" d="M77.781 44.866s2.774-28.612-19.929-32.677c0 0 17.27 3.519 16.645 33.385l3.284-.708Z" style="mix-blend-mode:soft-light"/><path fill="#000100" d="M66.918 44.517s5.464-18.44-10.243-29.68c0 0 11.714 9.65 6.953 30.383l3.29-.703Z" style="mix-blend-mode:soft-light"/><path fill="#000100" d="M66.918 44.517s5.464-18.44-10.243-29.68c0 0 11.714 9.65 6.953 30.383l3.29-.703Z" opacity=".2" style="mix-blend-mode:overlay"/><path stroke="#000100" stroke-linecap="round" stroke-linejoin="round" stroke-width="1.69" d="M66.918 44.517s5.464-18.44-10.243-29.68c0 0 11.714 9.65 6.953 30.383l3.29-.703Z" style="mix-blend-mode:soft-light"/><path fill="#000100" d="M49.932 45.676s.066-20.013 2.684-26.955c0 0-.264 24.247.325 27.02.588 2.775-3.009-.065-3.009-.065Z" style="mix-blend-mode:soft-light"/><path fill="#000100" d="M49.932 45.676s.066-20.013 2.684-26.955c0 0-.264 24.247.325 27.02.588 2.775-3.009-.065-3.009-.065Z" opacity=".2" style="mix-blend-mode:overlay"/><path stroke="#000100" stroke-linecap="round" stroke-linejoin="round" stroke-width="1.69" d="M49.932 45.676s.066-20.013 2.684-26.955c0 0-.264 24.247.325 27.02.588 2.775-3.009-.065-3.009-.065Z" style="mix-blend-mode:soft-light"/></g><path stroke="#000100" stroke-linejoin="round" stroke-width="3" d="M25.055 42.986s3.447.6 10.075 1.039c.697.048 1.424-7.116 2.192-7.068.769.048.745 6.089 2.21 7.32 3.332 2.816 10.55.366 17.449.264.444 0 .895-9.007 1.345-9.007.546 0-.084 7.494 1.651 9.007s5.915-.21 9.475-.396c.294 0 1.201-6.04 1.483-6.053.282-.012.138 5.026 1.345 5.963 2.402 1.873 7.716-.553 12.231-.967 0 0 2.889-32.394-30.82-31.542-30.84.727-28.636 31.44-28.636 31.44Z" style="mix-blend-mode:soft-light"/><path fill="#000100" d="M41.286 64.74c2.533 0 4.587-.9 4.587-2.011 0-1.111-2.054-2.012-4.587-2.012-2.534 0-4.588.9-4.588 2.012 0 1.11 2.054 2.011 4.588 2.011ZM74.1 62.729c0 1.105-2.054 2.005-4.588 2.005-2.534 0-4.593-.9-4.593-2.005s2.06-2.012 4.593-2.012c2.534 0 4.588.9 4.588 2.012Z" opacity=".4" style="mix-blend-mode:soft-light"/><path fill="#000100" d="M58.938 64.782c0 .655-1.47 1.201-3.284 1.201-1.813 0-3.285-.528-3.285-1.2 0-.673 1.472-1.202 3.285-1.202 1.813 0 3.284.547 3.284 1.201ZM18.865 49.471c.823-5.188 4.804-30.083 24.132-36.285 0 0-15.707 5.77-17.84 30.383a12.412 12.412 0 0 0-6.292 5.902Z" style="mix-blend-mode:soft-light"/><path fill="#000100" d="M18.865 49.471c.823-5.188 4.804-30.083 24.132-36.285 0 0-15.707 5.77-17.84 30.383a12.412 12.412 0 0 0-6.292 5.902Z" opacity=".2" style="mix-blend-mode:overlay"/><path stroke="#000100" stroke-linecap="round" stroke-linejoin="round" stroke-width="1.69" d="M18.865 49.471c.823-5.188 4.804-30.083 24.132-36.285 0 0-15.707 5.77-17.84 30.383a12.412 12.412 0 0 0-6.292 5.902v0Z" style="mix-blend-mode:soft-light"/><g opacity=".1" style="mix-blend-mode:soft-light"><path fill="#000100" d="M68.084 13.186S82.83 21.142 85.01 47.718c0 0 3.074-.457 4.575 1.5-.024 0-3.369-27.026-21.502-36.032Z"/><path stroke="#000100" stroke-linecap="round" stroke-linejoin="round" stroke-width="1.69" d="M68.084 13.186S82.83 21.142 85.01 47.718c0 0 3.074-.457 4.575 1.5-.024 0-3.369-27.026-21.502-36.032Z"/></g><path fill="#000100" d="M70.635 51.158c-2.45.039-4.889.349-7.271.925a4.695 4.695 0 0 0-3.278 2.258c-1.123 2.131-.048 4.947.474 6.298l.084.216c.6 1.526 2.324 6.173 9.175 6.407h.522c5.663 0 8.479-3.386 8.605-10.357a4.937 4.937 0 0 0-1.351-3.67c-1.363-1.368-3.705-2.077-6.96-2.077ZM46.618 51.68a33.536 33.536 0 0 0-7.361-.93c-3.303 0-5.675.708-7.056 2.113a4.949 4.949 0 0 0-1.363 3.711c.12 7.061 3.002 10.496 8.707 10.496h.528c6.941-.24 8.719-4.948 9.301-6.49l.084-.223c.523-1.37 1.621-4.203.48-6.377a4.768 4.768 0 0 0-3.32-2.3Z" style="mix-blend-mode:soft-light"/><path fill="#000100" d="M47.086 52.233c5.224 1.243 3.002 6.407 2.348 8.124-.655 1.718-2.402 5.903-8.779 6.125-6.377.222-8.532-3.693-8.646-9.92-.09-6.599 9.853-5.572 15.077-4.329Zm31.884 4.672c-.114 6.148-2.222 10.003-8.526 9.787-6.305-.216-8.01-4.3-8.665-6.04-.654-1.742-2.834-6.786 2.318-8.01 5.152-1.226 14.987-2.246 14.873 4.263Zm-26.138-5.308c-9.799-3.537-20.013-2.12-23.741-1.405a1.801 1.801 0 0 0-1.466 1.8v1.61a1.453 1.453 0 0 0 .565 1.099c.277.253.5.56.654.9 1.838 6.75 1.652 12.514 11.601 12.682 10.592.18 11.547-9.06 13.018-11.775 0 0 2.011-2.305 4.167 0l.09.12c1.465 2.714 2.402 11.955 13.018 11.775 9.95-.168 9.763-5.932 11.594-12.681a2.84 2.84 0 0 1 .661-.9 1.46 1.46 0 0 0 .564-1.1v-1.615a1.801 1.801 0 0 0-1.465-1.801c-3.728-.72-13.942-2.138-23.741 1.405-1.828.35-3.708.31-5.519-.114ZM86.109 108.387c0-.252.066-.511.072-.757v-.744c0-.486-.03-.971-.09-1.453-.066-.463-.15-.925-.234-1.381-.085-.457-.235-.859-.349-1.291-.12-.408-.262-.809-.426-1.201a22.588 22.588 0 0 0-4.66-7.068c-.73-.77-1.5-1.504-2.305-2.197-.715-.6-1.363-1.087-1.892-1.507l-1.717-1.201a4.594 4.594 0 0 0-.528-.3c-1.712-.907-4.155-1.61-5.603-1.075-1.447.534-1.909 2.233-2.36 3.692a6.215 6.215 0 0 0 .253 4.204c.249.623.602 1.2 1.045 1.705.422.498.941.907 1.525 1.2l1.249.71c.366.252.835.54 1.345.894s1.063.781 1.597 1.279a13.057 13.057 0 0 1 2.882 3.531c.088.15.16.309.216.474.074.151.136.308.186.468.036.149.08.295.133.439.032.136.054.274.066.414l.042.204v.625l8.916 3.248c.156-.474.3-.961.433-1.447.132-.486.132-.955.204-1.465ZM26.556 108.387c0-.252-.066-.511-.072-.757v-.744c0-.486.03-.971.09-1.453.066-.463.15-.925.234-1.381.084-.457.235-.859.349-1.291.12-.408.262-.809.426-1.201a22.586 22.586 0 0 1 4.66-7.068c.73-.77 1.5-1.504 2.305-2.197.715-.6 1.363-1.087 1.892-1.507l1.717-1.201c.17-.112.346-.212.528-.3 1.712-.907 4.155-1.61 5.602-1.075 1.448.534 1.91 2.233 2.36 3.692a6.186 6.186 0 0 1-.258 4.204 5.773 5.773 0 0 1-1.039 1.705 4.869 4.869 0 0 1-1.525 1.2l-1.249.71c-.366.252-.834.54-1.345.894-.51.354-1.063.781-1.597 1.279a13.055 13.055 0 0 0-2.882 3.531c-.088.15-.16.309-.216.474a3.316 3.316 0 0 0-.186.468 4.09 4.09 0 0 1-.133.439 2.797 2.797 0 0 0-.066.414l-.042.204v.625l-8.916 3.248c-.156-.474-.3-.961-.433-1.447-.132-.486-.132-.955-.204-1.465Z" style="mix-blend-mode:soft-light"/></g><path fill="url(#b)" d="M25.433 110.207a.175.175 0 0 0 0-.054l8.887-3.231c.02.089.034.179.042.27a.492.492 0 0 0 .036.156 1.56 1.56 0 0 0 .264.595c.128.177.287.33.469.45a5.482 5.482 0 0 0 1.933.793c1.73.335 3.5.414 5.254.234a32.825 32.825 0 0 0 2.852-.36l1.688 7.776c-.973.246-2.138.516-3.49.738a26.098 26.098 0 0 1-7.805.234c-1.752-.22-3.45-.76-5.008-1.591a11.04 11.04 0 0 1-4.503-4.521c-.138-.24-.246-.487-.36-.733a6.276 6.276 0 0 1-.259-.756Z"/><path fill="url(#c)" d="M83.63 110.207a.175.175 0 0 1 0-.054l-8.905-3.231c-.02.089-.034.179-.042.27a.489.489 0 0 1-.036.156 1.563 1.563 0 0 1-.264.595c-.128.177-.287.33-.469.45a5.482 5.482 0 0 1-1.933.793c-1.73.335-3.501.414-5.254.234a32.825 32.825 0 0 1-2.852-.36l-1.688 7.776c.973.246 2.138.516 3.489.738 2.575.469 5.207.548 7.806.234 1.752-.22 3.45-.76 5.008-1.591a11.068 11.068 0 0 0 4.503-4.521c.138-.24.246-.487.36-.733.108-.246.2-.499.276-.756Z"/><path fill="#FDD995" d="M66.27 85.672c-3.758-.84-5.355-1.855-11.408-1.855-6.052 0-8.25 1.02-12.009 1.855-2.401.528-4.275 3.062-4.275 5.5l1.201 17.936a22.215 22.215 0 0 0-4.744 13.762h39.246c0-7.602-4.942-13.762-4.942-13.762l1.201-17.936c.006-2.438-1.891-4.972-4.27-5.5Z"/><path fill="#E58D23" d="M74.419 82.441h-42.05v41.828h42.05V82.441Z"/><path fill="#E58D23" d="M58.063 79.493h-7.566c-2.336 0-4.768 2.3-5.338 5.182 0 .078 0 .15-.042.222a6.004 6.004 0 0 0 .6 4.12c1.015 1.8 3.483 3.992 8.407 3.998 4.923.006 7.47-2.15 8.604-3.933a5.956 5.956 0 0 0 .733-4.407c-.607-2.882-3.063-5.182-5.398-5.182Z"/><path fill="#CB7A22" d="M60.74 94.385H48.13c-3.602-.295-4.539-4.378-3.788-8.203.75-3.824 2.81-7.733 5.338-8.01h9.259c2.57.277 4.701 4.204 5.488 8.016.786 3.813-.108 7.908-3.651 8.203l-.036-.006ZM59.053 79.3H49.59c-1.976.216-3.603 3.687-4.15 6.9-.546 3.212.157 6.815 2.847 7.037h12.315c2.666-.252 3.326-3.85 2.738-7.038-.589-3.188-2.264-6.707-4.287-6.899Z"/><path fill="#CB7A22" d="m59.653 94.385-.216-1.165c2.042-.21 2.672-3.735 2.174-7.038-.499-3.302-1.898-6.7-3.429-6.899v-1.11c2.12.282 3.897 4.173 4.551 8.01.655 3.836-.12 7.901-3.08 8.202Z"/><path fill="#CB7A22" d="m57.984 94.373-.294-1.141c.6-.114 1.357-2.732.967-7.05-.39-4.317-1.351-6.79-1.801-6.904 0-.367.066-.733.096-1.1 1.735.397 2.636 6.191 2.816 7.999.18 1.807.612 7.751-1.784 8.196ZM56.285 94.312a86.233 86.233 0 0 1-.516-1.068.27.27 0 0 0-.12.078c.919-1.201.33-13.15-.379-14.183.028.033.063.06.103.078l.324-1.027c.228.145.997.445 1.477 7.962.48 7.518-.577 8.07-.889 8.16ZM52.598 94.312c-.313-.114-1.31-.6-.955-8.16.354-7.56 1.117-7.805 1.345-7.962.114.343.228.685.348 1.021a.234.234 0 0 0 .096-.078c-.672 1.033-1.099 12.982-.198 14.195a.307.307 0 0 0-.12-.084c-.18.378-.342.738-.516 1.068ZM50.887 94.373c-2.402-.445-2.041-6.419-1.861-8.196.18-1.778.985-7.602 2.708-7.998.036.366.078.732.114 1.099-.462.114-1.375 2.587-1.723 6.905-.349 4.317.42 6.935 1.044 7.049-.09.378-.186.763-.282 1.14Z"/><path fill="#CB7A22" d="M49.218 94.385c-2.967-.3-3.76-4.384-3.147-8.203.613-3.818 2.33-7.727 4.443-8.01v1.111c-1.53.198-2.888 3.603-3.338 6.9-.45 3.296.21 6.826 2.252 7.037-.096.39-.145.774-.21 1.165Z"/><path stroke="#CB7A22" stroke-miterlimit="10" d="M58.063 79.493h-7.566c-2.336 0-4.768 2.3-5.338 5.182 0 .078 0 .15-.042.222a6.004 6.004 0 0 0 .6 4.12c1.015 1.8 3.483 3.992 8.407 3.998 4.923.006 7.47-2.15 8.604-3.933a5.956 5.956 0 0 0 .733-4.407c-.607-2.882-3.063-5.182-5.398-5.182Z"/><path fill="#E2BA7A" d="M60.14 81.48a7.572 7.572 0 0 1-5.896 2.63 7.126 7.126 0 0 1-5.813-2.894 22.171 22.171 0 0 1 5.813-1.02c2.021.111 4.012.545 5.896 1.285Z"/><path fill="#8C5347" d="M62.68 7.926H44.738c-12.663 0-29.758 21.016-29.758 39.564 0 18.547 12.13 29.355 24.793 29.355 5.686 0 10.88-4.857 14.89-9.87 4.204 6.46 10.076 9.87 16.627 9.87 12.664 0 22.313-10.207 22.313-28.713S75.337 7.926 62.68 7.926Z"/><path fill="#FDD995" d="M63.91 22.108h-18.5c-19.97 0-18.53 33.313-18.53 33.313v3.945a22.865 22.865 0 0 0 22.944 22.787h9.295a22.865 22.865 0 0 0 22.943-22.787v-3.909s1.82-33.349-18.151-33.349Z"/><path fill="#FDD995" d="M28.67 55.541c0 3.663-2.336 6.605-5.218 6.605s-5.218-2.966-5.218-6.605c0-3.638 2.336-6.604 5.218-6.604s5.218 2.948 5.218 6.604ZM90.126 55.541c0 3.663-2.336 6.605-5.218 6.605s-5.218-2.966-5.218-6.605c0-3.638 2.336-6.604 5.218-6.604s5.218 2.948 5.218 6.604Z"/><g fill="#CD6215" opacity=".2"><path d="M58.129 62.765a.517.517 0 0 1-.516.528.522.522 0 0 1-.38-.892.522.522 0 0 1 .896.364ZM62.373 57.92a.521.521 0 0 1-.516.528.528.528 0 1 1 0-1.051.522.522 0 0 1 .516.522ZM59.822 66.836a.529.529 0 1 1-1.05-.113.529.529 0 0 1 1.05.113ZM61.887 61.288a.529.529 0 0 1-.522.528.529.529 0 0 1 0-1.05.535.535 0 0 1 .522.522ZM66.871 59.216a.528.528 0 1 1-1.057.013.528.528 0 0 1 1.057-.013ZM64.217 63.906a.528.528 0 1 1-.33-.486.522.522 0 0 1 .33.486ZM68.673 62.657a.529.529 0 1 1-1.051-.113.529.529 0 0 1 1.05.113ZM72.653 65.653a.528.528 0 1 1-1.051 0 .517.517 0 0 1 .516-.529.528.528 0 0 1 .535.529ZM72.106 63.822a.528.528 0 1 1-1.05.112.528.528 0 0 1 1.05-.112ZM74.622 64.326a.528.528 0 1 1-.326-.484.523.523 0 0 1 .326.484ZM72.576 58.34a.528.528 0 1 1-1.051-.113.528.528 0 0 1 1.05.113ZM79.192 59.487a.528.528 0 0 1-1.05 0 .535.535 0 0 1 .522-.535.522.522 0 0 1 .528.535ZM28.616 60.585a.522.522 0 1 1-1.044 0 .522.522 0 0 1 1.044 0ZM34.837 60.52a.522.522 0 0 1-.517.534.528.528 0 1 1 0-1.051.516.516 0 0 1 .517.516ZM34.813 57.649a.534.534 0 0 1-.522.534.528.528 0 1 1 .522-.534ZM40.289 64.668a.535.535 0 0 1-.523.535.528.528 0 1 1 .523-.535ZM35.413 65.245a.528.528 0 1 1-.328-.48.522.522 0 0 1 .328.48ZM44.528 58.622a.529.529 0 1 1-.528-.517.515.515 0 0 1 .528.517ZM48.13 65.64a.522.522 0 0 1-.89.383.535.535 0 0 1-.16-.37.529.529 0 0 1 1.05 0v-.012ZM40.733 59.937a.515.515 0 0 1-.516.528.528.528 0 1 1 .516-.528ZM50.533 62.314a.529.529 0 1 1-1.051-.112.529.529 0 0 1 1.05.112ZM43.16 62.386a.534.534 0 0 1-.523.535.528.528 0 1 1 .522-.535ZM45.026 66.458a.528.528 0 1 1-1.05.113.528.528 0 0 1 1.05-.113ZM49.224 58.051a.516.516 0 0 1-.516.529.523.523 0 0 1-.38-.893.522.522 0 0 1 .896.364Z"/></g><path fill="#F18F73" d="M58.104 71.495c0 1.087-1.903 1.97-4.25 1.97-2.349 0-4.252-.883-4.252-1.97s1.904-.768 4.251-.768c2.348 0 4.251-.307 4.251.768Z"/><path fill="#CC553A" d="M55.937 67.893c-.877 0-1.64.858-2.066 1.243-.432-.385-1.2-1.243-2.071-1.243-1.345 0-3.002 1.2-3.002 1.951 0 .75 1.687 1.351 3.002 1.351h.372a20.068 20.068 0 0 1 3.399 0h.366c1.345 0 3.038-.6 3.038-1.35 0-.751-1.711-1.952-3.038-1.952Z"/><path stroke="#CC553A" stroke-linecap="round" stroke-linejoin="round" stroke-width="2" d="M42.253 68.085a1.099 1.099 0 0 1 1.549.06c.066.06 2.624 2.594 9.57 2.594 6.948 0 9.548-2.57 9.608-2.594a1.105 1.105 0 0 1 1.555-.048"/><path fill="#433325" d="M42.258 55.836a2.846 2.846 0 0 1-5.686 0v-1.237a2.846 2.846 0 0 1 5.686 0v1.237ZM70.18 55.836a2.846 2.846 0 0 1-5.687 0v-1.237a2.846 2.846 0 0 1 5.686 0v1.237Z"/><path fill="#433325" d="M37.01 55.013a2.9 2.9 0 0 1-2.9-2.894.6.6 0 0 1 1.202 0 1.693 1.693 0 0 0 1.693 1.693.6.6 0 1 1 0 1.2h.006ZM69.639 55.013a2.9 2.9 0 0 0 2.9-2.894.6.6 0 0 0-1.2 0 1.699 1.699 0 0 1-1.7 1.693.6.6 0 1 0 0 1.2Z"/><path fill="#8C5347" d="M42.462 45.076a1.16 1.16 0 0 0-.516-.084H35.39a1.37 1.37 0 0 0-1.2 1.489 1.41 1.41 0 0 0 1.2 1.513h6.557a1.38 1.38 0 0 0 1.201-1.495 1.569 1.569 0 0 0-.684-1.423ZM71.272 45.076a1.159 1.159 0 0 0-.516-.084h-6.551a1.381 1.381 0 0 0-1.201 1.489 1.411 1.411 0 0 0 1.237 1.513h6.55a1.381 1.381 0 0 0 1.202-1.495 1.557 1.557 0 0 0-.72-1.423ZM79.733 62.579a.6.6 0 0 1-.523-.6c-.126-6.485-.048-20.572-.036-21.905-1.2-3.645-.925-4.053-.769-4.281a.683.683 0 0 1 .559-.282c.474 0 .919 0 4.24 6.569a.6.6 0 0 1 .065.228c.913 12.339.456 12.831.156 13.156a.671.671 0 0 1-.498.222.695.695 0 0 1-.66-.408l-1.88 6.845a.6.6 0 0 1-.6.444l-.055.012Z"/><path fill="#8C5347" d="M78.964 36.129c.307 0 1.297 1.471 3.705 6.239.763 10.315.6 12.735.258 12.735-.342 0-.714-1.885-.714-1.885l-2.402 8.766c-.132-6.845-.036-21.988-.036-21.988s-1.309-3.867-.81-3.867Zm0-1.201a1.286 1.286 0 0 0-1.044.534c-.295.415-.6.877.654 4.726 0 1.801-.09 15.462.036 21.82a1.2 1.2 0 0 0 1.05 1.201h.151a1.202 1.202 0 0 0 1.159-.882l1.651-6.005c.102.01.204.01.306 0a1.28 1.28 0 0 0 .937-.414c.48-.517.937-1.009 0-13.612a1.2 1.2 0 0 0-.126-.45c-1.135-2.252-2.036-3.928-2.684-4.99-.805-1.322-1.297-1.91-2.09-1.91v-.018ZM26.148 63.185a.6.6 0 0 1-.564-.402l-1.94-5.614a.697.697 0 0 1-.492.192.734.734 0 0 1-.535-.234c-.312-.343-.906-.98.078-14.201a.6.6 0 0 1 .06-.228c3.321-6.57 3.765-6.57 4.24-6.57a.685.685 0 0 1 .558.283c.162.228.456.636-.762 4.281 0 1.333.084 15.42-.043 21.905a.6.6 0 0 1-.504.6l-.096-.012Z"/><path fill="#8C5347" d="M26.995 36.73c.498 0-.81 3.867-.81 3.867s.101 15.143-.037 21.988l-2.402-6.965s-.318 1.14-.6 1.14c-.402 0-.709-2.347.138-13.81 2.402-4.767 3.405-6.238 3.705-6.238l.006.018Zm-.006-1.22c-.793 0-1.285.601-2.09 1.91-.642 1.063-1.549 2.738-2.684 4.99a1.2 1.2 0 0 0-.126.45c-1.003 13.486-.396 14.135.084 14.657a1.315 1.315 0 0 0 .973.426h.132l1.73 5.02a1.2 1.2 0 0 0 1.134.81h.192a1.201 1.201 0 0 0 1.009-1.164c.126-6.359.048-20.001.042-21.82 1.279-3.85.949-4.312.649-4.726a1.286 1.286 0 0 0-1.045-.534v-.018Z"/><path fill="#8C5347" d="M23.254 41.785s3.447.6 10.076 1.039c.697.048 1.423-7.115 2.192-7.067.768.048.744 6.088 2.21 7.32 3.332 2.815 10.55.366 17.448.263.445 0 .895-9.006 1.345-9.006.547 0-.084 7.493 1.652 9.006 1.735 1.514 5.914-.21 9.475-.396.294 0 1.2-6.04 1.483-6.052.282-.012.138 5.025 1.345 5.962 2.402 1.873 7.716-.552 12.231-.967 0 0 2.888-32.394-30.821-31.541-30.84.726-28.636 31.44-28.636 31.44Z"/><g opacity=".1"><path fill="#fff" d="M28.472 44.667s-2.786-28.593 19.935-32.682c0 0-17.27 3.518-16.645 33.385l-3.29-.703Z"/><path fill="url(#d)" d="M28.472 44.667s-2.786-28.593 19.935-32.682c0 0-17.27 3.518-16.645 33.385l-3.29-.703Z" opacity=".2" style="mix-blend-mode:overlay"/><path stroke="#fff" stroke-linecap="round" stroke-linejoin="round" stroke-width="1.69" d="M28.472 44.667s-2.786-28.593 19.935-32.682c0 0-17.27 3.518-16.645 33.385l-3.29-.703Z"/></g><g opacity=".1"><path fill="#fff" d="M39.34 44.313s-5.463-18.434 10.244-29.674c0 0-11.715 9.649-6.959 30.376l-3.284-.702Z"/><path fill="url(#e)" d="M39.34 44.313s-5.463-18.434 10.244-29.674c0 0-11.715 9.649-6.959 30.376l-3.284-.702Z" opacity=".2" style="mix-blend-mode:overlay"/><path stroke="#fff" stroke-linecap="round" stroke-linejoin="round" stroke-width="1.69" d="M39.34 44.313s-5.463-18.434 10.244-29.674c0 0-11.715 9.649-6.959 30.376l-3.284-.702Z"/></g><g opacity=".1"><path fill="#fff" d="M75.98 43.664s2.773-28.611-19.93-32.676c0 0 17.27 3.519 16.645 33.385l3.284-.709Z"/><path fill="url(#f)" d="M75.98 43.664s2.773-28.611-19.93-32.676c0 0 17.27 3.519 16.645 33.385l3.284-.709Z" opacity=".2" style="mix-blend-mode:overlay"/><path stroke="#fff" stroke-linecap="round" stroke-linejoin="round" stroke-width="1.69" d="M75.98 43.664s2.773-28.611-19.93-32.676c0 0 17.27 3.519 16.645 33.385l3.284-.709Z"/></g><g opacity=".1"><path fill="#fff" d="M65.118 43.316s5.464-18.44-10.244-29.68c0 0 11.715 9.649 6.953 30.382l3.29-.702Z"/><path fill="url(#g)" d="M65.118 43.316s5.464-18.44-10.244-29.68c0 0 11.715 9.649 6.953 30.382l3.29-.702Z" opacity=".2" style="mix-blend-mode:overlay"/><path stroke="#fff" stroke-linecap="round" stroke-linejoin="round" stroke-width="1.69" d="M65.118 43.316s5.464-18.44-10.244-29.68c0 0 11.715 9.649 6.953 30.382l3.29-.702Z"/></g><g opacity=".1"><path fill="#fff" d="M48.131 44.475s.066-20.013 2.684-26.954c0 0-.264 24.246.324 27.02.589 2.774-3.008-.066-3.008-.066Z"/><path fill="url(#h)" d="M48.131 44.475s.066-20.013 2.684-26.954c0 0-.264 24.246.324 27.02.589 2.774-3.008-.066-3.008-.066Z" opacity=".2" style="mix-blend-mode:overlay"/><path stroke="#fff" stroke-linecap="round" stroke-linejoin="round" stroke-width="1.69" d="M48.131 44.475s.066-20.013 2.684-26.954c0 0-.264 24.246.324 27.02.589 2.774-3.008-.066-3.008-.066Z"/></g><path stroke="#8C5347" stroke-linejoin="round" stroke-width="3" d="M23.254 41.785s3.447.6 10.076 1.039c.697.048 1.423-7.115 2.192-7.067.768.048.744 6.088 2.21 7.32 3.332 2.815 10.55.366 17.448.263.445 0 .895-9.006 1.345-9.006.547 0-.084 7.493 1.652 9.006 1.735 1.514 5.914-.21 9.475-.396.294 0 1.2-6.04 1.483-6.052.282-.012.138 5.025 1.345 5.962 2.402 1.873 7.716-.552 12.231-.967 0 0 2.888-32.394-30.821-31.541-30.84.726-28.636 31.44-28.636 31.44Z"/><path fill="url(#i)" d="M39.484 63.54c2.534 0 4.588-.901 4.588-2.012s-2.054-2.012-4.588-2.012c-2.533 0-4.587.901-4.587 2.012 0 1.11 2.054 2.011 4.587 2.011Z" opacity=".4"/><path fill="url(#j)" d="M72.299 61.528c0 1.105-2.054 2.005-4.588 2.005-2.534 0-4.593-.9-4.593-2.005s2.06-2.012 4.593-2.012c2.534 0 4.588.901 4.588 2.012Z" opacity=".4"/><path fill="#E8AB70" d="M57.138 63.582c0 .654-1.471 1.2-3.285 1.2-1.813 0-3.284-.528-3.284-1.2 0-.673 1.47-1.201 3.284-1.201 1.814 0 3.285.546 3.285 1.2Z"/><g opacity=".1"><path fill="#fff" d="M17.064 48.27c.822-5.188 4.803-30.082 24.132-36.285 0 0-15.708 5.77-17.84 30.383a12.411 12.411 0 0 0-6.292 5.902Z"/><path fill="url(#k)" d="M17.064 48.27c.822-5.188 4.803-30.082 24.132-36.285 0 0-15.708 5.77-17.84 30.383a12.411 12.411 0 0 0-6.292 5.902Z" opacity=".2" style="mix-blend-mode:overlay"/><path stroke="#fff" stroke-linecap="round" stroke-linejoin="round" stroke-width="1.69" d="M17.064 48.27c.822-5.188 4.803-30.082 24.132-36.285 0 0-15.708 5.77-17.84 30.383a12.411 12.411 0 0 0-6.292 5.902v0Z"/></g><path fill="#fff" stroke="#fff" stroke-linecap="round" stroke-linejoin="round" stroke-width="1.69" d="M66.282 11.985S81.03 19.94 83.21 46.517c0 0 3.074-.457 4.575 1.5-.024 0-3.368-27.025-21.502-36.032Z" opacity=".1"/><g style="mix-blend-mode:soft-light"><path fill="#E2CBBD" d="M68.835 49.957c-2.45.039-4.89.349-7.272.925a4.695 4.695 0 0 0-3.278 2.257c-1.123 2.132-.048 4.948.474 6.3l.084.215c.6 1.525 2.324 6.173 9.175 6.407h.522c5.663 0 8.479-3.386 8.605-10.358a4.936 4.936 0 0 0-1.351-3.668c-1.363-1.37-3.705-2.078-6.96-2.078ZM44.816 50.48a33.549 33.549 0 0 0-7.361-.93c-3.302 0-5.674.708-7.055 2.113a4.947 4.947 0 0 0-1.363 3.71c.12 7.062 3.002 10.496 8.706 10.496h.529c6.94-.24 8.718-4.947 9.3-6.49l.085-.223c.522-1.369 1.62-4.203.48-6.376a4.767 4.767 0 0 0-3.32-2.3Z" style="mix-blend-mode:soft-light"/></g><path fill="#433325" d="M45.284 51.032c5.224 1.243 3.002 6.407 2.348 8.124-.655 1.717-2.402 5.902-8.779 6.125-6.377.222-8.532-3.693-8.646-9.92-.09-6.599 9.853-5.572 15.077-4.33Zm31.884 4.671c-.114 6.149-2.222 10.004-8.527 9.788-6.304-.216-8.01-4.3-8.664-6.04-.654-1.742-2.834-6.786 2.318-8.01 5.152-1.226 14.987-2.247 14.873 4.262ZM51.03 50.395c-9.8-3.536-20.013-2.12-23.742-1.405a1.801 1.801 0 0 0-1.465 1.802V52.4a1.454 1.454 0 0 0 .565 1.099c.277.253.5.559.654.9 1.838 6.75 1.651 12.514 11.601 12.682 10.592.18 11.547-9.06 13.018-11.775 0 0 2.011-2.306 4.167 0l.09.12c1.465 2.714 2.402 11.955 13.018 11.775 9.95-.168 9.763-5.932 11.594-12.682a2.84 2.84 0 0 1 .66-.9 1.46 1.46 0 0 0 .565-1.1v-1.614a1.801 1.801 0 0 0-1.465-1.802c-3.729-.72-13.942-2.137-23.742 1.405-1.827.35-3.707.31-5.518-.114Z"/><path fill="url(#l)" d="M84.308 107.186c0-.252.066-.51.072-.756v-.745c0-.486-.03-.971-.09-1.453-.066-.462-.15-.925-.234-1.381-.084-.456-.234-.859-.349-1.291a11.48 11.48 0 0 0-.426-1.201 22.589 22.589 0 0 0-4.66-7.067c-.73-.772-1.5-1.505-2.305-2.198-.715-.6-1.363-1.087-1.892-1.507l-1.717-1.2a4.594 4.594 0 0 0-.528-.301c-1.711-.907-4.155-1.61-5.602-1.075-1.448.534-1.91 2.234-2.36 3.693a6.215 6.215 0 0 0 .252 4.203c.249.624.602 1.2 1.045 1.705.422.499.941.907 1.525 1.201l1.249.709c.366.252.835.54 1.345.894.51.355 1.063.781 1.597 1.279a13.057 13.057 0 0 1 2.882 3.531c.088.15.16.309.216.474.074.151.136.308.186.469.036.148.08.294.133.438.032.136.054.275.066.414l.042.204V106.85l8.916 3.248c.156-.474.3-.96.433-1.447.132-.486.132-.954.204-1.465Z"/><path fill="url(#m)" d="M24.755 107.186c0-.252-.066-.51-.072-.756v-.745c0-.486.03-.971.09-1.453.067-.462.15-.925.235-1.381.084-.456.234-.859.348-1.291.12-.408.262-.809.426-1.201a22.59 22.59 0 0 1 4.66-7.067c.73-.772 1.5-1.505 2.305-2.198.715-.6 1.364-1.087 1.892-1.507l1.717-1.2a4.61 4.61 0 0 1 .529-.301c1.71-.907 4.155-1.61 5.602-1.075 1.447.534 1.91 2.234 2.36 3.693a6.184 6.184 0 0 1-.259 4.203 5.77 5.77 0 0 1-1.038 1.705 4.867 4.867 0 0 1-1.526 1.201l-1.249.709c-.366.252-.834.54-1.345.894-.51.355-1.062.781-1.597 1.279a13.057 13.057 0 0 0-2.882 3.531c-.088.15-.16.309-.216.474a3.281 3.281 0 0 0-.186.469c-.036.148-.08.294-.132.438a2.805 2.805 0 0 0-.066.414l-.042.204V106.85l-8.917 3.248c-.156-.474-.3-.96-.432-1.447-.133-.486-.133-.954-.205-1.465Z"/></g><defs><linearGradient id="b" x1="36.145" x2="36.145" y1="117.832" y2="96.859" gradientUnits="userSpaceOnUse"><stop stop-color="#CB7A22"/><stop offset="1" stop-color="#E58D23"/></linearGradient><linearGradient id="c" x1="72.917" x2="72.917" y1="117.832" y2="96.859" gradientUnits="userSpaceOnUse"><stop stop-color="#CB7A22"/><stop offset="1" stop-color="#E58D23"/></linearGradient><linearGradient id="d" x1="38.433" x2="38.932" y1="28.413" y2="39.281" gradientUnits="userSpaceOnUse"><stop stop-color="#fff"/><stop offset="1" stop-color="#fff" stop-opacity="0"/></linearGradient><linearGradient id="e" x1="44.162" x2="44.625" y1="29.596" y2="39.617" gradientUnits="userSpaceOnUse"><stop stop-color="#fff"/><stop offset="1" stop-color="#fff" stop-opacity="0"/></linearGradient><linearGradient id="f" x1="66.156" x2="66.684" y1="27.236" y2="38.614" gradientUnits="userSpaceOnUse"><stop stop-color="#fff"/><stop offset="1" stop-color="#fff" stop-opacity="0"/></linearGradient><linearGradient id="g" x1="60.644" x2="61.113" y1="28.395" y2="38.626" gradientUnits="userSpaceOnUse"><stop stop-color="#fff"/><stop offset="1" stop-color="#fff" stop-opacity="0"/></linearGradient><linearGradient id="h" x1="49.506" x2="49.938" y1="31.391" y2="40.794" gradientUnits="userSpaceOnUse"><stop stop-color="#fff"/><stop offset="1" stop-color="#fff" stop-opacity="0"/></linearGradient><linearGradient id="i" x1="39.484" x2="39.484" y1="63.533" y2="59.516" gradientUnits="userSpaceOnUse"><stop stop-color="#F3984E" stop-opacity="0"/><stop offset="1" stop-color="#F3984E"/></linearGradient><linearGradient id="j" x1="67.711" x2="67.711" y1="63.533" y2="59.516" gradientUnits="userSpaceOnUse"><stop stop-color="#F3984E" stop-opacity="0"/><stop offset="1" stop-color="#F3984E"/></linearGradient><linearGradient id="k" x1="29.115" x2="29.655" y1="29.758" y2="41.479" gradientUnits="userSpaceOnUse"><stop stop-color="#fff"/><stop offset="1" stop-color="#fff" stop-opacity="0"/></linearGradient><linearGradient id="l" x1="74.16" x2="74.16" y1="117.988" y2="96.594" gradientUnits="userSpaceOnUse"><stop stop-color="#CB7A22"/><stop offset="1" stop-color="#E58D23"/></linearGradient><linearGradient id="m" x1="34.903" x2="34.903" y1="117.988" y2="96.594" gradientUnits="userSpaceOnUse"><stop stop-color="#CB7A22"/><stop offset="1" stop-color="#E58D23"/></linearGradient></defs></svg>