<svg xmlns="http://www.w3.org/2000/svg" width="107" height="107" fill="none"><mask id="a" width="107" height="107" x="0" y="0" maskUnits="userSpaceOnUse" style="mask-type:alpha"><circle cx="53.5" cy="53.5" r="53.5" fill="#D9D9D9"/></mask><g mask="url(#a)"><g opacity=".4" style="mix-blend-mode:soft-light"><g style="mix-blend-mode:soft-light"><path fill="#000" d="M61.681 65.54c-2.277 0-4.527.49-6.6 1.432a16.036 16.036 0 0 0-24.967 13.253c0 2.202-3.946 6.406-3.142 8.315a12.13 12.13 0 0 0 2.138 3.423c2.936 3.553 12.049 4.234 17.028 4.234a16.037 16.037 0 0 0 6.606-1.433 15.96 15.96 0 0 0 8.937 2.719c5.784 0 14.71-.482 17.534-5.056a17.26 17.26 0 0 0 1.216-2.549c.734-1.826-2.725-6.277-2.725-8.367a16 16 0 0 0-16.025-15.972Z"/><path stroke="#000" stroke-linejoin="round" stroke-width="4" d="M61.681 65.54c-2.277 0-4.527.49-6.6 1.432a16.036 16.036 0 0 0-24.967 13.253c0 2.202-3.946 6.406-3.142 8.315a12.13 12.13 0 0 0 2.138 3.423c2.936 3.553 12.049 4.234 17.028 4.234a16.037 16.037 0 0 0 6.606-1.433 15.96 15.96 0 0 0 8.937 2.719c5.784 0 14.71-.482 17.534-5.056a17.26 17.26 0 0 0 1.216-2.549c.734-1.826-2.725-6.277-2.725-8.367a16 16 0 0 0-16.025-15.972Z"/></g><path fill="#000" d="M72.386 92.656a4.697 4.697 0 0 0-9.36.798c.089 1.04 2.197 24.076 15.685 37.481l6.148-7.134c-10.57-10.969-12.443-30.84-12.472-31.145ZM42.45 95.668c1.903-1.761 4.37-4.732 2.608-6.64-1.762-1.91-7.082-2.02-8.99-.253l-14.04 14.527a4.704 4.704 0 0 0-1.503 3.641 4.699 4.699 0 0 0 1.797 3.505l8.473 10.376 5.801-7.393-7.075-6.976 12.93-10.787Z" style="mix-blend-mode:soft-light"/><path fill="#000" d="M64.817 86.396c-3.675-.822-5.237-1.814-11.156-1.814-5.92 0-8.074.998-11.744 1.814-2.349.517-4.181 2.995-4.181 5.38l.587 17.539s-4.051 7.046-4.051 13.693H72.65c0-5.872-4.833-13.693-4.833-13.693l1.175-17.54c.011-2.384-1.85-4.862-4.175-5.379Z" style="mix-blend-mode:soft-light"/><path fill="#000" d="m60.372 80.894.41 4.316s-2.542 4.475-5.947 4.475c-3.406 0-5.949-4.475-5.949-4.475l.417-4.316h11.069ZM44.588 93.143l-2.942 4.387-3.253-4.78 2.795-4.78 3.4 5.173Zm23.4-.393-2.79 4.78-3.405-4.387 3.964-5.173 2.231 4.78Zm-14.873 10.376-3.97 4.78-3.97-4.78 3.254-4.78 4.686 4.78Zm-8.086 0-3.97 4.78-2.666-4.78 3.253-4.78 3.383 4.78Zm16.177 0-3.97 4.78-3.975-4.78 4.692-4.78 3.253 4.78Zm-8.092-9.982-4.556 4.78-3.97-4.78 3.253-4.78 5.273 4.78Zm8.679 0-3.97 4.78-4.562-4.78 5.28-4.78 3.252 4.78Zm6.196 9.982-2.66 4.78-3.976-4.78 3.388-4.78 3.248 4.78Z" style="mix-blend-mode:soft-light"/><path fill="#000" d="M60.572 82.961a7.405 7.405 0 0 1-5.767 2.572 6.97 6.97 0 0 1-5.684-2.83 21.681 21.681 0 0 1 5.684-.998c1.977.109 3.924.533 5.767 1.256ZM35.645 61.376c.863 3.476-.652 6.841-3.388 7.522-2.736.681-5.649-1.58-6.518-5.05-.869-3.47.652-6.84 3.383-7.522 2.73-.68 5.654 1.58 6.523 5.05Zm49.272 2.026c-.587 3.523-3.27 6.042-6.054 5.602-2.783-.44-4.586-3.664-4.028-7.2.558-3.534 3.27-6.042 6.054-5.601 2.783.44 4.586 3.646 4.028 7.199Z" style="mix-blend-mode:soft-light"/><path fill="#000" d="M31.153 60.859c0 12.331 8.96 22.313 20.012 22.313h8.11c11.05 0 20.01-9.982 20.01-22.313V31.006c0-8.808-6.417-15.972-14.344-15.972H45.516c-7.921 0-14.345 7.152-14.345 15.972l-.018 29.853Z" style="mix-blend-mode:soft-light"/><path fill="#000" d="M40.102 68.181c2.478 0 4.486-.88 4.486-1.967 0-1.086-2.008-1.967-4.486-1.967-2.478 0-4.486.881-4.486 1.967 0 1.087 2.008 1.968 4.486 1.968Zm27.598 0c2.478 0 4.487-.88 4.487-1.967 0-1.086-2.009-1.967-4.487-1.967-2.477 0-4.486.881-4.486 1.967 0 1.087 2.009 1.968 4.486 1.968Z" opacity=".4" style="mix-blend-mode:soft-light"/><path fill="#000" d="M58.159 73.607c0 1.175-1.844 2.097-4.11 2.097-2.267 0-4.111-.94-4.111-2.097 0-1.156 1.844-2.09 4.11-2.09 2.267 0 4.11.94 4.11 2.09Z" style="mix-blend-mode:soft-light"/><path stroke="#000" stroke-linecap="round" stroke-miterlimit="10" stroke-width="1.41" d="M46.385 71.411a.758.758 0 0 1 1.069.047c.04.041 1.803 1.762 6.582 1.762 4.78 0 6.571-1.762 6.589-1.762a.77.77 0 0 1 1.074 0" style="mix-blend-mode:soft-light"/><path fill="#000" d="M56.76 71.053a1.761 1.761 0 0 0-1.714.077 1.874 1.874 0 0 1-1.004.24 2.014 2.014 0 0 1-1.033-.223 1.797 1.797 0 0 0-1.715-.076c-.798.393-1.673.916-1.673 1.303 0 .71 3.98 1.005 4.421 1.005.44 0 4.422-.294 4.422-1.005 0-.393-.899-.921-1.703-1.32ZM43.167 60.395a2.783 2.783 0 0 1-5.56 0v-1.204a2.783 2.783 0 1 1 5.56 0v1.204Zm25.438.505h-4.11a.881.881 0 0 1 0-1.761h4.11a.88.88 0 0 1 0 1.761Zm-16.142 1.146-.77 6.136a3.81 3.81 0 0 1 4.698 0l-.775-6.136h-3.153Z" style="mix-blend-mode:soft-light"/><path fill="#000" d="M39.163 59.79a2.83 2.83 0 0 1-2.83-2.824.587.587 0 0 1 1.174 0 1.655 1.655 0 0 0 1.656 1.65.587.587 0 1 1 0 1.175Z" style="mix-blend-mode:soft-light"/><g style="mix-blend-mode:soft-light"><path fill="#000" d="M80.748 71.594c-.124 2.284-.241 2.536.84 4.327 1.08 1.791 2.348 2.484 1.144 4.533-1.204 2.05-3.188 2.285-3.07 4.11.117 1.827 2.29 2.649 1.925 5.062-.329 2.19-3.781 4.475-4.433 4.874.523-.382 2.754-2.143 2.437-4.369-.364-2.53-.646-2.654-3.294-4.11-2.649-1.456-3.054-2.079-2.32-4.11.734-2.032 3.142-2.238 1.316-4.398-1.827-2.161-2.684-3.565-2.684-4.974 0-1.41 0-2.314 2.126-4.868 1.333-1.55 1.139-5.068 1.139-6.635 0-1.568 2.155-9.143-1.339-12.46-.628-.588-1.697-1.962-2.995-3.524-1.05-1.286-2.26-2.742-3.47-4.016a19.19 19.19 0 0 1-3.177-5.009c-.78-1.674-1.292-3.071-1.415-3.382.03.364-.329 1.99-.164 3.264.047.47.105.887.117 1.175.23 3.147 1.568 4.862 2.167 5.332-.875-.511-3.9-2.725-5.355-4.698a10.486 10.486 0 0 1-1.333-2.349 7.562 7.562 0 0 1 .405-6.412c-.276.417-1.603 3.476-3.735 5.484-.164.16-.334.294-.51.453-2.297 1.973-5.873 5.83-6.43 6.148.323-.3 1.937-3.612 3.335-6.39.18-.301.335-.617.464-.944.452-1.08 1.709-6.747 1.709-6.747a85.723 85.723 0 0 1-4.64 7.64 28.137 28.137 0 0 1-4.979 5.466c-.704.587-1.65 1.327-2.7 2.22-3.806 3.2-9.085 8.02-9.56 10.663-.588 3.365 1.092 10.728 2.172 13.729 1.08 3 1.216 3.987 0 5.19-1.215 1.204-4.222 3.371-3.729 4.457.494 1.087 2.296 2.884 1.927 4.334-.37 1.45-4.334 4.909-4.845 6.864-.869 3.447 4.369 6.383 4.98 6.706-.629-.206-7.704-2.936-6.906-6.583.529-2.348.123-2.76-1.21-4.574-1.332-1.814-3.259-4.826-1.45-6.623 1.809-1.797 4.345-3.864 3.752-5.908-.593-2.043-7.087-16.236-7.087-21.262a43.9 43.9 0 0 1 .898-7.475 59.658 59.658 0 0 1 2.255-8.48c2.061-5.748 5.214-11.479 9.982-14.568 10.276-6.623 17.517-7.633 21.14-6.817 1.143.321 2.27.7 3.376 1.133 0 0 2.272-2.037 4.903-1.38 1.932.482 10.24 4.287 13.746 8.25 2.695 3.077 9.395 10.57 12.331 19.278a24.662 24.662 0 0 1 1.404 7.928v.892c-.458 11.445-9.014 21.333-9.16 23.553Z"/><path stroke="#000" stroke-linejoin="round" stroke-width="4" d="M80.748 71.594c-.124 2.284-.241 2.536.84 4.327 1.08 1.791 2.348 2.484 1.144 4.533-1.204 2.05-3.188 2.285-3.07 4.11.117 1.827 2.29 2.649 1.925 5.062-.329 2.19-3.781 4.475-4.433 4.874.523-.382 2.754-2.143 2.437-4.369-.364-2.53-.646-2.654-3.294-4.11-2.649-1.456-3.054-2.079-2.32-4.11.734-2.032 3.142-2.238 1.316-4.398-1.827-2.161-2.684-3.565-2.684-4.974 0-1.41 0-2.314 2.126-4.868 1.333-1.55 1.139-5.068 1.139-6.635 0-1.568 2.155-9.143-1.339-12.46-.628-.588-1.697-1.962-2.995-3.524-1.05-1.286-2.26-2.742-3.47-4.016a19.19 19.19 0 0 1-3.177-5.009c-.78-1.674-1.292-3.071-1.415-3.382.03.364-.329 1.99-.164 3.264.047.47.105.887.117 1.175.23 3.147 1.568 4.862 2.167 5.332-.875-.511-3.9-2.725-5.355-4.698a10.486 10.486 0 0 1-1.333-2.349 7.562 7.562 0 0 1 .405-6.412c-.276.417-1.603 3.476-3.735 5.484-.164.16-.334.294-.51.453-2.297 1.973-5.873 5.83-6.43 6.148.323-.3 1.937-3.612 3.335-6.39.18-.301.335-.617.464-.944.452-1.08 1.709-6.747 1.709-6.747a85.723 85.723 0 0 1-4.64 7.64 28.137 28.137 0 0 1-4.979 5.466c-.704.587-1.65 1.327-2.7 2.22-3.806 3.2-9.085 8.02-9.56 10.663-.588 3.365 1.092 10.728 2.172 13.729 1.08 3 1.216 3.987 0 5.19-1.215 1.204-4.222 3.371-3.729 4.457.494 1.087 2.296 2.884 1.927 4.334-.37 1.45-4.334 4.909-4.845 6.864-.869 3.447 4.369 6.383 4.98 6.706-.629-.206-7.704-2.936-6.906-6.583.529-2.348.123-2.76-1.21-4.574-1.332-1.814-3.259-4.826-1.45-6.623 1.809-1.797 4.345-3.864 3.752-5.908-.593-2.043-7.087-16.236-7.087-21.262a43.9 43.9 0 0 1 .898-7.475 59.658 59.658 0 0 1 2.255-8.48c2.061-5.748 5.214-11.479 9.982-14.568 10.276-6.623 17.517-7.633 21.14-6.817 1.143.321 2.27.7 3.376 1.133 0 0 2.272-2.037 4.903-1.38 1.932.482 10.24 4.287 13.746 8.25 2.695 3.077 9.395 10.57 12.331 19.278a24.662 24.662 0 0 1 1.404 7.928v.892c-.458 11.445-9.014 21.333-9.16 23.553Z"/></g><path fill="#000" d="M60.895 28.452a.587.587 0 0 0-.622-.394l-2.936.318a9.6 9.6 0 0 0 1.174-10.993 9.911 9.911 0 0 0-10.024-4.697c-.75.134-1.483.344-2.19.628 0 0-8.966 2.748-13.065 7.98-.152.2.03.5.235.64a.587.587 0 0 0 .681 0 56.533 56.533 0 0 1 2.42-1.715 3.735 3.735 0 0 1 2.201-.669c-.196.386-.45.74-.751 1.051a25.372 25.372 0 0 0-1.961 1.574c-1.204.863-2.42 1.761-3.066 3.306a.587.587 0 0 0 1.005.593 22.683 22.683 0 0 1 2.795-2.977l.094-.07.305-.218a23.35 23.35 0 0 0-1.838 2.895.587.587 0 0 0 .84.77l1.556-1.023-2.39 3.33a.587.587 0 0 0 .863.787 24.954 24.954 0 0 1 6.242-3.97l-3.588 5.532a.587.587 0 0 0 .793.828l.587-.365-4.886 5.397a.587.587 0 0 0 .782.863l10.37-7.634a2.535 2.535 0 0 1-.236.417l-3.117 4.616a.587.587 0 0 0 .745.857l8.85-4.445a11.111 11.111 0 0 1 1.796-.77 28.34 28.34 0 0 1-1.21 1.944.74.74 0 0 0-.234.452.589.589 0 0 0 .24.588 1.174 1.174 0 0 0-.352 1.215.586.586 0 0 0 .846.329 42.211 42.211 0 0 0 5.39-3.57c1.82-1.45 1.903-2.648 1.656-3.4Z" opacity=".1" style="mix-blend-mode:soft-light"/><g opacity=".1" style="mix-blend-mode:soft-light"><path fill="#000" d="M83.684 29.462c-.546-1.398-1.762-2.449-2.449-3.764-.153-.288-.652-.094-.534.223.117.317.264.77.41 1.175l-.586-.676c-.97-1.174-1.72-2.53-2.878-3.523a.293.293 0 0 0-.499.212c.039.395.104.787.194 1.174a4.448 4.448 0 0 0-.558-.64.294.294 0 0 0-.493.282c.123.652.475 1.55.34 2.266a23.919 23.919 0 0 0-2.525-3.118c-1.097-1.104-2.466-1.885-3.523-3.012-.264-.276-.675.14-.417.417A26.422 26.422 0 0 1 72.691 24c.265.388.546.775.81 1.174a4.503 4.503 0 0 0-2.976-1.38.294.294 0 0 0-.294.294c.088.957.951 1.838.928 2.79a3.227 3.227 0 0 0-.71-.3.3.3 0 0 0-.365.364c.34.923.627 1.864.863 2.819-.822-.364-1.48-1.104-2.448-.999a.294.294 0 0 0-.282.37c.087.28.13.57.13.863a.323.323 0 0 0-.1.1c-.74 1.25-.218 2.102.68 3.13.899 1.028 1.492 2.754 2.713 3.306a.3.3 0 0 0 .359-.464 3.729 3.729 0 0 1-.828-3.388c.587.681.816 1.462 1.814.934.112-.06.188-.453.247-.47.246-.07.675.587.816.699a1.174 1.174 0 0 0 1.127.428c.17 0 .223-.223.206-.364a7.87 7.87 0 0 1-.13-1.761c.294.499.616.981.964 1.444a.293.293 0 0 0 .487-.282v-.082c.382.681.81 1.368 1.491 1.55a.299.299 0 0 0 .37-.288c-.082-.992-.78-1.89-1.004-2.848a28.4 28.4 0 0 1 1.304 3.465 15.8 15.8 0 0 0 1.814 3.782.3.3 0 0 0 .552-.147 21.578 21.578 0 0 0-.405-3.582c-.159-.81-.382-1.61-.481-2.425.587 1.35.95 2.777 1.92 3.928a.294.294 0 0 0 .499-.205 10.258 10.258 0 0 0-.687-3.03c.487.587.957 1.244 1.433 1.879a.3.3 0 0 0 .546-.153c.088-1.809.293-3.97-.37-5.69Z"/><path stroke="#000" stroke-miterlimit="10" stroke-width="2" d="M83.684 29.462c-.546-1.398-1.762-2.449-2.449-3.764-.153-.288-.652-.094-.534.223.117.317.264.77.41 1.175l-.586-.676c-.97-1.174-1.72-2.53-2.878-3.523a.293.293 0 0 0-.499.212c.039.395.104.787.194 1.174a4.448 4.448 0 0 0-.558-.64.294.294 0 0 0-.493.282c.123.652.475 1.55.34 2.266a23.919 23.919 0 0 0-2.525-3.118c-1.097-1.104-2.466-1.885-3.523-3.012-.264-.276-.675.14-.417.417A26.422 26.422 0 0 1 72.691 24c.265.388.546.775.81 1.174a4.503 4.503 0 0 0-2.976-1.38.294.294 0 0 0-.294.294c.088.957.951 1.838.928 2.79a3.227 3.227 0 0 0-.71-.3.3.3 0 0 0-.365.364c.34.923.627 1.864.863 2.819-.822-.364-1.48-1.104-2.448-.999a.294.294 0 0 0-.282.37c.087.28.13.57.13.863a.323.323 0 0 0-.1.1c-.74 1.25-.218 2.102.68 3.13.899 1.028 1.492 2.754 2.713 3.306a.3.3 0 0 0 .359-.464 3.729 3.729 0 0 1-.828-3.388c.587.681.816 1.462 1.814.934.112-.06.188-.453.247-.47.246-.07.675.587.816.699a1.174 1.174 0 0 0 1.127.428c.17 0 .223-.223.206-.364a7.87 7.87 0 0 1-.13-1.761c.294.499.616.981.964 1.444a.293.293 0 0 0 .487-.282v-.082c.382.681.81 1.368 1.491 1.55a.299.299 0 0 0 .37-.288c-.082-.992-.78-1.89-1.004-2.848a28.4 28.4 0 0 1 1.304 3.465 15.8 15.8 0 0 0 1.814 3.782.3.3 0 0 0 .552-.147 21.578 21.578 0 0 0-.405-3.582c-.159-.81-.382-1.61-.481-2.425.587 1.35.95 2.777 1.92 3.928a.294.294 0 0 0 .499-.205 10.258 10.258 0 0 0-.687-3.03c.487.587.957 1.244 1.433 1.879a.3.3 0 0 0 .546-.153c.088-1.809.293-3.97-.37-5.69Z"/></g></g><path fill="#4E342E" stroke="#4E342E" stroke-linejoin="round" stroke-width="4" d="M60.508 64.365c-2.278.002-4.528.49-6.6 1.433A16.036 16.036 0 0 0 28.94 79.05c0 2.202-3.946 6.406-3.142 8.314a12.133 12.133 0 0 0 2.138 3.424c2.936 3.552 12.049 4.234 17.028 4.234a16.038 16.038 0 0 0 6.606-1.433 15.96 15.96 0 0 0 8.938 2.718c5.783 0 14.709-.481 17.533-5.055a17.21 17.21 0 0 0 1.216-2.549c.734-1.826-2.725-6.277-2.725-8.367a16.001 16.001 0 0 0-16.024-15.972Z"/><path fill="#ED7572" d="M71.212 91.482a4.698 4.698 0 0 0-9.36.799c.088 1.039 2.196 24.075 15.684 37.48l6.148-7.134c-10.57-10.969-12.442-30.84-12.472-31.145Zm-29.935 3.012c1.902-1.761 4.368-4.733 2.607-6.641-1.762-1.908-7.082-2.02-8.99-.252l-14.04 14.527a4.693 4.693 0 0 0-.99 5.591c.31.605.748 1.136 1.284 1.555l8.473 10.376 5.801-7.393-7.075-6.976 12.93-10.787Z"/><path fill="#E53935" d="M63.643 85.222c-3.676-.822-5.238-1.814-11.157-1.814s-8.074.998-11.744 1.814c-2.349.517-4.18 2.995-4.18 5.38l.587 17.539s-4.052 7.046-4.052 13.693h38.38c0-5.872-4.834-13.693-4.834-13.693l1.175-17.54c.012-2.384-1.85-4.862-4.175-5.379Z"/><path fill="#FFDA96" d="m59.198 79.72.411 4.317s-2.542 4.474-5.948 4.474c-3.406 0-5.948-4.474-5.948-4.474l.417-4.316h11.068Z"/><path fill="#ED7572" d="m43.414 91.97-2.942 4.386-3.253-4.78 2.795-4.78 3.4 5.173Zm23.4-.394-2.79 4.78-3.405-4.387 3.963-5.173 2.232 4.78ZM51.94 101.951l-3.97 4.78-3.969-4.78 3.253-4.78 4.686 4.78Zm-8.085 0-3.97 4.78-2.666-4.78 3.253-4.78 3.383 4.78Zm16.177 0-3.97 4.78-3.975-4.78 4.691-4.78 3.254 4.78Z"/><path fill="#ED7572" d="m51.94 91.97-4.557 4.779-3.97-4.78 3.254-4.78 5.273 4.78Zm8.679 0-3.97 4.779-4.562-4.78 5.279-4.78 3.253 4.78Zm6.195 9.981-2.66 4.78-3.975-4.78 3.388-4.78 3.247 4.78ZM51.94 111.74l-3.97 4.78-3.969-4.78 3.97-4.78 3.97 4.78Zm-8.22 0-3.97 4.78-3.97-4.78 3.97-4.78 3.97 4.78Zm16.312 0-3.97 4.78-3.975-4.78 3.975-4.78 3.97 4.78Zm8.221 0-3.97 4.78-3.97-4.78 3.97-4.78 3.97 4.78Z"/><path fill="#EBC580" d="M59.398 81.787a7.405 7.405 0 0 1-5.767 2.572 6.97 6.97 0 0 1-5.684-2.83 21.68 21.68 0 0 1 5.684-.998c1.977.11 3.924.533 5.767 1.256Z"/><path fill="#FFDA96" d="M34.471 60.202c.863 3.476-.652 6.84-3.388 7.522-2.736.68-5.649-1.58-6.518-5.05-.869-3.47.652-6.841 3.382-7.522s5.655 1.58 6.524 5.05Zm49.272 2.026c-.587 3.523-3.27 6.042-6.054 5.601-2.783-.44-4.586-3.664-4.028-7.198.558-3.535 3.27-6.043 6.054-5.602 2.783.44 4.586 3.646 4.028 7.199Z"/><path fill="#FFDA96" d="M29.98 59.685C29.98 72.016 38.94 82 49.99 82h8.11c11.05 0 20.01-9.983 20.01-22.314V29.832c0-8.808-6.417-15.972-14.344-15.972H44.342c-7.921 0-14.345 7.152-14.345 15.972l-.018 29.853Z"/><path fill="url(#b)" d="M38.928 67.008c2.477 0 4.486-.881 4.486-1.968 0-1.086-2.009-1.967-4.486-1.967-2.478 0-4.487.881-4.487 1.967 0 1.087 2.009 1.968 4.486 1.968Z" opacity=".4"/><path fill="url(#c)" d="M66.526 67.008c2.478 0 4.486-.881 4.486-1.968 0-1.086-2.008-1.967-4.486-1.967-2.478 0-4.486.881-4.486 1.967 0 1.087 2.008 1.968 4.486 1.968Z" opacity=".4"/><path fill="#FF9B7C" d="M56.984 72.433c0 1.175-1.843 2.096-4.11 2.096-2.267 0-4.11-.939-4.11-2.096s1.843-2.09 4.11-2.09c2.267 0 4.11.94 4.11 2.09Z"/><path stroke="#FF7043" stroke-linecap="round" stroke-miterlimit="10" stroke-width="1.41" d="M45.21 70.237a.758.758 0 0 1 1.07.047c.04.04 1.802 1.761 6.582 1.761 4.78 0 6.57-1.761 6.588-1.761a.77.77 0 0 1 1.075 0"/><path fill="#FF7043" d="M55.587 69.879a1.76 1.76 0 0 0-1.715.076 1.873 1.873 0 0 1-1.004.24 2.015 2.015 0 0 1-1.034-.222 1.797 1.797 0 0 0-1.714-.077c-.799.394-1.674.916-1.674 1.304 0 .71 3.982 1.004 4.422 1.004.44 0 4.421-.293 4.421-1.004 0-.394-.898-.922-1.702-1.321Z"/><path fill="#443425" d="M41.993 59.221a2.783 2.783 0 0 1-5.56 0v-1.204a2.785 2.785 0 0 1 3.874-2.686 2.782 2.782 0 0 1 1.686 2.686v1.204Zm25.437.505h-4.11a.881.881 0 0 1 0-1.761h4.11a.88.88 0 1 1 0 1.761Z"/><path fill="url(#d)" d="m51.289 60.871-.77 6.136a3.81 3.81 0 0 1 4.698 0l-.775-6.136h-3.153Z"/><path fill="#443425" d="M37.988 58.617a2.83 2.83 0 0 1-2.83-2.825.587.587 0 0 1 1.174 0 1.656 1.656 0 0 0 1.656 1.65.587.587 0 0 1 0 1.175Z"/><path fill="#715D58" stroke="#715D58" stroke-linejoin="round" stroke-width="4" d="M79.574 70.42c-.124 2.283-.241 2.536.84 4.327 1.08 1.79 2.348 2.484 1.144 4.533-1.203 2.05-3.188 2.284-3.07 4.11.117 1.826 2.29 2.648 1.925 5.062-.328 2.19-3.781 4.474-4.433 4.874.523-.382 2.754-2.144 2.437-4.37-.364-2.53-.646-2.653-3.294-4.11-2.648-1.456-3.054-2.078-2.32-4.11.734-2.032 3.142-2.237 1.316-4.398-1.826-2.16-2.684-3.564-2.684-4.973 0-1.41 0-2.314 2.126-4.868 1.333-1.55 1.139-5.068 1.139-6.636 0-1.568 2.155-9.142-1.339-12.46-.628-.587-1.697-1.961-2.995-3.523-1.05-1.286-2.26-2.742-3.47-4.017a19.188 19.188 0 0 1-3.177-5.008c-.78-1.674-1.291-3.072-1.415-3.383.03.364-.329 1.99-.164 3.265.047.47.105.887.117 1.175.23 3.147 1.568 4.862 2.167 5.331-.875-.51-3.899-2.724-5.355-4.697a10.492 10.492 0 0 1-1.333-2.35 7.563 7.563 0 0 1 .405-6.411c-.276.417-1.603 3.476-3.735 5.484-.164.159-.334.294-.51.452-2.296 1.973-5.872 5.831-6.43 6.148.323-.3 1.938-3.611 3.335-6.389.18-.301.335-.618.464-.945.452-1.08 1.709-6.747 1.709-6.747a85.722 85.722 0 0 1-4.64 7.64 28.134 28.134 0 0 1-4.979 5.466c-.704.588-1.65 1.327-2.7 2.22-3.806 3.2-9.085 8.021-9.56 10.664-.587 3.364 1.092 10.728 2.172 13.728s1.216 3.987 0 5.191c-1.215 1.204-4.222 3.37-3.728 4.457.493 1.086 2.296 2.883 1.926 4.333-.37 1.45-4.334 4.91-4.845 6.865-.869 3.447 4.369 6.383 4.98 6.706-.629-.206-7.704-2.936-6.906-6.583.529-2.349.124-2.76-1.21-4.574-1.332-1.815-3.258-4.827-1.45-6.624 1.809-1.797 4.346-3.864 3.752-5.907-.593-2.043-7.087-16.236-7.087-21.262.085-2.513.385-5.014.898-7.476a59.648 59.648 0 0 1 2.255-8.479c2.061-5.748 5.215-11.48 9.983-14.568C42.11 10.96 49.35 9.95 52.974 10.766c1.143.32 2.27.699 3.376 1.133 0 0 2.273-2.038 4.903-1.38 1.932.482 10.24 4.287 13.746 8.25 2.696 3.077 9.396 10.57 12.332 19.278a24.664 24.664 0 0 1 1.403 7.927v.893c-.458 11.444-9.013 21.333-9.16 23.552Z"/><path fill="#fff" d="M59.72 27.278a.587.587 0 0 0-.622-.394l-2.936.317a9.6 9.6 0 0 0 1.174-10.992 9.912 9.912 0 0 0-10.023-4.697c-.75.134-1.484.344-2.19.628 0 0-8.967 2.748-13.066 7.98-.152.2.03.499.235.64a.587.587 0 0 0 .681 0 56.442 56.442 0 0 1 2.42-1.715 3.735 3.735 0 0 1 2.202-.67c-.196.387-.45.741-.752 1.052A25.348 25.348 0 0 0 34.882 21c-1.204.863-2.42 1.761-3.065 3.305a.587.587 0 0 0 1.004.594 22.683 22.683 0 0 1 2.795-2.977l.094-.071.305-.217a23.356 23.356 0 0 0-1.838 2.895.588.588 0 0 0 .84.769l1.556-1.022-2.39 3.33a.587.587 0 0 0 .863.786 24.957 24.957 0 0 1 6.242-3.97L37.7 29.956a.588.588 0 0 0 .793.828l.587-.364-4.885 5.397a.587.587 0 0 0 .78.863l10.37-7.634a2.539 2.539 0 0 1-.234.417l-3.118 4.616a.587.587 0 0 0 .746.857l8.849-4.445a11.108 11.108 0 0 1 1.797-.77 29.14 29.14 0 0 1-1.21 1.944.74.74 0 0 0-.235.452.586.586 0 0 0 .24.587 1.175 1.175 0 0 0-.352 1.216.587.587 0 0 0 .347.364.619.619 0 0 0 .499-.035 42.217 42.217 0 0 0 5.39-3.57c1.82-1.45 1.903-2.649 1.656-3.4Z" opacity=".1"/><path fill="#fff" stroke="#fff" stroke-miterlimit="10" stroke-width="2" d="M82.51 28.288c-.546-1.398-1.762-2.45-2.449-3.764-.153-.288-.652-.094-.534.223.117.317.264.769.41 1.174l-.586-.675c-.97-1.175-1.72-2.531-2.878-3.523a.294.294 0 0 0-.499.211c.039.395.104.788.194 1.174a4.452 4.452 0 0 0-.558-.64.294.294 0 0 0-.493.282c.123.652.476 1.55.34 2.267a23.916 23.916 0 0 0-2.524-3.118c-1.099-1.104-2.467-1.885-3.524-3.012-.264-.277-.675.14-.416.416a26.42 26.42 0 0 1 2.524 3.524c.265.387.547.775.81 1.174a4.504 4.504 0 0 0-2.976-1.38.294.294 0 0 0-.294.294c.088.957.951 1.838.928 2.789a3.233 3.233 0 0 0-.71-.3.3.3 0 0 0-.365.364c.34.923.628 1.864.864 2.819-.823-.364-1.48-1.104-2.45-.998a.295.295 0 0 0-.281.37c.087.28.13.57.13.863a.323.323 0 0 0-.1.1c-.74 1.25-.218 2.102.68 3.13.899 1.027 1.492 2.753 2.713 3.305a.3.3 0 0 0 .359-.463 3.73 3.73 0 0 1-.828-3.389c.587.682.816 1.463 1.814.934.112-.059.188-.452.247-.47.246-.07.675.587.816.699a1.175 1.175 0 0 0 1.127.429c.17 0 .223-.224.206-.364a7.87 7.87 0 0 1-.13-1.762c.294.5.616.982.964 1.445a.294.294 0 0 0 .487-.282v-.083c.382.682.81 1.369 1.491 1.55a.299.299 0 0 0 .37-.287c-.082-.992-.78-1.89-1.004-2.848.51 1.125.945 2.282 1.304 3.465a15.795 15.795 0 0 0 1.814 3.781.3.3 0 0 0 .552-.147 21.59 21.59 0 0 0-.405-3.582c-.158-.81-.382-1.609-.481-2.425.587 1.35.95 2.778 1.92 3.929a.294.294 0 0 0 .499-.206 10.26 10.26 0 0 0-.687-3.03c.487.587.957 1.245 1.433 1.88a.3.3 0 0 0 .546-.154c.088-1.808.293-3.969-.37-5.69Z" opacity=".1"/><g fill="#443425" opacity=".8"><path d="M45.88 52.65a17.82 17.82 0 0 0-6.46-1.068c-2.883-.02-5.736.58-8.367 1.761-1.04.482-2.83 2.19-2.936 5.514 0 .094-.03.323-.047.687v1.38c.03 1.85.323 5.25 2.02 7.193 1.087 1.25 2.89 2.736 5.285 2.736a8.138 8.138 0 0 0 4.92-1.943 26.278 26.278 0 0 0 7.135-8.074c1.709-2.89 1.861-5.714.388-7.047a7.991 7.991 0 0 0-1.938-1.139Zm31.345 6.295c-.094-3.406-1.885-5.132-2.936-5.613a20.076 20.076 0 0 0-8.368-1.762 17.82 17.82 0 0 0-6.459 1.069 7.915 7.915 0 0 0-1.938 1.174c-1.474 1.31-1.32 4.11.388 7.046a26.277 26.277 0 0 0 7.134 8.074 8.139 8.139 0 0 0 4.921 1.944c2.413 0 4.222-1.486 5.285-2.736 1.673-1.92 1.985-5.285 2.02-7.1l-.03-1.597c-.017-.31-.017-.499-.017-.499Z"/><path d="M45.88 52.65a17.82 17.82 0 0 0-6.46-1.068c-2.883-.02-5.736.58-8.367 1.761-1.04.482-2.83 2.19-2.936 5.514 0 .094-.03.323-.047.687v1.38c.03 1.85.323 5.25 2.02 7.193 1.087 1.25 2.89 2.736 5.285 2.736a8.138 8.138 0 0 0 4.92-1.943 26.278 26.278 0 0 0 7.135-8.074c1.709-2.89 1.861-5.714.388-7.047a7.991 7.991 0 0 0-1.938-1.139Zm31.345 6.295c-.094-3.406-1.885-5.132-2.936-5.613a20.076 20.076 0 0 0-8.368-1.762 17.82 17.82 0 0 0-6.459 1.069 7.915 7.915 0 0 0-1.938 1.174c-1.474 1.31-1.32 4.11.388 7.046a26.277 26.277 0 0 0 7.134 8.074 8.139 8.139 0 0 0 4.921 1.944c2.413 0 4.222-1.486 5.285-2.736 1.673-1.92 1.985-5.285 2.02-7.1l-.03-1.597c-.017-.31-.017-.499-.017-.499Z"/></g><path fill="#ED7572" d="M81.98 59.022c-.463-.5-1.303-.805-2.5-.91-.353-3.735-2.567-5.732-3.87-6.336a21.726 21.726 0 0 0-9.073-2.003 20.762 20.762 0 0 0-3.405.094 1.228 1.228 0 0 0-.928-.552h-17.24a1.221 1.221 0 0 0-.928.587 28.27 28.27 0 0 0-4.063-.1 21.727 21.727 0 0 0-9.072 2.003c-1.316.587-3.524 2.607-3.87 6.336-1.174.105-2.038.41-2.502.91a1.65 1.65 0 0 0-.452 1.268 1.696 1.696 0 0 0 .634 1.175 3.64 3.64 0 0 0 2.244.587c.146 2.29.704 5.208 2.401 7.158 1.903 2.178 4.17 3.33 6.57 3.33a9.84 9.84 0 0 0 6.008-2.309 27.83 27.83 0 0 0 7.563-8.555 11.851 11.851 0 0 0 1.439-3.629 1.175 1.175 0 0 0 .634-1.022v-1.69c.465-.23.978-.347 1.497-.341h.417a3.283 3.283 0 0 1 1.497.323v1.709a1.173 1.173 0 0 0 .588.998 11.953 11.953 0 0 0 1.444 3.652 27.83 27.83 0 0 0 7.563 8.555 9.84 9.84 0 0 0 6.007 2.308c2.402 0 4.668-1.174 6.565-3.33 1.703-1.949 2.26-4.867 2.408-7.157a3.623 3.623 0 0 0 2.237-.587 1.654 1.654 0 0 0 .634-1.175 1.627 1.627 0 0 0-.446-1.297ZM70.549 70.255a7.546 7.546 0 0 1-4.563-1.826 25.684 25.684 0 0 1-6.964-7.898c-1.532-2.602-1.761-5.185-.505-6.283a7.175 7.175 0 0 1 1.762-1.057c2-.724 4.116-1.07 6.242-1.022a19.478 19.478 0 0 1 8.12 1.697c.917.423 2.496 1.967 2.585 5.097.02.16.031.32.035.481l.03 1.568c-.036 1.762-.324 4.927-1.874 6.712-1.01 1.157-2.672 2.53-4.868 2.53Zm-39.454-2.531c-1.573-1.809-1.85-5.062-1.873-6.818v-1.368c0-.358.041-.587.047-.663.082-3.054 1.656-4.586 2.578-5.009a19.478 19.478 0 0 1 8.12-1.697 17.204 17.204 0 0 1 6.243 1.022 7.128 7.128 0 0 1 1.761 1.057c1.245 1.098 1.034 3.675-.499 6.283a25.684 25.684 0 0 1-6.987 7.898 7.546 7.546 0 0 1-4.563 1.826c-2.15 0-3.817-1.374-4.827-2.531Zm17.51-16.06h8.809a3.792 3.792 0 0 0-1.175 1.762 5.526 5.526 0 0 0-2.73-.693h-.417a5.443 5.443 0 0 0-2.754.722 4.697 4.697 0 0 0-1.733-1.791Z"/></g><defs><linearGradient id="b" x1="38.928" x2="38.928" y1="67.008" y2="63.079" gradientUnits="userSpaceOnUse"><stop stop-color="#FF9B48" stop-opacity="0"/><stop offset="1" stop-color="#FF9B48"/></linearGradient><linearGradient id="c" x1="66.526" x2="66.526" y1="67.008" y2="63.079" gradientUnits="userSpaceOnUse"><stop stop-color="#FF9B48" stop-opacity="0"/><stop offset="1" stop-color="#FF9B48"/></linearGradient><linearGradient id="d" x1="52.868" x2="52.868" y1="60.871" y2="67.007" gradientUnits="userSpaceOnUse"><stop stop-color="#FF9B48" stop-opacity="0"/><stop offset="1" stop-color="#FF9B48"/></linearGradient></defs></svg>