<svg width="107" height="107" viewBox="0 0 107 107" fill="none" xmlns="http://www.w3.org/2000/svg">
<mask id="mask0_69_469" style="mask-type:alpha" maskUnits="userSpaceOnUse" x="0" y="0" width="107" height="107">
<circle cx="53.5" cy="53.5" r="53.5" fill="#D9D9D9"/>
</mask>
<g mask="url(#mask0_69_469)">
<g style="mix-blend-mode:soft-light" opacity="0.4">
<g style="mix-blend-mode:soft-light">
<path d="M61.6814 65.5391C59.4044 65.5405 57.154 66.0291 55.0813 66.9718C52.6722 65.3563 49.87 64.4245 46.9732 64.2756C44.0763 64.1267 41.1933 64.7663 38.6313 66.1262C36.0692 67.4862 33.9239 69.5156 32.424 71.9984C30.9241 74.4811 30.1256 77.3242 30.1137 80.2249C30.1137 82.4269 26.1677 86.6312 26.9722 88.5396C27.4885 89.792 28.211 90.9492 29.1096 91.9629C32.0456 95.5155 41.1589 96.1966 46.1383 96.1966C48.4171 96.1938 50.6691 95.7054 52.7443 94.7639C55.3855 96.5412 58.4979 97.488 61.6814 97.4826C67.4653 97.4826 76.3907 97.0011 79.2151 92.4268C79.6895 91.6121 80.096 90.7597 80.4306 89.8784C81.1646 88.0522 77.706 83.6012 77.706 81.5108C77.6983 77.2681 76.0058 73.2021 73.0007 70.207C69.9957 67.2119 65.9242 65.5328 61.6814 65.5391Z" fill="black"/>
<path d="M61.6814 65.5391C59.4044 65.5405 57.154 66.0291 55.0813 66.9718C52.6722 65.3563 49.87 64.4245 46.9732 64.2756C44.0763 64.1267 41.1933 64.7663 38.6313 66.1262C36.0692 67.4862 33.9239 69.5156 32.424 71.9984C30.9241 74.4811 30.1256 77.3242 30.1137 80.2249C30.1137 82.4269 26.1677 86.6312 26.9722 88.5396C27.4885 89.792 28.211 90.9492 29.1096 91.9629C32.0456 95.5155 41.1589 96.1966 46.1383 96.1966C48.4171 96.1938 50.6691 95.7054 52.7443 94.7639C55.3855 96.5412 58.4979 97.488 61.6814 97.4826C67.4653 97.4826 76.3907 97.0011 79.2151 92.4268C79.6895 91.6121 80.096 90.7597 80.4306 89.8784C81.1646 88.0522 77.706 83.6012 77.706 81.5108C77.6983 77.2681 76.0058 73.2021 73.0007 70.207C69.9957 67.2119 65.9242 65.5328 61.6814 65.5391Z" stroke="black" stroke-width="4" stroke-linejoin="round"/>
</g>
<g style="mix-blend-mode:soft-light">
<path d="M72.3865 92.6559C72.2619 91.4295 71.6601 90.3012 70.7111 89.5145C69.7621 88.7277 68.5419 88.3455 67.3136 88.4503C66.0854 88.5551 64.9475 89.1385 64.1455 90.0747C63.3435 91.0108 62.9416 92.2247 63.0266 93.4545C63.1146 94.4939 65.2227 117.53 78.7106 130.935L84.8585 123.801C74.289 112.832 72.4158 92.9613 72.3865 92.6559Z" fill="black"/>
</g>
<g style="mix-blend-mode:soft-light">
<path d="M42.4507 95.6684C44.3532 93.9068 46.8195 90.9356 45.0579 89.0272C43.2963 87.1188 37.9763 87.0072 36.0679 88.7747L22.028 103.302C21.5288 103.764 21.1359 104.329 20.8763 104.957C20.6168 105.586 20.4968 106.263 20.5247 106.943C20.5526 107.622 20.7278 108.288 21.038 108.893C21.3483 109.498 21.7862 110.029 22.3216 110.448L30.7949 120.824L36.5964 113.431L29.5206 106.455L42.4507 95.6684Z" fill="black"/>
</g>
<g style="mix-blend-mode:soft-light">
<path d="M64.8175 86.3964C61.1416 85.5743 59.5797 84.582 53.6607 84.582C47.7418 84.582 45.5868 85.5802 41.9168 86.3964C39.568 86.9131 37.7359 89.3911 37.7359 91.7751L38.3231 109.315C38.3231 109.315 34.2715 116.361 34.2715 123.008H72.6507C72.6507 117.136 67.8181 109.315 67.8181 109.315L68.9925 91.7751C69.0042 89.3911 67.1428 86.9131 64.8175 86.3964Z" fill="black"/>
</g>
<g style="mix-blend-mode:soft-light">
<path d="M60.3718 80.8944L60.7829 85.2103C60.7829 85.2103 58.2403 89.6848 54.8345 89.6848C51.4288 89.6848 48.8862 85.2103 48.8862 85.2103L49.3032 80.8944H60.3718Z" fill="black"/>
</g>
<g style="mix-blend-mode:soft-light">
<path d="M44.5881 93.1434L41.6463 97.5297L38.3932 92.7499L41.1883 87.9702L44.5881 93.1434Z" fill="black"/>
</g>
<g style="mix-blend-mode:soft-light">
<path d="M67.988 92.7499L65.1988 97.5297L61.7931 93.1434L65.7567 87.9702L67.988 92.7499Z" fill="black"/>
</g>
<g style="mix-blend-mode:soft-light">
<path d="M53.1147 103.126L49.1452 107.906L45.1758 103.126L48.4288 98.3461L53.1147 103.126Z" fill="black"/>
</g>
<g style="mix-blend-mode:soft-light">
<path d="M45.0285 103.126L41.0591 107.906L38.3932 103.126L41.6463 98.3461L45.0285 103.126Z" fill="black"/>
</g>
<g style="mix-blend-mode:soft-light">
<path d="M61.2061 103.126L57.2367 107.906L53.2614 103.126L57.9531 98.3461L61.2061 103.126Z" fill="black"/>
</g>
<g style="mix-blend-mode:soft-light">
<path d="M53.1141 93.1435L48.5575 97.9233L44.588 93.1435L47.8411 88.3637L53.1141 93.1435Z" fill="black"/>
</g>
<g style="mix-blend-mode:soft-light">
<path d="M61.7933 93.1435L57.8239 97.9233L53.2614 93.1435L58.5403 88.3637L61.7933 93.1435Z" fill="black"/>
</g>
<g style="mix-blend-mode:soft-light">
<path d="M67.9885 103.126L65.3285 107.906L61.3531 103.126L64.7413 98.3461L67.9885 103.126Z" fill="black"/>
</g>
<g style="mix-blend-mode:soft-light">
<path d="M60.5717 82.9612C59.8595 83.7884 58.9733 84.448 57.9764 84.8926C56.9795 85.3372 55.8967 85.556 54.8054 85.5331C53.7015 85.5452 52.6106 85.2949 51.6223 84.8029C50.6341 84.3108 49.7769 83.591 49.1213 82.7029C50.9631 82.1183 52.8747 81.7826 54.8054 81.7046C56.7821 81.8139 58.7287 82.2381 60.5717 82.9612Z" fill="black"/>
</g>
<g style="mix-blend-mode:soft-light">
<path d="M35.6453 61.3762C36.5085 64.8524 34.9935 68.217 32.2572 68.8982C29.5208 69.5793 26.6083 67.3186 25.7393 63.8483C24.8702 60.3779 26.391 57.0074 29.1215 56.3263C31.852 55.6451 34.7762 57.9059 35.6453 61.3762Z" fill="black"/>
</g>
<g style="mix-blend-mode:soft-light">
<path d="M84.9172 63.4019C84.33 66.925 81.6465 69.4441 78.8632 69.0037C76.0799 68.5633 74.2772 65.3396 74.835 61.8047C75.3929 58.2698 78.1057 55.7624 80.889 56.2028C83.6724 56.6432 85.4751 59.8493 84.9172 63.4019Z" fill="black"/>
</g>
<g style="mix-blend-mode:soft-light">
<path d="M31.1533 60.859C31.1533 73.1902 40.1139 83.1725 51.165 83.1725H59.2742C70.3252 83.1725 79.2859 73.1902 79.2859 60.859V31.0059C79.2859 22.198 72.8678 15.0341 64.9406 15.0341H45.5162C37.5949 15.0341 31.1709 22.1862 31.1709 31.0059L31.1533 60.859Z" fill="black"/>
</g>
<g style="mix-blend-mode:soft-light" opacity="0.4">
<path d="M40.1019 68.1815C42.5796 68.1815 44.5881 67.3008 44.5881 66.2144C44.5881 65.128 42.5796 64.2473 40.1019 64.2473C37.6242 64.2473 35.6157 65.128 35.6157 66.2144C35.6157 67.3008 37.6242 68.1815 40.1019 68.1815Z" fill="black"/>
</g>
<g style="mix-blend-mode:soft-light" opacity="0.4">
<path d="M67.7004 68.1815C70.1781 68.1815 72.1866 67.3008 72.1866 66.2144C72.1866 65.128 70.1781 64.2473 67.7004 64.2473C65.2228 64.2473 63.2142 65.128 63.2142 66.2144C63.2142 67.3008 65.2228 68.1815 67.7004 68.1815Z" fill="black"/>
</g>
<g style="mix-blend-mode:soft-light">
<path d="M58.1586 73.6073C58.1586 74.7817 56.3148 75.7036 54.0482 75.7036C51.7817 75.7036 49.9379 74.7641 49.9379 73.6073C49.9379 72.4505 51.7817 71.5169 54.0482 71.5169C56.3148 71.5169 58.1586 72.4564 58.1586 73.6073Z" fill="black"/>
</g>
<g style="mix-blend-mode:soft-light">
<path d="M46.3851 71.4114C46.5332 71.2762 46.7288 71.2052 46.9292 71.214C47.1295 71.2228 47.3182 71.3107 47.4538 71.4584C47.4949 71.4995 49.2565 73.22 54.0363 73.22C58.8161 73.22 60.607 71.4584 60.6247 71.4584C60.7683 71.3182 60.9612 71.2397 61.1619 71.2397C61.3627 71.2397 61.5555 71.3182 61.6992 71.4584" stroke="black" stroke-width="1.41" stroke-miterlimit="10" stroke-linecap="round"/>
</g>
<g style="mix-blend-mode:soft-light">
<path d="M56.7609 71.0532C56.4923 70.9187 56.1938 70.8551 55.8937 70.8685C55.5936 70.8818 55.3019 70.9717 55.0463 71.1296C54.7408 71.3023 54.3928 71.3857 54.0422 71.3703C53.684 71.3893 53.3272 71.3123 53.0087 71.1472C52.752 70.9925 52.4606 70.9044 52.1611 70.8911C51.8617 70.8777 51.5636 70.9395 51.2941 71.0709C50.4955 71.4643 49.6206 71.9869 49.6206 72.3744C49.6206 73.0849 53.6018 73.3785 54.0422 73.3785C54.4826 73.3785 58.4638 73.0849 58.4638 72.3744C58.4638 71.981 57.5654 71.4525 56.7609 71.0532Z" fill="black"/>
</g>
<g style="mix-blend-mode:soft-light">
<path d="M43.1672 60.3952C43.1343 61.1105 42.827 61.7857 42.3092 62.2802C41.7914 62.7748 41.1029 63.0508 40.3868 63.0508C39.6708 63.0508 38.9823 62.7748 38.4645 62.2802C37.9466 61.7857 37.6393 61.1105 37.6065 60.3952V59.1915C37.5892 58.8156 37.6483 58.4401 37.7802 58.0878C37.9122 57.7354 38.1142 57.4134 38.374 57.1413C38.6339 56.8692 38.9463 56.6526 39.2922 56.5046C39.6382 56.3567 40.0106 56.2804 40.3868 56.2804C40.7631 56.2804 41.1355 56.3567 41.4814 56.5046C41.8274 56.6526 42.1397 56.8692 42.3996 57.1413C42.6595 57.4134 42.8615 57.7354 42.9934 58.0878C43.1254 58.4401 43.1845 58.8156 43.1672 59.1915V60.3952Z" fill="black"/>
</g>
<g style="mix-blend-mode:soft-light">
<path d="M68.6048 60.9005H64.4944C64.2608 60.9005 64.0368 60.8077 63.8716 60.6426C63.7064 60.4774 63.6136 60.2533 63.6136 60.0197C63.6136 59.7861 63.7064 59.5621 63.8716 59.3969C64.0368 59.2317 64.2608 59.1389 64.4944 59.1389H68.6048C68.8384 59.1389 69.0624 59.2317 69.2276 59.3969C69.3928 59.5621 69.4856 59.7861 69.4856 60.0197C69.4856 60.2533 69.3928 60.4774 69.2276 60.6426C69.0624 60.8077 68.8384 60.9005 68.6048 60.9005Z" fill="black"/>
</g>
<g style="mix-blend-mode:soft-light">
<path d="M52.4627 62.0456L51.6935 68.1818C52.364 67.657 53.1909 67.3719 54.0423 67.3719C54.8937 67.3719 55.7206 67.657 56.3911 68.1818L55.616 62.0456H52.4627Z" fill="black"/>
</g>
<g style="mix-blend-mode:soft-light">
<path d="M39.1627 59.7905C38.4131 59.7905 37.6941 59.4931 37.1634 58.9636C36.6328 58.4341 36.334 57.7157 36.3324 56.966C36.3324 56.8103 36.3943 56.661 36.5044 56.5508C36.6145 56.4407 36.7639 56.3788 36.9196 56.3788C37.0753 56.3788 37.2247 56.4407 37.3348 56.5508C37.4449 56.661 37.5068 56.8103 37.5068 56.966C37.5083 57.4042 37.6835 57.8239 37.9939 58.1331C38.3042 58.4424 38.7245 58.6161 39.1627 58.6161C39.3184 58.6161 39.4678 58.6779 39.5779 58.7881C39.688 58.8982 39.7499 59.0475 39.7499 59.2033C39.7499 59.359 39.688 59.5084 39.5779 59.6185C39.4678 59.7286 39.3184 59.7905 39.1627 59.7905Z" fill="black"/>
</g>
<g style="mix-blend-mode:soft-light">
<path d="M80.7475 71.5935C80.6242 73.8777 80.5068 74.1302 81.5872 75.9212C82.6677 77.7121 83.936 78.405 82.7323 80.4543C81.5285 82.5036 79.5438 82.7385 79.6612 84.5647C79.7787 86.3909 81.9513 87.213 81.5872 89.6263C81.2584 91.8166 77.8057 94.1008 77.1539 94.5001C77.6765 94.1184 79.9078 92.3568 79.5908 90.1313C79.2267 87.6005 78.9448 87.4772 76.2966 86.021C73.6483 84.5647 73.2432 83.9423 73.9771 81.9106C74.7111 79.8789 77.1186 79.6733 75.2925 77.5125C73.4663 75.3516 72.609 73.9482 72.609 72.5389C72.609 71.1296 72.609 70.2253 74.7346 67.671C76.0676 66.1208 75.8738 62.6035 75.8738 61.0357C75.8738 59.4679 78.0288 51.893 74.535 48.5754C73.9067 47.9882 72.838 46.6141 71.5403 45.0522C70.4892 43.7662 69.2796 42.31 68.07 41.0358C66.7579 39.5409 65.6861 37.8511 64.8932 36.027C64.1122 34.3535 63.6014 32.9559 63.4781 32.6447C63.5074 33.0088 63.1492 34.6353 63.3136 35.9095C63.3606 36.3793 63.4193 36.7962 63.4311 37.0839C63.6601 40.2313 64.9989 41.9459 65.5979 42.4157C64.7229 41.9048 61.6988 39.6911 60.2426 37.7181C59.6989 36.9959 59.2509 36.2064 58.9097 35.3693C58.5023 34.3363 58.3275 33.2263 58.3975 32.118C58.4675 31.0098 58.7807 29.9306 59.3148 28.9571C59.0389 29.374 57.7118 32.4333 55.5803 34.4415C55.4159 34.6001 55.2456 34.7351 55.0694 34.8937C52.7735 36.8667 49.1974 40.7245 48.6396 41.0416C48.9626 40.7422 50.5773 37.4304 51.9749 34.6529C52.1551 34.351 52.3103 34.0348 52.4388 33.7075C52.8909 32.6271 54.1475 26.9606 54.1475 26.9606C52.7351 29.586 51.1867 32.136 49.5086 34.6001C48.0965 36.6335 46.4223 38.4716 44.5292 40.0669C43.8246 40.6541 42.8792 41.3939 41.8281 42.2865C38.0231 45.4867 32.7442 50.3076 32.2685 52.95C31.6813 56.3146 33.3607 63.6781 34.4412 66.6787C35.5216 69.6792 35.6567 70.6657 34.4412 71.8695C33.2257 73.0732 30.2192 75.24 30.7125 76.3263C31.2057 77.4126 33.0084 79.2095 32.6385 80.6598C32.2685 82.1102 28.305 85.5688 27.7941 87.5242C26.925 90.971 32.1628 93.907 32.7735 94.23C32.1452 94.0245 25.0695 91.294 25.8681 87.6475C26.3966 85.2987 25.9914 84.8877 24.6585 83.0732C23.3255 81.2588 21.3995 78.2465 23.2081 76.4496C25.0166 74.6528 27.5533 72.5859 26.9603 70.5424C26.3672 68.499 19.8728 54.3064 19.8728 49.28C19.9577 46.7672 20.2582 44.2663 20.7712 41.805C21.3137 38.9271 22.0673 36.093 23.026 33.3259C25.0871 27.5772 28.2404 21.8461 33.0084 18.7575C43.2844 12.1339 50.5245 11.1239 54.1475 11.9401C55.2913 12.261 56.4181 12.6393 57.5239 13.0734C57.5239 13.0734 59.7963 11.0358 62.427 11.6935C64.3589 12.175 72.6677 15.98 76.1733 19.9436C78.8685 23.0205 85.5684 30.5132 88.5044 39.2213C89.4032 41.769 89.8774 44.4471 89.9078 47.1485C89.9078 47.448 89.9078 47.7357 89.9078 48.041C89.4498 59.4855 80.8943 69.3739 80.7475 71.5935Z" fill="black"/>
<path d="M80.7475 71.5935C80.6242 73.8777 80.5068 74.1302 81.5872 75.9212C82.6677 77.7121 83.936 78.405 82.7323 80.4543C81.5285 82.5036 79.5438 82.7385 79.6612 84.5647C79.7787 86.3909 81.9513 87.213 81.5872 89.6263C81.2584 91.8166 77.8057 94.1008 77.1539 94.5001C77.6765 94.1184 79.9078 92.3568 79.5908 90.1313C79.2267 87.6005 78.9448 87.4772 76.2966 86.021C73.6483 84.5647 73.2432 83.9423 73.9771 81.9106C74.7111 79.8789 77.1186 79.6733 75.2925 77.5125C73.4663 75.3516 72.609 73.9482 72.609 72.5389C72.609 71.1296 72.609 70.2253 74.7346 67.671C76.0676 66.1208 75.8738 62.6035 75.8738 61.0357C75.8738 59.4679 78.0288 51.893 74.535 48.5754C73.9067 47.9882 72.838 46.6141 71.5403 45.0522C70.4892 43.7662 69.2796 42.31 68.07 41.0358C66.7579 39.5409 65.6861 37.8511 64.8932 36.027C64.1122 34.3535 63.6014 32.9559 63.4781 32.6447C63.5074 33.0088 63.1492 34.6353 63.3136 35.9095C63.3606 36.3793 63.4193 36.7962 63.4311 37.0839C63.6601 40.2313 64.9989 41.9459 65.5979 42.4157C64.7229 41.9048 61.6988 39.6911 60.2426 37.7181C59.6989 36.9959 59.2509 36.2064 58.9097 35.3693C58.5023 34.3363 58.3275 33.2263 58.3975 32.118C58.4675 31.0098 58.7807 29.9306 59.3148 28.9571C59.0389 29.374 57.7118 32.4333 55.5803 34.4415C55.4159 34.6001 55.2456 34.7351 55.0694 34.8937C52.7735 36.8667 49.1974 40.7245 48.6396 41.0416C48.9626 40.7422 50.5773 37.4304 51.9749 34.6529C52.1551 34.351 52.3103 34.0348 52.4388 33.7075C52.8909 32.6271 54.1475 26.9606 54.1475 26.9606C52.7351 29.586 51.1867 32.136 49.5086 34.6001C48.0965 36.6335 46.4223 38.4716 44.5292 40.0669C43.8246 40.6541 42.8792 41.3939 41.8281 42.2865C38.0231 45.4867 32.7442 50.3076 32.2685 52.95C31.6813 56.3146 33.3607 63.6781 34.4412 66.6787C35.5216 69.6792 35.6567 70.6657 34.4412 71.8695C33.2257 73.0732 30.2192 75.24 30.7125 76.3263C31.2057 77.4126 33.0084 79.2095 32.6385 80.6598C32.2685 82.1102 28.305 85.5688 27.7941 87.5242C26.925 90.971 32.1628 93.907 32.7735 94.23C32.1452 94.0245 25.0695 91.294 25.8681 87.6475C26.3966 85.2987 25.9914 84.8877 24.6585 83.0732C23.3255 81.2588 21.3995 78.2465 23.2081 76.4496C25.0166 74.6528 27.5533 72.5859 26.9603 70.5424C26.3672 68.499 19.8728 54.3064 19.8728 49.28C19.9577 46.7672 20.2582 44.2663 20.7712 41.805C21.3137 38.9271 22.0673 36.093 23.026 33.3259C25.0871 27.5772 28.2404 21.8461 33.0084 18.7575C43.2844 12.1339 50.5245 11.1239 54.1475 11.9401C55.2913 12.261 56.4181 12.6393 57.5239 13.0734C57.5239 13.0734 59.7963 11.0358 62.427 11.6935C64.3589 12.175 72.6677 15.98 76.1733 19.9436C78.8685 23.0205 85.5684 30.5132 88.5044 39.2213C89.4032 41.769 89.8774 44.4471 89.9078 47.1485C89.9078 47.448 89.9078 47.7357 89.9078 48.041C89.4498 59.4855 80.8943 69.3739 80.7475 71.5935Z" stroke="black" stroke-width="4" stroke-linejoin="round"/>
</g>
<g style="mix-blend-mode:soft-light" opacity="0.1">
<path d="M60.895 28.4519C60.8517 28.3252 60.7663 28.2171 60.6531 28.1455C60.5399 28.074 60.4056 28.0433 60.2726 28.0585L57.3366 28.3756C58.6413 26.8878 59.4545 25.0331 59.6647 23.0654C59.8749 21.0977 59.472 19.1132 58.511 17.3833C57.497 15.692 56.0017 14.3417 54.2161 13.5049C52.4306 12.668 50.436 12.3828 48.4875 12.6857C47.7379 12.8198 47.004 13.0304 46.2973 13.314C46.2973 13.314 37.3308 16.0621 33.2321 21.294C33.0795 21.4937 33.2615 21.7931 33.467 21.9341C33.5665 22.0049 33.6855 22.0429 33.8076 22.0429C33.9297 22.0429 34.0487 22.0049 34.1482 21.9341C34.9409 21.3469 35.7512 20.7597 36.5674 20.2194C37.2126 19.7701 37.9832 19.5358 38.7694 19.55C38.5733 19.9363 38.3199 20.2907 38.0178 20.6011C37.3367 21.0944 36.6829 21.6189 36.0566 22.1748C34.8528 23.038 33.6373 23.9364 32.9914 25.4807C32.936 25.6115 32.9298 25.7579 32.9741 25.8929C33.0183 26.0278 33.11 26.1422 33.2321 26.2147C33.3547 26.2881 33.4999 26.3143 33.6404 26.2884C33.7809 26.2624 33.9072 26.1861 33.9955 26.0738C34.8358 24.9994 35.7713 24.003 36.7906 23.0967L36.8845 23.0262L37.1899 22.809C36.5071 23.7276 35.8928 24.6952 35.3519 25.7039C35.2898 25.8189 35.268 25.9514 35.2897 26.0804C35.3115 26.2093 35.3757 26.3273 35.4721 26.4156C35.5685 26.5039 35.6916 26.5576 35.822 26.568C35.9523 26.5784 36.0824 26.545 36.1916 26.4731L37.7477 25.4514L35.3578 28.7808C35.2717 28.8976 35.232 29.0422 35.2463 29.1867C35.2606 29.3311 35.3278 29.4651 35.4351 29.5629C35.5423 29.6607 35.682 29.7153 35.8271 29.7161C35.9722 29.717 36.1126 29.6641 36.221 29.5676C38.0929 27.9417 40.1966 26.6039 42.4629 25.5982L38.8751 31.1296C38.8011 31.2407 38.7671 31.3737 38.7788 31.5067C38.7905 31.6398 38.8473 31.7648 38.9396 31.8613C39.032 31.9577 39.1544 32.0198 39.2868 32.0373C39.4192 32.0548 39.5536 32.0267 39.6678 31.9575L40.255 31.5934L35.3695 36.9898C35.2776 37.0984 35.2282 37.2366 35.2306 37.3789C35.2329 37.5211 35.2868 37.6577 35.3823 37.7631C35.4777 37.8686 35.6082 37.9359 35.7495 37.9524C35.8908 37.9689 36.0333 37.9336 36.1505 37.853L46.5204 30.2194C46.4554 30.3655 46.3768 30.505 46.2855 30.6363L43.1675 35.2517C43.0942 35.3589 43.0586 35.4875 43.0662 35.6171C43.0737 35.7468 43.1241 35.8703 43.2093 35.9683C43.2946 36.0663 43.4099 36.1333 43.5373 36.1588C43.6647 36.1842 43.7969 36.1667 43.9132 36.109L52.7623 31.6639C53.3375 31.3552 53.9388 31.0978 54.5591 30.8947C54.1833 31.5582 53.7782 32.2041 53.3495 32.8383C53.2202 32.9565 53.1369 33.1167 53.1146 33.2904C53.0943 33.4011 53.1062 33.5153 53.1488 33.6194C53.1915 33.7235 53.2632 33.8131 53.3554 33.8776C53.1867 34.0255 53.0639 34.2185 53.0015 34.4339C52.9391 34.6493 52.9396 34.878 53.0031 35.0931C53.0303 35.1757 53.0755 35.2512 53.1354 35.3141C53.1953 35.3771 53.2684 35.4259 53.3495 35.4572C53.4306 35.4865 53.5168 35.4986 53.6028 35.4925C53.6888 35.4864 53.7725 35.4624 53.8486 35.422C55.7341 34.3715 57.5362 33.1779 59.2391 31.8518C61.0594 30.4014 61.1416 29.2036 60.895 28.4519Z" fill="black"/>
</g>
<g style="mix-blend-mode:soft-light" opacity="0.1">
<path d="M83.6837 29.462C83.1376 28.0645 81.9221 27.0134 81.2351 25.6981C81.0824 25.4104 80.5833 25.6042 80.7008 25.9212C80.8182 26.2383 80.965 26.6905 81.1118 27.0956L80.5246 26.4204C79.5557 25.246 78.8041 23.8895 77.6473 22.8972C77.6059 22.8566 77.5535 22.8292 77.4965 22.8184C77.4396 22.8076 77.3807 22.8139 77.3273 22.8365C77.2739 22.8591 77.2285 22.897 77.1966 22.9454C77.1647 22.9938 77.1479 23.0506 77.1482 23.1086C77.1868 23.5039 77.2516 23.8962 77.342 24.283C77.1769 24.0523 76.9901 23.838 76.7842 23.6429C76.7387 23.5965 76.6792 23.5665 76.6149 23.5575C76.5506 23.5486 76.4851 23.5612 76.4287 23.5934C76.3723 23.6256 76.3282 23.6756 76.3033 23.7356C76.2784 23.7955 76.274 23.8621 76.2909 23.9248C76.4142 24.5766 76.7665 25.475 76.6315 26.1914C75.8786 25.0831 75.034 24.0401 74.1065 23.0733C73.0085 21.9694 71.6403 21.1884 70.5834 20.061C70.3191 19.785 69.9081 20.2019 70.1664 20.4779C71.1032 21.5812 71.9476 22.7595 72.6914 24.0011C72.9556 24.3887 73.2375 24.7762 73.5017 25.1755C72.7182 24.3575 71.6552 23.8648 70.5246 23.7956C70.4468 23.7956 70.3721 23.8265 70.317 23.8816C70.262 23.9366 70.231 24.0113 70.231 24.0892C70.3191 25.0463 71.1823 25.9271 71.1588 26.8784C70.9348 26.7505 70.6962 26.65 70.4483 26.5789C70.398 26.5661 70.3452 26.5666 70.2951 26.5804C70.245 26.5941 70.1994 26.6207 70.1627 26.6574C70.126 26.6941 70.0994 26.7397 70.0857 26.7898C70.0719 26.8399 70.0714 26.8926 70.0842 26.943C70.4233 27.866 70.7115 28.8069 70.9474 29.7615C70.1253 29.3975 69.4677 28.6576 68.4988 28.7633C68.4539 28.7635 68.4096 28.7741 68.3694 28.7941C68.3292 28.8142 68.2941 28.8432 68.2669 28.8789C68.2397 28.9147 68.221 28.9562 68.2124 29.0003C68.2037 29.0443 68.2053 29.0898 68.2169 29.1332C68.3041 29.4126 68.3477 29.7037 68.3461 29.9964C68.3059 30.0219 68.2718 30.056 68.2463 30.0962C67.5064 31.3469 68.029 32.1984 68.9275 33.226C69.8259 34.2536 70.4189 35.9799 71.6403 36.5319C71.7022 36.5618 71.7724 36.5695 71.8393 36.5537C71.9062 36.5379 71.9656 36.4996 72.0076 36.4453C72.0496 36.3909 72.0716 36.3237 72.0699 36.255C72.0683 36.1863 72.0431 36.1203 71.9985 36.068C71.5948 35.6135 71.3083 35.0673 71.164 34.4767C71.0196 33.8862 71.0219 33.2693 71.1705 32.6799C71.7577 33.361 71.9868 34.142 72.985 33.6135C73.0966 33.5548 73.1729 33.1614 73.2316 33.1438C73.4782 33.0733 73.9069 33.731 74.0478 33.8425C74.1794 34.0093 74.3538 34.1372 74.5523 34.2127C74.7508 34.2881 74.9661 34.3084 75.1752 34.2712C75.3455 34.2712 75.3984 34.0481 75.3807 33.9071C75.2717 33.3266 75.2284 32.7357 75.2516 32.1455C75.5452 32.6447 75.8667 33.127 76.2146 33.59C76.2605 33.6336 76.3193 33.6611 76.3822 33.6685C76.4451 33.6759 76.5087 33.6628 76.5635 33.6311C76.6183 33.5994 76.6614 33.5508 76.6863 33.4926C76.7113 33.4344 76.7168 33.3697 76.7019 33.3082V33.226C77.0836 33.9071 77.5123 34.5941 78.1934 34.7762C78.2372 34.7868 78.2828 34.7874 78.3268 34.7779C78.3709 34.7684 78.4122 34.7492 78.4478 34.7215C78.4833 34.6939 78.5122 34.6585 78.5322 34.6182C78.5522 34.5778 78.5629 34.5335 78.5634 34.4884C78.4812 33.4961 77.7824 32.5977 77.5593 31.6405C78.0689 32.7657 78.5043 33.923 78.8628 35.105C79.2969 36.4406 79.9071 37.7123 80.6773 38.8866C80.7114 38.9403 80.7618 38.9818 80.8211 39.005C80.8804 39.0281 80.9455 39.0318 81.0071 39.0154C81.0686 38.9991 81.1233 38.9635 81.1632 38.914C81.2032 38.8644 81.2263 38.8034 81.2292 38.7398C81.1943 37.5366 81.0588 36.3384 80.8241 35.1579C80.6655 34.3475 80.4424 33.5489 80.3426 32.7327C80.9298 34.0833 81.2938 35.5102 82.2627 36.6611C82.3037 36.7013 82.3557 36.7286 82.4121 36.7396C82.4685 36.7506 82.5269 36.7448 82.58 36.7229C82.6332 36.701 82.6787 36.664 82.7111 36.6165C82.7434 36.569 82.761 36.513 82.7618 36.4556C82.688 35.4166 82.4563 34.3949 82.0748 33.4256C82.5622 34.0128 83.0319 34.6705 83.5076 35.3047C83.5429 35.3563 83.5935 35.3955 83.6523 35.4169C83.711 35.4382 83.775 35.4407 83.8353 35.4239C83.8955 35.407 83.949 35.3717 83.9881 35.323C84.0273 35.2742 84.0502 35.2144 84.0537 35.152C84.1417 33.3434 84.3473 31.1825 83.6837 29.462Z" fill="black"/>
<path d="M83.6837 29.462C83.1376 28.0645 81.9221 27.0134 81.2351 25.6981C81.0824 25.4104 80.5833 25.6042 80.7008 25.9212C80.8182 26.2383 80.965 26.6905 81.1118 27.0956L80.5246 26.4204C79.5557 25.246 78.8041 23.8895 77.6473 22.8972C77.6059 22.8566 77.5535 22.8292 77.4965 22.8184C77.4396 22.8076 77.3807 22.8139 77.3273 22.8365C77.2739 22.8591 77.2285 22.897 77.1966 22.9454C77.1647 22.9938 77.1479 23.0506 77.1482 23.1086C77.1868 23.5039 77.2516 23.8962 77.342 24.283C77.1769 24.0523 76.9901 23.838 76.7842 23.6429C76.7387 23.5965 76.6792 23.5665 76.6149 23.5575C76.5506 23.5486 76.4851 23.5612 76.4287 23.5934C76.3723 23.6256 76.3282 23.6756 76.3033 23.7356C76.2784 23.7955 76.274 23.8621 76.2909 23.9248C76.4142 24.5766 76.7665 25.475 76.6315 26.1914C75.8786 25.0831 75.034 24.0401 74.1065 23.0733C73.0085 21.9694 71.6403 21.1884 70.5834 20.061C70.3191 19.785 69.9081 20.2019 70.1664 20.4779C71.1032 21.5812 71.9476 22.7595 72.6914 24.0011C72.9556 24.3887 73.2375 24.7762 73.5017 25.1755C72.7182 24.3575 71.6552 23.8648 70.5246 23.7956C70.4468 23.7956 70.3721 23.8265 70.317 23.8816C70.262 23.9366 70.231 24.0113 70.231 24.0892C70.3191 25.0463 71.1823 25.9271 71.1588 26.8784C70.9348 26.7505 70.6962 26.65 70.4483 26.5789C70.398 26.5661 70.3452 26.5666 70.2951 26.5804C70.245 26.5941 70.1994 26.6207 70.1627 26.6574C70.126 26.6941 70.0994 26.7397 70.0857 26.7898C70.0719 26.8399 70.0714 26.8926 70.0842 26.943C70.4233 27.866 70.7115 28.8069 70.9474 29.7615C70.1253 29.3975 69.4677 28.6576 68.4988 28.7633C68.4539 28.7635 68.4096 28.7741 68.3694 28.7941C68.3292 28.8142 68.2941 28.8432 68.2669 28.8789C68.2397 28.9147 68.221 28.9562 68.2124 29.0003C68.2037 29.0443 68.2053 29.0898 68.2169 29.1332C68.3041 29.4126 68.3477 29.7037 68.3461 29.9964C68.3059 30.0219 68.2718 30.056 68.2463 30.0962C67.5064 31.3469 68.029 32.1984 68.9275 33.226C69.8259 34.2536 70.4189 35.9799 71.6403 36.5319C71.7022 36.5618 71.7724 36.5695 71.8393 36.5537C71.9062 36.5379 71.9656 36.4996 72.0076 36.4453C72.0496 36.3909 72.0716 36.3237 72.0699 36.255C72.0683 36.1863 72.0431 36.1203 71.9985 36.068C71.5948 35.6135 71.3083 35.0673 71.164 34.4767C71.0196 33.8862 71.0219 33.2693 71.1705 32.6799C71.7577 33.361 71.9868 34.142 72.985 33.6135C73.0966 33.5548 73.1729 33.1614 73.2316 33.1438C73.4782 33.0733 73.9069 33.731 74.0478 33.8425C74.1794 34.0093 74.3538 34.1372 74.5523 34.2127C74.7508 34.2881 74.9661 34.3084 75.1752 34.2712C75.3455 34.2712 75.3984 34.0481 75.3807 33.9071C75.2717 33.3266 75.2284 32.7357 75.2516 32.1455C75.5452 32.6447 75.8667 33.127 76.2146 33.59C76.2605 33.6336 76.3193 33.6611 76.3822 33.6685C76.4451 33.6759 76.5087 33.6628 76.5635 33.6311C76.6183 33.5994 76.6614 33.5508 76.6863 33.4926C76.7113 33.4344 76.7168 33.3697 76.7019 33.3082V33.226C77.0836 33.9071 77.5123 34.5941 78.1934 34.7762C78.2372 34.7868 78.2828 34.7874 78.3268 34.7779C78.3709 34.7684 78.4122 34.7492 78.4478 34.7215C78.4833 34.6939 78.5122 34.6585 78.5322 34.6182C78.5522 34.5778 78.5629 34.5335 78.5634 34.4884C78.4812 33.4961 77.7824 32.5977 77.5593 31.6405C78.0689 32.7657 78.5043 33.923 78.8628 35.105C79.2969 36.4406 79.9071 37.7123 80.6773 38.8866C80.7114 38.9403 80.7618 38.9818 80.8211 39.005C80.8804 39.0281 80.9455 39.0318 81.0071 39.0154C81.0686 38.9991 81.1233 38.9635 81.1632 38.914C81.2032 38.8644 81.2263 38.8034 81.2292 38.7398C81.1943 37.5366 81.0588 36.3384 80.8241 35.1579C80.6655 34.3475 80.4424 33.5489 80.3426 32.7327C80.9298 34.0833 81.2938 35.5102 82.2627 36.6611C82.3037 36.7013 82.3557 36.7286 82.4121 36.7396C82.4685 36.7506 82.5269 36.7448 82.58 36.7229C82.6332 36.701 82.6787 36.664 82.7111 36.6165C82.7434 36.569 82.761 36.513 82.7618 36.4556C82.688 35.4166 82.4563 34.3949 82.0748 33.4256C82.5622 34.0128 83.0319 34.6705 83.5076 35.3047C83.5429 35.3563 83.5935 35.3955 83.6523 35.4169C83.711 35.4382 83.775 35.4407 83.8353 35.4239C83.8955 35.407 83.949 35.3717 83.9881 35.323C84.0273 35.2742 84.0502 35.2144 84.0537 35.152C84.1417 33.3434 84.3473 31.1825 83.6837 29.462Z" stroke="black" stroke-width="2" stroke-miterlimit="10"/>
</g>
</g>
<path d="M60.5075 64.365C58.2304 64.3665 55.9801 64.855 53.9074 65.7978C51.4982 64.1822 48.696 63.2504 45.7992 63.1015C42.9024 62.9526 40.0194 63.5922 37.4573 64.9522C34.8952 66.3122 32.75 68.3416 31.25 70.8243C29.7501 73.3071 28.9517 76.1502 28.9397 79.0508C28.9397 81.2528 24.9938 85.4571 25.7982 87.3655C26.3146 88.618 27.037 89.7751 27.9356 90.7889C30.8716 94.3414 39.9849 95.0226 44.9644 95.0226C47.2431 95.0197 49.4951 94.5313 51.5703 93.5898C54.2116 95.3671 57.3239 96.3139 60.5075 96.3085C66.2914 96.3085 75.2168 95.827 78.0412 91.2528C78.5155 90.438 78.922 89.5857 79.2567 88.7043C79.9907 86.8781 76.5321 82.4272 76.5321 80.3368C76.5243 76.094 74.8318 72.028 71.8268 69.0329C68.8218 66.0378 64.7502 64.3588 60.5075 64.365Z" fill="#4E342E" stroke="#4E342E" stroke-width="4" stroke-linejoin="round"/>
<path d="M71.2122 91.4819C71.0875 90.2555 70.4858 89.1272 69.5368 88.3404C68.5878 87.5536 67.3676 87.1714 66.1393 87.2762C64.911 87.381 63.7732 87.9644 62.9712 88.9006C62.1692 89.8368 61.7673 91.0507 61.8522 92.2805C61.9403 93.3198 64.0484 116.356 77.5363 129.761L83.6842 122.627C73.1147 111.658 71.2415 91.7872 71.2122 91.4819Z" fill="#ED7572"/>
<path d="M41.2768 94.4942C43.1793 92.7326 45.6455 89.7613 43.8839 87.853C42.1223 85.9446 36.8023 85.833 34.8939 87.6005L20.8541 102.128C20.3549 102.59 19.9619 103.154 19.7024 103.783C19.4428 104.412 19.3228 105.089 19.3508 105.769C19.3787 106.448 19.5538 107.113 19.8641 107.719C20.1743 108.324 20.6123 108.855 21.1477 109.274L29.6209 119.65L35.4224 112.257L28.3467 105.281L41.2768 94.4942Z" fill="#ED7572"/>
<path d="M63.6429 85.2225C59.9671 84.4005 58.4051 83.4081 52.4862 83.4081C46.5672 83.4081 44.4122 84.4063 40.7422 85.2225C38.3934 85.7393 36.5614 88.2172 36.5614 90.6012L37.1486 108.141C37.1486 108.141 33.0969 115.187 33.0969 121.834H71.4761C71.4761 115.962 66.6435 108.141 66.6435 108.141L67.8179 90.6012C67.8297 88.2172 65.9682 85.7393 63.6429 85.2225Z" fill="#E53935"/>
<path d="M59.1983 79.7206L59.6094 84.0365C59.6094 84.0365 57.0668 88.5109 53.6611 88.5109C50.2553 88.5109 47.7128 84.0365 47.7128 84.0365L48.1297 79.7206H59.1983Z" fill="#FFDA96"/>
<path d="M43.4143 91.9693L40.4724 96.3557L37.2194 91.5759L40.0144 86.7961L43.4143 91.9693Z" fill="#ED7572"/>
<path d="M66.8138 91.5759L64.0246 96.3557L60.6189 91.9693L64.5825 86.7961L66.8138 91.5759Z" fill="#ED7572"/>
<path d="M51.9401 101.951L47.9707 106.731L44.0012 101.951L47.2543 97.1716L51.9401 101.951Z" fill="#ED7572"/>
<path d="M43.8547 101.951L39.8852 106.731L37.2194 101.951L40.4724 97.1716L43.8547 101.951Z" fill="#ED7572"/>
<path d="M60.0316 101.951L56.0621 106.731L52.0868 101.951L56.7785 97.1716L60.0316 101.951Z" fill="#ED7572"/>
<path d="M51.94 91.9692L47.3834 96.749L43.4139 91.9692L46.667 87.1894L51.94 91.9692Z" fill="#ED7572"/>
<path d="M60.6188 91.9692L56.6493 96.749L52.0868 91.9692L57.3657 87.1894L60.6188 91.9692Z" fill="#ED7572"/>
<path d="M66.8138 101.951L64.1538 106.731L60.1785 101.951L63.5666 97.1716L66.8138 101.951Z" fill="#ED7572"/>
<path d="M51.9401 111.74L47.9707 116.52L44.0012 111.74L47.9707 106.96L51.9401 111.74Z" fill="#ED7572"/>
<path d="M43.7193 111.74L39.7498 116.52L35.7804 111.74L39.7498 106.96L43.7193 111.74Z" fill="#ED7572"/>
<path d="M60.0316 111.74L56.0621 116.52L52.0868 111.74L56.0621 106.96L60.0316 111.74Z" fill="#ED7572"/>
<path d="M68.2527 111.74L64.2833 116.52L60.3138 111.74L64.2833 106.96L68.2527 111.74Z" fill="#ED7572"/>
<path d="M59.3977 81.7874C58.6856 82.6146 57.7993 83.2741 56.8025 83.7188C55.8056 84.1634 54.7227 84.3821 53.6315 84.3593C52.5276 84.3714 51.4366 84.1211 50.4484 83.629C49.4602 83.137 48.603 82.4172 47.9474 81.529C49.7891 80.9445 51.7007 80.6087 53.6315 80.5308C55.6082 80.6401 57.5548 81.0643 59.3977 81.7874Z" fill="#EBC580"/>
<path d="M34.4711 60.2017C35.3343 63.6779 33.8193 67.0426 31.083 67.7237C28.3466 68.4049 25.4341 66.1442 24.5651 62.6738C23.696 59.2035 25.2168 55.833 27.9473 55.1518C30.6778 54.4707 33.602 56.7314 34.4711 60.2017Z" fill="#FFDA96"/>
<path d="M83.7429 62.2277C83.1557 65.7509 80.4722 68.2699 77.6889 67.8295C74.9056 67.3891 73.1029 64.1654 73.6607 60.6305C74.2186 57.0956 76.9314 54.5882 79.7147 55.0286C82.498 55.469 84.3007 58.6751 83.7429 62.2277Z" fill="#FFDA96"/>
<path d="M29.9794 59.6852C29.9794 72.0164 38.94 81.9987 49.991 81.9987H58.1002C69.1513 81.9987 78.1119 72.0164 78.1119 59.6852V29.8321C78.1119 21.0242 71.6939 13.8604 63.7667 13.8604H44.3422C36.4209 13.8604 29.997 21.0124 29.997 29.8321L29.9794 59.6852Z" fill="#FFDA96"/>
<path opacity="0.4" d="M38.9275 67.0076C41.4051 67.0076 43.4137 66.1269 43.4137 65.0405C43.4137 63.9541 41.4051 63.0734 38.9275 63.0734C36.4498 63.0734 34.4413 63.9541 34.4413 65.0405C34.4413 66.1269 36.4498 67.0076 38.9275 67.0076Z" fill="url(#paint0_linear_69_469)"/>
<path opacity="0.4" d="M66.5259 67.0076C69.0035 67.0076 71.012 66.1269 71.012 65.0405C71.012 63.9541 69.0035 63.0734 66.5259 63.0734C64.0482 63.0734 62.0397 63.9541 62.0397 65.0405C62.0397 66.1269 64.0482 67.0076 66.5259 67.0076Z" fill="url(#paint1_linear_69_469)"/>
<path d="M56.9843 72.4332C56.9843 73.6076 55.1405 74.5295 52.8739 74.5295C50.6073 74.5295 48.7635 73.59 48.7635 72.4332C48.7635 71.2764 50.6073 70.3428 52.8739 70.3428C55.1405 70.3428 56.9843 71.2823 56.9843 72.4332Z" fill="#FF9B7C"/>
<path d="M45.2108 70.2368C45.3589 70.1016 45.5545 70.0306 45.7549 70.0394C45.9552 70.0482 46.1439 70.1361 46.2795 70.2837C46.3206 70.3249 48.0822 72.0453 52.862 72.0453C57.6418 72.0453 59.4327 70.2837 59.4503 70.2837C59.594 70.1435 59.7868 70.065 59.9876 70.065C60.1884 70.065 60.3812 70.1435 60.5249 70.2837" stroke="#FF7043" stroke-width="1.41" stroke-miterlimit="10" stroke-linecap="round"/>
<path d="M55.5866 69.8788C55.318 69.7442 55.0195 69.6806 54.7194 69.694C54.4193 69.7074 54.1276 69.7973 53.872 69.9551C53.5665 70.1279 53.2185 70.2113 52.8679 70.1959C52.5097 70.2148 52.1529 70.1378 51.8344 69.9727C51.5777 69.818 51.2863 69.7299 50.9868 69.7166C50.6873 69.7033 50.3893 69.7651 50.1198 69.8964C49.3212 70.2898 48.4463 70.8124 48.4463 71.2C48.4463 71.9105 52.4275 72.2041 52.8679 72.2041C53.3083 72.2041 57.2895 71.9105 57.2895 71.2C57.2895 70.8065 56.3911 70.2781 55.5866 69.8788Z" fill="#FF7043"/>
<path d="M41.9929 59.2212C41.96 59.9365 41.6527 60.6116 41.1349 61.1061C40.6171 61.6007 39.9286 61.8767 39.2125 61.8767C38.4965 61.8767 37.808 61.6007 37.2901 61.1061C36.7723 60.6116 36.465 59.9365 36.4321 59.2212V58.0174C36.4149 57.6415 36.474 57.2661 36.6059 56.9137C36.7378 56.5613 36.9398 56.2393 37.1997 55.9672C37.4596 55.6951 37.772 55.4785 38.1179 55.3306C38.4639 55.1826 38.8363 55.1063 39.2125 55.1063C39.5888 55.1063 39.9612 55.1826 40.3071 55.3306C40.6531 55.4785 40.9654 55.6951 41.2253 55.9672C41.4852 56.2393 41.6872 56.5613 41.8191 56.9137C41.9511 57.2661 42.0102 57.6415 41.9929 58.0174V59.2212Z" fill="#443425"/>
<path d="M67.4301 59.7263H63.3198C63.0862 59.7263 62.8621 59.6335 62.6969 59.4683C62.5318 59.3032 62.439 59.0791 62.439 58.8455C62.439 58.6119 62.5318 58.3879 62.6969 58.2227C62.8621 58.0575 63.0862 57.9647 63.3198 57.9647H67.4301C67.6637 57.9647 67.8878 58.0575 68.0529 58.2227C68.2181 58.3879 68.3109 58.6119 68.3109 58.8455C68.3109 59.0791 68.2181 59.3032 68.0529 59.4683C67.8878 59.6335 67.6637 59.7263 67.4301 59.7263Z" fill="#443425"/>
<path d="M51.2886 60.8711L50.5194 67.0073C51.1899 66.4825 52.0168 66.1974 52.8682 66.1974C53.7196 66.1974 54.5465 66.4825 55.217 67.0073L54.4419 60.8711H51.2886Z" fill="url(#paint2_linear_69_469)"/>
<path d="M37.9879 58.6165C37.2383 58.6165 36.5193 58.3191 35.9886 57.7896C35.458 57.2601 35.1591 56.5417 35.1576 55.7921C35.1576 55.6364 35.2195 55.487 35.3296 55.3769C35.4397 55.2668 35.5891 55.2049 35.7448 55.2049C35.9005 55.2049 36.0499 55.2668 36.16 55.3769C36.2701 55.487 36.332 55.6364 36.332 55.7921C36.3335 56.2302 36.5087 56.6499 36.8191 56.9592C37.1294 57.2685 37.5497 57.4421 37.9879 57.4421C38.1436 57.4421 38.293 57.504 38.4031 57.6141C38.5132 57.7242 38.5751 57.8736 38.5751 58.0293C38.5751 58.185 38.5132 58.3344 38.4031 58.4445C38.293 58.5546 38.1436 58.6165 37.9879 58.6165Z" fill="#443425"/>
<path d="M79.5737 70.4191C79.4504 72.7033 79.333 72.9558 80.4134 74.7467C81.4938 76.5377 82.7622 77.2306 81.5584 79.2799C80.3547 81.3292 78.3699 81.5641 78.4874 83.3903C78.6048 85.2164 80.7775 86.0385 80.4134 88.4519C80.0846 90.6422 76.6319 92.9263 75.9801 93.3256C76.5027 92.944 78.734 91.1824 78.4169 88.9569C78.0529 86.4261 77.771 86.3028 75.1228 84.8465C72.4745 83.3903 72.0693 82.7678 72.8033 80.7361C73.5373 78.7044 75.9448 78.4989 74.1186 76.338C72.2925 74.1771 71.4352 72.7737 71.4352 71.3645C71.4352 69.9552 71.4352 69.0509 73.5608 66.4966C74.8937 64.9464 74.7 61.4291 74.7 59.8613C74.7 58.2934 76.855 50.7186 73.3612 47.4009C72.7329 46.8137 71.6642 45.4397 70.3665 43.8778C69.3154 42.5918 68.1057 41.1355 66.8961 39.8613C65.584 38.3664 64.5123 36.6767 63.7194 34.8525C62.9384 33.179 62.4275 31.7815 62.3042 31.4703C62.3336 31.8343 61.9754 33.4609 62.1398 34.7351C62.1868 35.2048 62.2455 35.6218 62.2573 35.9095C62.4863 39.0569 63.8251 40.7715 64.424 41.2412C63.5491 40.7304 60.525 38.5166 59.0688 36.5437C58.5251 35.8214 58.0771 35.032 57.7358 34.1949C57.3285 33.1618 57.1536 32.0518 57.2237 30.9436C57.2937 29.8354 57.6069 28.7562 58.141 27.7827C57.865 28.1996 56.538 31.2589 54.4064 33.2671C54.242 33.4256 54.0717 33.5607 53.8956 33.7192C51.5996 35.6922 48.0236 39.5501 47.4658 39.8672C47.7887 39.5677 49.4035 36.2559 50.801 33.4785C50.9813 33.1766 51.1365 32.8604 51.2649 32.5331C51.7171 31.4527 52.9737 25.7862 52.9737 25.7862C51.5613 28.4116 50.0129 30.9615 48.3348 33.4256C46.9227 35.459 45.2485 37.2972 43.3554 38.8924C42.6508 39.4796 41.7054 40.2195 40.6543 41.112C36.8492 44.3123 31.5703 49.1332 31.0947 51.7756C30.5075 55.1402 32.1869 62.5037 33.2673 65.5042C34.3478 68.5048 34.4828 69.4913 33.2673 70.6951C32.0518 71.8988 29.0454 74.0656 29.5386 75.1519C30.0319 76.2382 31.8346 78.035 31.4646 79.4854C31.0947 80.9358 27.1311 84.3944 26.6203 86.3497C25.7512 89.7966 30.989 92.7326 31.5997 93.0555C30.9714 92.85 23.8957 90.1195 24.6943 86.473C25.2227 84.1243 24.8176 83.7132 23.4846 81.8988C22.1517 80.0843 20.2257 77.072 22.0343 75.2752C23.8428 73.4784 26.3795 71.4114 25.7864 69.368C25.1934 67.3245 18.699 53.132 18.699 48.1056C18.7838 45.5928 19.0844 43.0919 19.5974 40.6305C20.1398 37.7526 20.8935 34.9186 21.8522 32.1514C23.9133 26.4028 27.0665 20.6717 31.8346 17.5831C42.1105 10.9595 49.3507 9.94948 52.9737 10.7657C54.1174 11.0866 55.2443 11.4648 56.3501 11.899C56.3501 11.899 58.6225 9.86141 61.2531 10.5191C63.185 11.0006 71.4939 14.8056 74.9994 18.7692C77.6947 21.8461 84.3946 29.3387 87.3306 38.0469C88.2294 40.5946 88.7035 43.2726 88.734 45.974C88.734 46.2735 88.734 46.5612 88.734 46.8666C88.276 58.3111 79.7205 68.1995 79.5737 70.4191Z" fill="#715D58" stroke="#715D58" stroke-width="4" stroke-linejoin="round"/>
<path opacity="0.1" d="M59.7203 27.2777C59.677 27.151 59.5917 27.0429 59.4784 26.9713C59.3652 26.8998 59.231 26.8691 59.0979 26.8843L56.1619 27.2014C57.4667 25.7136 58.2798 23.8589 58.49 21.8912C58.7002 19.9235 58.2973 17.9389 57.3363 16.209C56.3223 14.5178 54.827 13.1674 53.0414 12.3306C51.2559 11.4938 49.2613 11.2086 47.3128 11.5115C46.5632 11.6456 45.8293 11.8561 45.1226 12.1398C45.1226 12.1398 36.1561 14.8879 32.0574 20.1198C31.9048 20.3194 32.0868 20.6189 32.2923 20.7598C32.3918 20.8306 32.5108 20.8687 32.6329 20.8687C32.755 20.8687 32.874 20.8306 32.9735 20.7598C33.7662 20.1726 34.5765 19.5854 35.3927 19.0452C36.038 18.5958 36.8086 18.3616 37.5947 18.3758C37.3987 18.7621 37.1453 19.1165 36.8431 19.4269C36.162 19.9201 35.5082 20.4447 34.8819 21.0006C33.6781 21.8638 32.4626 22.7622 31.8167 24.3065C31.7613 24.4373 31.7551 24.5837 31.7994 24.7187C31.8436 24.8536 31.9353 24.968 32.0574 25.0405C32.18 25.1139 32.3252 25.1401 32.4657 25.1142C32.6063 25.0882 32.7325 25.0119 32.8208 24.8996C33.6611 23.8252 34.5966 22.8288 35.6159 21.9225L35.7098 21.852L36.0152 21.6348C35.3324 22.5534 34.7181 23.521 34.1772 24.5296C34.1152 24.6447 34.0933 24.7772 34.115 24.9062C34.1368 25.0351 34.201 25.1531 34.2974 25.2414C34.3938 25.3297 34.517 25.3833 34.6473 25.3937C34.7776 25.4042 34.9077 25.3708 35.0169 25.2989L36.573 24.2771L34.1831 27.6065C34.0971 27.7234 34.0573 27.868 34.0716 28.0124C34.0859 28.1569 34.1531 28.2909 34.2604 28.3887C34.3676 28.4864 34.5073 28.541 34.6524 28.5419C34.7975 28.5428 34.9379 28.4899 35.0463 28.3934C36.9182 26.7675 39.0219 25.4297 41.2882 24.4239L37.7004 29.9553C37.6264 30.0665 37.5924 30.1995 37.6041 30.3325C37.6159 30.4655 37.6726 30.5906 37.7649 30.687C37.8573 30.7835 37.9797 30.8456 38.1121 30.8631C38.2445 30.8806 38.3789 30.8524 38.4931 30.7833L39.0803 30.4192L34.1949 35.8156C34.1029 35.9241 34.0536 36.0624 34.0559 36.2046C34.0582 36.3469 34.1121 36.4834 34.2076 36.5889C34.303 36.6944 34.4335 36.7617 34.5748 36.7782C34.7161 36.7947 34.8586 36.7594 34.9758 36.6787L45.3457 29.0452C45.2807 29.1912 45.2021 29.3308 45.1108 29.4621L41.9928 34.0775C41.9196 34.1847 41.8839 34.3132 41.8915 34.4429C41.899 34.5726 41.9494 34.6961 42.0346 34.7941C42.1199 34.8921 42.2352 34.9591 42.3626 34.9845C42.49 35.01 42.6222 34.9925 42.7386 34.9348L51.5876 30.4897C52.1628 30.181 52.7641 29.9236 53.3845 29.7205C53.0087 30.384 52.6035 31.0299 52.1748 31.6641C52.0455 31.7822 51.9622 31.9425 51.94 32.1162C51.9196 32.2269 51.9315 32.341 51.9742 32.4451C52.0168 32.5492 52.0885 32.6389 52.1807 32.7034C52.0121 32.8512 51.8892 33.0443 51.8268 33.2597C51.7644 33.4751 51.7649 33.7038 51.8284 33.9189C51.8556 34.0015 51.9008 34.0769 51.9607 34.1399C52.0206 34.2028 52.0937 34.2517 52.1748 34.283C52.2559 34.3123 52.3422 34.3243 52.4281 34.3183C52.5141 34.3122 52.5978 34.2882 52.674 34.2478C54.5594 33.1973 56.3615 32.0037 58.0644 30.6776C59.8847 29.2272 59.9669 28.0293 59.7203 27.2777Z" fill="white"/>
<path opacity="0.1" d="M82.5098 28.2875C81.9637 26.89 80.7482 25.8389 80.0612 24.5236C79.9085 24.2358 79.4094 24.4296 79.5268 24.7467C79.6443 25.0638 79.791 25.5159 79.9378 25.9211L79.3506 25.2458C78.3818 24.0714 77.6302 22.715 76.4734 21.7226C76.432 21.6821 76.3795 21.6547 76.3226 21.6439C76.2656 21.6331 76.2067 21.6394 76.1534 21.662C76.1 21.6846 76.0545 21.7225 76.0226 21.7709C75.9908 21.8193 75.9739 21.8761 75.9743 21.934C76.0129 22.3293 76.0776 22.7217 76.168 23.1084C76.0029 22.8778 75.8161 22.6635 75.6102 22.4684C75.5648 22.422 75.5052 22.392 75.4409 22.383C75.3766 22.3741 75.3111 22.3867 75.2548 22.4189C75.1984 22.4511 75.1543 22.5011 75.1293 22.5611C75.1044 22.621 75.1001 22.6875 75.117 22.7502C75.2403 23.402 75.5926 24.3004 75.4575 25.0168C74.7047 23.9086 73.8601 22.8656 72.9326 21.8988C71.8345 20.7949 70.4664 20.0139 69.4094 18.8865C69.1452 18.6105 68.7341 19.0274 68.9925 19.3034C69.9292 20.4067 70.7737 21.585 71.5174 22.8266C71.7817 23.2141 72.0635 23.6017 72.3278 24.001C71.5442 23.183 70.4813 22.6903 69.3507 22.6211C69.2728 22.6211 69.1981 22.652 69.1431 22.707C69.088 22.7621 69.0571 22.8368 69.0571 22.9147C69.1452 23.8718 70.0083 24.7526 69.9849 25.7038C69.7608 25.576 69.5223 25.4755 69.2743 25.4044C69.224 25.3916 69.1712 25.3921 69.1212 25.4058C69.0711 25.4196 69.0255 25.4461 68.9888 25.4828C68.952 25.5196 68.9255 25.5652 68.9117 25.6153C68.898 25.6653 68.8975 25.7181 68.9103 25.7684C69.2494 26.6914 69.5376 27.6324 69.7735 28.587C68.9514 28.2229 68.2937 27.4831 67.3249 27.5887C67.2799 27.589 67.2357 27.5996 67.1955 27.6196C67.1553 27.6397 67.1202 27.6687 67.093 27.7044C67.0657 27.7401 67.0471 27.7817 67.0384 27.8257C67.0297 27.8698 67.0313 27.9153 67.043 27.9587C67.1302 28.2381 67.1737 28.5292 67.1722 28.8219C67.132 28.8474 67.0979 28.8815 67.0724 28.9217C66.3325 30.1724 66.8551 31.0239 67.7535 32.0514C68.6519 33.079 69.245 34.8054 70.4664 35.3574C70.5282 35.3872 70.5985 35.3949 70.6653 35.3792C70.7322 35.3634 70.7916 35.3251 70.8336 35.2707C70.8756 35.2163 70.8976 35.1492 70.896 35.0805C70.8943 35.0118 70.8691 34.9458 70.8245 34.8935C70.4208 34.439 70.1343 33.8927 69.99 33.3022C69.8457 32.7117 69.848 32.0948 69.9966 31.5054C70.5838 32.1865 70.8128 32.9675 71.811 32.439C71.9226 32.3803 71.9989 31.9869 72.0577 31.9692C72.3043 31.8988 72.7329 32.5564 72.8739 32.668C73.0055 32.8347 73.1798 32.9626 73.3783 33.0381C73.5769 33.1136 73.7922 33.1338 74.0013 33.0967C74.1716 33.0967 74.2244 32.8735 74.2068 32.7326C74.0978 32.1521 74.0544 31.5612 74.0776 30.971C74.3713 31.4702 74.6928 31.9525 75.0406 32.4155C75.0866 32.4591 75.1454 32.4866 75.2083 32.494C75.2711 32.5014 75.3347 32.4882 75.3895 32.4565C75.4443 32.4248 75.4874 32.3763 75.5124 32.3181C75.5374 32.2599 75.5428 32.1952 75.528 32.1337V32.0514C75.9097 32.7326 76.3383 33.4196 77.0195 33.6016C77.0633 33.6123 77.1089 33.6128 77.1529 33.6034C77.1969 33.5939 77.2383 33.5746 77.2738 33.547C77.3094 33.5193 77.3382 33.484 77.3582 33.4437C77.3783 33.4033 77.3889 33.359 77.3894 33.3139C77.3072 32.3216 76.6084 31.4231 76.3853 30.466C76.8949 31.5912 77.3304 32.7485 77.6889 33.9305C78.1229 35.266 78.7331 36.5378 79.5033 37.712C79.5375 37.7658 79.5878 37.8073 79.6471 37.8304C79.7064 37.8536 79.7716 37.8573 79.8331 37.8409C79.8946 37.8245 79.9493 37.789 79.9893 37.7394C80.0292 37.6898 80.0524 37.6288 80.0553 37.5652C80.0203 36.3621 79.8848 35.1639 79.6501 33.9833C79.4916 33.173 79.2684 32.3744 79.1686 31.5582C79.7558 32.9088 80.1199 34.3356 81.0887 35.4866C81.1298 35.5268 81.1817 35.5541 81.2381 35.5651C81.2946 35.5761 81.3529 35.5703 81.4061 35.5484C81.4592 35.5265 81.5048 35.4895 81.5371 35.442C81.5694 35.3945 81.5871 35.3385 81.5879 35.281C81.514 34.242 81.2824 33.2203 80.9009 32.2511C81.3882 32.8383 81.858 33.4959 82.3336 34.1301C82.369 34.1817 82.4196 34.221 82.4783 34.2423C82.5371 34.2637 82.6011 34.2662 82.6613 34.2493C82.7216 34.2325 82.775 34.1972 82.8142 34.1485C82.8533 34.0997 82.8763 34.0399 82.8797 33.9775C82.9678 32.1689 83.1733 30.008 82.5098 28.2875Z" fill="white" stroke="white" stroke-width="2" stroke-miterlimit="10"/>
<g opacity="0.8">
<path d="M45.8799 52.6503C43.8113 51.8982 41.6213 51.5359 39.4207 51.5816C36.5374 51.5611 33.6835 52.1619 31.0531 53.3432C30.0138 53.8247 28.2229 55.5334 28.1172 58.8569C28.1172 58.9509 28.0878 59.1799 28.0702 59.544V60.9239C28.0996 62.7736 28.3932 66.1734 30.0902 68.117C31.1765 69.3678 32.9792 70.8534 35.3749 70.8534C37.1859 70.7716 38.9176 70.0876 40.2956 68.9098C43.2059 66.7401 45.6352 63.991 47.4301 60.8358C49.1388 57.9468 49.2915 55.1224 47.8176 53.7894C47.2286 53.3203 46.5762 52.9368 45.8799 52.6503Z" fill="#443425"/>
<path d="M77.2249 58.9453C77.1309 55.5395 75.34 53.8132 74.2889 53.3317C71.6586 52.1504 68.8047 51.5496 65.9213 51.5701C63.7208 51.5244 61.5307 51.8867 59.4622 52.6388C58.7633 52.9353 58.1107 53.3308 57.5244 53.8132C56.0505 55.1226 56.2032 57.9235 57.9119 60.8595C59.7069 64.0148 62.1361 66.7639 65.0464 68.9335C66.4244 70.1113 68.1562 70.7953 69.9671 70.8771C72.3805 70.8771 74.1891 69.3915 75.2519 68.1408C76.9254 66.2206 77.2366 62.856 77.2718 61.0416L77.2425 59.4444C77.2249 59.1332 77.2249 58.9453 77.2249 58.9453Z" fill="#443425"/>
<path d="M45.8799 52.6503C43.8113 51.8982 41.6213 51.5359 39.4207 51.5816C36.5374 51.5611 33.6835 52.1619 31.0531 53.3432C30.0138 53.8247 28.2229 55.5334 28.1172 58.8569C28.1172 58.9509 28.0878 59.1799 28.0702 59.544V60.9239C28.0996 62.7736 28.3932 66.1734 30.0902 68.117C31.1765 69.3678 32.9792 70.8534 35.3749 70.8534C37.1859 70.7716 38.9176 70.0876 40.2956 68.9098C43.2059 66.7401 45.6352 63.991 47.4301 60.8358C49.1388 57.9468 49.2915 55.1224 47.8176 53.7894C47.2286 53.3203 46.5762 52.9368 45.8799 52.6503Z" fill="#443425"/>
<path d="M77.2249 58.9453C77.1309 55.5395 75.34 53.8132 74.2889 53.3317C71.6586 52.1504 68.8047 51.5496 65.9213 51.5701C63.7208 51.5244 61.5307 51.8867 59.4622 52.6388C58.7633 52.9353 58.1107 53.3308 57.5244 53.8132C56.0505 55.1226 56.2032 57.9235 57.9119 60.8595C59.7069 64.0148 62.1361 66.7639 65.0464 68.9335C66.4244 70.1113 68.1562 70.7953 69.9671 70.8771C72.3805 70.8771 74.1891 69.3915 75.2519 68.1408C76.9254 66.2206 77.2366 62.856 77.2718 61.0416L77.2425 59.4444C77.2249 59.1332 77.2249 58.9453 77.2249 58.9453Z" fill="#443425"/>
</g>
<path d="M81.9808 59.0216C81.5169 58.5225 80.6772 58.2171 79.4793 58.1114C79.127 54.3769 76.9133 52.3804 75.6097 51.7756C72.7654 50.4618 69.6706 49.7787 66.5375 49.7732C65.4016 49.7112 64.2625 49.7426 63.1318 49.8672C63.0294 49.7105 62.8926 49.5794 62.7318 49.4837C62.571 49.388 62.3905 49.3304 62.204 49.3152H44.9639C44.7741 49.3339 44.5914 49.3967 44.4303 49.4987C44.2692 49.6006 44.1342 49.7389 44.0361 49.9024C42.6858 49.7717 41.3278 49.7383 39.9727 49.8026C36.8396 49.8081 33.7448 50.4912 30.9005 51.8049C29.5852 52.3921 27.3773 54.4121 27.0309 58.1408C25.8565 58.2465 24.9933 58.5518 24.5294 59.051C24.3691 59.2187 24.246 59.4184 24.1681 59.6369C24.0902 59.8555 24.0592 60.088 24.0773 60.3193C24.0981 60.5478 24.165 60.7696 24.274 60.9715C24.383 61.1733 24.5318 61.351 24.7114 61.4937C25.3752 61.9287 26.1628 62.1349 26.9545 62.0809C27.1013 64.371 27.6592 67.2893 29.3562 69.2388C31.2587 71.4173 33.5253 72.5682 35.9269 72.5682C38.1313 72.4939 40.2468 71.6812 41.9339 70.2605C45.0192 67.9621 47.5944 65.049 49.497 61.7051C50.1739 60.5833 50.66 59.357 50.9357 58.0762C51.1237 57.9789 51.2818 57.8325 51.3935 57.6527C51.5051 57.4728 51.566 57.2661 51.5698 57.0545V55.3634C52.0353 55.1339 52.5483 55.0172 53.0672 55.0228H53.4841C54.0017 55.0113 54.5147 55.1219 54.9815 55.3457V57.0545C54.9847 57.2574 55.0405 57.4561 55.1435 57.631C55.2464 57.806 55.3929 57.9513 55.5687 58.0527C55.8455 59.3415 56.3336 60.5756 57.0132 61.7051C58.9158 65.049 61.491 67.9621 64.5763 70.2605C66.2634 71.6812 68.3789 72.4939 70.5833 72.5682C72.9849 72.5682 75.2515 71.3938 77.1482 69.2388C78.851 67.2893 79.4089 64.371 79.5557 62.0809C80.3455 62.1349 81.1313 61.9286 81.7929 61.4937C81.9743 61.3527 82.1244 61.1754 82.2335 60.9732C82.3427 60.771 82.4086 60.5483 82.4271 60.3193C82.4517 60.0835 82.4246 59.8452 82.3475 59.6211C82.2704 59.3969 82.1453 59.1923 81.9808 59.0216ZM70.5481 70.2547C68.8661 70.1722 67.26 69.5293 65.9855 68.4285C63.1436 66.3051 60.7724 63.616 59.0214 60.5307C57.4888 57.9294 57.2598 55.3457 58.5164 54.2477C59.0499 53.8127 59.6431 53.4567 60.278 53.1907C62.2776 52.4673 64.394 52.1209 66.5199 52.169C69.3173 52.1449 72.0871 52.7237 74.6408 53.866C75.5569 54.2888 77.1364 55.8331 77.2245 58.9629C77.2443 59.1227 77.256 59.2834 77.2597 59.4444L77.2891 61.0122C77.2539 62.7738 76.9661 65.9388 75.4159 67.7239C74.406 68.8806 72.7442 70.2547 70.5481 70.2547ZM31.0943 67.7239C29.5206 65.9153 29.2446 62.6622 29.2211 60.9065V59.5383C29.2211 59.1801 29.2622 58.9511 29.2681 58.8748C29.3503 55.8214 30.924 54.2888 31.8459 53.866C34.3996 52.7237 37.1694 52.1449 39.9668 52.169C42.0927 52.1209 44.2091 52.4673 46.2087 53.1907C46.8439 53.4561 47.4372 53.8122 47.9703 54.2477C49.2152 55.3457 49.0038 57.9235 47.4712 60.5307C45.7133 63.6183 43.334 66.3075 40.4836 68.4285C39.2091 69.5293 37.6031 70.1722 35.921 70.2547C33.7719 70.2547 32.1043 68.8806 31.0943 67.7239ZM48.6045 51.664H57.4125C56.8617 52.1278 56.4544 52.7388 56.2381 53.4256C55.4031 52.9626 54.4623 52.7239 53.5076 52.7327H53.0907C52.1249 52.7249 51.1744 52.9741 50.3367 53.455C49.931 52.7129 49.3326 52.0942 48.6045 51.664Z" fill="#ED7572"/>
</g>
<defs>
<linearGradient id="paint0_linear_69_469" x1="38.9275" y1="67.0076" x2="38.9275" y2="63.0793" gradientUnits="userSpaceOnUse">
<stop stop-color="#FF9B48" stop-opacity="0"/>
<stop offset="1" stop-color="#FF9B48"/>
</linearGradient>
<linearGradient id="paint1_linear_69_469" x1="66.5259" y1="67.0076" x2="66.5259" y2="63.0793" gradientUnits="userSpaceOnUse">
<stop stop-color="#FF9B48" stop-opacity="0"/>
<stop offset="1" stop-color="#FF9B48"/>
</linearGradient>
<linearGradient id="paint2_linear_69_469" x1="52.8682" y1="60.8711" x2="52.8682" y2="67.0073" gradientUnits="userSpaceOnUse">
<stop stop-color="#FF9B48" stop-opacity="0"/>
<stop offset="1" stop-color="#FF9B48"/>
</linearGradient>
</defs>
</svg>
