<svg width="107" height="107" viewBox="0 0 107 107" fill="none" xmlns="http://www.w3.org/2000/svg">
<mask id="mask0_69_569" style="mask-type:alpha" maskUnits="userSpaceOnUse" x="0" y="0" width="107" height="107">
<circle cx="53.5" cy="53.5" r="53.5" fill="#D9D9D9"/>
</mask>
<g mask="url(#mask0_69_569)">
<path d="M64.7109 104.501C61.4033 104.134 59.2284 102.344 59.5959 99.0369C59.9634 95.7293 63.1505 94.5304 66.4581 94.8979C70.3385 95.3083 74.1092 96.4338 77.5797 98.2175L72.1574 107.303C69.9471 105.764 67.3875 104.801 64.7109 104.501Z" fill="#C6C6C6"/>
<path d="M72.1812 107.303L77.6034 98.2176C78.673 98.7747 79.7054 99.4006 80.694 100.091L74.9646 109.731C74.1318 108.819 73.198 108.004 72.1812 107.303Z" fill="#858755"/>
<path d="M74.9408 109.731L80.6703 100.091C85.878 103.691 89.4833 109.174 90.7255 115.382L78.8629 117.454C78.274 114.574 76.919 111.906 74.9408 109.731Z" fill="#FFDA96"/>
<path d="M63.114 93.97C55.7261 91.5884 47.7767 91.5884 40.3888 93.97C38.5814 94.476 36.6715 96.9281 36.051 99.3139C32.7526 112.558 31.0595 126.151 31.0083 139.8H72.7234C72.6709 126.147 70.9553 112.552 67.6144 99.3139C66.9879 96.9341 64.9394 94.4821 63.114 93.97Z" fill="#858755"/>
<path opacity="0.5" d="M52.3962 100.736C58.0654 100.826 59.9994 96.2833 60.0536 93.9156V93.5963C60.0536 93.4517 60.0114 93.3071 59.9933 93.1625L59.4511 93.042C59.4511 93.2047 59.4993 93.3734 59.5174 93.5361C59.5174 93.6023 59.5174 93.6626 59.5174 93.7289C59.4451 95.9158 57.6377 100.103 52.4022 100.025C51.5187 100.052 50.6384 99.9048 49.8118 99.5915C48.9852 99.2783 48.2285 98.8051 47.5849 98.199C46.9414 97.593 46.4237 96.866 46.0615 96.0597C45.6992 95.2534 45.4995 94.3835 45.4738 93.4999C45.4738 93.4336 45.4738 93.3674 45.4738 93.3071L45.5641 92.789L45.0159 92.8914C45.0159 93.042 44.9677 93.1927 44.9376 93.3493C44.9075 93.5059 44.9376 93.5602 44.9376 93.6686C44.9075 96.0363 46.7089 100.639 52.3962 100.736Z" fill="#F2F2F2"/>
<path d="M57.5111 87.9514C57.8725 89.6142 58.2401 91.2931 58.6136 92.9881C58.6558 92.9881 58.2461 98.579 52.4322 98.5911C46.6184 98.6031 46.1967 92.97 46.2389 92.9881L47.3173 87.9514H57.5111Z" fill="#FFDA96"/>
<path d="M61.6505 49.2905C61.8075 49.2914 61.9629 49.3221 62.1084 49.3809L68.0488 51.7908C68.3444 51.9122 68.5796 52.1461 68.7028 52.441C68.8259 52.7359 68.8269 53.0676 68.7055 53.3632C68.584 53.6588 68.3501 53.8941 68.0552 54.0172C67.7603 54.1404 67.4286 54.1414 67.133 54.0199L61.1926 51.61C60.9345 51.504 60.7212 51.3116 60.5891 51.0658C60.457 50.82 60.4143 50.5359 60.4684 50.2621C60.5224 49.9883 60.6698 49.7418 60.8854 49.5646C61.101 49.3874 61.3714 49.2905 61.6505 49.2905Z" fill="#443425"/>
<path d="M37.8226 49.2905C37.6656 49.2914 37.5103 49.3221 37.3647 49.3809L31.4304 51.7908C31.2773 51.8457 31.1369 51.931 31.0177 52.0415C30.8984 52.1521 30.8028 52.2857 30.7366 52.4342C30.6704 52.5827 30.6348 52.7431 30.6322 52.9057C30.6296 53.0683 30.66 53.2298 30.7214 53.3803C30.7829 53.5309 30.8742 53.6675 30.9898 53.7818C31.1054 53.8961 31.243 53.9859 31.3943 54.0457C31.5455 54.1054 31.7073 54.134 31.8698 54.1295C32.0324 54.1251 32.1924 54.0878 32.3401 54.0199L38.2805 51.61C38.5386 51.504 38.752 51.3116 38.8841 51.0658C39.0162 50.82 39.0588 50.5359 39.0048 50.2621C38.9507 49.9883 38.8033 49.7418 38.5877 49.5646C38.3721 49.3874 38.1017 49.2905 37.8226 49.2905Z" fill="#443425"/>
<path d="M58.3065 92.0302C58.3065 93.5304 55.6496 94.7413 52.3722 94.7413C49.0947 94.7413 46.4318 93.5364 46.4318 92.0302C46.4318 90.524 49.0887 89.313 52.3722 89.313C55.6556 89.313 58.3065 90.53 58.3065 92.0302Z" fill="#E8AC70"/>
<path d="M82.8513 61.762C82.8513 69.1905 69.1812 75.2152 52.3241 75.2152C35.467 75.2152 21.7969 69.1905 21.7969 61.762C21.7969 54.3335 20.5919 12.757 52.3241 12.757C81.8452 12.7691 82.8513 54.3396 82.8513 61.762Z" fill="#684341"/>
<path d="M60.7648 21.3061H44.7752C22.9718 21.3061 22.6465 51.1585 22.6465 51.1585V56.5808C22.6465 72.0281 36.1358 93.5785 52.77 93.5785C69.4043 93.5785 82.8936 72.0281 82.8936 56.5808V51.1585C82.8936 51.1585 82.5683 21.3061 60.7648 21.3061Z" fill="#FFDA96"/>
<path d="M73.2657 24.4087C66.6385 19.3781 57.8304 19.1732 51.8117 19.8119C45.787 19.1732 36.9668 19.3781 30.3517 24.4087C19.5614 32.6264 22.0677 57.0145 22.0677 57.0145C22.0677 57.0145 23.8029 56.5927 24.809 57.6169C26.1886 59.0448 26.267 60.5992 26.6164 62.3403C26.9062 63.5161 27.3887 64.6357 28.0443 65.6539C28.0443 65.6539 26.6887 53.237 29.3395 48.0196C30.9783 44.7903 32.4001 41.2659 37.3404 37.8679C40.5877 35.6388 46.3051 35.0243 51.7997 35.0966C57.2761 35.0243 62.9996 35.6388 66.259 37.8679C71.1992 41.2659 72.6271 44.7903 74.2658 48.0196C76.9167 53.237 74.3381 64.949 74.3381 64.949C74.8149 64.686 75.2319 64.327 75.5627 63.8945C75.8935 63.4621 76.1309 62.9657 76.26 62.4367C76.6387 60.6197 77.5268 58.9479 78.8205 57.6169C79.8266 56.5807 81.5617 57.0145 81.5617 57.0145C81.5617 57.0145 84.074 32.6264 73.2777 24.4087" fill="#3B2F18"/>
<path d="M83.9657 50.0257C84.2187 47.0495 84.3151 40.4585 81.7426 34.0482C79.17 27.6379 76.0974 20.4203 69.6932 16.5283C63.2889 12.6364 56.4388 9.66015 50.8117 11.2627C45.1846 12.8653 40.2504 10.9976 33.0147 16.4861C25.779 21.9747 24.5801 20.7034 20.0375 32.6806C17.483 39.4222 19.6579 44.9228 19.1759 48.5858C18.8252 51.6248 18.7969 54.6924 19.0916 57.7374C19.3506 61.6835 21.64 65.7562 23.7668 68.859V61.7137C23.8104 61.0427 23.8929 60.3749 24.0138 59.7135C24.309 58.135 25.9116 53.8514 25.6525 51.6765C25.2488 48.2846 33.5991 32.0118 40.1118 28.9212C46.6245 25.8305 52.7938 25.1376 56.8485 25.6015C60.9031 26.0654 67.3736 28.5536 70.9342 34.9639C74.4949 41.3742 76.0251 41.8924 76.2661 43.8323C76.5071 45.7723 77.4228 47.9954 77.8385 50.5077C78.2241 52.8634 80.4533 57.3939 81.0919 61.7137V69.7567C81.598 69.112 82.1281 68.5999 82.3571 68.3529C83.6162 67.0214 84.9598 65.7683 85.4538 62.4487C85.9478 59.1291 83.7247 53.0079 83.9657 50.0257Z" fill="#566640"/>
<path d="M25.7976 43.2843C28.352 35.3257 33.1899 26.867 37.606 24.6077C42.0221 22.3485 47.8962 20.1374 54.1559 20.8242C60.4156 21.511 68.0127 24.1498 70.7118 27.2405C73.4109 30.3312 76.9655 36.2776 77.339 39.2598C77.7125 42.242 77.6222 43.9169 77.8631 45.64C78.1041 47.363 80.1706 57.6894 80.1706 57.6894C80.1706 57.6894 76.2003 47.3028 75.8027 45.3146C74.9592 40.9889 71.8023 37.368 69.6816 35.0365C68.2356 33.4339 64.0485 30.5662 64.0485 30.5662C64.0485 30.5662 62.0784 25.903 54.1559 26.1139C42.4559 26.4453 38.1723 32.7411 38.1723 32.7411C38.1723 32.7411 35.9854 34.6509 34.9612 35.8558C32.25 38.9586 27.864 44.6519 26.8157 49.7127C25.6409 55.3759 24.8637 57.3219 24.8637 57.3219C24.7484 55.5403 24.7907 53.7521 24.9903 51.978C25.159 49.8633 24.6167 47.0136 25.7976 43.3144" fill="#717765"/>
<path d="M63.9518 31.518C63.493 30.3216 62.7836 29.237 61.8713 28.3372C60.959 27.4374 59.8648 26.743 58.6621 26.3006C57.5476 25.8367 55.8004 25.6017 53.4748 25.6017C51.0909 25.5894 48.7115 25.8135 46.3717 26.2705C40.8531 27.5839 36.9611 30.6565 34.8103 35.3919C34.0922 37.034 33.717 38.8054 33.7077 40.5977C33.6984 42.3899 34.0551 44.1651 34.7561 45.8146C36.4852 50.3814 43.2991 53.0804 43.5883 53.1949C43.6569 53.2239 43.7308 53.2382 43.8052 53.2371C43.965 53.2371 44.1182 53.1736 44.2312 53.0606C44.3442 52.9476 44.4077 52.7944 44.4077 52.6346C44.4081 52.517 44.3741 52.4019 44.3098 52.3034C44.2456 52.2049 44.154 52.1274 44.0462 52.0803C43.522 51.749 39.6963 49.1764 41.2869 46.2544C42.2689 44.447 48.7033 42.3625 53.0893 41.9889C59.2706 41.4648 61.9757 39.0911 63.1566 37.1692C63.6986 36.3446 64.051 35.41 64.1885 34.4329C64.326 33.4557 64.2452 32.4602 63.9518 31.518Z" fill="#40331B"/>
<path d="M60.8308 31.2708L60.7947 31.6262C60.7843 31.9624 60.7337 32.2961 60.644 32.6203C60.5217 33.1404 60.3377 33.644 60.0958 34.1204C59.9271 34.3855 59.7584 34.6687 59.5716 34.9639C59.3481 35.2577 59.1067 35.5374 58.8487 35.8013C57.5948 37.0001 56.141 37.9707 54.5531 38.6691C52.7834 39.4497 50.9734 40.1355 49.1308 40.7235C47.3239 41.2756 45.5566 41.95 43.8411 42.7418C43.0935 43.1126 42.3919 43.5696 41.7506 44.1034C41.2096 44.6003 40.7963 45.2203 40.5456 45.9108C40.2335 47.0056 40.2335 48.1658 40.5456 49.2605C40.7806 50.0739 40.9372 50.5498 40.9372 50.5498C40.7052 50.1596 40.4941 49.7574 40.3046 49.3449C39.7692 48.2202 39.5986 46.9564 39.8166 45.7301C40.0523 44.8974 40.477 44.1304 41.0577 43.4889C41.7085 42.8117 42.4581 42.2369 43.2808 41.7839C45.0178 40.8767 46.8325 40.1266 48.7031 39.5427C52.4263 38.3377 56.1858 37.187 58.3426 35.3254C58.8327 34.9059 59.2789 34.4376 59.6741 33.9277C59.9614 33.5191 60.2038 33.0808 60.397 32.6203C60.5264 32.3146 60.6351 32.0006 60.7224 31.6804L60.8248 31.337" fill="#544123"/>
<path d="M56.0113 28.4335L56.2282 28.6925C56.4456 28.9494 56.626 29.2353 56.7644 29.542C56.9944 30.0325 57.092 30.5746 57.0475 31.1145C56.9687 31.8313 56.6675 32.5055 56.186 33.0424C55.0193 34.2945 53.606 35.2915 52.035 35.9704C51.2156 36.368 50.3541 36.7536 49.4865 37.1151C48.6326 37.4803 47.8034 37.9009 47.0043 38.3742C45.4244 39.2784 43.9718 40.3887 42.6846 41.6758C41.5479 42.7585 40.6972 44.106 40.2085 45.5979C39.8866 46.6707 39.8866 47.8145 40.2085 48.8874C40.3416 49.3021 40.5088 49.7051 40.7085 50.0923C40.7085 50.0923 40.6362 50.0019 40.5097 49.8152C40.3018 49.5549 40.124 49.2719 39.9795 48.9717C39.4402 47.8741 39.2671 46.6325 39.4855 45.4292C39.8581 43.7386 40.666 42.1748 41.8291 40.8926C43.143 39.4454 44.6758 38.2134 46.3717 37.2416C48.0516 36.3406 49.7931 35.5594 51.5831 34.904C53.1917 34.2051 54.6979 33.5003 55.6558 32.5423C56.0763 32.1222 56.3867 31.6049 56.5595 31.0361C56.6685 30.5746 56.654 30.0925 56.5174 29.6384C56.4018 29.2164 56.2317 28.8114 56.0113 28.4335Z" fill="#544123"/>
<path d="M26.5442 60.1834C29.1409 62.78 29.5927 66.5455 27.5443 68.618C25.4959 70.6905 21.7365 70.2145 19.1097 67.6179C16.4829 65.0212 16.0974 61.2618 18.1096 59.2134C20.1219 57.165 23.9476 57.5867 26.5442 60.1834Z" fill="#FFDA96"/>
<path d="M87.0025 67.5881C84.4058 70.1848 80.6404 70.6366 78.5679 68.5882C76.4954 66.5398 76.9713 62.7804 79.5679 60.1536C82.1646 57.5269 85.924 57.1413 88.0025 59.1595C90.0811 61.1778 89.5991 64.9915 87.0025 67.5881Z" fill="#FFDA96"/>
<path d="M74.9404 78.7996C72.9673 79.5191 70.8222 79.6221 68.7892 79.0949C66.8737 78.433 65.0774 77.4667 63.4694 76.2331C61.2884 74.6727 55.812 70.2506 53.0647 72.7448C50.8536 70.7808 46.8894 73.3895 44.9073 74.6848C43.0697 75.8897 41.3527 77.2754 39.3886 78.2996C38.1315 78.94 36.7569 79.3169 35.3489 79.407C33.941 79.4971 32.5295 79.2987 31.201 78.8238C31.0595 78.7834 30.908 78.7964 30.7753 78.8601C30.6426 78.9238 30.5378 79.0339 30.4807 79.1695C30.4237 79.3052 30.4182 79.4571 30.4655 79.5965C30.5127 79.7359 30.6093 79.8532 30.7371 79.9263C33.6832 81.5228 37.527 81.6795 40.708 80.848C42.8649 80.2817 44.594 78.9382 46.6604 78.2032C48.0406 77.721 49.5025 77.5162 50.9621 77.6007C51.6984 77.6747 52.4391 77.5122 53.0768 77.1368C53.6304 77.4819 54.2744 77.6539 54.9263 77.6309C56.4105 77.5311 57.9005 77.7005 59.3244 78.1309C61.4511 78.8478 63.2224 80.2456 65.4334 80.83C68.6145 81.6614 72.4582 81.5047 75.4043 79.9082C75.54 79.8393 75.6446 79.7217 75.6971 79.5789C75.7496 79.4361 75.7461 79.2787 75.6874 79.1384C75.6287 78.9981 75.519 78.8851 75.3805 78.8223C75.2419 78.7595 75.0847 78.7514 74.9404 78.7996Z" fill="#40331B"/>
<path d="M61.3915 63.7021C61.3192 63.9551 61.3915 63.6177 61.3915 63.8949C61.3915 65.7023 63.1025 67.2024 65.2172 67.2024C67.3319 67.2024 69.0429 65.7204 69.0429 63.8949C69.0429 63.6177 69.0007 63.9551 68.9284 63.7021H61.3915Z" fill="#40331B"/>
<path d="M70.0969 64.5453H61.6623C61.5025 64.5453 61.3493 64.4819 61.2363 64.3689C61.1233 64.2559 61.0598 64.1026 61.0598 63.9429C61.0598 63.7831 61.1233 63.6298 61.2363 63.5169C61.3493 63.4039 61.5025 63.3404 61.6623 63.3404H70.0969C70.2567 63.3404 70.4099 63.4039 70.5229 63.5169C70.6359 63.6298 70.6993 63.7831 70.6993 63.9429C70.6993 64.1026 70.6359 64.2559 70.5229 64.3689C70.4099 64.4819 70.2567 64.5453 70.0969 64.5453Z" fill="#40331B"/>
<path d="M42.7569 63.7021C42.8292 63.9551 42.7569 63.6177 42.7569 63.8949C42.7569 65.7023 41.0399 67.2024 38.9312 67.2024C36.8226 67.2024 35.0995 65.7204 35.0995 63.8949C35.0995 63.6177 35.1477 63.9551 35.22 63.7021H42.7569Z" fill="#40331B"/>
<path d="M42.9859 64.5453H33.9488C33.789 64.5453 33.6358 64.4819 33.5228 64.3689C33.4098 64.2559 33.3463 64.1026 33.3463 63.9429C33.3463 63.7831 33.4098 63.6298 33.5228 63.5169C33.6358 63.4039 33.789 63.3404 33.9488 63.3404H42.9859C43.1456 63.3404 43.2989 63.4039 43.4119 63.5169C43.5248 63.6298 43.5883 63.7831 43.5883 63.9429C43.5883 64.1026 43.5248 64.2559 43.4119 64.3689C43.2989 64.4819 43.1456 64.5453 42.9859 64.5453Z" fill="#40331B"/>
<path d="M55.3362 70.365C54.4423 70.9548 53.3948 71.2691 52.3239 71.2691C51.2529 71.2691 50.2055 70.9548 49.3115 70.365C49.3115 70.365 50.6611 64.6415 52.3239 64.6415C53.9867 64.6415 55.3362 70.365 55.3362 70.365Z" fill="#E8AC70"/>
<g style="mix-blend-mode:soft-light">
<path fill-rule="evenodd" clip-rule="evenodd" d="M46.7033 58.2255C43.4078 56.4964 33.955 56.141 30.5993 57.2616C30.2035 57.3189 29.831 57.4834 29.522 57.7372C29.213 57.991 28.9792 58.3244 28.846 58.7015C28.3159 60.051 28.5448 63.1176 28.846 64.6298C29.1473 66.142 29.7799 68.5037 30.7137 69.6664C33.6116 73.2813 43.1909 72.8415 45.5827 69.7387C47.4022 67.3469 50.541 60.2498 46.7033 58.2255Z" fill="#D5CACF"/>
</g>
<g style="mix-blend-mode:soft-light">
<path fill-rule="evenodd" clip-rule="evenodd" d="M58.5835 58.2255C54.7398 60.2498 57.8846 67.3469 59.7222 69.7387C62.132 72.8415 71.6933 73.2752 74.5851 69.6664C75.519 68.5037 76.1757 66.136 76.4588 64.6298C76.742 63.1236 76.9649 60.051 76.4588 58.7015C76.3256 58.3244 76.0919 57.991 75.7829 57.7372C75.4739 57.4834 75.1014 57.3189 74.7056 57.2616C71.3318 56.141 61.873 56.4964 58.5835 58.2255Z" fill="#D5CACF"/>
</g>
<path d="M79.5433 55.737H79.4409C77.272 55.1888 72.139 54.7791 67.4999 54.7791C64.2647 54.7791 59.8847 54.9719 57.3664 55.8816C56.5643 56.2063 55.8545 56.7236 55.2999 57.3878C54.7366 57.4972 54.162 57.5377 53.5889 57.5083H52.4924C51.5657 57.5821 50.6337 57.5477 49.715 57.4059C49.1604 56.7417 48.4506 56.2243 47.6485 55.8997C45.1302 54.99 40.7442 54.7972 37.515 54.7972C32.8699 54.7972 27.7368 55.2069 25.574 55.7551H25.4655C25.0077 55.8696 24.6703 55.9961 24.5739 56.6287C24.5438 56.7914 24.4413 58.9181 24.7124 59.4362C24.8611 59.6632 25.0696 59.8446 25.3149 59.9604C25.6865 60.1642 26.0045 60.4533 26.2427 60.8038C26.5982 61.328 26.8452 62.6112 27.1163 63.9246C27.6163 66.3887 28.2309 69.4553 29.9961 71.341C31.6047 73.0581 35.1111 73.6726 37.8584 73.6726C41.1057 73.6726 45.1904 72.8171 46.8954 70.4132C48.6004 68.0094 49.5583 65.4067 50.462 62.8823L50.7151 62.1775C51.0333 61.8849 51.4458 61.716 51.8779 61.7015C52.0775 61.674 52.2788 61.66 52.4803 61.6593C52.7081 61.66 52.9356 61.6761 53.1611 61.7075C53.5749 61.7268 53.9681 61.8935 54.2697 62.1775L54.5167 62.8763C55.4264 65.4067 56.3603 68.0214 58.0893 70.4132C59.8184 72.805 63.9092 73.6726 67.1264 73.6726C69.8677 73.6726 73.374 73.0701 74.9887 71.341C76.7539 69.4553 77.3684 66.3887 77.8624 63.9246C78.1336 62.5871 78.3866 61.328 78.736 60.8038C78.9758 60.4546 79.2934 60.1659 79.6638 59.9604C79.9092 59.8446 80.1177 59.6632 80.2663 59.4362C80.5374 58.9181 80.435 56.7914 80.4109 56.6287C80.3446 55.9901 80.0072 55.8636 79.5433 55.737ZM60.0293 69.3589C58.8243 67.7744 56.7036 63.4607 57.3121 60.6653C57.3804 60.2609 57.541 59.8778 57.7813 59.5455C58.0216 59.2132 58.3352 58.9408 58.6978 58.7494C60.439 57.8276 64.4213 57.2071 68.5964 57.2071C70.5012 57.1382 72.4061 57.3411 74.2537 57.8095H74.3862C74.6706 57.859 74.9365 57.9841 75.1559 58.1718C75.3754 58.3594 75.5403 58.6026 75.6333 58.8759C76.0731 60.0146 75.9044 62.9064 75.6333 64.4729C75.326 66.1477 74.6693 68.2745 73.8982 69.2444C72.7475 70.6783 70.1147 71.57 67.018 71.57C63.9213 71.57 61.0535 70.7145 60.0293 69.371V69.3589ZM44.9675 69.3589C43.9373 70.7024 41.1358 71.6061 37.9909 71.6061C34.846 71.6061 32.2674 70.7145 31.1167 69.2806C30.3456 68.3106 29.6828 66.1839 29.3756 64.509C29.0924 62.9426 28.9177 60.0507 29.3756 58.9121C29.4682 58.6406 29.6314 58.3988 29.8485 58.2114C30.0656 58.024 30.3286 57.8977 30.6107 57.8457H30.7552C32.6027 57.3768 34.5076 57.174 36.4124 57.2432C40.5875 57.2432 44.5639 57.8457 46.305 58.7855C46.6685 58.9766 46.983 59.2489 47.2244 59.5811C47.4657 59.9133 47.6274 60.2967 47.6967 60.7014C48.3112 63.4728 46.1966 67.7865 44.9856 69.371L44.9675 69.3589Z" fill="#41586D"/>
<path opacity="0.5" d="M55.3622 126.902C61.4108 125.486 65.1658 119.434 63.7494 113.386C62.333 107.337 56.2814 103.582 50.2328 104.999C44.1843 106.415 40.4293 112.467 41.8457 118.515C43.2621 124.564 49.3137 128.319 55.3622 126.902Z" fill="#F2F2F2"/>
<path d="M42.642 102.851C44.1241 99.8684 43.7928 97.073 40.8346 95.621C37.8765 94.1691 35.1232 96.1813 33.6472 99.1575C31.8905 102.643 30.7975 106.424 30.424 110.309L40.9852 110.677C40.8739 107.971 41.4435 105.28 42.642 102.851Z" fill="#C6C6C6"/>
</g>
</svg>
