<svg width="107" height="107" viewBox="0 0 107 107" fill="none" xmlns="http://www.w3.org/2000/svg">
<mask id="mask0_69_622" style="mask-type:alpha" maskUnits="userSpaceOnUse" x="0" y="0" width="107" height="107">
<circle cx="53.5" cy="53.5" r="53.5" fill="#D9D9D9"/>
</mask>
<g mask="url(#mask0_69_622)">
<g style="mix-blend-mode:soft-light" opacity="0.75">
<g style="mix-blend-mode:soft-light">
<path d="M68.0715 86.8726C64.3127 86.032 62.7155 85.0172 56.663 85.0172C50.6104 85.0172 48.4128 86.038 44.654 86.8726C42.2522 87.401 40.3788 89.9349 40.3788 92.3727L41.5797 110.308C38.4978 114.233 36.8269 119.08 36.8361 124.07H76.0816C76.0816 116.469 71.1398 110.308 71.1398 110.308L72.3407 92.3727C72.3467 89.9349 70.4493 87.401 68.0715 86.8726Z" fill="#000100"/>
</g>
<g style="mix-blend-mode:soft-light">
<g style="mix-blend-mode:soft-light">
<path d="M76.2191 83.6425H34.1696V125.47H76.2191V83.6425Z" fill="#000100"/>
</g>
</g>
<g style="mix-blend-mode:soft-light">
<path d="M59.8634 80.6945H52.2977C49.9619 80.6945 47.5302 82.9942 46.9598 85.8764C46.9598 85.9545 46.9597 86.0265 46.9177 86.0986C46.6203 87.4993 46.8332 88.9601 47.5181 90.2176C48.5329 92.019 51.0007 94.2106 55.9244 94.2166C60.8481 94.2226 63.3941 92.067 64.5289 90.2837C65.3357 88.9653 65.5984 87.3849 65.2615 85.8764C64.655 82.9942 62.1992 80.6945 59.8634 80.6945Z" fill="#000100"/>
</g>
<g style="mix-blend-mode:soft-light">
<g style="mix-blend-mode:soft-light">
<path d="M62.5417 95.585H49.9323C46.3296 95.2908 45.3928 91.2077 46.1434 87.3829C46.894 83.558 48.9535 79.6491 51.4814 79.3729H60.7404C63.3103 79.6491 65.4419 83.576 66.2285 87.3889C67.0151 91.2017 66.1204 95.2968 62.5778 95.591L62.5417 95.585ZM60.8544 80.5017H51.3914C49.4159 80.7179 47.7887 84.1885 47.2423 87.4009C46.6959 90.6133 47.3984 94.216 50.0884 94.4382H62.4036C65.0696 94.186 65.7301 90.5893 65.1416 87.4009C64.5532 84.2125 62.8779 80.6939 60.8544 80.5017Z" fill="#000100"/>
</g>
<g style="mix-blend-mode:soft-light">
<path d="M61.4551 95.5854L61.2389 94.4205C63.2805 94.2103 63.9109 90.6857 63.4126 87.3832C62.9142 84.0808 61.5152 80.6822 59.984 80.4841C59.984 80.1118 59.984 79.7395 59.984 79.3732C62.1036 79.6554 63.8809 83.5464 64.5354 87.3832C65.1899 91.2201 64.4153 95.2851 61.4551 95.5854Z" fill="#000100"/>
</g>
<g style="mix-blend-mode:soft-light">
<path d="M59.7856 95.5735L59.4914 94.4326C60.0918 94.3185 60.8484 91.7006 60.4581 87.3833C60.0678 83.0661 59.1071 80.5922 58.6567 80.4782C58.6567 80.1119 58.7227 79.7456 58.7528 79.3793C60.4881 79.7756 61.3888 85.57 61.5689 87.3773C61.749 89.1847 62.1814 95.1291 59.7856 95.5735Z" fill="#000100"/>
</g>
<g style="mix-blend-mode:soft-light">
<path d="M58.0861 95.5134C57.912 95.1591 57.7379 94.7988 57.5698 94.4446C57.5234 94.4593 57.482 94.4863 57.4497 94.5226C58.3684 93.3217 57.7799 81.3728 57.0714 80.34C57.0991 80.3734 57.134 80.4001 57.1735 80.4181L57.4977 79.3913C57.7259 79.5354 58.4945 79.8356 58.9749 87.3533C59.4552 94.8709 58.3984 95.4233 58.0861 95.5134Z" fill="#000100"/>
</g>
<g style="mix-blend-mode:soft-light">
<path d="M54.3993 95.5134C54.0871 95.3993 53.0904 94.9129 53.4446 87.3533C53.7989 79.7936 54.5615 79.5474 54.7896 79.3913C54.9037 79.7336 55.0178 80.0758 55.1379 80.4121C55.1764 80.3951 55.2095 80.3682 55.234 80.334C54.5614 81.3668 54.1352 93.3157 55.0358 94.5286C55.0032 94.4913 54.962 94.4625 54.9158 94.4446C54.7356 94.8229 54.5734 95.1831 54.3993 95.5134Z" fill="#000100"/>
</g>
<g style="mix-blend-mode:soft-light">
<path d="M52.6882 95.5735C50.2864 95.1291 50.6467 89.1547 50.8268 87.3773C51.007 85.6 51.8116 79.7756 53.5349 79.3793C53.5709 79.7456 53.6129 80.1119 53.6489 80.4782C53.1866 80.5922 52.2739 83.0661 51.9256 87.3833C51.5774 91.7006 52.346 94.3185 52.9705 94.4326C52.8804 94.8109 52.7843 95.1952 52.6882 95.5735Z" fill="#000100"/>
</g>
<g style="mix-blend-mode:soft-light">
<path d="M51.0194 95.5854C48.0532 95.2851 47.2605 91.2021 47.873 87.3832C48.4854 83.5644 50.2027 79.6554 52.3163 79.3732C52.3163 79.7395 52.3163 80.1118 52.3163 80.4841C50.7851 80.6822 49.4282 84.0868 48.9778 87.3832C48.5275 90.6797 49.188 94.2103 51.2295 94.4205C51.1334 94.8108 51.0854 95.1951 51.0194 95.5854Z" fill="#000100"/>
</g>
</g>
<g style="mix-blend-mode:soft-light">
<path d="M59.8634 80.6945H52.2977C49.9619 80.6945 47.5302 82.9942 46.9598 85.8764C46.9598 85.9545 46.9597 86.0265 46.9177 86.0986C46.6203 87.4993 46.8332 88.9601 47.5181 90.2176C48.5329 92.019 51.0007 94.2106 55.9244 94.2166C60.8481 94.2226 63.3941 92.067 64.5289 90.2837C65.3357 88.9653 65.5984 87.3849 65.2615 85.8764C64.655 82.9942 62.1992 80.6945 59.8634 80.6945Z" stroke="#000100" stroke-miterlimit="10"/>
</g>
<g style="mix-blend-mode:soft-light">
<path d="M61.9408 82.6818C61.2126 83.5277 60.3063 84.2021 59.287 84.6568C58.2676 85.1114 57.1604 85.3351 56.0444 85.3118C54.9156 85.3241 53.8001 85.0682 52.7895 84.565C51.779 84.0618 50.9025 83.3258 50.2321 82.4176C52.1154 81.8199 54.0702 81.4766 56.0444 81.3969C58.0658 81.5086 60.0563 81.9424 61.9408 82.6818Z" fill="#000100"/>
</g>
<g style="mix-blend-mode:soft-light">
<path d="M64.481 9.12653H46.5396C33.8761 9.12653 16.7814 30.1423 16.7814 48.6902C16.7814 67.238 28.9104 78.0461 41.5739 78.0461C47.2601 78.0461 52.4541 73.1885 56.4651 68.1747C60.6682 74.6356 66.5406 78.0461 73.0915 78.0461C85.755 78.0461 95.4042 67.8385 95.4042 49.3326C95.4042 30.8268 77.1385 9.12653 64.481 9.12653Z" fill="#000100"/>
</g>
<g style="mix-blend-mode:soft-light">
<path d="M65.7122 23.3092H47.2123C27.2414 23.3092 28.6825 56.6222 28.6825 56.6222V60.5671C28.6927 63.5698 29.2943 66.5411 30.4528 69.3113C31.6114 72.0815 33.3042 74.5964 35.4347 76.7124C37.5651 78.8284 40.0915 80.504 42.8696 81.6436C45.6476 82.7832 48.6229 83.3644 51.6256 83.3542H60.9206C63.9233 83.3644 66.8987 82.7832 69.6767 81.6436C72.4548 80.504 74.9811 78.8284 77.1116 76.7124C79.2421 74.5964 80.9349 72.0815 82.0935 69.3113C83.252 66.5411 83.8536 63.5698 83.8638 60.5671V56.6582C83.8638 56.6582 85.6832 23.3092 65.7122 23.3092Z" fill="#000100"/>
</g>
<g style="mix-blend-mode:soft-light">
<path d="M30.4718 56.7423C30.4718 60.405 28.1361 63.3472 25.254 63.3472C22.3718 63.3472 20.036 60.381 20.036 56.7423C20.036 53.1036 22.3718 50.1373 25.254 50.1373C28.1361 50.1373 30.4718 53.0855 30.4718 56.7423Z" fill="#000100"/>
</g>
<g style="mix-blend-mode:soft-light">
<path d="M91.9271 56.7423C91.9271 60.405 89.5914 63.3472 86.7092 63.3472C83.827 63.3472 81.4913 60.381 81.4913 56.7423C81.4913 53.1036 83.827 50.1373 86.7092 50.1373C89.5914 50.1373 91.9271 53.0855 91.9271 56.7423Z" fill="#000100"/>
</g>
<g style="mix-blend-mode:soft-light">
<path d="M59.9296 63.9657C59.9312 64.0345 59.919 64.1029 59.8937 64.167C59.8685 64.231 59.8307 64.2894 59.7826 64.3386C59.7345 64.3878 59.677 64.4269 59.6136 64.4536C59.5501 64.4803 59.482 64.4941 59.4132 64.4941C59.3436 64.4957 59.2743 64.4833 59.2096 64.4578C59.1448 64.4323 59.0858 64.394 59.036 64.3454C58.9862 64.2967 58.9467 64.2386 58.9197 64.1744C58.8927 64.1102 58.8788 64.0413 58.8788 63.9717C58.8803 63.833 58.9356 63.7004 59.0331 63.6018C59.1305 63.5032 59.2626 63.4464 59.4012 63.4433C59.4703 63.4425 59.5388 63.4554 59.6029 63.4813C59.667 63.5072 59.7253 63.5455 59.7744 63.5941C59.8235 63.6427 59.8626 63.7006 59.8893 63.7644C59.9159 63.8281 59.9296 63.8966 59.9296 63.9657Z" fill="#000100"/>
</g>
<g style="mix-blend-mode:soft-light">
<path d="M64.175 59.1202C64.1758 59.1888 64.163 59.2569 64.1375 59.3206C64.112 59.3842 64.0742 59.4423 64.0263 59.4913C63.9783 59.5404 63.9211 59.5795 63.858 59.6065C63.795 59.6335 63.7272 59.6478 63.6586 59.6486C63.5849 59.6565 63.5103 59.6488 63.4398 59.626C63.3693 59.6032 63.3043 59.5658 63.2492 59.5162C63.194 59.4666 63.1499 59.406 63.1197 59.3383C63.0895 59.2706 63.074 59.1973 63.074 59.1232C63.074 59.0491 63.0895 58.9757 63.1197 58.908C63.1499 58.8403 63.194 58.7797 63.2492 58.7302C63.3043 58.6806 63.3693 58.6432 63.4398 58.6204C63.5103 58.5976 63.5849 58.5899 63.6586 58.5978C63.7961 58.5994 63.9275 58.6551 64.0241 58.7529C64.1208 58.8507 64.175 58.9827 64.175 59.1202Z" fill="#000100"/>
</g>
<g style="mix-blend-mode:soft-light">
<path d="M61.6228 68.0364C61.6089 68.1661 61.5476 68.286 61.4506 68.3732C61.3536 68.4604 61.2278 68.5086 61.0974 68.5086C60.967 68.5086 60.8412 68.4604 60.7442 68.3732C60.6472 68.286 60.5858 68.1661 60.572 68.0364C60.5641 67.9627 60.5718 67.8882 60.5946 67.8176C60.6174 67.7471 60.6548 67.6821 60.7043 67.627C60.7539 67.5718 60.8145 67.5278 60.8822 67.4976C60.9499 67.4674 61.0232 67.4518 61.0974 67.4518C61.1715 67.4518 61.2449 67.4674 61.3126 67.4976C61.3803 67.5278 61.4408 67.5718 61.4904 67.627C61.5399 67.6821 61.5774 67.7471 61.6002 67.8176C61.623 67.8882 61.6306 67.9627 61.6228 68.0364Z" fill="#000100"/>
</g>
<g style="mix-blend-mode:soft-light">
<path d="M63.6879 62.4883C63.6879 62.6274 63.633 62.7609 63.5352 62.8599C63.4375 62.9588 63.3046 63.0151 63.1655 63.0167C63.0359 63.0028 62.9159 62.9415 62.8287 62.8445C62.7416 62.7475 62.6934 62.6217 62.6934 62.4913C62.6934 62.3609 62.7416 62.2351 62.8287 62.1381C62.9159 62.0412 63.0359 61.9798 63.1655 61.9659C63.3031 61.969 63.4342 62.025 63.5315 62.1223C63.6288 62.2196 63.6849 62.3507 63.6879 62.4883Z" fill="#000100"/>
</g>
<g style="mix-blend-mode:soft-light">
<path d="M68.6717 60.4169C68.6729 60.5214 68.6431 60.6239 68.586 60.7115C68.529 60.799 68.4472 60.8677 68.3511 60.9088C68.255 60.9498 68.1489 60.9615 68.0462 60.9423C67.9435 60.9231 67.8488 60.8738 67.774 60.8007C67.6993 60.7277 67.6479 60.6341 67.6263 60.5319C67.6048 60.4296 67.6141 60.3233 67.653 60.2263C67.6918 60.1293 67.7586 60.046 67.8448 59.9869C67.9311 59.9279 68.0328 59.8957 68.1373 59.8945C68.277 59.8945 68.4112 59.9492 68.511 60.0468C68.6109 60.1444 68.6686 60.2773 68.6717 60.4169Z" fill="#000100"/>
</g>
<g style="mix-blend-mode:soft-light">
<path d="M66.0188 65.1066C66.02 65.2111 65.9901 65.3136 65.9331 65.4011C65.876 65.4887 65.7942 65.5573 65.6982 65.5984C65.6021 65.6395 65.496 65.6511 65.3932 65.6319C65.2905 65.6127 65.1958 65.5634 65.1211 65.4904C65.0464 65.4173 64.9949 65.3238 64.9734 65.2215C64.9518 65.1193 64.9611 65.0129 65 64.9159C65.0389 64.8189 65.1057 64.7356 65.1919 64.6766C65.2781 64.6175 65.3799 64.5854 65.4844 64.5842C65.554 64.5826 65.6233 64.5949 65.688 64.6204C65.7528 64.646 65.8118 64.6842 65.8616 64.7329C65.9114 64.7815 65.9509 64.8397 65.9779 64.9039C66.0049 64.968 66.0188 65.0369 66.0188 65.1066Z" fill="#000100"/>
</g>
<g style="mix-blend-mode:soft-light">
<path d="M70.4737 63.8576C70.4598 63.9873 70.3985 64.1072 70.3015 64.1944C70.2045 64.2815 70.0787 64.3297 69.9483 64.3297C69.8179 64.3297 69.6922 64.2815 69.5952 64.1944C69.4982 64.1072 69.4368 63.9873 69.4229 63.8576C69.415 63.7839 69.4228 63.7093 69.4456 63.6388C69.4684 63.5683 69.5057 63.5033 69.5553 63.4482C69.6048 63.393 69.6655 63.3489 69.7332 63.3187C69.8009 63.2886 69.8742 63.2729 69.9483 63.2729C70.0224 63.2729 70.0958 63.2886 70.1635 63.3187C70.2312 63.3489 70.2918 63.393 70.3413 63.4482C70.3909 63.5033 70.4283 63.5683 70.4511 63.6388C70.4739 63.7093 70.4816 63.7839 70.4737 63.8576Z" fill="#000100"/>
</g>
<g style="mix-blend-mode:soft-light">
<path d="M74.4542 66.854C74.4621 66.9277 74.4544 67.0023 74.4316 67.0728C74.4088 67.1433 74.3714 67.2083 74.3218 67.2634C74.2722 67.3186 74.2117 67.3627 74.144 67.3928C74.0763 67.423 74.0029 67.4386 73.9288 67.4386C73.8546 67.4386 73.7814 67.423 73.7137 67.3928C73.6459 67.3627 73.5853 67.3186 73.5358 67.2634C73.4862 67.2083 73.4488 67.1433 73.426 67.0728C73.4032 67.0023 73.3955 66.9277 73.4034 66.854C73.4018 66.7852 73.414 66.7167 73.4392 66.6527C73.4645 66.5886 73.5022 66.5303 73.5503 66.4811C73.5985 66.4318 73.6559 66.3927 73.7194 66.366C73.7828 66.3393 73.8509 66.3256 73.9198 66.3256C73.9897 66.3248 74.059 66.3379 74.1238 66.3641C74.1886 66.3903 74.2476 66.4291 74.2973 66.4782C74.347 66.5274 74.3865 66.5859 74.4134 66.6504C74.4404 66.7149 74.4542 66.7841 74.4542 66.854Z" fill="#000100"/>
</g>
<g style="mix-blend-mode:soft-light">
<path d="M73.908 65.0224C73.9159 65.0962 73.9082 65.1707 73.8854 65.2412C73.8626 65.3118 73.8252 65.3767 73.7757 65.4319C73.7261 65.487 73.6655 65.5311 73.5978 65.5613C73.5301 65.5915 73.4568 65.6071 73.3827 65.6071C73.3085 65.6071 73.2352 65.5915 73.1675 65.5613C73.0997 65.5311 73.0392 65.487 72.9896 65.4319C72.9401 65.3767 72.9026 65.3118 72.8798 65.2412C72.857 65.1707 72.8494 65.0962 72.8573 65.0224C72.8711 64.8928 72.9324 64.7728 73.0294 64.6857C73.1264 64.5985 73.2523 64.5503 73.3827 64.5503C73.5131 64.5503 73.6388 64.5985 73.7358 64.6857C73.8328 64.7728 73.8942 64.8928 73.908 65.0224Z" fill="#000100"/>
</g>
<g style="mix-blend-mode:soft-light">
<path d="M76.4243 65.5271C76.4255 65.6318 76.3955 65.7346 76.3382 65.8222C76.2809 65.9099 76.1988 65.9786 76.1023 66.0195C76.0059 66.0604 75.8995 66.0717 75.7966 66.052C75.6937 66.0323 75.599 65.9825 75.5245 65.9088C75.45 65.8352 75.399 65.741 75.3782 65.6384C75.3573 65.5357 75.3674 65.4292 75.4072 65.3323C75.447 65.2354 75.5148 65.1525 75.6018 65.0942C75.6888 65.0358 75.7912 65.0047 75.8959 65.0047C75.965 65.0039 76.0336 65.0168 76.0977 65.0427C76.1618 65.0686 76.2201 65.1069 76.2692 65.1555C76.3184 65.2041 76.3574 65.262 76.384 65.3258C76.4106 65.3895 76.4243 65.458 76.4243 65.5271Z" fill="#000100"/>
</g>
<g style="mix-blend-mode:soft-light">
<path d="M74.3765 59.54C74.3627 59.6697 74.3014 59.7896 74.2044 59.8768C74.1074 59.964 73.9815 60.0122 73.8511 60.0122C73.7207 60.0122 73.595 59.964 73.498 59.8768C73.401 59.7896 73.3396 59.6697 73.3258 59.54C73.3179 59.4663 73.3256 59.3918 73.3484 59.3212C73.3712 59.2507 73.4086 59.1857 73.4581 59.1306C73.5077 59.0755 73.5683 59.0314 73.636 59.0012C73.7037 58.971 73.777 58.9554 73.8511 58.9554C73.9253 58.9554 73.9986 58.971 74.0663 59.0012C74.1341 59.0314 74.1946 59.0755 74.2442 59.1306C74.2937 59.1857 74.3312 59.2507 74.354 59.3212C74.3768 59.3918 74.3844 59.4663 74.3765 59.54Z" fill="#000100"/>
</g>
<g style="mix-blend-mode:soft-light">
<path d="M80.9929 60.687C80.979 60.8167 80.9177 60.9366 80.8208 61.0238C80.7238 61.111 80.5979 61.1592 80.4675 61.1592C80.3371 61.1592 80.2114 61.111 80.1144 61.0238C80.0174 60.9366 79.956 60.8167 79.9421 60.687C79.9421 60.5473 79.9967 60.4132 80.0944 60.3133C80.192 60.2134 80.3249 60.1558 80.4645 60.1526C80.5347 60.1518 80.6042 60.1651 80.6691 60.1917C80.734 60.2184 80.7928 60.2578 80.8422 60.3077C80.8915 60.3576 80.9302 60.4168 80.9561 60.482C80.982 60.5472 80.9945 60.6169 80.9929 60.687Z" fill="#000100"/>
</g>
<g style="mix-blend-mode:soft-light">
<path d="M30.4175 61.7863C30.4175 61.8894 30.3869 61.9901 30.3298 62.0759C30.2727 62.1617 30.1915 62.2286 30.0964 62.2683C30.0012 62.308 29.8965 62.3187 29.7953 62.2991C29.6942 62.2794 29.6011 62.2302 29.5278 62.1578C29.4545 62.0853 29.4043 61.9928 29.3835 61.8919C29.3626 61.7909 29.3721 61.6861 29.4107 61.5905C29.4494 61.495 29.5154 61.413 29.6005 61.3549C29.6856 61.2967 29.786 61.2651 29.8891 61.2639C30.0282 61.2639 30.1617 61.3187 30.2606 61.4165C30.3595 61.5143 30.4159 61.6472 30.4175 61.7863Z" fill="#000100"/>
</g>
<g style="mix-blend-mode:soft-light">
<path d="M36.6383 61.7201C36.6399 61.7892 36.6278 61.8579 36.6027 61.9223C36.5775 61.9867 36.5398 62.0454 36.4918 62.0951C36.4437 62.1448 36.3863 62.1845 36.3228 62.2119C36.2593 62.2392 36.1911 62.2537 36.122 62.2545C36.0483 62.2624 35.9737 62.2547 35.9032 62.2319C35.8326 62.209 35.7677 62.1717 35.7125 62.1221C35.6574 62.0725 35.6133 62.0119 35.5831 61.9442C35.5529 61.8765 35.5374 61.8032 35.5374 61.7291C35.5374 61.6549 35.5529 61.5816 35.5831 61.5139C35.6133 61.4462 35.6574 61.3856 35.7125 61.3361C35.7677 61.2865 35.8326 61.2491 35.9032 61.2263C35.9737 61.2035 36.0483 61.1958 36.122 61.2037C36.1898 61.2037 36.2569 61.217 36.3196 61.243C36.3822 61.2689 36.4392 61.307 36.4871 61.3549C36.5351 61.4029 36.5731 61.4598 36.5991 61.5225C36.625 61.5851 36.6383 61.6523 36.6383 61.7201Z" fill="#000100"/>
</g>
<g style="mix-blend-mode:soft-light">
<path d="M36.6146 58.8495C36.6146 58.9892 36.56 59.1233 36.4624 59.2232C36.3647 59.3231 36.2318 59.3808 36.0922 59.3839C35.9877 59.3851 35.8852 59.3553 35.7977 59.2982C35.7102 59.2411 35.6415 59.1594 35.6004 59.0633C35.5593 58.9672 35.5477 58.8611 35.5669 58.7583C35.5861 58.6556 35.6354 58.5609 35.7084 58.4862C35.7815 58.4115 35.875 58.3601 35.9773 58.3385C36.0795 58.317 36.1859 58.3262 36.2829 58.3651C36.3799 58.404 36.4632 58.4708 36.5222 58.557C36.5813 58.6432 36.6134 58.745 36.6146 58.8495Z" fill="#000100"/>
</g>
<g style="mix-blend-mode:soft-light">
<path d="M42.0904 65.8689C42.0905 66.0086 42.0358 66.1427 41.9382 66.2426C41.8405 66.3425 41.7077 66.4002 41.568 66.4033C41.4635 66.4045 41.3611 66.3747 41.2735 66.3176C41.186 66.2605 41.1173 66.1788 41.0762 66.0827C41.0351 65.9866 41.0235 65.8805 41.0427 65.7778C41.0619 65.675 41.1112 65.5803 41.1843 65.5056C41.2573 65.4309 41.3508 65.3795 41.4531 65.3579C41.5554 65.3364 41.6618 65.3456 41.7588 65.3845C41.8558 65.4234 41.939 65.4902 41.9981 65.5764C42.0571 65.6626 42.0892 65.7644 42.0904 65.8689Z" fill="#000100"/>
</g>
<g style="mix-blend-mode:soft-light">
<path d="M37.2144 66.4454C37.2167 66.5504 37.1878 66.6537 37.1312 66.7421C37.0746 66.8306 36.993 66.9002 36.8967 66.942C36.8004 66.9839 36.6937 66.9961 36.5905 66.9771C36.4872 66.958 36.3919 66.9087 36.3168 66.8353C36.2417 66.7619 36.1902 66.6678 36.1688 66.565C36.1474 66.4622 36.1572 66.3553 36.1968 66.258C36.2364 66.1608 36.3041 66.0776 36.3912 66.0189C36.4784 65.9603 36.5809 65.929 36.686 65.929C36.7546 65.9282 36.8227 65.9409 36.8864 65.9665C36.95 65.992 37.0081 66.0298 37.0571 66.0777C37.1062 66.1257 37.1454 66.1828 37.1724 66.2459C37.1993 66.309 37.2136 66.3768 37.2144 66.4454Z" fill="#000100"/>
</g>
<g style="mix-blend-mode:soft-light">
<path d="M46.3298 59.8229C46.3322 59.9278 46.3033 60.0312 46.2467 60.1196C46.1901 60.2081 46.1084 60.2777 46.0121 60.3195C45.9158 60.3614 45.8092 60.3736 45.7059 60.3545C45.6027 60.3355 45.5073 60.2862 45.4322 60.2128C45.3571 60.1394 45.3056 60.0453 45.2843 59.9425C45.2629 59.8396 45.2726 59.7328 45.3123 59.6355C45.3519 59.5383 45.4195 59.455 45.5066 59.3964C45.5938 59.3378 45.6964 59.3065 45.8014 59.3065C45.8703 59.3049 45.9387 59.317 46.0027 59.3423C46.0668 59.3675 46.1251 59.4053 46.1744 59.4534C46.2236 59.5015 46.2627 59.559 46.2894 59.6224C46.3161 59.6859 46.3299 59.754 46.3298 59.8229Z" fill="#000100"/>
</g>
<g style="mix-blend-mode:soft-light">
<path d="M49.9324 66.8419C49.934 66.911 49.9218 66.9797 49.8967 67.0441C49.8715 67.1085 49.8338 67.1672 49.7858 67.2169C49.7378 67.2666 49.6803 67.3063 49.6168 67.3336C49.5534 67.361 49.4851 67.3755 49.416 67.3763C49.2763 67.3763 49.1422 67.3216 49.0423 67.224C48.9425 67.1264 48.8847 66.9935 48.8816 66.8539C48.8955 66.7242 48.9568 66.6043 49.0538 66.5171C49.1508 66.4299 49.2766 66.3817 49.407 66.3817C49.5374 66.3817 49.6632 66.4299 49.7602 66.5171C49.8572 66.6043 49.9185 66.7242 49.9324 66.8539V66.8419Z" fill="#000100"/>
</g>
<g style="mix-blend-mode:soft-light">
<path d="M42.5348 61.1378C42.5364 61.2066 42.5242 61.275 42.499 61.3391C42.4738 61.4031 42.436 61.4615 42.3879 61.5107C42.3398 61.5599 42.2823 61.599 42.2188 61.6257C42.1554 61.6524 42.0872 61.6662 42.0184 61.6662C41.9134 61.6685 41.8101 61.6396 41.7217 61.583C41.6332 61.5264 41.5636 61.4447 41.5218 61.3484C41.48 61.2521 41.4677 61.1455 41.4868 61.0422C41.5058 60.939 41.5551 60.8437 41.6285 60.7686C41.7019 60.6935 41.796 60.6419 41.8988 60.6206C42.0016 60.5992 42.1085 60.6089 42.2057 60.6485C42.303 60.6882 42.3862 60.7559 42.4448 60.843C42.5034 60.9301 42.5348 61.0327 42.5348 61.1378Z" fill="#000100"/>
</g>
<g style="mix-blend-mode:soft-light">
<path d="M52.3337 63.5156C52.3198 63.6453 52.2585 63.7652 52.1615 63.8524C52.0645 63.9395 51.9387 63.9878 51.8083 63.9878C51.6779 63.9878 51.5521 63.9395 51.4551 63.8524C51.3581 63.7652 51.2968 63.6453 51.2829 63.5156C51.275 63.4419 51.2827 63.3673 51.3056 63.2968C51.3284 63.2263 51.3657 63.1613 51.4153 63.1062C51.4648 63.051 51.5255 63.0069 51.5932 62.9768C51.6609 62.9466 51.7342 62.931 51.8083 62.931C51.8824 62.931 51.9557 62.9466 52.0234 62.9768C52.0911 63.0069 52.1518 63.051 52.2013 63.1062C52.2509 63.1613 52.2882 63.2263 52.311 63.2968C52.3339 63.3673 52.3416 63.4419 52.3337 63.5156Z" fill="#000100"/>
</g>
<g style="mix-blend-mode:soft-light">
<path d="M44.9601 63.5874C44.9601 63.7271 44.9055 63.8612 44.8078 63.9611C44.7102 64.061 44.5773 64.1187 44.4377 64.1218C44.3332 64.123 44.2307 64.0932 44.1432 64.0361C44.0556 63.979 43.9869 63.8973 43.9458 63.8012C43.9048 63.7051 43.8931 63.599 43.9123 63.4963C43.9316 63.3935 43.9808 63.2988 44.0539 63.2241C44.1269 63.1494 44.2205 63.098 44.3227 63.0764C44.425 63.0549 44.5313 63.0641 44.6283 63.103C44.7253 63.1419 44.8087 63.2087 44.8677 63.2949C44.9267 63.3811 44.9589 63.4829 44.9601 63.5874Z" fill="#000100"/>
</g>
<g style="mix-blend-mode:soft-light">
<path d="M46.8273 67.6584C46.8352 67.7321 46.8276 67.8067 46.8048 67.8772C46.782 67.9478 46.7445 68.0127 46.695 68.0679C46.6454 68.123 46.5849 68.1671 46.5172 68.1973C46.4494 68.2275 46.3761 68.2431 46.302 68.2431C46.2278 68.2431 46.1545 68.2275 46.0868 68.1973C46.0191 68.1671 45.9585 68.123 45.9089 68.0679C45.8594 68.0127 45.822 67.9478 45.7992 67.8772C45.7764 67.8067 45.7687 67.7321 45.7766 67.6584C45.7904 67.5288 45.8518 67.4088 45.9488 67.3217C46.0458 67.2345 46.1716 67.1863 46.302 67.1863C46.4324 67.1863 46.5582 67.2345 46.6552 67.3217C46.7522 67.4088 46.8135 67.5288 46.8273 67.6584Z" fill="#000100"/>
</g>
<g style="mix-blend-mode:soft-light">
<path d="M51.0245 59.2518C51.0261 59.3206 51.014 59.3891 50.9888 59.4531C50.9635 59.5171 50.9258 59.5755 50.8777 59.6247C50.8295 59.674 50.7721 59.7131 50.7086 59.7398C50.6452 59.7665 50.577 59.7802 50.5082 59.7802C50.4386 59.7818 50.3694 59.7695 50.3046 59.7439C50.2398 59.7184 50.1808 59.6802 50.131 59.6315C50.0812 59.5828 50.0417 59.5247 50.0147 59.4605C49.9877 59.3964 49.9737 59.3274 49.9738 59.2578C49.9753 59.1192 50.0306 58.9866 50.1281 58.888C50.2256 58.7894 50.3575 58.7325 50.4961 58.7294C50.5652 58.7286 50.6339 58.7415 50.6979 58.7674C50.762 58.7933 50.8203 58.8317 50.8694 58.8803C50.9186 58.9289 50.9576 58.9867 50.9842 59.0505C51.0109 59.1143 51.0245 59.1827 51.0245 59.2518Z" fill="#000100"/>
</g>
<g style="mix-blend-mode:soft-light">
<path d="M59.9053 72.6963C59.9053 73.7831 58.0019 74.6657 55.6542 74.6657C53.3064 74.6657 51.403 73.7831 51.403 72.6963C51.403 71.6094 53.3064 71.9277 55.6542 71.9277C58.0019 71.9277 59.9053 71.6215 59.9053 72.6963Z" fill="#000100"/>
</g>
<g style="mix-blend-mode:soft-light">
<path d="M57.7377 69.0936C56.8611 69.0936 56.0986 69.9523 55.6722 70.3366C55.2399 69.9523 54.4713 69.0936 53.6006 69.0936C52.2556 69.0936 50.5984 70.2945 50.5984 71.0451C50.5984 71.7957 52.2857 72.3961 53.6006 72.3961C53.7267 72.3961 53.8528 72.3961 53.9729 72.3961C55.1037 72.3 56.2407 72.3 57.3715 72.3961C57.4916 72.3961 57.6177 72.3961 57.7377 72.3961C59.0828 72.3961 60.7761 71.7957 60.7761 71.0451C60.7761 70.2945 59.0647 69.0936 57.7377 69.0936Z" fill="#000100"/>
</g>
<g style="mix-blend-mode:soft-light">
<path d="M44.0538 69.2856C44.2675 69.0888 44.5505 68.9846 44.8408 68.9958C45.1311 69.0071 45.4052 69.1328 45.603 69.3456C45.6691 69.4057 48.227 71.9396 55.1742 71.9396C62.1214 71.9396 64.7213 69.3696 64.7814 69.3456C64.9819 69.1341 65.2578 69.0104 65.5491 69.0014C65.8404 68.9924 66.1234 69.0989 66.3365 69.2976" stroke="#000100" stroke-width="2" stroke-linecap="round" stroke-linejoin="round"/>
</g>
<g style="mix-blend-mode:soft-light">
<path d="M44.0604 57.0363C44.0268 57.7678 43.7125 58.4581 43.183 58.9639C42.6535 59.4696 41.9495 59.7518 41.2173 59.7518C40.4851 59.7518 39.781 59.4696 39.2515 58.9639C38.722 58.4581 38.4078 57.7678 38.3741 57.0363V55.7994C38.4078 55.068 38.722 54.3776 39.2515 53.8719C39.781 53.3662 40.4851 53.084 41.2173 53.084C41.9495 53.084 42.6535 53.3662 43.183 53.8719C43.7125 54.3776 44.0268 55.068 44.0604 55.7994V57.0363Z" fill="#000100"/>
</g>
<g style="mix-blend-mode:soft-light">
<path d="M71.9809 57.0363C71.9473 57.7678 71.6331 58.4581 71.1036 58.9639C70.574 59.4696 69.87 59.7518 69.1378 59.7518C68.4056 59.7518 67.7016 59.4696 67.172 58.9639C66.6425 58.4581 66.3283 57.7678 66.2947 57.0363V55.7994C66.3283 55.068 66.6425 54.3776 67.172 53.8719C67.7016 53.3662 68.4056 53.084 69.1378 53.084C69.87 53.084 70.574 53.3662 71.1036 53.8719C71.6331 54.3776 71.9473 55.068 71.9809 55.7994V57.0363Z" fill="#000100"/>
</g>
<g style="mix-blend-mode:soft-light">
<path d="M38.8118 56.214C38.0436 56.214 37.3069 55.9092 36.7632 55.3667C36.2195 54.8241 35.9132 54.0879 35.9116 53.3198C35.9116 53.1606 35.9749 53.0078 36.0875 52.8952C36.2001 52.7826 36.3528 52.7194 36.5121 52.7194C36.6713 52.7194 36.824 52.7826 36.9366 52.8952C37.0492 53.0078 37.1125 53.1606 37.1125 53.3198C37.1125 53.7689 37.2909 54.1996 37.6084 54.5171C37.926 54.8347 38.3567 55.0131 38.8058 55.0131C38.965 55.0131 39.1178 55.0763 39.2304 55.1889C39.343 55.3016 39.4062 55.4543 39.4062 55.6135C39.4062 55.7728 39.343 55.9255 39.2304 56.0381C39.1178 56.1507 38.965 56.214 38.8058 56.214H38.8118Z" fill="#000100"/>
</g>
<g style="mix-blend-mode:soft-light">
<path d="M71.4405 56.214C72.2087 56.214 72.9455 55.9092 73.4892 55.3667C74.0329 54.8241 74.3392 54.0879 74.3408 53.3198C74.3408 53.1606 74.2774 53.0078 74.1648 52.8952C74.0522 52.7826 73.8996 52.7194 73.7403 52.7194C73.5811 52.7194 73.4283 52.7826 73.3157 52.8952C73.2031 53.0078 73.1399 53.1606 73.1399 53.3198C73.1383 53.7694 72.9585 54.2001 72.64 54.5175C72.3215 54.8349 71.8902 55.0131 71.4405 55.0131C71.2813 55.0131 71.1286 55.0763 71.016 55.1889C70.9034 55.3016 70.8401 55.4543 70.8401 55.6135C70.8401 55.7728 70.9034 55.9255 71.016 56.0381C71.1286 56.1507 71.2813 56.214 71.4405 56.214Z" fill="#000100"/>
</g>
<g style="mix-blend-mode:soft-light">
<path d="M44.2644 46.2764C44.1009 46.2094 43.9242 46.1807 43.7479 46.1924H37.1911C36.8361 46.2347 36.5117 46.4141 36.2873 46.6924C36.0629 46.9706 35.9563 47.3256 35.9902 47.6815C35.9604 48.0391 36.068 48.3947 36.2911 48.6758C36.5142 48.9569 36.836 49.1424 37.1911 49.1946H43.7479C44.1028 49.1494 44.4262 48.9683 44.6502 48.6895C44.8742 48.4106 44.9812 48.0557 44.9488 47.6995C44.9709 47.4229 44.9192 47.1455 44.7989 46.8954C44.6787 46.6454 44.4942 46.4318 44.2644 46.2764Z" fill="#000100"/>
</g>
<g style="mix-blend-mode:soft-light">
<path d="M73.0737 46.2764C72.9102 46.2094 72.7336 46.1807 72.5573 46.1924H66.0063C65.6527 46.2375 65.3302 46.4178 65.1063 46.6953C64.8825 46.9729 64.7747 47.3262 64.8055 47.6815C64.7765 48.0446 64.889 48.4048 65.1195 48.6869C65.3501 48.9689 65.6807 49.1508 66.0423 49.1946H72.5933C72.9481 49.1494 73.2716 48.9683 73.4956 48.6895C73.7195 48.4106 73.8266 48.0557 73.7942 47.6995C73.8137 47.4193 73.7571 47.1391 73.6303 46.8885C73.5034 46.638 73.3111 46.4265 73.0737 46.2764Z" fill="#000100"/>
</g>
<g style="mix-blend-mode:soft-light">
<path d="M81.534 63.7795C81.3886 63.7605 81.2552 63.6889 81.159 63.5783C81.0628 63.4677 81.0103 63.3257 81.0116 63.1791C80.8855 56.6942 80.9635 42.6077 80.9755 41.2747C79.7746 37.6299 80.0509 37.2216 80.207 36.9935C80.271 36.9054 80.3549 36.8339 80.452 36.7848C80.5492 36.7358 80.6566 36.7105 80.7654 36.7113C81.2397 36.7113 81.6841 36.7113 85.0046 43.2802C85.0416 43.3511 85.064 43.4287 85.0706 43.5083C85.9833 55.8476 85.527 56.34 85.2268 56.6642C85.1638 56.734 85.0869 56.7898 85.0011 56.8281C84.9152 56.8664 84.8223 56.8862 84.7283 56.8864C84.5901 56.8916 84.4536 56.8555 84.336 56.7828C84.2184 56.7101 84.125 56.604 84.0679 56.4781L82.1884 63.3232C82.1533 63.4542 82.0748 63.5694 81.9658 63.6501C81.8567 63.7308 81.7236 63.7722 81.588 63.7675L81.534 63.7795Z" fill="#000100"/>
</g>
<g style="mix-blend-mode:soft-light">
<path d="M80.7652 37.3296C81.0715 37.3296 82.0622 38.8007 84.47 43.5683C85.2326 53.884 85.0704 56.3038 84.7282 56.3038C84.3859 56.3038 84.0137 54.4184 84.0137 54.4184L81.6119 63.185C81.4798 56.3399 81.5758 41.1965 81.5758 41.1965C81.5758 41.1965 80.2669 37.3296 80.7652 37.3296ZM80.7652 36.1287C80.5612 36.1284 80.3599 36.1768 80.1783 36.2697C79.9966 36.3626 79.8397 36.4975 79.7205 36.6631C79.4262 37.0774 79.12 37.5398 80.3749 41.3887C80.3749 43.19 80.2849 56.8502 80.411 63.209C80.4087 63.5031 80.5144 63.7879 80.7081 64.0092C80.9017 64.2306 81.1699 64.3731 81.4618 64.4099H81.6119C81.8751 64.4101 82.1311 64.3238 82.3405 64.1644C82.5498 64.0049 82.701 63.781 82.7707 63.5272L84.4219 57.5228C84.5238 57.5322 84.6263 57.5322 84.7282 57.5228C84.9044 57.522 85.0787 57.4848 85.2399 57.4135C85.4011 57.3422 85.5458 57.2383 85.6649 57.1084C86.1453 56.5921 86.6016 56.0997 85.6649 43.4962C85.6528 43.3393 85.61 43.1863 85.5388 43.0459C84.404 40.7942 83.5033 39.119 82.8548 38.0562C82.0502 36.7352 81.5578 36.1467 80.7652 36.1467V36.1287Z" fill="#000100"/>
</g>
<g style="mix-blend-mode:soft-light">
<path d="M27.9502 64.3861C27.8261 64.3856 27.7052 64.3466 27.6041 64.2746C27.503 64.2025 27.4267 64.1009 27.3857 63.9838L25.4463 58.3695C25.3138 58.4958 25.137 58.5648 24.954 58.5617C24.8536 58.5613 24.7544 58.5404 24.6625 58.5001C24.5705 58.4598 24.4878 58.4011 24.4195 58.3275C24.1073 57.9853 23.5129 57.3488 24.4976 44.1269C24.5023 44.0476 24.5227 43.97 24.5576 43.8987C27.8781 37.3298 28.3225 37.3298 28.7969 37.3298C28.9057 37.3291 29.0131 37.3543 29.1102 37.4034C29.2073 37.4524 29.2913 37.524 29.3552 37.612C29.5173 37.8402 29.8116 38.2485 28.5926 41.8932C28.5926 43.2262 28.6767 57.3127 28.5506 63.7976C28.5525 63.9415 28.5026 64.0813 28.41 64.1915C28.3174 64.3018 28.1884 64.375 28.0463 64.3981L27.9502 64.3861Z" fill="#000100"/>
</g>
<g style="mix-blend-mode:soft-light">
<path d="M28.7963 37.9302C29.2947 37.9302 27.9856 41.7971 27.9856 41.7971C27.9856 41.7971 28.0878 56.9404 27.9497 63.7855L25.5479 56.8203C25.5479 56.8203 25.2296 57.9612 24.9474 57.9612C24.5451 57.9612 24.2389 55.6134 25.0855 44.1508C27.4873 39.3832 28.4901 37.9121 28.7903 37.9121L28.7963 37.9302ZM28.7903 36.7112C27.9977 36.7112 27.5054 37.3117 26.7007 38.6207C26.0583 39.6835 25.1515 41.3587 24.0167 43.6104C23.9455 43.7508 23.9027 43.9038 23.8906 44.0607C22.8879 57.5468 23.4943 58.1953 23.9747 58.7177C24.0983 58.8525 24.2486 58.9601 24.4161 59.0335C24.5836 59.1069 24.7645 59.1445 24.9474 59.144H25.0795L26.8088 64.1638C26.89 64.4002 27.0431 64.6054 27.2465 64.7507C27.45 64.896 27.6936 64.9742 27.9436 64.9744H28.1358C28.4138 64.9294 28.6673 64.788 28.8517 64.5751C29.0361 64.3622 29.1397 64.0912 29.1445 63.8095C29.2706 57.4508 29.1925 43.8086 29.1865 41.9892C30.4655 38.1403 30.1353 37.678 29.8351 37.2637C29.7159 37.098 29.5589 36.9631 29.3773 36.8702C29.1956 36.7773 28.9944 36.729 28.7903 36.7293V36.7112Z" fill="#000100"/>
</g>
<g style="mix-blend-mode:soft-light">
<path d="M25.055 42.9859C25.055 42.9859 28.5016 43.5863 35.1305 44.0247C35.827 44.0727 36.5536 36.9093 37.3222 36.9574C38.0908 37.0054 38.0668 43.0459 39.5319 44.2768C42.8644 47.093 50.0817 44.6431 56.9809 44.541C57.4252 44.541 57.8756 35.5343 58.3259 35.5343C58.8723 35.5343 58.2418 43.0279 59.9771 44.541C61.7124 46.0542 65.8916 44.3309 69.4522 44.1447C69.7465 44.1447 70.6531 38.1042 70.9353 38.0922C71.2175 38.0802 71.0734 43.118 72.2803 44.0547C74.6821 45.9281 79.9961 43.5023 84.5115 43.088C84.5115 43.088 87.3997 10.6937 53.6904 11.5463C22.8513 12.2729 25.055 42.9859 25.055 42.9859Z" fill="#000100"/>
</g>
<g style="mix-blend-mode:soft-light">
<g style="mix-blend-mode:soft-light">
<path d="M30.2731 45.8681C30.2731 45.8681 27.487 17.2747 50.208 13.1857C50.208 13.1857 32.9391 16.7043 33.5636 46.5707L30.2731 45.8681Z" fill="#000100"/>
</g>
<g style="mix-blend-mode:overlay" opacity="0.2">
<path d="M30.2731 45.8681C30.2731 45.8681 27.487 17.2747 50.208 13.1857C50.208 13.1857 32.9391 16.7043 33.5636 46.5707L30.2731 45.8681Z" fill="#000100"/>
</g>
<g style="mix-blend-mode:soft-light">
<path d="M30.2731 45.8681C30.2731 45.8681 27.487 17.2747 50.208 13.1857C50.208 13.1857 32.9391 16.7043 33.5636 46.5707L30.2731 45.8681Z" stroke="#000100" stroke-width="1.69" stroke-linecap="round" stroke-linejoin="round"/>
</g>
<g style="mix-blend-mode:soft-light">
<path d="M41.1418 45.5141C41.1418 45.5141 35.6777 27.0803 51.3855 15.8398C51.3855 15.8398 39.6707 25.4891 44.4262 46.2166L41.1418 45.5141Z" fill="#000100"/>
</g>
<g style="mix-blend-mode:overlay" opacity="0.2">
<path d="M41.1418 45.5141C41.1418 45.5141 35.6777 27.0803 51.3855 15.8398C51.3855 15.8398 39.6707 25.4891 44.4262 46.2166L41.1418 45.5141Z" fill="#000100"/>
</g>
<g style="mix-blend-mode:soft-light">
<path d="M41.1418 45.5141C41.1418 45.5141 35.6777 27.0803 51.3855 15.8398C51.3855 15.8398 39.6707 25.4891 44.4262 46.2166L41.1418 45.5141Z" stroke="#000100" stroke-width="1.69" stroke-linecap="round" stroke-linejoin="round"/>
</g>
<g style="mix-blend-mode:soft-light">
<path d="M77.7814 44.8656C77.7814 44.8656 80.5554 16.2541 57.8524 12.1891C57.8524 12.1891 75.1214 15.7077 74.4969 45.5741L77.7814 44.8656Z" fill="#000100"/>
</g>
<g style="mix-blend-mode:overlay" opacity="0.2">
<path d="M77.7814 44.8656C77.7814 44.8656 80.5554 16.2541 57.8524 12.1891C57.8524 12.1891 75.1214 15.7077 74.4969 45.5741L77.7814 44.8656Z" fill="#000100"/>
</g>
<g style="mix-blend-mode:soft-light">
<path d="M77.7814 44.8656C77.7814 44.8656 80.5554 16.2541 57.8524 12.1891C57.8524 12.1891 75.1214 15.7077 74.4969 45.5741L77.7814 44.8656Z" stroke="#000100" stroke-width="1.69" stroke-linecap="round" stroke-linejoin="round"/>
</g>
<g style="mix-blend-mode:soft-light">
<path d="M66.9183 44.5171C66.9183 44.5171 72.3823 26.0773 56.6746 14.8369C56.6746 14.8369 68.3894 24.4861 63.6278 45.2197L66.9183 44.5171Z" fill="#000100"/>
</g>
<g style="mix-blend-mode:overlay" opacity="0.2">
<path d="M66.9183 44.5171C66.9183 44.5171 72.3823 26.0773 56.6746 14.8369C56.6746 14.8369 68.3894 24.4861 63.6278 45.2197L66.9183 44.5171Z" fill="#000100"/>
</g>
<g style="mix-blend-mode:soft-light">
<path d="M66.9183 44.5171C66.9183 44.5171 72.3823 26.0773 56.6746 14.8369C56.6746 14.8369 68.3894 24.4861 63.6278 45.2197L66.9183 44.5171Z" stroke="#000100" stroke-width="1.69" stroke-linecap="round" stroke-linejoin="round"/>
</g>
<g style="mix-blend-mode:soft-light">
<path d="M49.9323 45.6757C49.9323 45.6757 49.9983 25.6627 52.6162 18.7215C52.6162 18.7215 52.3521 42.9677 52.9405 45.7417C53.529 48.5158 49.9323 45.6757 49.9323 45.6757Z" fill="#000100"/>
</g>
<g style="mix-blend-mode:overlay" opacity="0.2">
<path d="M49.9323 45.6757C49.9323 45.6757 49.9983 25.6627 52.6162 18.7215C52.6162 18.7215 52.3521 42.9677 52.9405 45.7417C53.529 48.5158 49.9323 45.6757 49.9323 45.6757Z" fill="#000100"/>
</g>
<g style="mix-blend-mode:soft-light">
<path d="M49.9323 45.6757C49.9323 45.6757 49.9983 25.6627 52.6162 18.7215C52.6162 18.7215 52.3521 42.9677 52.9405 45.7417C53.529 48.5158 49.9323 45.6757 49.9323 45.6757Z" stroke="#000100" stroke-width="1.69" stroke-linecap="round" stroke-linejoin="round"/>
</g>
</g>
<g style="mix-blend-mode:soft-light">
<path d="M25.055 42.9859C25.055 42.9859 28.5016 43.5863 35.1305 44.0247C35.827 44.0727 36.5536 36.9093 37.3222 36.9574C38.0908 37.0054 38.0668 43.0459 39.5319 44.2768C42.8644 47.093 50.0817 44.6431 56.9809 44.541C57.4252 44.541 57.8756 35.5343 58.3259 35.5343C58.8723 35.5343 58.2418 43.0279 59.9771 44.541C61.7124 46.0542 65.8916 44.3309 69.4522 44.1447C69.7465 44.1447 70.6531 38.1042 70.9353 38.0922C71.2175 38.0802 71.0734 43.118 72.2803 44.0547C74.6821 45.9281 79.9961 43.5023 84.5115 43.088C84.5115 43.088 87.3997 10.6937 53.6904 11.5463C22.8513 12.2729 25.055 42.9859 25.055 42.9859Z" stroke="#000100" stroke-width="3" stroke-linejoin="round"/>
</g>
<g style="mix-blend-mode:soft-light" opacity="0.4">
<path d="M41.2857 64.7402C43.8193 64.7402 45.8731 63.8396 45.8731 62.7287C45.8731 61.6177 43.8193 60.7172 41.2857 60.7172C38.7521 60.7172 36.6982 61.6177 36.6982 62.7287C36.6982 63.8396 38.7521 64.7402 41.2857 64.7402Z" fill="#000100"/>
</g>
<g style="mix-blend-mode:soft-light" opacity="0.4">
<path d="M74.0998 62.7287C74.0998 63.8335 72.0463 64.7342 69.5124 64.7342C66.9785 64.7342 64.9189 63.8335 64.9189 62.7287C64.9189 61.6238 66.9785 60.7172 69.5124 60.7172C72.0463 60.7172 74.0998 61.6178 74.0998 62.7287Z" fill="#000100"/>
</g>
<g style="mix-blend-mode:soft-light">
<path d="M58.9384 64.7822C58.9384 65.4367 57.4673 65.9831 55.6539 65.9831C53.8406 65.9831 52.3695 65.4547 52.3695 64.7822C52.3695 64.1097 53.8406 63.5813 55.6539 63.5813C57.4673 63.5813 58.9384 64.1277 58.9384 64.7822Z" fill="#000100"/>
</g>
<g style="mix-blend-mode:soft-light">
<path d="M18.8652 49.471C19.6879 44.2831 23.6688 19.3884 42.9973 13.1858C42.9973 13.1858 27.2895 18.9561 25.1579 43.5685C22.422 44.7202 20.1895 46.8143 18.8652 49.471Z" fill="#000100"/>
</g>
<g style="mix-blend-mode:overlay" opacity="0.2">
<path d="M18.8652 49.471C19.6879 44.2831 23.6688 19.3884 42.9973 13.1858C42.9973 13.1858 27.2895 18.9561 25.1579 43.5685C22.422 44.7202 20.1895 46.8143 18.8652 49.471Z" fill="#000100"/>
</g>
<g style="mix-blend-mode:soft-light">
<path d="M18.8652 49.471C19.6879 44.2831 23.6688 19.3884 42.9973 13.1858C42.9973 13.1858 27.2895 18.9561 25.1579 43.5685C22.422 44.7202 20.1895 46.8143 18.8652 49.471V49.471Z" stroke="#000100" stroke-width="1.69" stroke-linecap="round" stroke-linejoin="round"/>
</g>
<g style="mix-blend-mode:soft-light" opacity="0.1">
<path d="M68.0839 13.1858C68.0839 13.1858 82.8309 21.1418 85.0106 47.7177C85.0106 47.7177 88.0849 47.2613 89.586 49.2188C89.562 49.2188 86.2174 22.1925 68.0839 13.1858Z" fill="#000100"/>
<path d="M68.0839 13.1858C68.0839 13.1858 82.8309 21.1418 85.0106 47.7177C85.0106 47.7177 88.0849 47.2613 89.586 49.2188C89.562 49.2188 86.2174 22.1925 68.0839 13.1858Z" stroke="#000100" stroke-width="1.69" stroke-linecap="round" stroke-linejoin="round"/>
</g>
<g style="mix-blend-mode:soft-light">
<path d="M70.6355 51.1583C68.1849 51.1969 65.7462 51.507 63.364 52.083C62.6855 52.1962 62.0402 52.4571 61.4737 52.8472C60.9072 53.2373 60.4333 53.7472 60.0856 54.3406C58.9627 56.4722 60.0375 59.2884 60.5599 60.6394L60.644 60.8555C61.2444 62.3807 62.9677 67.0281 69.8189 67.2623H70.3412C76.0035 67.2623 78.8196 63.8758 78.9457 56.9046C78.9822 56.2333 78.8813 55.5616 78.649 54.9307C78.4166 54.2999 78.0578 53.7231 77.5947 53.2358C76.2316 51.8668 73.8899 51.1583 70.6355 51.1583Z" fill="#000100"/>
</g>
<g style="mix-blend-mode:soft-light">
<path d="M46.618 51.6805C44.2062 51.0989 41.7372 50.7868 39.2565 50.7498C35.954 50.7498 33.5823 51.4583 32.2012 52.8633C31.7312 53.355 31.3675 53.9382 31.133 54.5767C30.8985 55.2152 30.7981 55.8951 30.8382 56.5741C30.9583 63.6354 33.8404 67.07 39.5447 67.07H40.0731C47.0143 66.8298 48.7916 62.1223 49.3741 60.5791L49.4581 60.357C49.9805 58.9879 51.0794 56.1538 49.9385 53.9802C49.5871 53.3772 49.1076 52.8587 48.5339 52.4613C47.9601 52.0639 47.3061 51.7974 46.618 51.6805Z" fill="#000100"/>
</g>
<g style="mix-blend-mode:soft-light">
<path d="M47.0861 52.2331C52.31 53.4761 50.0884 58.6399 49.4339 60.3572C48.7794 62.0745 47.0321 66.2596 40.6553 66.4818C34.2785 66.704 32.1229 62.789 32.0088 56.5624C31.9188 49.9634 41.8622 50.9902 47.0861 52.2331ZM78.97 56.9046C78.8559 63.0532 76.7483 66.9081 70.4436 66.692C64.1389 66.4758 62.4336 62.3927 61.7791 60.6514C61.1246 58.9101 58.945 53.8663 64.0968 52.6414C69.2487 51.4165 79.0841 50.3957 78.97 56.9046ZM52.8324 51.5967C43.033 48.06 32.8194 49.4771 29.0907 50.1916C28.6732 50.2708 28.2972 50.4951 28.0291 50.8247C27.761 51.1543 27.6181 51.5681 27.6255 51.9929V53.6022C27.6331 53.8155 27.6876 54.0246 27.7852 54.2145C27.8827 54.4044 28.021 54.5705 28.19 54.701C28.4668 54.9539 28.6894 55.2603 28.8445 55.6016C30.6818 62.3507 30.4957 68.115 40.4451 68.2831C51.037 68.4633 51.9918 59.2224 53.4629 56.5083C53.4629 56.5083 55.4744 54.2026 57.63 56.5083L57.7201 56.6284C59.1852 59.3424 60.1219 68.5834 70.7378 68.4032C80.6873 68.2351 80.5011 62.4708 82.3325 55.7217C82.4909 55.3808 82.7154 55.0746 82.993 54.8211C83.1618 54.6903 83.2997 54.5242 83.3973 54.3343C83.4948 54.1445 83.5494 53.9355 83.5574 53.7222V52.107C83.5649 51.6822 83.4219 51.2684 83.1538 50.9388C82.8857 50.6092 82.5098 50.3849 82.0924 50.3057C78.3636 49.5851 68.1499 48.1681 58.3506 51.7107C56.5235 52.0601 54.6434 52.0212 52.8324 51.5967Z" fill="#000100"/>
</g>
<g style="mix-blend-mode:soft-light">
<path d="M86.1088 108.387C86.1088 108.135 86.1748 107.876 86.1808 107.63V106.886C86.1815 106.4 86.1514 105.915 86.0908 105.433C86.0247 104.97 85.9406 104.508 85.8566 104.052C85.7725 103.595 85.6224 103.193 85.5083 102.761C85.3885 102.353 85.2462 101.952 85.0821 101.56C83.9881 98.9313 82.4072 96.5335 80.4226 94.4924C79.6918 93.7212 78.9222 92.9877 78.1168 92.2947C77.4022 91.6943 76.7538 91.2079 76.2254 90.7876L74.5081 89.5867C74.3388 89.4751 74.1623 89.3748 73.9797 89.2865C72.2685 88.3798 69.8246 87.6773 68.3775 88.2117C66.9304 88.7461 66.4681 90.4453 66.0178 91.9044C65.6102 93.2922 65.6993 94.7786 66.2699 96.1076C66.5189 96.7312 66.8722 97.3079 67.3147 97.8129C67.7373 98.3115 68.256 98.7199 68.8399 99.0138L70.0888 99.7223C70.455 99.9745 70.9235 100.263 71.4338 100.617C71.9442 100.971 72.4966 101.398 73.031 101.896C74.1913 102.895 75.1669 104.09 75.9132 105.427C76.0013 105.577 76.0737 105.736 76.1293 105.901C76.2032 106.052 76.2654 106.209 76.3154 106.369C76.3512 106.518 76.3953 106.664 76.4476 106.808C76.4799 106.944 76.502 107.082 76.5136 107.222L76.5556 107.426C76.5556 107.492 76.5556 107.546 76.5556 107.606C76.5556 107.666 76.5556 107.858 76.5556 107.972C76.5556 108.087 76.5556 108.027 76.5556 108.051L85.4723 111.299C85.6284 110.825 85.7726 110.338 85.9047 109.852C86.0368 109.366 86.0367 108.897 86.1088 108.387Z" fill="#000100"/>
</g>
<g style="mix-blend-mode:soft-light">
<path d="M26.5562 108.387C26.5562 108.135 26.4901 107.876 26.4841 107.63V106.886C26.4835 106.4 26.5136 105.915 26.5742 105.433C26.6403 104.97 26.7243 104.508 26.8084 104.052C26.8925 103.595 27.0426 103.193 27.1566 102.761C27.2765 102.353 27.4188 101.952 27.583 101.56C28.6769 98.9313 30.2579 96.5335 32.2425 94.4924C32.9733 93.7212 33.7428 92.9877 34.5482 92.2947C35.2627 91.6943 35.9112 91.2079 36.4396 90.7876L38.1569 89.5867C38.3262 89.4751 38.5028 89.3748 38.6853 89.2865C40.3966 88.3798 42.8404 87.6773 44.2875 88.2117C45.7346 88.7461 46.197 90.4453 46.6473 91.9044C47.0555 93.2926 46.9641 94.7799 46.3891 96.1076C46.1445 96.7321 45.793 97.3091 45.3503 97.8129C44.9277 98.3115 44.409 98.7199 43.8251 99.0138L42.5762 99.7223C42.2099 99.9745 41.7416 100.263 41.2312 100.617C40.7208 100.971 40.1684 101.398 39.634 101.896C38.4737 102.895 37.4981 104.09 36.7519 105.427C36.6638 105.577 36.5913 105.736 36.5357 105.901C36.4618 106.052 36.3996 106.209 36.3496 106.369C36.3138 106.518 36.2697 106.664 36.2175 106.808C36.1852 106.944 36.1631 107.082 36.1514 107.222L36.1094 107.426C36.1094 107.492 36.1094 107.546 36.1094 107.606C36.1094 107.666 36.1094 107.858 36.1094 107.972C36.1094 108.087 36.1094 108.027 36.1094 108.051L27.1927 111.299C27.0366 110.825 26.8925 110.338 26.7604 109.852C26.6283 109.366 26.6282 108.897 26.5562 108.387Z" fill="#000100"/>
</g>
</g>
<path d="M25.4335 110.207C25.4363 110.189 25.4363 110.17 25.4335 110.153L34.3202 106.922C34.34 107.011 34.354 107.101 34.3622 107.192C34.3657 107.246 34.3779 107.299 34.3982 107.348C34.4059 107.395 34.4179 107.442 34.4342 107.487C34.4845 107.65 34.5616 107.804 34.6624 107.943C34.7899 108.12 34.9486 108.273 35.1307 108.393C35.7185 108.779 36.3748 109.048 37.0642 109.186C38.7945 109.521 40.5648 109.6 42.3181 109.42C43.3809 109.336 44.3476 109.198 45.1702 109.06L46.8575 116.836C45.8848 117.082 44.7199 117.352 43.3689 117.574C40.7934 118.043 38.162 118.122 35.5631 117.808C33.8107 117.588 32.1136 117.048 30.5553 116.217C28.6417 115.186 27.0751 113.613 26.052 111.696C25.9138 111.456 25.8058 111.209 25.6917 110.963C25.5897 110.717 25.5034 110.464 25.4335 110.207Z" fill="url(#paint0_linear_69_622)"/>
<path d="M83.6294 110.207C83.6266 110.189 83.6266 110.17 83.6294 110.153L74.7248 106.922C74.7049 107.011 74.6908 107.101 74.6827 107.192C74.6792 107.246 74.6671 107.299 74.6467 107.348C74.639 107.395 74.6269 107.442 74.6106 107.487C74.5603 107.65 74.4832 107.804 74.3825 107.943C74.2549 108.12 74.0962 108.273 73.9141 108.393C73.3264 108.779 72.67 109.048 71.9807 109.186C70.2504 109.521 68.48 109.6 66.7267 109.42C65.6639 109.336 64.6972 109.198 63.8746 109.06L62.1874 116.836C63.1601 117.082 64.3249 117.352 65.676 117.574C68.2514 118.043 70.8828 118.122 73.4818 117.808C75.2341 117.588 76.9313 117.048 78.4896 116.217C80.4021 115.185 81.9684 113.612 82.993 111.696C83.1311 111.456 83.2391 111.209 83.3532 110.963C83.4613 110.717 83.5536 110.464 83.6294 110.207Z" fill="url(#paint1_linear_69_622)"/>
<path d="M66.2708 85.672C62.512 84.8313 60.9148 83.8166 54.8623 83.8166C48.8098 83.8166 46.6121 84.8374 42.8533 85.672C40.4515 86.2004 38.5781 88.7343 38.5781 91.1721L39.779 109.108C36.6971 113.032 35.0262 117.88 35.0354 122.87H74.2809C74.2809 115.268 69.3391 109.108 69.3391 109.108L70.54 91.1721C70.546 88.7343 68.6486 86.2004 66.2708 85.672Z" fill="#FDD995"/>
<path d="M74.4189 82.4413H32.3694V124.269H74.4189V82.4413Z" fill="#E58D23"/>
<path d="M58.0625 79.4932H50.4968C48.161 79.4932 45.7293 81.7929 45.1589 84.6751C45.1589 84.7532 45.1588 84.8252 45.1168 84.8973C44.8194 86.298 45.0323 87.7588 45.7172 89.0163C46.732 90.8177 49.1998 93.0093 54.1235 93.0153C59.0472 93.0213 61.5932 90.8657 62.728 89.0824C63.5348 87.764 63.7975 86.1836 63.4606 84.6751C62.8541 81.7929 60.3983 79.4932 58.0625 79.4932Z" fill="#E58D23"/>
<path d="M60.74 94.3846H48.1305C44.5278 94.0903 43.5911 90.0073 44.3416 86.1824C45.0922 82.3576 47.1517 78.4486 49.6796 78.1724H58.9386C61.5085 78.4486 63.6401 82.3756 64.4267 86.1884C65.2133 90.0013 64.3187 94.0964 60.776 94.3906L60.74 94.3846ZM59.0527 79.3013H49.5896C47.6142 79.5174 45.9869 82.988 45.4405 86.2004C44.8941 89.4129 45.5966 93.0156 48.2866 93.2377H60.6019C63.2679 92.9855 63.9283 89.3888 63.3399 86.2004C62.7514 83.0121 61.0762 79.4934 59.0527 79.3013Z" fill="#CB7A22"/>
<path d="M59.6532 94.3846L59.437 93.2197C61.4786 93.0095 62.109 89.4849 61.6107 86.1824C61.1123 82.88 59.7133 79.4814 58.1821 79.2833C58.1821 78.911 58.1821 78.5387 58.1821 78.1724C60.3017 78.4546 62.079 82.3456 62.7335 86.1824C63.388 90.0193 62.6134 94.0843 59.6532 94.3846Z" fill="#CB7A22"/>
<path d="M57.9843 94.3728L57.6901 93.232C58.2906 93.1179 59.0471 90.4999 58.6568 86.1827C58.2665 81.8655 57.3058 79.3916 56.8555 79.2775C56.8555 78.9113 56.9215 78.545 56.9515 78.1787C58.6868 78.575 59.5875 84.3693 59.7676 86.1767C59.9478 87.9841 60.3801 93.9285 57.9843 94.3728Z" fill="#CB7A22"/>
<path d="M56.2852 94.3124C56.1111 93.9582 55.937 93.5979 55.7689 93.2436C55.7225 93.2584 55.6811 93.2854 55.6488 93.3217C56.5675 92.1208 55.979 80.1719 55.2705 79.1391C55.2982 79.1724 55.3331 79.1991 55.3726 79.2171L55.6968 78.1904C55.925 78.3345 56.6936 78.6347 57.174 86.1523C57.6543 93.67 56.5975 94.2224 56.2852 94.3124Z" fill="#CB7A22"/>
<path d="M52.5976 94.3124C52.2853 94.1984 51.2886 93.712 51.6429 86.1523C51.9971 78.5927 52.7597 78.3465 52.9879 78.1904C53.102 78.5326 53.2161 78.8749 53.3362 79.2111C53.3746 79.1942 53.4078 79.1672 53.4322 79.1331C52.7597 80.1659 52.3334 92.1148 53.2341 93.3277C53.2014 93.2904 53.1603 93.2615 53.114 93.2436C52.9339 93.6219 52.7717 93.9822 52.5976 94.3124Z" fill="#CB7A22"/>
<path d="M50.8872 94.3728C48.4854 93.9285 48.8457 87.954 49.0258 86.1767C49.206 84.3994 50.0106 78.575 51.7338 78.1787C51.7699 78.545 51.8119 78.9113 51.8479 79.2775C51.3856 79.3916 50.4729 81.8655 50.1246 86.1827C49.7764 90.4999 50.545 93.1179 51.1695 93.232C51.0794 93.6103 50.9833 93.9946 50.8872 94.3728Z" fill="#CB7A22"/>
<path d="M49.2175 94.3846C46.2513 94.0843 45.4586 90.0013 46.0711 86.1824C46.6835 82.3636 48.4008 78.4546 50.5144 78.1724C50.5144 78.5387 50.5144 78.911 50.5144 79.2833C48.9833 79.4814 47.6263 82.886 47.176 86.1824C46.7256 89.4789 47.3861 93.0095 49.4276 93.2197C49.3316 93.61 49.2835 93.9943 49.2175 94.3846Z" fill="#CB7A22"/>
<path d="M58.0625 79.4932H50.4968C48.161 79.4932 45.7293 81.7929 45.1589 84.6751C45.1589 84.7532 45.1588 84.8252 45.1168 84.8973C44.8194 86.298 45.0323 87.7588 45.7172 89.0163C46.732 90.8177 49.1998 93.0093 54.1235 93.0153C59.0472 93.0213 61.5932 90.8657 62.728 89.0824C63.5348 87.764 63.7975 86.1836 63.4606 84.6751C62.8541 81.7929 60.3983 79.4932 58.0625 79.4932Z" stroke="#CB7A22" stroke-miterlimit="10"/>
<path d="M60.1403 81.4806C59.4121 82.3265 58.5058 83.0009 57.4864 83.4556C56.4671 83.9103 55.3598 84.1339 54.2439 84.1106C53.1151 84.123 51.9995 83.867 50.989 83.3638C49.9785 82.8607 49.1019 82.1247 48.4315 81.2164C50.3148 80.6187 52.2696 80.2754 54.2439 80.1957C56.2652 80.3074 58.2557 80.7412 60.1403 81.4806Z" fill="#E2BA7A"/>
<path d="M62.6798 7.9259H44.7383C32.0749 7.9259 14.9801 28.9416 14.9801 47.4895C14.9801 66.0374 27.1091 76.8455 39.7726 76.8455C45.4589 76.8455 50.6528 71.9879 54.6638 66.9741C58.8669 73.435 64.7393 76.8455 71.2902 76.8455C83.9537 76.8455 93.6029 66.6379 93.6029 48.132C93.6029 29.6262 75.3372 7.9259 62.6798 7.9259Z" fill="#8C5347"/>
<path d="M63.9106 22.1082H45.4107C25.4397 22.1082 26.8808 55.4212 26.8808 55.4212V59.3661C26.8911 62.3688 27.4926 65.3401 28.6512 68.1103C29.8097 70.8805 31.5026 73.3954 33.633 75.5114C35.7635 77.6274 38.2899 79.303 41.0679 80.4426C43.846 81.5822 46.8213 82.1635 49.824 82.1532H59.119C62.1217 82.1635 65.097 81.5822 67.8751 80.4426C70.6531 79.303 73.1795 77.6274 75.31 75.5114C77.4404 73.3954 79.1333 70.8805 80.2918 68.1103C81.4504 65.3401 82.0519 62.3688 82.0622 59.3661V55.4572C82.0622 55.4572 83.8815 22.1082 63.9106 22.1082Z" fill="#FDD995"/>
<path d="M28.6701 55.5414C28.6701 59.2042 26.3344 62.1464 23.4522 62.1464C20.57 62.1464 18.2343 59.1801 18.2343 55.5414C18.2343 51.9027 20.57 48.9365 23.4522 48.9365C26.3344 48.9365 28.6701 51.8847 28.6701 55.5414Z" fill="#FDD995"/>
<path d="M90.1262 55.5414C90.1262 59.2042 87.7905 62.1464 84.9083 62.1464C82.0261 62.1464 79.6904 59.1801 79.6904 55.5414C79.6904 51.9027 82.0261 48.9365 84.9083 48.9365C87.7905 48.9365 90.1262 51.8847 90.1262 55.5414Z" fill="#FDD995"/>
<g opacity="0.2">
<path d="M58.129 62.7648C58.1306 62.8336 58.1184 62.9021 58.0932 62.9661C58.068 63.0301 58.0302 63.0885 57.9821 63.1377C57.934 63.187 57.8765 63.2261 57.8131 63.2528C57.7496 63.2795 57.6815 63.2932 57.6127 63.2932C57.5431 63.2948 57.4738 63.2825 57.409 63.2569C57.3443 63.2314 57.2853 63.1932 57.2355 63.1445C57.1857 63.0958 57.1461 63.0377 57.1191 62.9735C57.0921 62.9094 57.0782 62.8404 57.0782 62.7708C57.0798 62.6322 57.1351 62.4996 57.2325 62.401C57.33 62.3024 57.462 62.2455 57.6006 62.2424C57.6697 62.2416 57.7383 62.2545 57.8023 62.2804C57.8664 62.3063 57.9247 62.3447 57.9739 62.3933C58.023 62.4419 58.0621 62.4997 58.0887 62.5635C58.1153 62.6273 58.129 62.6957 58.129 62.7648Z" fill="#CD6215"/>
<path d="M62.3731 57.9193C62.3739 57.9879 62.3612 58.056 62.3356 58.1197C62.3101 58.1834 62.2723 58.2414 62.2244 58.2905C62.1764 58.3395 62.1192 58.3787 62.0562 58.4057C61.9931 58.4326 61.9253 58.4469 61.8567 58.4477C61.783 58.4556 61.7085 58.4479 61.6379 58.4251C61.5674 58.4023 61.5024 58.3649 61.4473 58.3153C61.3921 58.2658 61.348 58.2052 61.3178 58.1375C61.2876 58.0698 61.2721 57.9965 61.2721 57.9223C61.2721 57.8482 61.2876 57.7749 61.3178 57.7072C61.348 57.6395 61.3921 57.5789 61.4473 57.5293C61.5024 57.4797 61.5674 57.4424 61.6379 57.4195C61.7085 57.3967 61.783 57.389 61.8567 57.3969C61.9942 57.3985 62.1256 57.4542 62.2222 57.552C62.3189 57.6498 62.3731 57.7818 62.3731 57.9193Z" fill="#CD6215"/>
<path d="M59.8221 66.8359C59.8082 66.9656 59.7469 67.0855 59.6499 67.1727C59.5529 67.2599 59.4271 67.3081 59.2967 67.3081C59.1663 67.3081 59.0405 67.2599 58.9436 67.1727C58.8466 67.0855 58.7852 66.9656 58.7713 66.8359C58.7634 66.7622 58.7712 66.6877 58.794 66.6171C58.8168 66.5466 58.8541 66.4816 58.9037 66.4265C58.9532 66.3713 59.0139 66.3273 59.0816 66.2971C59.1493 66.2669 59.2226 66.2513 59.2967 66.2513C59.3708 66.2513 59.4442 66.2669 59.5119 66.2971C59.5796 66.3273 59.6402 66.3713 59.6897 66.4265C59.7393 66.4816 59.7767 66.5466 59.7995 66.6171C59.8223 66.6877 59.83 66.7622 59.8221 66.8359Z" fill="#CD6215"/>
<path d="M61.8874 61.2878C61.8874 61.4269 61.8325 61.5604 61.7347 61.6594C61.6369 61.7583 61.5041 61.8146 61.365 61.8162C61.2353 61.8023 61.1154 61.741 61.0282 61.644C60.941 61.547 60.8928 61.4212 60.8928 61.2908C60.8928 61.1604 60.941 61.0346 61.0282 60.9376C61.1154 60.8407 61.2353 60.7793 61.365 60.7654C61.5026 60.7685 61.6337 60.8245 61.731 60.9218C61.8283 61.0191 61.8843 61.1502 61.8874 61.2878Z" fill="#CD6215"/>
<path d="M66.871 59.2164C66.8722 59.3209 66.8424 59.4234 66.7854 59.5109C66.7283 59.5984 66.6465 59.6671 66.5504 59.7082C66.4544 59.7493 66.3483 59.7609 66.2455 59.7417C66.1428 59.7225 66.0481 59.6732 65.9734 59.6002C65.8986 59.5271 65.8472 59.4336 65.8257 59.3313C65.8041 59.229 65.8134 59.1227 65.8523 59.0257C65.8912 58.9287 65.958 58.8454 66.0442 58.7864C66.1304 58.7273 66.2321 58.6952 66.3366 58.694C66.4763 58.6939 66.6105 58.7486 66.7104 58.8462C66.8103 58.9439 66.8679 59.0767 66.871 59.2164Z" fill="#CD6215"/>
<path d="M64.2169 63.9056C64.2181 64.0101 64.1883 64.1126 64.1312 64.2001C64.0741 64.2877 63.9924 64.3563 63.8963 64.3974C63.8002 64.4385 63.6941 64.4502 63.5914 64.4309C63.4886 64.4117 63.3939 64.3625 63.3192 64.2894C63.2445 64.2164 63.1931 64.1228 63.1715 64.0205C63.15 63.9183 63.1592 63.8119 63.1981 63.7149C63.237 63.6179 63.3038 63.5346 63.39 63.4756C63.4762 63.4165 63.578 63.3844 63.6825 63.3832C63.7521 63.3816 63.8214 63.3939 63.8862 63.4195C63.9509 63.445 64.0099 63.4832 64.0597 63.5319C64.1095 63.5806 64.149 63.6387 64.176 63.7029C64.203 63.767 64.217 63.836 64.2169 63.9056Z" fill="#CD6215"/>
<path d="M68.6728 62.6567C68.6589 62.7864 68.5976 62.9063 68.5006 62.9935C68.4036 63.0807 68.2778 63.1289 68.1474 63.1289C68.017 63.1289 67.8913 63.0807 67.7943 62.9935C67.6973 62.9063 67.6359 62.7864 67.622 62.6567C67.6141 62.583 67.6219 62.5085 67.6447 62.4379C67.6675 62.3674 67.7048 62.3024 67.7544 62.2473C67.8039 62.1922 67.8646 62.1481 67.9323 62.1179C68 62.0877 68.0733 62.0721 68.1474 62.0721C68.2215 62.0721 68.2949 62.0877 68.3626 62.1179C68.4303 62.1481 68.4909 62.1922 68.5404 62.2473C68.59 62.3024 68.6274 62.3674 68.6502 62.4379C68.673 62.5085 68.6807 62.583 68.6728 62.6567Z" fill="#CD6215"/>
<path d="M72.6527 65.6528C72.6606 65.7265 72.6529 65.801 72.6301 65.8716C72.6073 65.9421 72.5698 66.007 72.5203 66.0622C72.4707 66.1173 72.4102 66.1614 72.3425 66.1916C72.2748 66.2218 72.2014 66.2374 72.1273 66.2374C72.0531 66.2374 71.9799 66.2218 71.9121 66.1916C71.8444 66.1614 71.7838 66.1173 71.7342 66.0622C71.6847 66.007 71.6473 65.9421 71.6245 65.8716C71.6017 65.801 71.594 65.7265 71.6019 65.6528C71.6003 65.5839 71.6125 65.5155 71.6377 65.4515C71.663 65.3874 71.7007 65.3291 71.7488 65.2798C71.7969 65.2306 71.8544 65.1915 71.9179 65.1648C71.9813 65.1381 72.0494 65.1243 72.1183 65.1244C72.1881 65.1236 72.2575 65.1366 72.3223 65.1628C72.3871 65.189 72.4461 65.2278 72.4958 65.277C72.5455 65.3261 72.585 65.3846 72.6119 65.4492C72.6388 65.5137 72.6527 65.5829 72.6527 65.6528Z" fill="#CD6215"/>
<path d="M72.1065 63.8215C72.1144 63.8952 72.1067 63.9697 72.0839 64.0403C72.0611 64.1108 72.0237 64.1757 71.9742 64.2309C71.9246 64.286 71.864 64.3301 71.7963 64.3603C71.7286 64.3905 71.6553 64.4061 71.5811 64.4061C71.507 64.4061 71.4336 64.3905 71.3659 64.3603C71.2982 64.3301 71.2377 64.286 71.1881 64.2309C71.1386 64.1757 71.1011 64.1108 71.0783 64.0403C71.0555 63.9697 71.0479 63.8952 71.0557 63.8215C71.0696 63.6918 71.1309 63.5718 71.2279 63.4847C71.3249 63.3975 71.4507 63.3493 71.5811 63.3493C71.7115 63.3493 71.8373 63.3975 71.9343 63.4847C72.0313 63.5718 72.0927 63.6918 72.1065 63.8215Z" fill="#CD6215"/>
<path d="M74.6224 64.326C74.6236 64.4307 74.5937 64.5334 74.5363 64.6211C74.479 64.7088 74.3969 64.7775 74.3005 64.8184C74.204 64.8593 74.0976 64.8706 73.9947 64.8509C73.8918 64.8312 73.7971 64.7814 73.7226 64.7077C73.6481 64.6341 73.5972 64.5399 73.5763 64.4373C73.5554 64.3346 73.5655 64.2281 73.6053 64.1312C73.6451 64.0343 73.7129 63.9514 73.7999 63.893C73.8869 63.8347 73.9893 63.8036 74.094 63.8036C74.1632 63.8028 74.2318 63.8157 74.2958 63.8416C74.3599 63.8675 74.4182 63.9058 74.4674 63.9544C74.5165 64.003 74.5555 64.0609 74.5821 64.1246C74.6088 64.1884 74.6225 64.2568 74.6224 64.326Z" fill="#CD6215"/>
<path d="M72.5755 58.3395C72.5616 58.4691 72.5003 58.5891 72.4033 58.6762C72.3063 58.7634 72.1805 58.8116 72.0501 58.8116C71.9197 58.8116 71.794 58.7634 71.697 58.6762C71.6 58.5891 71.5386 58.4691 71.5247 58.3395C71.5168 58.2657 71.5246 58.1912 71.5474 58.1207C71.5702 58.0501 71.6075 57.9852 71.6571 57.93C71.7067 57.8749 71.7673 57.8308 71.835 57.8006C71.9027 57.7704 71.976 57.7548 72.0501 57.7548C72.1243 57.7548 72.1976 57.7704 72.2653 57.8006C72.333 57.8308 72.3936 57.8749 72.4431 57.93C72.4927 57.9852 72.5301 58.0501 72.5529 58.1207C72.5757 58.1912 72.5834 58.2657 72.5755 58.3395Z" fill="#CD6215"/>
<path d="M79.1924 59.4866C79.1785 59.6163 79.1172 59.7363 79.0202 59.8234C78.9232 59.9106 78.7974 59.9588 78.667 59.9588C78.5366 59.9588 78.4108 59.9106 78.3138 59.8234C78.2169 59.7363 78.1555 59.6163 78.1416 59.4866C78.1416 59.347 78.1962 59.2128 78.2938 59.1129C78.3915 59.0131 78.5243 58.9554 78.664 58.9522C78.7341 58.9514 78.8037 58.9647 78.8686 58.9914C78.9334 59.018 78.9923 59.0574 79.0416 59.1073C79.0909 59.1572 79.1297 59.2165 79.1556 59.2816C79.1815 59.3468 79.194 59.4165 79.1924 59.4866Z" fill="#CD6215"/>
<path d="M28.6162 60.5851C28.6162 60.6882 28.5857 60.7889 28.5285 60.8747C28.4714 60.9605 28.3902 61.0274 28.2951 61.0672C28.2 61.1069 28.0952 61.1176 27.9941 61.0979C27.8929 61.0782 27.7998 61.029 27.7265 60.9566C27.6532 60.8841 27.603 60.7916 27.5822 60.6907C27.5614 60.5897 27.5708 60.4849 27.6095 60.3893C27.6481 60.2938 27.7141 60.2118 27.7992 60.1537C27.8843 60.0956 27.9847 60.0639 28.0878 60.0627C28.2269 60.0627 28.3604 60.1176 28.4593 60.2154C28.5583 60.3132 28.6146 60.446 28.6162 60.5851Z" fill="#CD6215"/>
<path d="M34.8368 60.5192C34.8384 60.5883 34.8263 60.657 34.8011 60.7214C34.776 60.7858 34.7383 60.8445 34.6902 60.8942C34.6422 60.944 34.5848 60.9836 34.5213 61.011C34.4578 61.0383 34.3896 61.0528 34.3205 61.0536C34.2467 61.0615 34.1722 61.0538 34.1017 61.031C34.0311 61.0082 33.9662 60.9708 33.911 60.9212C33.8559 60.8717 33.8118 60.8111 33.7816 60.7434C33.7514 60.6757 33.7358 60.6023 33.7358 60.5282C33.7358 60.4541 33.7514 60.3808 33.7816 60.3131C33.8118 60.2453 33.8559 60.1847 33.911 60.1352C33.9662 60.0856 34.0311 60.0482 34.1017 60.0254C34.1722 60.0026 34.2467 59.9949 34.3205 60.0028C34.4574 60.0028 34.5888 60.0572 34.6856 60.1541C34.7825 60.2509 34.8368 60.3823 34.8368 60.5192Z" fill="#CD6215"/>
<path d="M34.8131 57.6489C34.8131 57.7886 34.7585 57.9228 34.6608 58.0226C34.5632 58.1225 34.4303 58.1802 34.2907 58.1833C34.1862 58.1845 34.0837 58.1547 33.9962 58.0976C33.9086 58.0405 33.84 57.9588 33.7989 57.8627C33.7578 57.7666 33.7461 57.6605 33.7654 57.5578C33.7846 57.4551 33.8339 57.3604 33.9069 57.2856C33.98 57.2109 34.0735 57.1595 34.1758 57.1379C34.278 57.1164 34.3844 57.1256 34.4814 57.1645C34.5784 57.2034 34.6617 57.2702 34.7207 57.3564C34.7798 57.4427 34.8119 57.5444 34.8131 57.6489Z" fill="#CD6215"/>
<path d="M40.2889 64.6682C40.2889 64.8079 40.2343 64.942 40.1367 65.0419C40.039 65.1418 39.9062 65.1995 39.7665 65.2026C39.662 65.2038 39.5596 65.174 39.472 65.1169C39.3845 65.0598 39.3158 64.9781 39.2747 64.882C39.2336 64.7859 39.222 64.6798 39.2412 64.5771C39.2604 64.4744 39.3097 64.3796 39.3827 64.3049C39.4558 64.2302 39.5493 64.1788 39.6516 64.1572C39.7538 64.1357 39.8602 64.1449 39.9572 64.1838C40.0542 64.2227 40.1375 64.2895 40.1966 64.3757C40.2556 64.4619 40.2877 64.5637 40.2889 64.6682Z" fill="#CD6215"/>
<path d="M35.4131 65.2448C35.4155 65.3498 35.3866 65.4531 35.33 65.5416C35.2734 65.63 35.1917 65.6996 35.0954 65.7415C34.9991 65.7833 34.8925 65.7955 34.7892 65.7765C34.6859 65.7575 34.5907 65.7081 34.5156 65.6347C34.4405 65.5613 34.3889 65.4672 34.3675 65.3644C34.3461 65.2616 34.3559 65.1547 34.3955 65.0575C34.4351 64.9602 34.5028 64.877 34.59 64.8184C34.6771 64.7598 34.7797 64.7285 34.8847 64.7284C34.9533 64.7276 35.0214 64.7404 35.0851 64.7659C35.1488 64.7914 35.2068 64.8292 35.2559 64.8772C35.3049 64.9251 35.3441 64.9823 35.3711 65.0454C35.3981 65.1084 35.4123 65.1762 35.4131 65.2448Z" fill="#CD6215"/>
<path d="M44.528 58.6218C44.5303 58.7267 44.5014 58.8301 44.4448 58.9185C44.3882 59.007 44.3065 59.0766 44.2102 59.1184C44.1139 59.1602 44.0073 59.1724 43.9041 59.1534C43.8008 59.1344 43.7055 59.0851 43.6304 59.0117C43.5553 58.9383 43.5038 58.8442 43.4824 58.7413C43.461 58.6385 43.4708 58.5317 43.5104 58.4344C43.55 58.3372 43.6176 58.2539 43.7048 58.1953C43.7919 58.1367 43.8945 58.1054 43.9996 58.1054C44.0684 58.1038 44.1368 58.1159 44.2008 58.1412C44.2649 58.1664 44.3233 58.2042 44.3725 58.2523C44.4217 58.3004 44.4608 58.3579 44.4875 58.4213C44.5142 58.4848 44.528 58.5529 44.528 58.6218Z" fill="#CD6215"/>
<path d="M48.1305 65.6409C48.1321 65.71 48.12 65.7787 48.0948 65.8431C48.0696 65.9075 48.0319 65.9662 47.9839 66.0159C47.9359 66.0656 47.8784 66.1053 47.815 66.1327C47.7515 66.16 47.6832 66.1745 47.6141 66.1753C47.4744 66.1753 47.3403 66.1206 47.2405 66.023C47.1406 65.9254 47.0829 65.7925 47.0797 65.6529C47.0936 65.5232 47.1549 65.4033 47.2519 65.3161C47.3489 65.2289 47.4747 65.1807 47.6051 65.1807C47.7355 65.1807 47.8613 65.2289 47.9583 65.3161C48.0553 65.4033 48.1166 65.5232 48.1305 65.6529V65.6409Z" fill="#CD6215"/>
<path d="M40.7331 59.9366C40.7347 60.0055 40.7225 60.0739 40.6972 60.1379C40.672 60.202 40.6342 60.2603 40.5861 60.3096C40.538 60.3588 40.4805 60.3979 40.4171 60.4246C40.3536 60.4513 40.2855 60.4651 40.2166 60.465C40.1116 60.4674 40.0084 60.4385 39.9199 60.3819C39.8315 60.3253 39.7619 60.2436 39.72 60.1473C39.6782 60.051 39.666 59.9444 39.685 59.8411C39.704 59.7378 39.7534 59.6426 39.8268 59.5675C39.9002 59.4924 39.9943 59.4408 40.0971 59.4195C40.1999 59.3981 40.3067 59.4078 40.404 59.4474C40.5012 59.487 40.5845 59.5547 40.6431 59.6419C40.7017 59.729 40.733 59.8316 40.7331 59.9366Z" fill="#CD6215"/>
<path d="M50.5328 62.3143C50.5189 62.444 50.4576 62.5639 50.3606 62.6511C50.2636 62.7382 50.1378 62.7865 50.0074 62.7865C49.877 62.7865 49.7512 62.7382 49.6542 62.6511C49.5572 62.5639 49.4959 62.444 49.482 62.3143C49.4741 62.2406 49.4818 62.166 49.5047 62.0955C49.5275 62.025 49.5648 61.96 49.6144 61.9049C49.6639 61.8497 49.7246 61.8056 49.7923 61.7755C49.86 61.7453 49.9333 61.7297 50.0074 61.7297C50.0815 61.7297 50.1548 61.7453 50.2225 61.7755C50.2902 61.8056 50.3509 61.8497 50.4004 61.9049C50.45 61.96 50.4873 62.025 50.5101 62.0955C50.5329 62.166 50.5407 62.2406 50.5328 62.3143Z" fill="#CD6215"/>
<path d="M43.1591 62.3863C43.1592 62.526 43.1045 62.6601 43.0069 62.76C42.9093 62.8599 42.7764 62.9176 42.6368 62.9207C42.5323 62.9219 42.4298 62.8921 42.3423 62.835C42.2547 62.7779 42.186 62.6962 42.1449 62.6001C42.1039 62.504 42.0922 62.3979 42.1114 62.2951C42.1307 62.1924 42.1799 62.0977 42.253 62.023C42.326 61.9483 42.4196 61.8969 42.5218 61.8753C42.6241 61.8538 42.7304 61.863 42.8274 61.9019C42.9244 61.9408 43.0077 62.0076 43.0668 62.0938C43.1258 62.18 43.158 62.2818 43.1591 62.3863Z" fill="#CD6215"/>
<path d="M45.0264 66.4576C45.0343 66.5313 45.0267 66.6059 45.0039 66.6764C44.9811 66.747 44.9436 66.8119 44.8941 66.8671C44.8445 66.9222 44.784 66.9663 44.7162 66.9965C44.6485 67.0267 44.5752 67.0423 44.501 67.0423C44.4269 67.0423 44.3536 67.0267 44.2859 66.9965C44.2182 66.9663 44.1576 66.9222 44.108 66.8671C44.0585 66.8119 44.0211 66.747 43.9983 66.6764C43.9755 66.6059 43.9678 66.5313 43.9757 66.4576C43.9895 66.328 44.0509 66.208 44.1479 66.1209C44.2449 66.0337 44.3706 65.9855 44.501 65.9855C44.6314 65.9855 44.7573 66.0337 44.8543 66.1209C44.9513 66.208 45.0126 66.328 45.0264 66.4576Z" fill="#CD6215"/>
<path d="M49.2242 58.0512C49.2258 58.1201 49.2137 58.1885 49.1885 58.2525C49.1632 58.3166 49.1255 58.3749 49.0774 58.4242C49.0293 58.4734 48.9718 58.5125 48.9083 58.5392C48.8449 58.5659 48.7767 58.5796 48.7079 58.5796C48.6383 58.5812 48.5691 58.5689 48.5043 58.5434C48.4396 58.5178 48.3805 58.4796 48.3307 58.4309C48.2809 58.3823 48.2414 58.3241 48.2144 58.26C48.1874 58.1958 48.1734 58.1269 48.1735 58.0572C48.175 57.9186 48.2304 57.786 48.3278 57.6874C48.4253 57.5888 48.5572 57.532 48.6959 57.5288C48.765 57.528 48.8336 57.541 48.8976 57.5669C48.9617 57.5928 49.02 57.6311 49.0692 57.6797C49.1183 57.7283 49.1573 57.7862 49.1839 57.8499C49.2106 57.9137 49.2243 57.9821 49.2242 58.0512Z" fill="#CD6215"/>
</g>
<path d="M58.1044 71.4952C58.1044 72.582 56.201 73.4646 53.8533 73.4646C51.5055 73.4646 49.6021 72.582 49.6021 71.4952C49.6021 70.4083 51.5055 70.7266 53.8533 70.7266C56.201 70.7266 58.1044 70.4203 58.1044 71.4952Z" fill="#F18F73"/>
<path d="M55.9368 67.8928C55.0602 67.8928 54.2976 68.7515 53.8713 69.1358C53.439 68.7515 52.6704 67.8928 51.7997 67.8928C50.4547 67.8928 48.7975 69.0937 48.7975 69.8443C48.7975 70.5948 50.4847 71.1953 51.7997 71.1953C51.9258 71.1953 52.0519 71.1953 52.172 71.1953C53.3028 71.0992 54.4398 71.0992 55.5706 71.1953C55.6907 71.1953 55.8168 71.1953 55.9368 71.1953C57.2818 71.1953 58.9752 70.5948 58.9752 69.8443C58.9752 69.0937 57.2638 67.8928 55.9368 67.8928Z" fill="#CC553A"/>
<path d="M42.2526 68.0847C42.4663 67.8879 42.7492 67.7837 43.0396 67.795C43.3299 67.8062 43.6039 67.932 43.8018 68.1448C43.8678 68.2048 46.4257 70.7387 53.3729 70.7387C60.3201 70.7387 62.9201 68.1688 62.9801 68.1448C63.1806 67.9333 63.4565 67.8096 63.7478 67.8006C64.0391 67.7916 64.3221 67.898 64.5352 68.0967" stroke="#CC553A" stroke-width="2" stroke-linecap="round" stroke-linejoin="round"/>
<path d="M42.2585 55.8357C42.2249 56.5672 41.9106 57.2575 41.3811 57.7632C40.8516 58.269 40.1476 58.5512 39.4154 58.5512C38.6832 58.5512 37.9791 58.269 37.4496 57.7632C36.9201 57.2575 36.6059 56.5672 36.5723 55.8357V54.5988C36.6059 53.8674 36.9201 53.177 37.4496 52.6713C37.9791 52.1656 38.6832 51.8834 39.4154 51.8834C40.1476 51.8834 40.8516 52.1656 41.3811 52.6713C41.9106 53.177 42.2249 53.8674 42.2585 54.5988V55.8357Z" fill="#433325"/>
<path d="M70.1794 55.8357C70.1458 56.5672 69.8315 57.2575 69.302 57.7632C68.7725 58.269 68.0685 58.5512 67.3363 58.5512C66.6041 58.5512 65.9 58.269 65.3705 57.7632C64.841 57.2575 64.5268 56.5672 64.4932 55.8357V54.5988C64.5268 53.8674 64.841 53.177 65.3705 52.6713C65.9 52.1656 66.6041 51.8834 67.3363 51.8834C68.0685 51.8834 68.7725 52.1656 69.302 52.6713C69.8315 53.177 70.1458 53.8674 70.1794 54.5988V55.8357Z" fill="#433325"/>
<path d="M37.0109 55.0129C36.2427 55.0129 35.506 54.7081 34.9623 54.1655C34.4186 53.623 34.1123 52.8868 34.1107 52.1187C34.1107 51.9594 34.174 51.8067 34.2866 51.6941C34.3992 51.5815 34.5519 51.5182 34.7112 51.5182C34.8704 51.5182 35.0231 51.5815 35.1357 51.6941C35.2483 51.8067 35.3116 51.9594 35.3116 52.1187C35.3116 52.5678 35.49 52.9985 35.8075 53.316C36.1251 53.6336 36.5558 53.812 37.0049 53.812C37.1641 53.812 37.3169 53.8752 37.4295 53.9878C37.5421 54.1004 37.6053 54.2532 37.6053 54.4124C37.6053 54.5717 37.5421 54.7244 37.4295 54.837C37.3169 54.9496 37.1641 55.0129 37.0049 55.0129H37.0109Z" fill="#433325"/>
<path d="M69.639 55.0129C70.4072 55.0129 71.144 54.7081 71.6877 54.1655C72.2314 53.623 72.5377 52.8868 72.5392 52.1187C72.5392 51.9594 72.4759 51.8067 72.3633 51.6941C72.2507 51.5815 72.098 51.5182 71.9388 51.5182C71.7795 51.5182 71.6268 51.5815 71.5142 51.6941C71.4016 51.8067 71.3383 51.9594 71.3383 52.1187C71.3368 52.5683 71.157 52.999 70.8385 53.3164C70.52 53.6338 70.0887 53.812 69.639 53.812C69.4798 53.812 69.3271 53.8752 69.2145 53.9878C69.1019 54.1004 69.0386 54.2532 69.0386 54.4124C69.0386 54.5717 69.1019 54.7244 69.2145 54.837C69.3271 54.9496 69.4798 55.0129 69.639 55.0129Z" fill="#433325"/>
<path d="M42.4625 45.076C42.299 45.009 42.1223 44.9802 41.9461 44.9919H35.3892C35.0342 45.0342 34.7098 45.2137 34.4854 45.4919C34.261 45.7702 34.1544 46.1252 34.1883 46.481C34.1585 46.8387 34.2661 47.1942 34.4892 47.4753C34.7123 47.7564 35.0341 47.942 35.3892 47.9942H41.9461C42.3009 47.949 42.6244 47.7679 42.8483 47.489C43.0723 47.2102 43.1794 46.8553 43.147 46.4991C43.169 46.2225 43.1173 45.945 42.9971 45.695C42.8768 45.445 42.6924 45.2314 42.4625 45.076Z" fill="#8C5347"/>
<path d="M71.2721 45.076C71.1087 45.009 70.932 44.9802 70.7558 44.9919H64.2048C63.8511 45.0371 63.5287 45.2173 63.3048 45.4949C63.081 45.7724 62.9732 46.1258 63.0039 46.481C62.9749 46.8441 63.0875 47.2044 63.318 47.4864C63.5486 47.7684 63.8792 47.9504 64.2408 47.9942H70.7918C71.1466 47.949 71.47 47.7679 71.694 47.489C71.918 47.2102 72.0251 46.8553 71.9927 46.4991C72.0122 46.2189 71.9556 45.9387 71.8288 45.6881C71.7019 45.4376 71.5095 45.226 71.2721 45.076Z" fill="#8C5347"/>
<path d="M79.7325 62.579C79.5871 62.5599 79.4537 62.4883 79.3575 62.3777C79.2612 62.2671 79.2088 62.1251 79.2101 61.9785C79.084 55.4937 79.162 41.4071 79.174 40.0741C77.9731 36.4294 78.2494 36.0211 78.4055 35.7929C78.4694 35.7049 78.5534 35.6333 78.6505 35.5843C78.7476 35.5352 78.8551 35.51 78.9639 35.5107C79.4382 35.5107 79.8826 35.5107 83.2031 42.0796C83.2401 42.1505 83.2625 42.2281 83.2691 42.3078C84.1818 54.647 83.7255 55.1394 83.4252 55.4636C83.3623 55.5334 83.2854 55.5893 83.1996 55.6275C83.1137 55.6658 83.0208 55.6857 82.9268 55.6858C82.7886 55.691 82.6521 55.655 82.5345 55.5822C82.4168 55.5095 82.3235 55.4034 82.2663 55.2775L80.3869 62.1226C80.3517 62.2536 80.2733 62.3688 80.1643 62.4495C80.0552 62.5302 79.922 62.5716 79.7865 62.567L79.7325 62.579Z" fill="#8C5347"/>
<path d="M78.9643 36.1289C79.2706 36.1289 80.2613 37.6 82.6691 42.3676C83.4317 52.6833 83.2695 55.1032 82.9273 55.1032C82.585 55.1032 82.2128 53.2177 82.2128 53.2177L79.811 61.9843C79.6789 55.1392 79.7749 39.9958 79.7749 39.9958C79.7749 39.9958 78.466 36.1289 78.9643 36.1289ZM78.9643 34.928C78.7603 34.9278 78.559 34.9761 78.3774 35.069C78.1957 35.1619 78.0387 35.2968 77.9195 35.4624C77.6253 35.8768 77.3191 36.3391 78.574 40.188C78.574 41.9893 78.484 55.6496 78.6101 62.0083C78.6078 62.3024 78.7135 62.5872 78.9072 62.8085C79.1008 63.0299 79.369 63.1725 79.6609 63.2092H79.811C80.0742 63.2094 80.3302 63.1231 80.5396 62.9637C80.7489 62.8042 80.9001 62.5803 80.9698 62.3266L82.621 56.3221C82.7229 56.3315 82.8254 56.3315 82.9273 56.3221C83.1035 56.3213 83.2778 56.2841 83.439 56.2128C83.6002 56.1415 83.7449 56.0376 83.864 55.9078C84.3444 55.3914 84.8007 54.899 83.864 42.2956C83.8519 42.1386 83.8091 41.9856 83.7379 41.8452C82.6031 39.5935 81.7024 37.9183 81.0539 36.8555C80.2493 35.5345 79.7569 34.9461 78.9643 34.9461V34.928Z" fill="#8C5347"/>
<path d="M26.1481 63.1851C26.0239 63.1846 25.903 63.1457 25.802 63.0736C25.7009 63.0016 25.6246 62.9 25.5836 62.7828L23.6442 57.1686C23.5117 57.2949 23.3348 57.3639 23.1518 57.3608C23.0515 57.3604 22.9523 57.3395 22.8603 57.2992C22.7684 57.2589 22.6857 57.2001 22.6174 57.1266C22.3052 56.7843 21.7107 56.1479 22.6955 42.926C22.7002 42.8467 22.7206 42.7691 22.7555 42.6978C26.076 36.1289 26.5204 36.1289 26.9947 36.1289C27.1035 36.1281 27.211 36.1534 27.3081 36.2024C27.4052 36.2515 27.4892 36.323 27.5531 36.4111C27.7152 36.6392 28.0094 37.0475 26.7905 40.6923C26.7905 42.0253 26.8746 56.1118 26.7485 62.5967C26.7504 62.7406 26.7004 62.8804 26.6079 62.9906C26.5153 63.1008 26.3862 63.1741 26.2442 63.1971L26.1481 63.1851Z" fill="#8C5347"/>
<path d="M26.9948 36.7296C27.4932 36.7296 26.1841 40.5965 26.1841 40.5965C26.1841 40.5965 26.2862 55.7398 26.1481 62.585L23.7463 55.6197C23.7463 55.6197 23.4281 56.7606 23.1459 56.7606C22.7436 56.7606 22.4374 54.4128 23.284 42.9503C25.6858 38.1827 26.6886 36.7116 26.9888 36.7116L26.9948 36.7296ZM26.9888 35.5107C26.1962 35.5107 25.7038 36.1111 24.8992 37.4201C24.2568 38.4829 23.35 40.1582 22.2152 42.4098C22.144 42.5502 22.1012 42.7033 22.0891 42.8602C21.0863 56.3463 21.6928 56.9948 22.1732 57.5172C22.2968 57.652 22.4471 57.7595 22.6146 57.8329C22.7821 57.9063 22.963 57.944 23.1459 57.9435H23.278L25.0073 62.9632C25.0885 63.1997 25.2416 63.4049 25.445 63.5502C25.6484 63.6955 25.8921 63.7737 26.1421 63.7739H26.3342C26.6123 63.7288 26.8657 63.5875 27.0501 63.3745C27.2345 63.1616 27.3382 62.8906 27.343 62.609C27.4691 56.2502 27.391 42.608 27.385 40.7886C28.664 36.9398 28.3338 36.4774 28.0336 36.0631C27.9144 35.8975 27.7574 35.7626 27.5758 35.6697C27.3941 35.5767 27.1929 35.5284 26.9888 35.5287V35.5107Z" fill="#8C5347"/>
<path d="M23.2544 41.7853C23.2544 41.7853 26.701 42.3857 33.33 42.824C34.0265 42.8721 34.7531 35.7087 35.5216 35.7567C36.2902 35.8048 36.2662 41.8453 37.7313 43.0762C41.0638 45.8923 48.2812 43.4425 55.1804 43.3404C55.6247 43.3404 56.075 34.3337 56.5254 34.3337C57.0718 34.3337 56.4413 41.8273 58.1766 43.3404C59.9119 44.8536 64.091 43.1303 67.6517 42.9441C67.9459 42.9441 68.8526 36.9036 69.1348 36.8916C69.417 36.8796 69.2729 41.9174 70.4798 42.8541C72.8816 44.7275 78.1956 42.3016 82.711 41.8873C82.711 41.8873 85.5991 9.49306 51.8899 10.3457C21.0508 11.0722 23.2544 41.7853 23.2544 41.7853Z" fill="#8C5347"/>
<g opacity="0.1">
<path d="M28.472 44.6671C28.472 44.6671 25.6858 16.0737 48.4069 11.9846C48.4069 11.9846 31.1379 15.5033 31.7624 45.3696L28.472 44.6671Z" fill="white"/>
<path style="mix-blend-mode:overlay" opacity="0.2" d="M28.472 44.6671C28.472 44.6671 25.6858 16.0737 48.4069 11.9846C48.4069 11.9846 31.1379 15.5033 31.7624 45.3696L28.472 44.6671Z" fill="url(#paint2_linear_69_622)"/>
<path d="M28.472 44.6671C28.472 44.6671 25.6858 16.0737 48.4069 11.9846C48.4069 11.9846 31.1379 15.5033 31.7624 45.3696L28.472 44.6671Z" stroke="white" stroke-width="1.69" stroke-linecap="round" stroke-linejoin="round"/>
</g>
<g opacity="0.1">
<path d="M39.3407 44.3128C39.3407 44.3128 33.8766 25.879 49.5844 14.6386C49.5844 14.6386 37.8695 24.2878 42.6251 45.0154L39.3407 44.3128Z" fill="white"/>
<path style="mix-blend-mode:overlay" opacity="0.2" d="M39.3407 44.3128C39.3407 44.3128 33.8766 25.879 49.5844 14.6386C49.5844 14.6386 37.8695 24.2878 42.6251 45.0154L39.3407 44.3128Z" fill="url(#paint3_linear_69_622)"/>
<path d="M39.3407 44.3128C39.3407 44.3128 33.8766 25.879 49.5844 14.6386C49.5844 14.6386 37.8695 24.2878 42.6251 45.0154L39.3407 44.3128Z" stroke="white" stroke-width="1.69" stroke-linecap="round" stroke-linejoin="round"/>
</g>
<g opacity="0.1">
<path d="M75.9794 43.6643C75.9794 43.6643 78.7534 15.0529 56.0504 10.9879C56.0504 10.9879 73.3194 14.5065 72.6949 44.3729L75.9794 43.6643Z" fill="white"/>
<path style="mix-blend-mode:overlay" opacity="0.2" d="M75.9794 43.6643C75.9794 43.6643 78.7534 15.0529 56.0504 10.9879C56.0504 10.9879 73.3194 14.5065 72.6949 44.3729L75.9794 43.6643Z" fill="url(#paint4_linear_69_622)"/>
<path d="M75.9794 43.6643C75.9794 43.6643 78.7534 15.0529 56.0504 10.9879C56.0504 10.9879 73.3194 14.5065 72.6949 44.3729L75.9794 43.6643Z" stroke="white" stroke-width="1.69" stroke-linecap="round" stroke-linejoin="round"/>
</g>
<g opacity="0.1">
<path d="M65.1177 43.3159C65.1177 43.3159 70.5818 24.8761 54.874 13.6357C54.874 13.6357 66.5888 23.2849 61.8273 44.0184L65.1177 43.3159Z" fill="white"/>
<path style="mix-blend-mode:overlay" opacity="0.2" d="M65.1177 43.3159C65.1177 43.3159 70.5818 24.8761 54.874 13.6357C54.874 13.6357 66.5888 23.2849 61.8273 44.0184L65.1177 43.3159Z" fill="url(#paint5_linear_69_622)"/>
<path d="M65.1177 43.3159C65.1177 43.3159 70.5818 24.8761 54.874 13.6357C54.874 13.6357 66.5888 23.2849 61.8273 44.0184L65.1177 43.3159Z" stroke="white" stroke-width="1.69" stroke-linecap="round" stroke-linejoin="round"/>
</g>
<g opacity="0.1">
<path d="M48.1311 44.4752C48.1311 44.4752 48.1971 24.4623 50.8151 17.5211C50.8151 17.5211 50.5509 41.7672 51.1394 44.5413C51.7278 47.3154 48.1311 44.4752 48.1311 44.4752Z" fill="white"/>
<path style="mix-blend-mode:overlay" opacity="0.2" d="M48.1311 44.4752C48.1311 44.4752 48.1971 24.4623 50.8151 17.5211C50.8151 17.5211 50.5509 41.7672 51.1394 44.5413C51.7278 47.3154 48.1311 44.4752 48.1311 44.4752Z" fill="url(#paint6_linear_69_622)"/>
<path d="M48.1311 44.4752C48.1311 44.4752 48.1971 24.4623 50.8151 17.5211C50.8151 17.5211 50.5509 41.7672 51.1394 44.5413C51.7278 47.3154 48.1311 44.4752 48.1311 44.4752Z" stroke="white" stroke-width="1.69" stroke-linecap="round" stroke-linejoin="round"/>
</g>
<path d="M23.2544 41.7853C23.2544 41.7853 26.701 42.3857 33.33 42.824C34.0265 42.8721 34.7531 35.7087 35.5216 35.7567C36.2902 35.8048 36.2662 41.8453 37.7313 43.0762C41.0638 45.8923 48.2812 43.4425 55.1804 43.3404C55.6247 43.3404 56.075 34.3337 56.5254 34.3337C57.0718 34.3337 56.4413 41.8273 58.1766 43.3404C59.9119 44.8536 64.091 43.1303 67.6517 42.9441C67.9459 42.9441 68.8526 36.9036 69.1348 36.8916C69.417 36.8796 69.2729 41.9174 70.4798 42.8541C72.8816 44.7275 78.1956 42.3016 82.711 41.8873C82.711 41.8873 85.5991 9.49306 51.8899 10.3457C21.0508 11.0722 23.2544 41.7853 23.2544 41.7853Z" stroke="#8C5347" stroke-width="3" stroke-linejoin="round"/>
<path opacity="0.4" d="M39.4844 63.5394C42.018 63.5394 44.0719 62.6388 44.0719 61.5279C44.0719 60.417 42.018 59.5164 39.4844 59.5164C36.9508 59.5164 34.897 60.417 34.897 61.5279C34.897 62.6388 36.9508 63.5394 39.4844 63.5394Z" fill="url(#paint7_linear_69_622)"/>
<path opacity="0.4" d="M72.2988 61.5279C72.2988 62.6327 70.2453 63.5334 67.7114 63.5334C65.1775 63.5334 63.1179 62.6327 63.1179 61.5279C63.1179 60.4231 65.1775 59.5164 67.7114 59.5164C70.2453 59.5164 72.2988 60.4171 72.2988 61.5279Z" fill="url(#paint8_linear_69_622)"/>
<path d="M57.1377 63.5818C57.1377 64.2362 55.6666 64.7827 53.8533 64.7827C52.0399 64.7827 50.5688 64.2543 50.5688 63.5818C50.5688 62.9093 52.0399 62.3809 53.8533 62.3809C55.6666 62.3809 57.1377 62.9273 57.1377 63.5818Z" fill="#E8AB70"/>
<g opacity="0.1">
<path d="M17.0637 48.2701C17.8863 43.0822 21.8673 18.1876 41.1958 11.9849C41.1958 11.9849 25.488 17.7552 23.3564 42.3677C20.6205 43.5193 18.388 45.6134 17.0637 48.2701Z" fill="white"/>
<path style="mix-blend-mode:overlay" opacity="0.2" d="M17.0637 48.2701C17.8863 43.0822 21.8673 18.1876 41.1958 11.9849C41.1958 11.9849 25.488 17.7552 23.3564 42.3677C20.6205 43.5193 18.388 45.6134 17.0637 48.2701Z" fill="url(#paint9_linear_69_622)"/>
<path d="M17.0637 48.2701C17.8863 43.0822 21.8673 18.1876 41.1958 11.9849C41.1958 11.9849 25.488 17.7552 23.3564 42.3677C20.6205 43.5193 18.388 45.6134 17.0637 48.2701V48.2701Z" stroke="white" stroke-width="1.69" stroke-linecap="round" stroke-linejoin="round"/>
</g>
<path opacity="0.1" d="M66.2821 11.9849C66.2821 11.9849 81.0292 19.9409 83.2088 46.5168C83.2088 46.5168 86.2831 46.0604 87.7842 48.0179C87.7602 48.0179 84.4157 20.9917 66.2821 11.9849Z" fill="white" stroke="white" stroke-width="1.69" stroke-linecap="round" stroke-linejoin="round"/>
<g style="mix-blend-mode:soft-light">
<g style="mix-blend-mode:soft-light">
<path d="M68.8347 49.957C66.3841 49.9957 63.9455 50.3058 61.5632 50.8817C60.8848 50.9949 60.2394 51.2558 59.6729 51.646C59.1064 52.0361 58.6325 52.5459 58.2848 53.1394C57.162 55.271 58.2367 58.0871 58.7591 59.4381L58.8432 59.6543C59.4436 61.1794 61.1669 65.8269 68.0181 66.0611H68.5405C74.2027 66.0611 77.0188 62.6746 77.1449 55.7033C77.1814 55.032 77.0805 54.3604 76.8482 53.7295C76.6159 53.0986 76.257 52.5219 75.7939 52.0346C74.4308 50.6656 72.0891 49.957 68.8347 49.957Z" fill="#E2CBBD"/>
</g>
<g style="mix-blend-mode:soft-light">
<path d="M44.8165 50.4798C42.4046 49.8983 39.9357 49.5862 37.455 49.5491C34.1525 49.5491 31.7807 50.2577 30.3997 51.6627C29.9296 52.1543 29.566 52.7376 29.3315 53.3761C29.097 54.0145 28.9966 54.6945 29.0367 55.3735C29.1568 62.4348 32.0389 65.8694 37.7432 65.8694H38.2716C45.2128 65.6292 46.9901 60.9217 47.5725 59.3785L47.6566 59.1563C48.179 57.7873 49.2779 54.9532 48.137 52.7796C47.7856 52.1766 47.3061 51.6581 46.7323 51.2607C46.1586 50.8633 45.5046 50.5967 44.8165 50.4798Z" fill="#E2CBBD"/>
</g>
</g>
<path d="M45.284 51.0318C50.5079 52.2748 48.2863 57.4386 47.6318 59.1559C46.9773 60.8732 45.23 65.0583 38.8532 65.2805C32.4764 65.5027 30.3208 61.5877 30.2067 55.3611C30.1166 48.7621 40.0601 49.7889 45.284 51.0318ZM77.1679 55.7033C77.0538 61.8519 74.9462 65.7068 68.6415 65.4907C62.3368 65.2745 60.6315 61.1914 59.977 59.4501C59.3225 57.7088 57.1428 52.6651 62.2947 51.4401C67.4466 50.2152 77.2819 49.1945 77.1679 55.7033ZM51.0303 50.3954C41.2309 46.8587 31.0173 48.2758 27.2885 48.9903C26.8711 49.0695 26.4951 49.2938 26.227 49.6234C25.9589 49.953 25.8159 50.3668 25.8234 50.7917V52.4009C25.831 52.6142 25.8855 52.8233 25.983 53.0132C26.0806 53.2032 26.2188 53.3692 26.3879 53.4997C26.6646 53.7526 26.8873 54.059 27.0423 54.4004C28.8797 61.1494 28.6935 66.9137 38.643 67.0818C49.2349 67.262 50.1897 58.0211 51.6608 55.307C51.6608 55.307 53.6722 53.0013 55.8278 55.307L55.9179 55.4271C57.383 58.1412 58.3198 67.3821 68.9357 67.2019C78.8852 67.0338 78.699 61.2695 80.5304 54.5204C80.6887 54.1795 80.9133 53.8733 81.1909 53.6198C81.3596 53.489 81.4976 53.3229 81.5951 53.133C81.6927 52.9432 81.7473 52.7342 81.7553 52.5209V50.9057C81.7628 50.4809 81.6198 50.0671 81.3517 49.7375C81.0836 49.4079 80.7077 49.1836 80.2902 49.1044C76.5614 48.3838 66.3478 46.9668 56.5484 50.5094C54.7214 50.8588 52.8413 50.8199 51.0303 50.3954Z" fill="#433325"/>
<path d="M84.3079 107.186C84.3079 106.934 84.3739 106.676 84.3799 106.43V105.685C84.3806 105.199 84.3505 104.714 84.2899 104.232C84.2238 103.77 84.1397 103.307 84.0557 102.851C83.9716 102.395 83.8215 101.992 83.7074 101.56C83.5876 101.152 83.4453 100.751 83.2811 100.359C82.1872 97.7307 80.6063 95.3329 78.6217 93.2918C77.8909 92.5205 77.1213 91.787 76.3159 91.0941C75.6013 90.4937 74.9529 90.0073 74.4245 89.587L72.7072 88.3861C72.5379 88.2745 72.3614 88.1742 72.1788 88.0859C70.4676 87.1792 68.0237 86.4766 66.5766 87.011C65.1295 87.5454 64.6672 89.2447 64.2169 90.7038C63.8093 92.0915 63.8984 93.5779 64.469 94.907C64.7179 95.5306 65.0713 96.1072 65.5138 96.6122C65.9364 97.1108 66.4551 97.5193 67.039 97.8131L68.2879 98.5217C68.6541 98.7739 69.1226 99.0621 69.6329 99.4163C70.1433 99.7706 70.6957 100.197 71.2301 100.695C72.3904 101.694 73.366 102.889 74.1123 104.226C74.2004 104.376 74.2728 104.535 74.3284 104.7C74.4023 104.851 74.4645 105.008 74.5145 105.169C74.5503 105.317 74.5944 105.463 74.6467 105.607C74.679 105.743 74.7011 105.882 74.7127 106.021L74.7547 106.225C74.7547 106.291 74.7547 106.346 74.7547 106.406C74.7547 106.466 74.7547 106.658 74.7547 106.772C74.7547 106.886 74.7547 106.826 74.7547 106.85L83.6714 110.098C83.8275 109.624 83.9717 109.138 84.1038 108.651C84.2359 108.165 84.2358 107.697 84.3079 107.186Z" fill="url(#paint10_linear_69_622)"/>
<path d="M24.7554 107.186C24.7554 106.934 24.6894 106.676 24.6834 106.43V105.685C24.6827 105.199 24.7128 104.714 24.7734 104.232C24.8395 103.77 24.9236 103.307 25.0076 102.851C25.0917 102.395 25.2418 101.992 25.3559 101.56C25.4757 101.152 25.618 100.751 25.7822 100.359C26.8762 97.7307 28.4571 95.3329 30.4417 93.2918C31.1725 92.5205 31.942 91.787 32.7474 91.0941C33.462 90.4937 34.1105 90.0073 34.6389 89.587L36.3561 88.3861C36.5255 88.2745 36.702 88.1742 36.8845 88.0859C38.5958 87.1792 41.0396 86.4766 42.4867 87.011C43.9338 87.5454 44.3962 89.2447 44.8465 90.7038C45.2548 92.0919 45.1634 93.5793 44.5883 94.907C44.3438 95.5314 43.9922 96.1085 43.5495 96.6122C43.1269 97.1108 42.6082 97.5193 42.0243 97.8131L40.7754 98.5217C40.4092 98.7739 39.9408 99.0621 39.4304 99.4163C38.9201 99.7706 38.3676 100.197 37.8332 100.695C36.6729 101.694 35.6974 102.889 34.9511 104.226C34.863 104.376 34.7905 104.535 34.7349 104.7C34.661 104.851 34.5988 105.008 34.5488 105.169C34.513 105.317 34.469 105.463 34.4167 105.607C34.3844 105.743 34.3623 105.882 34.3507 106.021L34.3086 106.225C34.3086 106.291 34.3086 106.346 34.3086 106.406C34.3086 106.466 34.3086 106.658 34.3086 106.772C34.3086 106.886 34.3086 106.826 34.3086 106.85L25.3919 110.098C25.2358 109.624 25.0917 109.138 24.9596 108.651C24.8275 108.165 24.8275 107.697 24.7554 107.186Z" fill="url(#paint11_linear_69_622)"/>
</g>
<defs>
<linearGradient id="paint0_linear_69_622" x1="36.1455" y1="117.832" x2="36.1455" y2="96.8586" gradientUnits="userSpaceOnUse">
<stop stop-color="#CB7A22"/>
<stop offset="1" stop-color="#E58D23"/>
</linearGradient>
<linearGradient id="paint1_linear_69_622" x1="72.9174" y1="117.832" x2="72.9174" y2="96.8586" gradientUnits="userSpaceOnUse">
<stop stop-color="#CB7A22"/>
<stop offset="1" stop-color="#E58D23"/>
</linearGradient>
<linearGradient id="paint2_linear_69_622" x1="38.4334" y1="28.4129" x2="38.9318" y2="39.2811" gradientUnits="userSpaceOnUse">
<stop stop-color="white"/>
<stop offset="1" stop-color="white" stop-opacity="0"/>
</linearGradient>
<linearGradient id="paint3_linear_69_622" x1="44.1623" y1="29.5958" x2="44.6246" y2="39.6173" gradientUnits="userSpaceOnUse">
<stop stop-color="white"/>
<stop offset="1" stop-color="white" stop-opacity="0"/>
</linearGradient>
<linearGradient id="paint4_linear_69_622" x1="66.156" y1="27.236" x2="66.6844" y2="38.6145" gradientUnits="userSpaceOnUse">
<stop stop-color="white"/>
<stop offset="1" stop-color="white" stop-opacity="0"/>
</linearGradient>
<linearGradient id="paint5_linear_69_622" x1="60.6444" y1="28.3947" x2="61.1127" y2="38.6264" gradientUnits="userSpaceOnUse">
<stop stop-color="white"/>
<stop offset="1" stop-color="white" stop-opacity="0"/>
</linearGradient>
<linearGradient id="paint6_linear_69_622" x1="49.5061" y1="31.3914" x2="49.9385" y2="40.7945" gradientUnits="userSpaceOnUse">
<stop stop-color="white"/>
<stop offset="1" stop-color="white" stop-opacity="0"/>
</linearGradient>
<linearGradient id="paint7_linear_69_622" x1="39.4844" y1="63.5334" x2="39.4844" y2="59.5164" gradientUnits="userSpaceOnUse">
<stop stop-color="#F3984E" stop-opacity="0"/>
<stop offset="1" stop-color="#F3984E"/>
</linearGradient>
<linearGradient id="paint8_linear_69_622" x1="67.7114" y1="63.5334" x2="67.7114" y2="59.5164" gradientUnits="userSpaceOnUse">
<stop stop-color="#F3984E" stop-opacity="0"/>
<stop offset="1" stop-color="#F3984E"/>
</linearGradient>
<linearGradient id="paint9_linear_69_622" x1="29.1147" y1="29.7582" x2="29.6551" y2="41.479" gradientUnits="userSpaceOnUse">
<stop stop-color="white"/>
<stop offset="1" stop-color="white" stop-opacity="0"/>
</linearGradient>
<linearGradient id="paint10_linear_69_622" x1="74.1603" y1="117.988" x2="74.1603" y2="96.5942" gradientUnits="userSpaceOnUse">
<stop stop-color="#CB7A22"/>
<stop offset="1" stop-color="#E58D23"/>
</linearGradient>
<linearGradient id="paint11_linear_69_622" x1="34.903" y1="117.988" x2="34.903" y2="96.5942" gradientUnits="userSpaceOnUse">
<stop stop-color="#CB7A22"/>
<stop offset="1" stop-color="#E58D23"/>
</linearGradient>
</defs>
</svg>
